<?xml version="1.0" encoding="utf-8" standalone="no"?>
<!DOCTYPE svg PUBLIC "-//W3C//DTD SVG 1.1//EN"
  "http://www.w3.org/Graphics/SVG/1.1/DTD/svg11.dtd">
<svg xmlns:xlink="http://www.w3.org/1999/xlink" width="460.8pt" height="345.6pt" viewBox="0 0 460.8 345.6" xmlns="http://www.w3.org/2000/svg" version="1.1">
 <metadata>
  <rdf:RDF xmlns:dc="http://purl.org/dc/elements/1.1/" xmlns:cc="http://creativecommons.org/ns#" xmlns:rdf="http://www.w3.org/1999/02/22-rdf-syntax-ns#">
   <cc:Work>
    <dc:type rdf:resource="http://purl.org/dc/dcmitype/StillImage"/>
    <dc:date>2023-04-26T00:11:29.372472</dc:date>
    <dc:format>image/svg+xml</dc:format>
    <dc:creator>
     <cc:Agent>
      <dc:title>Matplotlib v3.6.2, https://matplotlib.org/</dc:title>
     </cc:Agent>
    </dc:creator>
   </cc:Work>
  </rdf:RDF>
 </metadata>
 <defs>
  <style type="text/css">*{stroke-linejoin: round; stroke-linecap: butt}</style>
 </defs>
 <g id="figure_1">
  <g id="patch_1">
   <path d="M 0 345.6 
L 460.8 345.6 
L 460.8 0 
L 0 0 
z
" style="fill: #ffffff"/>
  </g>
  <g id="axes_1">
   <g id="patch_2">
    <path d="M 57.6 307.584 
L 414.72 307.584 
L 414.72 41.472 
L 57.6 41.472 
z
" style="fill: #eaeaf2"/>
   </g>
   <g id="matplotlib.axis_1">
    <g id="xtick_1">
     <g id="line2d_1">
      <path d="M 57.6 307.584 
L 57.6 41.472 
" clip-path="url(#p2e275cac0e)" style="fill: none; stroke: #ffffff; stroke-linecap: round"/>
     </g>
     <g id="line2d_2">
      <defs>
       <path id="m44326ba09b" d="M 0 0 
L 0 3.5 
" style="stroke: #262626; stroke-width: 1.25"/>
      </defs>
      <g>
       <use xlink:href="#m44326ba09b" x="57.6" y="307.584" style="fill: #262626; stroke: #262626; stroke-width: 1.25"/>
      </g>
     </g>
     <g id="text_1">
      <!-- 0.0 -->
      <g style="fill: #262626" transform="translate(48.853281 322.942281) scale(0.11 -0.11)">
       <defs>
        <path id="DejaVuSans-30" d="M 2034 4250 
Q 1547 4250 1301 3770 
Q 1056 3291 1056 2328 
Q 1056 1369 1301 889 
Q 1547 409 2034 409 
Q 2525 409 2770 889 
Q 3016 1369 3016 2328 
Q 3016 3291 2770 3770 
Q 2525 4250 2034 4250 
z
M 2034 4750 
Q 2819 4750 3233 4129 
Q 3647 3509 3647 2328 
Q 3647 1150 3233 529 
Q 2819 -91 2034 -91 
Q 1250 -91 836 529 
Q 422 1150 422 2328 
Q 422 3509 836 4129 
Q 1250 4750 2034 4750 
z
" transform="scale(0.015625)"/>
        <path id="DejaVuSans-2e" d="M 684 794 
L 1344 794 
L 1344 0 
L 684 0 
L 684 794 
z
" transform="scale(0.015625)"/>
       </defs>
       <use xlink:href="#DejaVuSans-30"/>
       <use xlink:href="#DejaVuSans-2e" x="63.623047"/>
       <use xlink:href="#DejaVuSans-30" x="95.410156"/>
      </g>
     </g>
    </g>
    <g id="xtick_2">
     <g id="line2d_3">
      <path d="M 129.024 307.584 
L 129.024 41.472 
" clip-path="url(#p2e275cac0e)" style="fill: none; stroke: #ffffff; stroke-linecap: round"/>
     </g>
     <g id="line2d_4">
      <g>
       <use xlink:href="#m44326ba09b" x="129.024" y="307.584" style="fill: #262626; stroke: #262626; stroke-width: 1.25"/>
      </g>
     </g>
     <g id="text_2">
      <!-- 0.2 -->
      <g style="fill: #262626" transform="translate(120.277281 322.942281) scale(0.11 -0.11)">
       <defs>
        <path id="DejaVuSans-32" d="M 1228 531 
L 3431 531 
L 3431 0 
L 469 0 
L 469 531 
Q 828 903 1448 1529 
Q 2069 2156 2228 2338 
Q 2531 2678 2651 2914 
Q 2772 3150 2772 3378 
Q 2772 3750 2511 3984 
Q 2250 4219 1831 4219 
Q 1534 4219 1204 4116 
Q 875 4013 500 3803 
L 500 4441 
Q 881 4594 1212 4672 
Q 1544 4750 1819 4750 
Q 2544 4750 2975 4387 
Q 3406 4025 3406 3419 
Q 3406 3131 3298 2873 
Q 3191 2616 2906 2266 
Q 2828 2175 2409 1742 
Q 1991 1309 1228 531 
z
" transform="scale(0.015625)"/>
       </defs>
       <use xlink:href="#DejaVuSans-30"/>
       <use xlink:href="#DejaVuSans-2e" x="63.623047"/>
       <use xlink:href="#DejaVuSans-32" x="95.410156"/>
      </g>
     </g>
    </g>
    <g id="xtick_3">
     <g id="line2d_5">
      <path d="M 200.448 307.584 
L 200.448 41.472 
" clip-path="url(#p2e275cac0e)" style="fill: none; stroke: #ffffff; stroke-linecap: round"/>
     </g>
     <g id="line2d_6">
      <g>
       <use xlink:href="#m44326ba09b" x="200.448" y="307.584" style="fill: #262626; stroke: #262626; stroke-width: 1.25"/>
      </g>
     </g>
     <g id="text_3">
      <!-- 0.4 -->
      <g style="fill: #262626" transform="translate(191.701281 322.942281) scale(0.11 -0.11)">
       <defs>
        <path id="DejaVuSans-34" d="M 2419 4116 
L 825 1625 
L 2419 1625 
L 2419 4116 
z
M 2253 4666 
L 3047 4666 
L 3047 1625 
L 3713 1625 
L 3713 1100 
L 3047 1100 
L 3047 0 
L 2419 0 
L 2419 1100 
L 313 1100 
L 313 1709 
L 2253 4666 
z
" transform="scale(0.015625)"/>
       </defs>
       <use xlink:href="#DejaVuSans-30"/>
       <use xlink:href="#DejaVuSans-2e" x="63.623047"/>
       <use xlink:href="#DejaVuSans-34" x="95.410156"/>
      </g>
     </g>
    </g>
    <g id="xtick_4">
     <g id="line2d_7">
      <path d="M 271.872 307.584 
L 271.872 41.472 
" clip-path="url(#p2e275cac0e)" style="fill: none; stroke: #ffffff; stroke-linecap: round"/>
     </g>
     <g id="line2d_8">
      <g>
       <use xlink:href="#m44326ba09b" x="271.872" y="307.584" style="fill: #262626; stroke: #262626; stroke-width: 1.25"/>
      </g>
     </g>
     <g id="text_4">
      <!-- 0.6 -->
      <g style="fill: #262626" transform="translate(263.125281 322.942281) scale(0.11 -0.11)">
       <defs>
        <path id="DejaVuSans-36" d="M 2113 2584 
Q 1688 2584 1439 2293 
Q 1191 2003 1191 1497 
Q 1191 994 1439 701 
Q 1688 409 2113 409 
Q 2538 409 2786 701 
Q 3034 994 3034 1497 
Q 3034 2003 2786 2293 
Q 2538 2584 2113 2584 
z
M 3366 4563 
L 3366 3988 
Q 3128 4100 2886 4159 
Q 2644 4219 2406 4219 
Q 1781 4219 1451 3797 
Q 1122 3375 1075 2522 
Q 1259 2794 1537 2939 
Q 1816 3084 2150 3084 
Q 2853 3084 3261 2657 
Q 3669 2231 3669 1497 
Q 3669 778 3244 343 
Q 2819 -91 2113 -91 
Q 1303 -91 875 529 
Q 447 1150 447 2328 
Q 447 3434 972 4092 
Q 1497 4750 2381 4750 
Q 2619 4750 2861 4703 
Q 3103 4656 3366 4563 
z
" transform="scale(0.015625)"/>
       </defs>
       <use xlink:href="#DejaVuSans-30"/>
       <use xlink:href="#DejaVuSans-2e" x="63.623047"/>
       <use xlink:href="#DejaVuSans-36" x="95.410156"/>
      </g>
     </g>
    </g>
    <g id="xtick_5">
     <g id="line2d_9">
      <path d="M 343.296 307.584 
L 343.296 41.472 
" clip-path="url(#p2e275cac0e)" style="fill: none; stroke: #ffffff; stroke-linecap: round"/>
     </g>
     <g id="line2d_10">
      <g>
       <use xlink:href="#m44326ba09b" x="343.296" y="307.584" style="fill: #262626; stroke: #262626; stroke-width: 1.25"/>
      </g>
     </g>
     <g id="text_5">
      <!-- 0.8 -->
      <g style="fill: #262626" transform="translate(334.549281 322.942281) scale(0.11 -0.11)">
       <defs>
        <path id="DejaVuSans-38" d="M 2034 2216 
Q 1584 2216 1326 1975 
Q 1069 1734 1069 1313 
Q 1069 891 1326 650 
Q 1584 409 2034 409 
Q 2484 409 2743 651 
Q 3003 894 3003 1313 
Q 3003 1734 2745 1975 
Q 2488 2216 2034 2216 
z
M 1403 2484 
Q 997 2584 770 2862 
Q 544 3141 544 3541 
Q 544 4100 942 4425 
Q 1341 4750 2034 4750 
Q 2731 4750 3128 4425 
Q 3525 4100 3525 3541 
Q 3525 3141 3298 2862 
Q 3072 2584 2669 2484 
Q 3125 2378 3379 2068 
Q 3634 1759 3634 1313 
Q 3634 634 3220 271 
Q 2806 -91 2034 -91 
Q 1263 -91 848 271 
Q 434 634 434 1313 
Q 434 1759 690 2068 
Q 947 2378 1403 2484 
z
M 1172 3481 
Q 1172 3119 1398 2916 
Q 1625 2713 2034 2713 
Q 2441 2713 2670 2916 
Q 2900 3119 2900 3481 
Q 2900 3844 2670 4047 
Q 2441 4250 2034 4250 
Q 1625 4250 1398 4047 
Q 1172 3844 1172 3481 
z
" transform="scale(0.015625)"/>
       </defs>
       <use xlink:href="#DejaVuSans-30"/>
       <use xlink:href="#DejaVuSans-2e" x="63.623047"/>
       <use xlink:href="#DejaVuSans-38" x="95.410156"/>
      </g>
     </g>
    </g>
    <g id="xtick_6">
     <g id="line2d_11">
      <path d="M 414.72 307.584 
L 414.72 41.472 
" clip-path="url(#p2e275cac0e)" style="fill: none; stroke: #ffffff; stroke-linecap: round"/>
     </g>
     <g id="line2d_12">
      <g>
       <use xlink:href="#m44326ba09b" x="414.72" y="307.584" style="fill: #262626; stroke: #262626; stroke-width: 1.25"/>
      </g>
     </g>
     <g id="text_6">
      <!-- 1.0 -->
      <g style="fill: #262626" transform="translate(405.973281 322.942281) scale(0.11 -0.11)">
       <defs>
        <path id="DejaVuSans-31" d="M 794 531 
L 1825 531 
L 1825 4091 
L 703 3866 
L 703 4441 
L 1819 4666 
L 2450 4666 
L 2450 531 
L 3481 531 
L 3481 0 
L 794 0 
L 794 531 
z
" transform="scale(0.015625)"/>
       </defs>
       <use xlink:href="#DejaVuSans-31"/>
       <use xlink:href="#DejaVuSans-2e" x="63.623047"/>
       <use xlink:href="#DejaVuSans-30" x="95.410156"/>
      </g>
     </g>
    </g>
   </g>
   <g id="matplotlib.axis_2">
    <g id="ytick_1">
     <g id="line2d_13">
      <path d="M 57.6 307.584 
L 414.72 307.584 
" clip-path="url(#p2e275cac0e)" style="fill: none; stroke: #ffffff; stroke-linecap: round"/>
     </g>
    </g>
    <g id="ytick_2">
     <g id="line2d_14">
      <path d="M 57.6 250.372776 
L 414.72 250.372776 
" clip-path="url(#p2e275cac0e)" style="fill: none; stroke: #ffffff; stroke-linecap: round"/>
     </g>
    </g>
    <g id="ytick_3">
     <g id="line2d_15">
      <path d="M 57.6 193.161553 
L 414.72 193.161553 
" clip-path="url(#p2e275cac0e)" style="fill: none; stroke: #ffffff; stroke-linecap: round"/>
     </g>
    </g>
    <g id="ytick_4">
     <g id="line2d_16">
      <path d="M 57.6 135.950329 
L 414.72 135.950329 
" clip-path="url(#p2e275cac0e)" style="fill: none; stroke: #ffffff; stroke-linecap: round"/>
     </g>
    </g>
    <g id="ytick_5">
     <g id="line2d_17">
      <path d="M 57.6 78.739105 
L 414.72 78.739105 
" clip-path="url(#p2e275cac0e)" style="fill: none; stroke: #ffffff; stroke-linecap: round"/>
     </g>
    </g>
   </g>
   <g id="patch_3">
    <path d="M 411.273141 307.584 
L 411.342078 307.584 
L 411.342078 307.578279 
L 411.273141 307.578279 
z
" clip-path="url(#p2e275cac0e)" style="fill: #34ccff; stroke: #ffffff; stroke-linejoin: miter"/>
   </g>
   <g id="patch_4">
    <path d="M 411.342078 307.584 
L 411.411015 307.584 
L 411.411015 307.584 
L 411.342078 307.584 
z
" clip-path="url(#p2e275cac0e)" style="fill: #34ccff; stroke: #ffffff; stroke-linejoin: miter"/>
   </g>
   <g id="patch_5">
    <path d="M 411.411015 307.584 
L 411.479952 307.584 
L 411.479952 307.584 
L 411.411015 307.584 
z
" clip-path="url(#p2e275cac0e)" style="fill: #34ccff; stroke: #ffffff; stroke-linejoin: miter"/>
   </g>
   <g id="patch_6">
    <path d="M 411.479952 307.584 
L 411.548889 307.584 
L 411.548889 307.584 
L 411.479952 307.584 
z
" clip-path="url(#p2e275cac0e)" style="fill: #34ccff; stroke: #ffffff; stroke-linejoin: miter"/>
   </g>
   <g id="patch_7">
    <path d="M 411.548889 307.584 
L 411.617827 307.584 
L 411.617827 307.584 
L 411.548889 307.584 
z
" clip-path="url(#p2e275cac0e)" style="fill: #34ccff; stroke: #ffffff; stroke-linejoin: miter"/>
   </g>
   <g id="patch_8">
    <path d="M 411.617827 307.584 
L 411.686764 307.584 
L 411.686764 307.584 
L 411.617827 307.584 
z
" clip-path="url(#p2e275cac0e)" style="fill: #34ccff; stroke: #ffffff; stroke-linejoin: miter"/>
   </g>
   <g id="patch_9">
    <path d="M 411.686764 307.584 
L 411.755701 307.584 
L 411.755701 307.584 
L 411.686764 307.584 
z
" clip-path="url(#p2e275cac0e)" style="fill: #34ccff; stroke: #ffffff; stroke-linejoin: miter"/>
   </g>
   <g id="patch_10">
    <path d="M 411.755701 307.584 
L 411.824638 307.584 
L 411.824638 307.584 
L 411.755701 307.584 
z
" clip-path="url(#p2e275cac0e)" style="fill: #34ccff; stroke: #ffffff; stroke-linejoin: miter"/>
   </g>
   <g id="patch_11">
    <path d="M 411.824638 307.584 
L 411.893575 307.584 
L 411.893575 307.572558 
L 411.824638 307.572558 
z
" clip-path="url(#p2e275cac0e)" style="fill: #34ccff; stroke: #ffffff; stroke-linejoin: miter"/>
   </g>
   <g id="patch_12">
    <path d="M 411.893575 307.584 
L 411.962513 307.584 
L 411.962513 307.578279 
L 411.893575 307.578279 
z
" clip-path="url(#p2e275cac0e)" style="fill: #34ccff; stroke: #ffffff; stroke-linejoin: miter"/>
   </g>
   <g id="patch_13">
    <path d="M 411.962513 307.584 
L 412.03145 307.584 
L 412.03145 307.584 
L 411.962513 307.584 
z
" clip-path="url(#p2e275cac0e)" style="fill: #34ccff; stroke: #ffffff; stroke-linejoin: miter"/>
   </g>
   <g id="patch_14">
    <path d="M 412.03145 307.584 
L 412.100387 307.584 
L 412.100387 307.584 
L 412.03145 307.584 
z
" clip-path="url(#p2e275cac0e)" style="fill: #34ccff; stroke: #ffffff; stroke-linejoin: miter"/>
   </g>
   <g id="patch_15">
    <path d="M 412.100387 307.584 
L 412.169324 307.584 
L 412.169324 307.578279 
L 412.100387 307.578279 
z
" clip-path="url(#p2e275cac0e)" style="fill: #34ccff; stroke: #ffffff; stroke-linejoin: miter"/>
   </g>
   <g id="patch_16">
    <path d="M 412.169324 307.584 
L 412.238261 307.584 
L 412.238261 307.584 
L 412.169324 307.584 
z
" clip-path="url(#p2e275cac0e)" style="fill: #34ccff; stroke: #ffffff; stroke-linejoin: miter"/>
   </g>
   <g id="patch_17">
    <path d="M 412.238261 307.584 
L 412.307198 307.584 
L 412.307198 307.584 
L 412.238261 307.584 
z
" clip-path="url(#p2e275cac0e)" style="fill: #34ccff; stroke: #ffffff; stroke-linejoin: miter"/>
   </g>
   <g id="patch_18">
    <path d="M 412.307198 307.584 
L 412.376136 307.584 
L 412.376136 307.584 
L 412.307198 307.584 
z
" clip-path="url(#p2e275cac0e)" style="fill: #34ccff; stroke: #ffffff; stroke-linejoin: miter"/>
   </g>
   <g id="patch_19">
    <path d="M 412.376136 307.584 
L 412.445073 307.584 
L 412.445073 307.572558 
L 412.376136 307.572558 
z
" clip-path="url(#p2e275cac0e)" style="fill: #34ccff; stroke: #ffffff; stroke-linejoin: miter"/>
   </g>
   <g id="patch_20">
    <path d="M 412.445073 307.584 
L 412.51401 307.584 
L 412.51401 307.572558 
L 412.445073 307.572558 
z
" clip-path="url(#p2e275cac0e)" style="fill: #34ccff; stroke: #ffffff; stroke-linejoin: miter"/>
   </g>
   <g id="patch_21">
    <path d="M 412.51401 307.584 
L 412.582947 307.584 
L 412.582947 307.584 
L 412.51401 307.584 
z
" clip-path="url(#p2e275cac0e)" style="fill: #34ccff; stroke: #ffffff; stroke-linejoin: miter"/>
   </g>
   <g id="patch_22">
    <path d="M 412.582947 307.584 
L 412.651884 307.584 
L 412.651884 307.572558 
L 412.582947 307.572558 
z
" clip-path="url(#p2e275cac0e)" style="fill: #34ccff; stroke: #ffffff; stroke-linejoin: miter"/>
   </g>
   <g id="patch_23">
    <path d="M 412.651884 307.584 
L 412.720822 307.584 
L 412.720822 307.561116 
L 412.651884 307.561116 
z
" clip-path="url(#p2e275cac0e)" style="fill: #34ccff; stroke: #ffffff; stroke-linejoin: miter"/>
   </g>
   <g id="patch_24">
    <path d="M 412.720822 307.584 
L 412.789759 307.584 
L 412.789759 307.572558 
L 412.720822 307.572558 
z
" clip-path="url(#p2e275cac0e)" style="fill: #34ccff; stroke: #ffffff; stroke-linejoin: miter"/>
   </g>
   <g id="patch_25">
    <path d="M 412.789759 307.584 
L 412.858696 307.584 
L 412.858696 307.578279 
L 412.789759 307.578279 
z
" clip-path="url(#p2e275cac0e)" style="fill: #34ccff; stroke: #ffffff; stroke-linejoin: miter"/>
   </g>
   <g id="patch_26">
    <path d="M 412.858696 307.584 
L 412.927633 307.584 
L 412.927633 307.578279 
L 412.858696 307.578279 
z
" clip-path="url(#p2e275cac0e)" style="fill: #34ccff; stroke: #ffffff; stroke-linejoin: miter"/>
   </g>
   <g id="patch_27">
    <path d="M 412.927633 307.584 
L 412.99657 307.584 
L 412.99657 307.584 
L 412.927633 307.584 
z
" clip-path="url(#p2e275cac0e)" style="fill: #34ccff; stroke: #ffffff; stroke-linejoin: miter"/>
   </g>
   <g id="patch_28">
    <path d="M 412.99657 307.584 
L 413.065508 307.584 
L 413.065508 307.566837 
L 412.99657 307.566837 
z
" clip-path="url(#p2e275cac0e)" style="fill: #34ccff; stroke: #ffffff; stroke-linejoin: miter"/>
   </g>
   <g id="patch_29">
    <path d="M 413.065508 307.584 
L 413.134445 307.584 
L 413.134445 307.555394 
L 413.065508 307.555394 
z
" clip-path="url(#p2e275cac0e)" style="fill: #34ccff; stroke: #ffffff; stroke-linejoin: miter"/>
   </g>
   <g id="patch_30">
    <path d="M 413.134445 307.584 
L 413.203382 307.584 
L 413.203382 307.572558 
L 413.134445 307.572558 
z
" clip-path="url(#p2e275cac0e)" style="fill: #34ccff; stroke: #ffffff; stroke-linejoin: miter"/>
   </g>
   <g id="patch_31">
    <path d="M 413.203382 307.584 
L 413.272319 307.584 
L 413.272319 307.549673 
L 413.203382 307.549673 
z
" clip-path="url(#p2e275cac0e)" style="fill: #34ccff; stroke: #ffffff; stroke-linejoin: miter"/>
   </g>
   <g id="patch_32">
    <path d="M 413.272319 307.584 
L 413.341256 307.584 
L 413.341256 307.555394 
L 413.272319 307.555394 
z
" clip-path="url(#p2e275cac0e)" style="fill: #34ccff; stroke: #ffffff; stroke-linejoin: miter"/>
   </g>
   <g id="patch_33">
    <path d="M 413.341256 307.584 
L 413.410193 307.584 
L 413.410193 307.555394 
L 413.341256 307.555394 
z
" clip-path="url(#p2e275cac0e)" style="fill: #34ccff; stroke: #ffffff; stroke-linejoin: miter"/>
   </g>
   <g id="patch_34">
    <path d="M 413.410193 307.584 
L 413.479131 307.584 
L 413.479131 307.561116 
L 413.410193 307.561116 
z
" clip-path="url(#p2e275cac0e)" style="fill: #34ccff; stroke: #ffffff; stroke-linejoin: miter"/>
   </g>
   <g id="patch_35">
    <path d="M 413.479131 307.584 
L 413.548068 307.584 
L 413.548068 307.515347 
L 413.479131 307.515347 
z
" clip-path="url(#p2e275cac0e)" style="fill: #34ccff; stroke: #ffffff; stroke-linejoin: miter"/>
   </g>
   <g id="patch_36">
    <path d="M 413.548068 307.584 
L 413.617005 307.584 
L 413.617005 307.521068 
L 413.548068 307.521068 
z
" clip-path="url(#p2e275cac0e)" style="fill: #34ccff; stroke: #ffffff; stroke-linejoin: miter"/>
   </g>
   <g id="patch_37">
    <path d="M 413.617005 307.584 
L 413.685942 307.584 
L 413.685942 307.503904 
L 413.617005 307.503904 
z
" clip-path="url(#p2e275cac0e)" style="fill: #34ccff; stroke: #ffffff; stroke-linejoin: miter"/>
   </g>
   <g id="patch_38">
    <path d="M 413.685942 307.584 
L 413.754879 307.584 
L 413.754879 307.486741 
L 413.685942 307.486741 
z
" clip-path="url(#p2e275cac0e)" style="fill: #34ccff; stroke: #ffffff; stroke-linejoin: miter"/>
   </g>
   <g id="patch_39">
    <path d="M 413.754879 307.584 
L 413.823817 307.584 
L 413.823817 307.423809 
L 413.754879 307.423809 
z
" clip-path="url(#p2e275cac0e)" style="fill: #34ccff; stroke: #ffffff; stroke-linejoin: miter"/>
   </g>
   <g id="patch_40">
    <path d="M 413.823817 307.584 
L 413.892754 307.584 
L 413.892754 307.440972 
L 413.823817 307.440972 
z
" clip-path="url(#p2e275cac0e)" style="fill: #34ccff; stroke: #ffffff; stroke-linejoin: miter"/>
   </g>
   <g id="patch_41">
    <path d="M 413.892754 307.584 
L 413.961691 307.584 
L 413.961691 307.383761 
L 413.892754 307.383761 
z
" clip-path="url(#p2e275cac0e)" style="fill: #34ccff; stroke: #ffffff; stroke-linejoin: miter"/>
   </g>
   <g id="patch_42">
    <path d="M 413.961691 307.584 
L 414.030628 307.584 
L 414.030628 307.257896 
L 413.961691 307.257896 
z
" clip-path="url(#p2e275cac0e)" style="fill: #34ccff; stroke: #ffffff; stroke-linejoin: miter"/>
   </g>
   <g id="patch_43">
    <path d="M 414.030628 307.584 
L 414.099565 307.584 
L 414.099565 307.22929 
L 414.030628 307.22929 
z
" clip-path="url(#p2e275cac0e)" style="fill: #34ccff; stroke: #ffffff; stroke-linejoin: miter"/>
   </g>
   <g id="patch_44">
    <path d="M 414.099565 307.584 
L 414.168503 307.584 
L 414.168503 307.172079 
L 414.099565 307.172079 
z
" clip-path="url(#p2e275cac0e)" style="fill: #34ccff; stroke: #ffffff; stroke-linejoin: miter"/>
   </g>
   <g id="patch_45">
    <path d="M 414.168503 307.584 
L 414.23744 307.584 
L 414.23744 306.931792 
L 414.168503 306.931792 
z
" clip-path="url(#p2e275cac0e)" style="fill: #34ccff; stroke: #ffffff; stroke-linejoin: miter"/>
   </g>
   <g id="patch_46">
    <path d="M 414.23744 307.584 
L 414.306377 307.584 
L 414.306377 306.571361 
L 414.23744 306.571361 
z
" clip-path="url(#p2e275cac0e)" style="fill: #34ccff; stroke: #ffffff; stroke-linejoin: miter"/>
   </g>
   <g id="patch_47">
    <path d="M 414.306377 307.584 
L 414.375314 307.584 
L 414.375314 306.325353 
L 414.306377 306.325353 
z
" clip-path="url(#p2e275cac0e)" style="fill: #34ccff; stroke: #ffffff; stroke-linejoin: miter"/>
   </g>
   <g id="patch_48">
    <path d="M 414.375314 307.584 
L 414.444251 307.584 
L 414.444251 305.787568 
L 414.375314 305.787568 
z
" clip-path="url(#p2e275cac0e)" style="fill: #34ccff; stroke: #ffffff; stroke-linejoin: miter"/>
   </g>
   <g id="patch_49">
    <path d="M 414.444251 307.584 
L 414.513188 307.584 
L 414.513188 304.019741 
L 414.444251 304.019741 
z
" clip-path="url(#p2e275cac0e)" style="fill: #34ccff; stroke: #ffffff; stroke-linejoin: miter"/>
   </g>
   <g id="patch_50">
    <path d="M 414.513188 307.584 
L 414.582126 307.584 
L 414.582126 301.033315 
L 414.513188 301.033315 
z
" clip-path="url(#p2e275cac0e)" style="fill: #34ccff; stroke: #ffffff; stroke-linejoin: miter"/>
   </g>
   <g id="patch_51">
    <path d="M 414.582126 307.584 
L 414.651063 307.584 
L 414.651063 291.98822 
L 414.582126 291.98822 
z
" clip-path="url(#p2e275cac0e)" style="fill: #34ccff; stroke: #ffffff; stroke-linejoin: miter"/>
   </g>
   <g id="patch_52">
    <path d="M 414.651063 307.584 
L 414.72 307.584 
L 414.72 54.144 
L 414.651063 54.144 
z
" clip-path="url(#p2e275cac0e)" style="fill: #34ccff; stroke: #ffffff; stroke-linejoin: miter"/>
   </g>
   <g id="line2d_18">
    <path d="M 236.16 307.584 
L 236.16 41.472 
" clip-path="url(#p2e275cac0e)" style="fill: none; stroke: #ffad2f; stroke-width: 2; stroke-linecap: round"/>
   </g>
   <g id="patch_53">
    <path d="M 57.6 307.584 
L 57.6 41.472 
" style="fill: none; stroke: #ffffff; stroke-width: 1.25; stroke-linejoin: miter; stroke-linecap: square"/>
   </g>
   <g id="patch_54">
    <path d="M 414.72 307.584 
L 414.72 41.472 
" style="fill: none; stroke: #ffffff; stroke-width: 1.25; stroke-linejoin: miter; stroke-linecap: square"/>
   </g>
   <g id="patch_55">
    <path d="M 57.6 307.584 
L 414.72 307.584 
" style="fill: none; stroke: #ffffff; stroke-width: 1.25; stroke-linejoin: miter; stroke-linecap: square"/>
   </g>
   <g id="patch_56">
    <path d="M 57.6 41.472 
L 414.72 41.472 
" style="fill: none; stroke: #ffffff; stroke-width: 1.25; stroke-linejoin: miter; stroke-linecap: square"/>
   </g>
   <g id="text_7">
    <!--  -->
    <g style="fill: #262626" transform="translate(57.6 316.702125) scale(0.12 -0.12)"/>
    <!--  -->
    <g style="fill: #262626" transform="translate(57.6 330.1395) scale(0.12 -0.12)"/>
    <!-- p(IAC_(0, 1)) = 0.000 -->
    <g style="fill: #262626" transform="translate(57.6 343.576875) scale(0.12 -0.12)">
     <defs>
      <path id="DejaVuSans-70" d="M 1159 525 
L 1159 -1331 
L 581 -1331 
L 581 3500 
L 1159 3500 
L 1159 2969 
Q 1341 3281 1617 3432 
Q 1894 3584 2278 3584 
Q 2916 3584 3314 3078 
Q 3713 2572 3713 1747 
Q 3713 922 3314 415 
Q 2916 -91 2278 -91 
Q 1894 -91 1617 61 
Q 1341 213 1159 525 
z
M 3116 1747 
Q 3116 2381 2855 2742 
Q 2594 3103 2138 3103 
Q 1681 3103 1420 2742 
Q 1159 2381 1159 1747 
Q 1159 1113 1420 752 
Q 1681 391 2138 391 
Q 2594 391 2855 752 
Q 3116 1113 3116 1747 
z
" transform="scale(0.015625)"/>
      <path id="DejaVuSans-28" d="M 1984 4856 
Q 1566 4138 1362 3434 
Q 1159 2731 1159 2009 
Q 1159 1288 1364 580 
Q 1569 -128 1984 -844 
L 1484 -844 
Q 1016 -109 783 600 
Q 550 1309 550 2009 
Q 550 2706 781 3412 
Q 1013 4119 1484 4856 
L 1984 4856 
z
" transform="scale(0.015625)"/>
      <path id="DejaVuSans-49" d="M 628 4666 
L 1259 4666 
L 1259 0 
L 628 0 
L 628 4666 
z
" transform="scale(0.015625)"/>
      <path id="DejaVuSans-41" d="M 2188 4044 
L 1331 1722 
L 3047 1722 
L 2188 4044 
z
M 1831 4666 
L 2547 4666 
L 4325 0 
L 3669 0 
L 3244 1197 
L 1141 1197 
L 716 0 
L 50 0 
L 1831 4666 
z
" transform="scale(0.015625)"/>
      <path id="DejaVuSans-43" d="M 4122 4306 
L 4122 3641 
Q 3803 3938 3442 4084 
Q 3081 4231 2675 4231 
Q 1875 4231 1450 3742 
Q 1025 3253 1025 2328 
Q 1025 1406 1450 917 
Q 1875 428 2675 428 
Q 3081 428 3442 575 
Q 3803 722 4122 1019 
L 4122 359 
Q 3791 134 3420 21 
Q 3050 -91 2638 -91 
Q 1578 -91 968 557 
Q 359 1206 359 2328 
Q 359 3453 968 4101 
Q 1578 4750 2638 4750 
Q 3056 4750 3426 4639 
Q 3797 4528 4122 4306 
z
" transform="scale(0.015625)"/>
      <path id="DejaVuSans-5f" d="M 3263 -1063 
L 3263 -1509 
L -63 -1509 
L -63 -1063 
L 3263 -1063 
z
" transform="scale(0.015625)"/>
      <path id="DejaVuSans-2c" d="M 750 794 
L 1409 794 
L 1409 256 
L 897 -744 
L 494 -744 
L 750 256 
L 750 794 
z
" transform="scale(0.015625)"/>
      <path id="DejaVuSans-20" transform="scale(0.015625)"/>
      <path id="DejaVuSans-29" d="M 513 4856 
L 1013 4856 
Q 1481 4119 1714 3412 
Q 1947 2706 1947 2009 
Q 1947 1309 1714 600 
Q 1481 -109 1013 -844 
L 513 -844 
Q 928 -128 1133 580 
Q 1338 1288 1338 2009 
Q 1338 2731 1133 3434 
Q 928 4138 513 4856 
z
" transform="scale(0.015625)"/>
      <path id="DejaVuSans-3d" d="M 678 2906 
L 4684 2906 
L 4684 2381 
L 678 2381 
L 678 2906 
z
M 678 1631 
L 4684 1631 
L 4684 1100 
L 678 1100 
L 678 1631 
z
" transform="scale(0.015625)"/>
     </defs>
     <use xlink:href="#DejaVuSans-70"/>
     <use xlink:href="#DejaVuSans-28" x="63.476562"/>
     <use xlink:href="#DejaVuSans-49" x="102.490234"/>
     <use xlink:href="#DejaVuSans-41" x="131.982422"/>
     <use xlink:href="#DejaVuSans-43" x="198.640625"/>
     <use xlink:href="#DejaVuSans-5f" x="268.464844"/>
     <use xlink:href="#DejaVuSans-28" x="318.464844"/>
     <use xlink:href="#DejaVuSans-30" x="357.478516"/>
     <use xlink:href="#DejaVuSans-2c" x="421.101562"/>
     <use xlink:href="#DejaVuSans-20" x="452.888672"/>
     <use xlink:href="#DejaVuSans-31" x="484.675781"/>
     <use xlink:href="#DejaVuSans-29" x="548.298828"/>
     <use xlink:href="#DejaVuSans-29" x="587.3125"/>
     <use xlink:href="#DejaVuSans-20" x="626.326172"/>
     <use xlink:href="#DejaVuSans-3d" x="658.113281"/>
     <use xlink:href="#DejaVuSans-20" x="741.902344"/>
     <use xlink:href="#DejaVuSans-30" x="773.689453"/>
     <use xlink:href="#DejaVuSans-2e" x="837.3125"/>
     <use xlink:href="#DejaVuSans-30" x="869.099609"/>
     <use xlink:href="#DejaVuSans-30" x="932.722656"/>
     <use xlink:href="#DejaVuSans-30" x="996.345703"/>
    </g>
   </g>
   <g id="text_8">
    <!--  -->
    <g style="fill: #262626" transform="translate(414.72 316.702125) scale(0.12 -0.12)"/>
    <!--  -->
    <g style="fill: #262626" transform="translate(414.72 330.1395) scale(0.12 -0.12)"/>
    <!-- p(IAC_(0.2, 0.1)) = 1.000 -->
    <g style="fill: #262626" transform="translate(264.624375 343.576875) scale(0.12 -0.12)">
     <use xlink:href="#DejaVuSans-70"/>
     <use xlink:href="#DejaVuSans-28" x="63.476562"/>
     <use xlink:href="#DejaVuSans-49" x="102.490234"/>
     <use xlink:href="#DejaVuSans-41" x="131.982422"/>
     <use xlink:href="#DejaVuSans-43" x="198.640625"/>
     <use xlink:href="#DejaVuSans-5f" x="268.464844"/>
     <use xlink:href="#DejaVuSans-28" x="318.464844"/>
     <use xlink:href="#DejaVuSans-30" x="357.478516"/>
     <use xlink:href="#DejaVuSans-2e" x="421.101562"/>
     <use xlink:href="#DejaVuSans-32" x="452.888672"/>
     <use xlink:href="#DejaVuSans-2c" x="516.511719"/>
     <use xlink:href="#DejaVuSans-20" x="548.298828"/>
     <use xlink:href="#DejaVuSans-30" x="580.085938"/>
     <use xlink:href="#DejaVuSans-2e" x="643.708984"/>
     <use xlink:href="#DejaVuSans-31" x="675.496094"/>
     <use xlink:href="#DejaVuSans-29" x="739.119141"/>
     <use xlink:href="#DejaVuSans-29" x="778.132812"/>
     <use xlink:href="#DejaVuSans-20" x="817.146484"/>
     <use xlink:href="#DejaVuSans-3d" x="848.933594"/>
     <use xlink:href="#DejaVuSans-20" x="932.722656"/>
     <use xlink:href="#DejaVuSans-31" x="964.509766"/>
     <use xlink:href="#DejaVuSans-2e" x="1028.132812"/>
     <use xlink:href="#DejaVuSans-30" x="1059.919922"/>
     <use xlink:href="#DejaVuSans-30" x="1123.542969"/>
     <use xlink:href="#DejaVuSans-30" x="1187.166016"/>
    </g>
   </g>
  </g>
 </g>
 <defs>
  <clipPath id="p2e275cac0e">
   <rect x="57.6" y="41.472" width="357.12" height="266.112"/>
  </clipPath>
 </defs>
</svg>
