<?xml version="1.0" encoding="utf-8" standalone="no"?>
<!DOCTYPE svg PUBLIC "-//W3C//DTD SVG 1.1//EN"
  "http://www.w3.org/Graphics/SVG/1.1/DTD/svg11.dtd">
<svg xmlns:xlink="http://www.w3.org/1999/xlink" width="460.8pt" height="345.6pt" viewBox="0 0 460.8 345.6" xmlns="http://www.w3.org/2000/svg" version="1.1">
 <metadata>
  <rdf:RDF xmlns:dc="http://purl.org/dc/elements/1.1/" xmlns:cc="http://creativecommons.org/ns#" xmlns:rdf="http://www.w3.org/1999/02/22-rdf-syntax-ns#">
   <cc:Work>
    <dc:type rdf:resource="http://purl.org/dc/dcmitype/StillImage"/>
    <dc:date>2023-04-26T00:12:01.316158</dc:date>
    <dc:format>image/svg+xml</dc:format>
    <dc:creator>
     <cc:Agent>
      <dc:title>Matplotlib v3.6.2, https://matplotlib.org/</dc:title>
     </cc:Agent>
    </dc:creator>
   </cc:Work>
  </rdf:RDF>
 </metadata>
 <defs>
  <style type="text/css">*{stroke-linejoin: round; stroke-linecap: butt}</style>
 </defs>
 <g id="figure_1">
  <g id="patch_1">
   <path d="M 0 345.6 
L 460.8 345.6 
L 460.8 0 
L 0 0 
z
" style="fill: #ffffff"/>
  </g>
  <g id="axes_1">
   <g id="PolyCollection_1">
    <defs>
     <path id="C0_0_3c44336cf9" d="M 141.189998 -75.961099 
L 141.189998 -76.102901 
L 141.12 -76.173801 
L 141.050002 -76.102901 
L 141.050002 -75.961099 
L 141.12 -75.890199 
z
"/>
    </defs>
    <g clip-path="url(#pbdf899df47)">
     <use xlink:href="#C0_0_3c44336cf9" x="175.973049" y="321.166044" style="fill: #08306b; stroke: #08306b"/>
    </g>
    <g clip-path="url(#pbdf899df47)">
     <use xlink:href="#C0_0_3c44336cf9" x="177.93299" y="324.56927" style="fill: #08306b; stroke: #08306b"/>
    </g>
    <g clip-path="url(#pbdf899df47)">
     <use xlink:href="#C0_0_3c44336cf9" x="178.212982" y="324.994673" style="fill: #08306b; stroke: #08306b"/>
    </g>
    <g clip-path="url(#pbdf899df47)">
     <use xlink:href="#C0_0_3c44336cf9" x="178.492973" y="325.420076" style="fill: #08306b; stroke: #08306b"/>
    </g>
    <g clip-path="url(#pbdf899df47)">
     <use xlink:href="#C0_0_3c44336cf9" x="178.632969" y="325.84548" style="fill: #08306b; stroke: #08306b"/>
    </g>
    <g clip-path="url(#pbdf899df47)">
     <use xlink:href="#C0_0_3c44336cf9" x="179.332948" y="327.121689" style="fill: #08306b; stroke: #08306b"/>
    </g>
    <g clip-path="url(#pbdf899df47)">
     <use xlink:href="#C0_0_3c44336cf9" x="179.472944" y="327.121689" style="fill: #08306b; stroke: #08306b"/>
    </g>
    <g clip-path="url(#pbdf899df47)">
     <use xlink:href="#C0_0_3c44336cf9" x="179.61294" y="327.547093" style="fill: #08306b; stroke: #08306b"/>
    </g>
    <g clip-path="url(#pbdf899df47)">
     <use xlink:href="#C0_0_3c44336cf9" x="179.752936" y="327.547093" style="fill: #08306b; stroke: #08306b"/>
    </g>
    <g clip-path="url(#pbdf899df47)">
     <use xlink:href="#C0_0_3c44336cf9" x="179.892932" y="327.972496" style="fill: #08306b; stroke: #08306b"/>
    </g>
    <g clip-path="url(#pbdf899df47)">
     <use xlink:href="#C0_0_3c44336cf9" x="180.172923" y="328.397899" style="fill: #08306b; stroke: #08306b"/>
    </g>
    <g clip-path="url(#pbdf899df47)">
     <use xlink:href="#C0_0_3c44336cf9" x="180.312919" y="328.823303" style="fill: #08306b; stroke: #08306b"/>
    </g>
    <g clip-path="url(#pbdf899df47)">
     <use xlink:href="#C0_0_3c44336cf9" x="180.452915" y="328.823303" style="fill: #08306b; stroke: #08306b"/>
    </g>
    <g clip-path="url(#pbdf899df47)">
     <use xlink:href="#C0_0_3c44336cf9" x="180.592911" y="329.248706" style="fill: #08306b; stroke: #08306b"/>
    </g>
    <g clip-path="url(#pbdf899df47)">
     <use xlink:href="#C0_0_3c44336cf9" x="180.872902" y="329.674109" style="fill: #08306b; stroke: #08306b"/>
    </g>
    <g clip-path="url(#pbdf899df47)">
     <use xlink:href="#C0_0_3c44336cf9" x="181.152894" y="330.099512" style="fill: #08306b; stroke: #08306b"/>
    </g>
    <g clip-path="url(#pbdf899df47)">
     <use xlink:href="#C0_0_3c44336cf9" x="181.29289" y="330.524916" style="fill: #08306b; stroke: #08306b"/>
    </g>
    <g clip-path="url(#pbdf899df47)">
     <use xlink:href="#C0_0_3c44336cf9" x="181.432886" y="330.524916" style="fill: #08306b; stroke: #08306b"/>
    </g>
    <g clip-path="url(#pbdf899df47)">
     <use xlink:href="#C0_0_3c44336cf9" x="181.572881" y="330.950319" style="fill: #08306b; stroke: #08306b"/>
    </g>
    <g clip-path="url(#pbdf899df47)">
     <use xlink:href="#C0_0_3c44336cf9" x="181.712877" y="330.950319" style="fill: #08306b; stroke: #08306b"/>
    </g>
    <g clip-path="url(#pbdf899df47)">
     <use xlink:href="#C0_0_3c44336cf9" x="181.852873" y="331.375722" style="fill: #08316d; stroke: #08316d"/>
    </g>
    <g clip-path="url(#pbdf899df47)">
     <use xlink:href="#C0_0_3c44336cf9" x="182.132865" y="331.801125" style="fill: #08316d; stroke: #08316d"/>
    </g>
    <g clip-path="url(#pbdf899df47)">
     <use xlink:href="#C0_0_3c44336cf9" x="182.27286" y="332.226529" style="fill: #08316d; stroke: #08316d"/>
    </g>
    <g clip-path="url(#pbdf899df47)">
     <use xlink:href="#C0_0_3c44336cf9" x="182.412856" y="332.226529" style="fill: #08316d; stroke: #08316d"/>
    </g>
    <g clip-path="url(#pbdf899df47)">
     <use xlink:href="#C0_0_3c44336cf9" x="182.552852" y="332.651932" style="fill: #08316d; stroke: #08316d"/>
    </g>
    <g clip-path="url(#pbdf899df47)">
     <use xlink:href="#C0_0_3c44336cf9" x="182.692848" y="332.651932" style="fill: #08316d; stroke: #08316d"/>
    </g>
    <g clip-path="url(#pbdf899df47)">
     <use xlink:href="#C0_0_3c44336cf9" x="182.832844" y="333.077335" style="fill: #08326e; stroke: #08326e"/>
    </g>
    <g clip-path="url(#pbdf899df47)">
     <use xlink:href="#C0_0_3c44336cf9" x="183.112835" y="333.502738" style="fill: #083370; stroke: #083370"/>
    </g>
    <g clip-path="url(#pbdf899df47)">
     <use xlink:href="#C0_0_3c44336cf9" x="183.252831" y="333.928142" style="fill: #08316d; stroke: #08316d"/>
    </g>
    <g clip-path="url(#pbdf899df47)">
     <use xlink:href="#C0_0_3c44336cf9" x="183.392827" y="333.928142" style="fill: #083471; stroke: #083471"/>
    </g>
    <g clip-path="url(#pbdf899df47)">
     <use xlink:href="#C0_0_3c44336cf9" x="183.532823" y="334.353545" style="fill: #083573; stroke: #083573"/>
    </g>
    <g clip-path="url(#pbdf899df47)">
     <use xlink:href="#C0_0_3c44336cf9" x="183.672819" y="334.353545" style="fill: #083370; stroke: #083370"/>
    </g>
    <g clip-path="url(#pbdf899df47)">
     <use xlink:href="#C0_0_3c44336cf9" x="183.812814" y="334.778948" style="fill: #083573; stroke: #083573"/>
    </g>
    <g clip-path="url(#pbdf899df47)">
     <use xlink:href="#C0_0_3c44336cf9" x="184.092806" y="335.204352" style="fill: #083877; stroke: #083877"/>
    </g>
    <g clip-path="url(#pbdf899df47)">
     <use xlink:href="#C0_0_3c44336cf9" x="184.232802" y="335.629755" style="fill: #083471; stroke: #083471"/>
    </g>
    <g clip-path="url(#pbdf899df47)">
     <use xlink:href="#C0_0_3c44336cf9" x="184.372798" y="335.629755" style="fill: #083776; stroke: #083776"/>
    </g>
    <g clip-path="url(#pbdf899df47)">
     <use xlink:href="#C0_0_3c44336cf9" x="184.512793" y="336.055158" style="fill: #083b7c; stroke: #083b7c"/>
    </g>
    <g clip-path="url(#pbdf899df47)">
     <use xlink:href="#C0_0_3c44336cf9" x="184.652789" y="336.055158" style="fill: #083a7a; stroke: #083a7a"/>
    </g>
    <g clip-path="url(#pbdf899df47)">
     <use xlink:href="#C0_0_3c44336cf9" x="184.792785" y="336.480561" style="fill: #083e81; stroke: #083e81"/>
    </g>
    <g clip-path="url(#pbdf899df47)">
     <use xlink:href="#C0_0_3c44336cf9" x="185.072777" y="336.905965" style="fill: #08458a; stroke: #08458a"/>
    </g>
    <g clip-path="url(#pbdf899df47)">
     <use xlink:href="#C0_0_3c44336cf9" x="185.212772" y="337.331368" style="fill: #083979; stroke: #083979"/>
    </g>
    <g clip-path="url(#pbdf899df47)">
     <use xlink:href="#C0_0_3c44336cf9" x="185.352768" y="337.331368" style="fill: #08468b; stroke: #08468b"/>
    </g>
    <g clip-path="url(#pbdf899df47)">
     <use xlink:href="#C0_0_3c44336cf9" x="185.492764" y="337.756771" style="fill: #084c95; stroke: #084c95"/>
    </g>
    <g clip-path="url(#pbdf899df47)">
     <use xlink:href="#C0_0_3c44336cf9" x="185.63276" y="337.756771" style="fill: #084488; stroke: #084488"/>
    </g>
    <g clip-path="url(#pbdf899df47)">
     <use xlink:href="#C0_0_3c44336cf9" x="185.772756" y="338.182174" style="fill: #0a539e; stroke: #0a539e"/>
    </g>
    <g clip-path="url(#pbdf899df47)">
     <use xlink:href="#C0_0_3c44336cf9" x="186.052747" y="338.607578" style="fill: #1561a9; stroke: #1561a9"/>
    </g>
    <g clip-path="url(#pbdf899df47)">
     <use xlink:href="#C0_0_3c44336cf9" x="186.192743" y="339.032981" style="fill: #084387; stroke: #084387"/>
    </g>
    <g clip-path="url(#pbdf899df47)">
     <use xlink:href="#C0_0_3c44336cf9" x="186.332739" y="339.032981" style="fill: #1663aa; stroke: #1663aa"/>
    </g>
    <g clip-path="url(#pbdf899df47)">
     <use xlink:href="#C0_0_3c44336cf9" x="186.472735" y="339.458384" style="fill: #1967ad; stroke: #1967ad"/>
    </g>
    <g clip-path="url(#pbdf899df47)">
     <use xlink:href="#C0_0_3c44336cf9" x="186.612731" y="339.458384" style="fill: #1966ad; stroke: #1966ad"/>
    </g>
    <g clip-path="url(#pbdf899df47)">
     <use xlink:href="#C0_0_3c44336cf9" x="186.752726" y="339.883787" style="fill: #3989c1; stroke: #3989c1"/>
    </g>
    <g clip-path="url(#pbdf899df47)">
     <use xlink:href="#C0_0_3c44336cf9" x="187.032718" y="340.309191" style="fill: #4e9acb; stroke: #4e9acb"/>
    </g>
    <g clip-path="url(#pbdf899df47)">
     <use xlink:href="#C0_0_3c44336cf9" x="187.172714" y="340.734594" style="fill: #0c56a0; stroke: #0c56a0"/>
    </g>
    <g clip-path="url(#pbdf899df47)">
     <use xlink:href="#C0_0_3c44336cf9" x="187.31271" y="340.734594" style="fill: #61a7d2; stroke: #61a7d2"/>
    </g>
    <g clip-path="url(#pbdf899df47)">
     <use xlink:href="#C0_0_3c44336cf9" x="187.452705" y="341.159997" style="fill: #5fa6d1; stroke: #5fa6d1"/>
    </g>
    <g clip-path="url(#pbdf899df47)">
     <use xlink:href="#C0_0_3c44336cf9" x="187.592701" y="341.159997" style="fill: #58a1cf; stroke: #58a1cf"/>
    </g>
    <g clip-path="url(#pbdf899df47)">
     <use xlink:href="#C0_0_3c44336cf9" x="187.732697" y="341.585401" style="fill: #bad6eb; stroke: #bad6eb"/>
    </g>
    <g clip-path="url(#pbdf899df47)">
     <use xlink:href="#C0_0_3c44336cf9" x="187.872693" y="341.585401" style="fill: #08306b; stroke: #08306b"/>
    </g>
    <g clip-path="url(#pbdf899df47)">
     <use xlink:href="#C0_0_3c44336cf9" x="188.012689" y="342.010804" style="fill: #cbdef1; stroke: #cbdef1"/>
    </g>
    <g clip-path="url(#pbdf899df47)">
     <use xlink:href="#C0_0_3c44336cf9" x="188.152685" y="342.436207" style="fill: #1966ad; stroke: #1966ad"/>
    </g>
    <g clip-path="url(#pbdf899df47)">
     <use xlink:href="#C0_0_3c44336cf9" x="188.29268" y="342.436207" style="fill: #e3eef9; stroke: #e3eef9"/>
    </g>
    <g clip-path="url(#pbdf899df47)">
     <use xlink:href="#C0_0_3c44336cf9" x="188.432676" y="342.86161" style="fill: #cde0f1; stroke: #cde0f1"/>
    </g>
    <g clip-path="url(#pbdf899df47)">
     <use xlink:href="#C0_0_3c44336cf9" x="188.572672" y="342.86161" style="fill: #b9d6ea; stroke: #b9d6ea"/>
    </g>
    <g clip-path="url(#pbdf899df47)">
     <use xlink:href="#C0_0_3c44336cf9" x="188.712668" y="343.287014" style="fill: #f6faff; stroke: #f6faff"/>
    </g>
    <g clip-path="url(#pbdf899df47)">
     <use xlink:href="#C0_0_3c44336cf9" x="188.852664" y="343.287014" style="fill: #084184; stroke: #084184"/>
    </g>
    <g clip-path="url(#pbdf899df47)">
     <use xlink:href="#C0_0_3c44336cf9" x="188.992659" y="343.712417" style="fill: #f4f9fe; stroke: #f4f9fe"/>
    </g>
    <g clip-path="url(#pbdf899df47)">
     <use xlink:href="#C0_0_3c44336cf9" x="189.132655" y="344.13782" style="fill: #0a549e; stroke: #0a549e"/>
    </g>
    <g clip-path="url(#pbdf899df47)">
     <use xlink:href="#C0_0_3c44336cf9" x="189.272651" y="344.13782" style="fill: #c7dbef; stroke: #c7dbef"/>
    </g>
    <g clip-path="url(#pbdf899df47)">
     <use xlink:href="#C0_0_3c44336cf9" x="189.412647" y="344.563223" style="fill: #56a0ce; stroke: #56a0ce"/>
    </g>
    <g clip-path="url(#pbdf899df47)">
     <use xlink:href="#C0_0_3c44336cf9" x="189.552643" y="344.563223" style="fill: #3585bf; stroke: #3585bf"/>
    </g>
    <g clip-path="url(#pbdf899df47)">
     <use xlink:href="#C0_0_3c44336cf9" x="189.692639" y="344.988627" style="fill: #1764ab; stroke: #1764ab"/>
    </g>
    <g clip-path="url(#pbdf899df47)">
     <use xlink:href="#C0_0_3c44336cf9" x="189.832634" y="344.988627" style="fill: #083370; stroke: #083370"/>
    </g>
    <g clip-path="url(#pbdf899df47)">
     <use xlink:href="#C0_0_3c44336cf9" x="189.97263" y="345.41403" style="fill: #08326e; stroke: #08326e"/>
    </g>
    <g clip-path="url(#pbdf899df47)">
     <use xlink:href="#C0_0_3c44336cf9" x="176.883022" y="322.654955" style="fill: #08306b; stroke: #08306b"/>
    </g>
    <g clip-path="url(#pbdf899df47)">
     <use xlink:href="#C0_0_3c44336cf9" x="177.303009" y="323.505762" style="fill: #08306b; stroke: #08306b"/>
    </g>
    <g clip-path="url(#pbdf899df47)">
     <use xlink:href="#C0_0_3c44336cf9" x="178.562971" y="325.632778" style="fill: #08306b; stroke: #08306b"/>
    </g>
    <g clip-path="url(#pbdf899df47)">
     <use xlink:href="#C0_0_3c44336cf9" x="178.702967" y="326.058181" style="fill: #08306b; stroke: #08306b"/>
    </g>
    <g clip-path="url(#pbdf899df47)">
     <use xlink:href="#C0_0_3c44336cf9" x="178.842963" y="326.058181" style="fill: #08306b; stroke: #08306b"/>
    </g>
    <g clip-path="url(#pbdf899df47)">
     <use xlink:href="#C0_0_3c44336cf9" x="179.542942" y="327.334391" style="fill: #08306b; stroke: #08306b"/>
    </g>
    <g clip-path="url(#pbdf899df47)">
     <use xlink:href="#C0_0_3c44336cf9" x="179.682938" y="327.759794" style="fill: #08306b; stroke: #08306b"/>
    </g>
    <g clip-path="url(#pbdf899df47)">
     <use xlink:href="#C0_0_3c44336cf9" x="179.962929" y="328.185198" style="fill: #08306b; stroke: #08306b"/>
    </g>
    <g clip-path="url(#pbdf899df47)">
     <use xlink:href="#C0_0_3c44336cf9" x="180.102925" y="328.185198" style="fill: #08306b; stroke: #08306b"/>
    </g>
    <g clip-path="url(#pbdf899df47)">
     <use xlink:href="#C0_0_3c44336cf9" x="180.242921" y="328.610601" style="fill: #08306b; stroke: #08306b"/>
    </g>
    <g clip-path="url(#pbdf899df47)">
     <use xlink:href="#C0_0_3c44336cf9" x="180.522913" y="329.036004" style="fill: #08306b; stroke: #08306b"/>
    </g>
    <g clip-path="url(#pbdf899df47)">
     <use xlink:href="#C0_0_3c44336cf9" x="180.802904" y="329.461407" style="fill: #08306b; stroke: #08306b"/>
    </g>
    <g clip-path="url(#pbdf899df47)">
     <use xlink:href="#C0_0_3c44336cf9" x="180.9429" y="329.886811" style="fill: #08306b; stroke: #08306b"/>
    </g>
    <g clip-path="url(#pbdf899df47)">
     <use xlink:href="#C0_0_3c44336cf9" x="181.082896" y="329.886811" style="fill: #08306b; stroke: #08306b"/>
    </g>
    <g clip-path="url(#pbdf899df47)">
     <use xlink:href="#C0_0_3c44336cf9" x="181.222892" y="330.312214" style="fill: #08306b; stroke: #08306b"/>
    </g>
    <g clip-path="url(#pbdf899df47)">
     <use xlink:href="#C0_0_3c44336cf9" x="181.362888" y="330.312214" style="fill: #08306b; stroke: #08306b"/>
    </g>
    <g clip-path="url(#pbdf899df47)">
     <use xlink:href="#C0_0_3c44336cf9" x="181.502883" y="330.737617" style="fill: #08306b; stroke: #08306b"/>
    </g>
    <g clip-path="url(#pbdf899df47)">
     <use xlink:href="#C0_0_3c44336cf9" x="181.642879" y="331.163021" style="fill: #08306b; stroke: #08306b"/>
    </g>
    <g clip-path="url(#pbdf899df47)">
     <use xlink:href="#C0_0_3c44336cf9" x="181.782875" y="331.163021" style="fill: #08306b; stroke: #08306b"/>
    </g>
    <g clip-path="url(#pbdf899df47)">
     <use xlink:href="#C0_0_3c44336cf9" x="181.922871" y="331.588424" style="fill: #08306b; stroke: #08306b"/>
    </g>
    <g clip-path="url(#pbdf899df47)">
     <use xlink:href="#C0_0_3c44336cf9" x="182.062867" y="331.588424" style="fill: #08316d; stroke: #08316d"/>
    </g>
    <g clip-path="url(#pbdf899df47)">
     <use xlink:href="#C0_0_3c44336cf9" x="182.202862" y="332.013827" style="fill: #08316d; stroke: #08316d"/>
    </g>
    <g clip-path="url(#pbdf899df47)">
     <use xlink:href="#C0_0_3c44336cf9" x="182.342858" y="332.013827" style="fill: #08306b; stroke: #08306b"/>
    </g>
    <g clip-path="url(#pbdf899df47)">
     <use xlink:href="#C0_0_3c44336cf9" x="182.482854" y="332.43923" style="fill: #08316d; stroke: #08316d"/>
    </g>
    <g clip-path="url(#pbdf899df47)">
     <use xlink:href="#C0_0_3c44336cf9" x="182.62285" y="332.864634" style="fill: #08306b; stroke: #08306b"/>
    </g>
    <g clip-path="url(#pbdf899df47)">
     <use xlink:href="#C0_0_3c44336cf9" x="182.762846" y="332.864634" style="fill: #08326e; stroke: #08326e"/>
    </g>
    <g clip-path="url(#pbdf899df47)">
     <use xlink:href="#C0_0_3c44336cf9" x="182.902842" y="333.290037" style="fill: #08326e; stroke: #08326e"/>
    </g>
    <g clip-path="url(#pbdf899df47)">
     <use xlink:href="#C0_0_3c44336cf9" x="183.042837" y="333.290037" style="fill: #08326e; stroke: #08326e"/>
    </g>
    <g clip-path="url(#pbdf899df47)">
     <use xlink:href="#C0_0_3c44336cf9" x="183.182833" y="333.71544" style="fill: #083370; stroke: #083370"/>
    </g>
    <g clip-path="url(#pbdf899df47)">
     <use xlink:href="#C0_0_3c44336cf9" x="183.322829" y="333.71544" style="fill: #08306b; stroke: #08306b"/>
    </g>
    <g clip-path="url(#pbdf899df47)">
     <use xlink:href="#C0_0_3c44336cf9" x="183.462825" y="334.140843" style="fill: #083471; stroke: #083471"/>
    </g>
    <g clip-path="url(#pbdf899df47)">
     <use xlink:href="#C0_0_3c44336cf9" x="183.602821" y="334.566247" style="fill: #08306b; stroke: #08306b"/>
    </g>
    <g clip-path="url(#pbdf899df47)">
     <use xlink:href="#C0_0_3c44336cf9" x="183.742816" y="334.566247" style="fill: #083674; stroke: #083674"/>
    </g>
    <g clip-path="url(#pbdf899df47)">
     <use xlink:href="#C0_0_3c44336cf9" x="183.882812" y="334.99165" style="fill: #083573; stroke: #083573"/>
    </g>
    <g clip-path="url(#pbdf899df47)">
     <use xlink:href="#C0_0_3c44336cf9" x="184.022808" y="334.99165" style="fill: #083877; stroke: #083877"/>
    </g>
    <g clip-path="url(#pbdf899df47)">
     <use xlink:href="#C0_0_3c44336cf9" x="184.162804" y="335.417053" style="fill: #083979; stroke: #083979"/>
    </g>
    <g clip-path="url(#pbdf899df47)">
     <use xlink:href="#C0_0_3c44336cf9" x="184.3028" y="335.417053" style="fill: #08326e; stroke: #08326e"/>
    </g>
    <g clip-path="url(#pbdf899df47)">
     <use xlink:href="#C0_0_3c44336cf9" x="184.442795" y="335.842456" style="fill: #083d7f; stroke: #083d7f"/>
    </g>
    <g clip-path="url(#pbdf899df47)">
     <use xlink:href="#C0_0_3c44336cf9" x="184.582791" y="336.26786" style="fill: #08306b; stroke: #08306b"/>
    </g>
    <g clip-path="url(#pbdf899df47)">
     <use xlink:href="#C0_0_3c44336cf9" x="184.722787" y="336.26786" style="fill: #083e81; stroke: #083e81"/>
    </g>
    <g clip-path="url(#pbdf899df47)">
     <use xlink:href="#C0_0_3c44336cf9" x="184.862783" y="336.693263" style="fill: #083d7f; stroke: #083d7f"/>
    </g>
    <g clip-path="url(#pbdf899df47)">
     <use xlink:href="#C0_0_3c44336cf9" x="185.002779" y="336.693263" style="fill: #083e81; stroke: #083e81"/>
    </g>
    <g clip-path="url(#pbdf899df47)">
     <use xlink:href="#C0_0_3c44336cf9" x="185.142775" y="337.118666" style="fill: #08478d; stroke: #08478d"/>
    </g>
    <g clip-path="url(#pbdf899df47)">
     <use xlink:href="#C0_0_3c44336cf9" x="185.28277" y="337.118666" style="fill: #083471; stroke: #083471"/>
    </g>
    <g clip-path="url(#pbdf899df47)">
     <use xlink:href="#C0_0_3c44336cf9" x="185.422766" y="337.544069" style="fill: #084b93; stroke: #084b93"/>
    </g>
    <g clip-path="url(#pbdf899df47)">
     <use xlink:href="#C0_0_3c44336cf9" x="185.702758" y="337.969473" style="fill: #0a539e; stroke: #0a539e"/>
    </g>
    <g clip-path="url(#pbdf899df47)">
     <use xlink:href="#C0_0_3c44336cf9" x="185.842754" y="338.394876" style="fill: #084f99; stroke: #084f99"/>
    </g>
    <g clip-path="url(#pbdf899df47)">
     <use xlink:href="#C0_0_3c44336cf9" x="185.982749" y="338.394876" style="fill: #0a539e; stroke: #0a539e"/>
    </g>
    <g clip-path="url(#pbdf899df47)">
     <use xlink:href="#C0_0_3c44336cf9" x="186.122745" y="338.820279" style="fill: #125da6; stroke: #125da6"/>
    </g>
    <g clip-path="url(#pbdf899df47)">
     <use xlink:href="#C0_0_3c44336cf9" x="186.262741" y="338.820279" style="fill: #084387; stroke: #084387"/>
    </g>
    <g clip-path="url(#pbdf899df47)">
     <use xlink:href="#C0_0_3c44336cf9" x="186.402737" y="339.245683" style="fill: #2171b5; stroke: #2171b5"/>
    </g>
    <g clip-path="url(#pbdf899df47)">
     <use xlink:href="#C0_0_3c44336cf9" x="186.682729" y="339.671086" style="fill: #2c7cba; stroke: #2c7cba"/>
    </g>
    <g clip-path="url(#pbdf899df47)">
     <use xlink:href="#C0_0_3c44336cf9" x="186.822724" y="340.096489" style="fill: #2171b5; stroke: #2171b5"/>
    </g>
    <g clip-path="url(#pbdf899df47)">
     <use xlink:href="#C0_0_3c44336cf9" x="186.96272" y="340.096489" style="fill: #2e7ebc; stroke: #2e7ebc"/>
    </g>
    <g clip-path="url(#pbdf899df47)">
     <use xlink:href="#C0_0_3c44336cf9" x="187.102716" y="340.521892" style="fill: #4594c7; stroke: #4594c7"/>
    </g>
    <g clip-path="url(#pbdf899df47)">
     <use xlink:href="#C0_0_3c44336cf9" x="187.242712" y="340.521892" style="fill: #135fa7; stroke: #135fa7"/>
    </g>
    <g clip-path="url(#pbdf899df47)">
     <use xlink:href="#C0_0_3c44336cf9" x="187.382708" y="340.947296" style="fill: #7db8da; stroke: #7db8da"/>
    </g>
    <g clip-path="url(#pbdf899df47)">
     <use xlink:href="#C0_0_3c44336cf9" x="187.662699" y="341.372699" style="fill: #a6cee4; stroke: #a6cee4"/>
    </g>
    <g clip-path="url(#pbdf899df47)">
     <use xlink:href="#C0_0_3c44336cf9" x="187.802695" y="341.798102" style="fill: #66abd4; stroke: #66abd4"/>
    </g>
    <g clip-path="url(#pbdf899df47)">
     <use xlink:href="#C0_0_3c44336cf9" x="187.942691" y="341.798102" style="fill: #a1cbe2; stroke: #a1cbe2"/>
    </g>
    <g clip-path="url(#pbdf899df47)">
     <use xlink:href="#C0_0_3c44336cf9" x="188.082687" y="342.223505" style="fill: #cbdef1; stroke: #cbdef1"/>
    </g>
    <g clip-path="url(#pbdf899df47)">
     <use xlink:href="#C0_0_3c44336cf9" x="188.222682" y="342.223505" style="fill: #4191c6; stroke: #4191c6"/>
    </g>
    <g clip-path="url(#pbdf899df47)">
     <use xlink:href="#C0_0_3c44336cf9" x="188.362678" y="342.648909" style="fill: #eef5fc; stroke: #eef5fc"/>
    </g>
    <g clip-path="url(#pbdf899df47)">
     <use xlink:href="#C0_0_3c44336cf9" x="188.64267" y="343.074312" style="fill: #f7fbff; stroke: #f7fbff"/>
    </g>
    <g clip-path="url(#pbdf899df47)">
     <use xlink:href="#C0_0_3c44336cf9" x="188.782666" y="343.499715" style="fill: #a0cbe2; stroke: #a0cbe2"/>
    </g>
    <g clip-path="url(#pbdf899df47)">
     <use xlink:href="#C0_0_3c44336cf9" x="188.922662" y="343.499715" style="fill: #d0e2f2; stroke: #d0e2f2"/>
    </g>
    <g clip-path="url(#pbdf899df47)">
     <use xlink:href="#C0_0_3c44336cf9" x="189.062657" y="343.925118" style="fill: #d3e4f3; stroke: #d3e4f3"/>
    </g>
    <g clip-path="url(#pbdf899df47)">
     <use xlink:href="#C0_0_3c44336cf9" x="189.202653" y="343.925118" style="fill: #5aa2cf; stroke: #5aa2cf"/>
    </g>
    <g clip-path="url(#pbdf899df47)">
     <use xlink:href="#C0_0_3c44336cf9" x="189.342649" y="344.350522" style="fill: #b2d2e8; stroke: #b2d2e8"/>
    </g>
    <g clip-path="url(#pbdf899df47)">
     <use xlink:href="#C0_0_3c44336cf9" x="189.622641" y="344.775925" style="fill: #3484bf; stroke: #3484bf"/>
    </g>
    <g clip-path="url(#pbdf899df47)">
     <use xlink:href="#C0_0_3c44336cf9" x="189.762636" y="345.201328" style="fill: #084184; stroke: #084184"/>
    </g>
    <g clip-path="url(#pbdf899df47)">
     <use xlink:href="#C0_0_3c44336cf9" x="189.902632" y="345.201328" style="fill: #083979; stroke: #083979"/>
    </g>
   </g>
   <g id="line2d_1">
    <path d="M 141.12 269.568 
L 236.16 104.953891 
L 331.2 269.568 
L 141.12 269.568 
" clip-path="url(#pbdf899df47)" style="fill: none; stroke: #ffa500; stroke-width: 1.5; stroke-linecap: round"/>
   </g>
   <g id="line2d_2">
    <path d="M 236.16 214.69663 
L 236.16 269.568 
" clip-path="url(#pbdf899df47)" style="fill: none; stroke: #ffa500; stroke-width: 1.5; stroke-linecap: round"/>
   </g>
   <g id="line2d_3">
    <path d="M 236.16 214.69663 
L 188.64 187.260946 
" clip-path="url(#pbdf899df47)" style="fill: none; stroke: #ffa500; stroke-width: 1.5; stroke-linecap: round"/>
   </g>
   <g id="line2d_4">
    <path d="M 236.16 214.69663 
L 283.68 187.260946 
" clip-path="url(#pbdf899df47)" style="fill: none; stroke: #ffa500; stroke-width: 1.5; stroke-linecap: round"/>
   </g>
   <g id="text_1">
    <!-- p(IAC_(0.05, 0.3)) = 0.000 -->
    <g style="fill: #262626" transform="translate(62.254688 286.2762) scale(0.12 -0.12)">
     <defs>
      <path id="DejaVuSans-70" d="M 1159 525 
L 1159 -1331 
L 581 -1331 
L 581 3500 
L 1159 3500 
L 1159 2969 
Q 1341 3281 1617 3432 
Q 1894 3584 2278 3584 
Q 2916 3584 3314 3078 
Q 3713 2572 3713 1747 
Q 3713 922 3314 415 
Q 2916 -91 2278 -91 
Q 1894 -91 1617 61 
Q 1341 213 1159 525 
z
M 3116 1747 
Q 3116 2381 2855 2742 
Q 2594 3103 2138 3103 
Q 1681 3103 1420 2742 
Q 1159 2381 1159 1747 
Q 1159 1113 1420 752 
Q 1681 391 2138 391 
Q 2594 391 2855 752 
Q 3116 1113 3116 1747 
z
" transform="scale(0.015625)"/>
      <path id="DejaVuSans-28" d="M 1984 4856 
Q 1566 4138 1362 3434 
Q 1159 2731 1159 2009 
Q 1159 1288 1364 580 
Q 1569 -128 1984 -844 
L 1484 -844 
Q 1016 -109 783 600 
Q 550 1309 550 2009 
Q 550 2706 781 3412 
Q 1013 4119 1484 4856 
L 1984 4856 
z
" transform="scale(0.015625)"/>
      <path id="DejaVuSans-49" d="M 628 4666 
L 1259 4666 
L 1259 0 
L 628 0 
L 628 4666 
z
" transform="scale(0.015625)"/>
      <path id="DejaVuSans-41" d="M 2188 4044 
L 1331 1722 
L 3047 1722 
L 2188 4044 
z
M 1831 4666 
L 2547 4666 
L 4325 0 
L 3669 0 
L 3244 1197 
L 1141 1197 
L 716 0 
L 50 0 
L 1831 4666 
z
" transform="scale(0.015625)"/>
      <path id="DejaVuSans-43" d="M 4122 4306 
L 4122 3641 
Q 3803 3938 3442 4084 
Q 3081 4231 2675 4231 
Q 1875 4231 1450 3742 
Q 1025 3253 1025 2328 
Q 1025 1406 1450 917 
Q 1875 428 2675 428 
Q 3081 428 3442 575 
Q 3803 722 4122 1019 
L 4122 359 
Q 3791 134 3420 21 
Q 3050 -91 2638 -91 
Q 1578 -91 968 557 
Q 359 1206 359 2328 
Q 359 3453 968 4101 
Q 1578 4750 2638 4750 
Q 3056 4750 3426 4639 
Q 3797 4528 4122 4306 
z
" transform="scale(0.015625)"/>
      <path id="DejaVuSans-5f" d="M 3263 -1063 
L 3263 -1509 
L -63 -1509 
L -63 -1063 
L 3263 -1063 
z
" transform="scale(0.015625)"/>
      <path id="DejaVuSans-30" d="M 2034 4250 
Q 1547 4250 1301 3770 
Q 1056 3291 1056 2328 
Q 1056 1369 1301 889 
Q 1547 409 2034 409 
Q 2525 409 2770 889 
Q 3016 1369 3016 2328 
Q 3016 3291 2770 3770 
Q 2525 4250 2034 4250 
z
M 2034 4750 
Q 2819 4750 3233 4129 
Q 3647 3509 3647 2328 
Q 3647 1150 3233 529 
Q 2819 -91 2034 -91 
Q 1250 -91 836 529 
Q 422 1150 422 2328 
Q 422 3509 836 4129 
Q 1250 4750 2034 4750 
z
" transform="scale(0.015625)"/>
      <path id="DejaVuSans-2e" d="M 684 794 
L 1344 794 
L 1344 0 
L 684 0 
L 684 794 
z
" transform="scale(0.015625)"/>
      <path id="DejaVuSans-35" d="M 691 4666 
L 3169 4666 
L 3169 4134 
L 1269 4134 
L 1269 2991 
Q 1406 3038 1543 3061 
Q 1681 3084 1819 3084 
Q 2600 3084 3056 2656 
Q 3513 2228 3513 1497 
Q 3513 744 3044 326 
Q 2575 -91 1722 -91 
Q 1428 -91 1123 -41 
Q 819 9 494 109 
L 494 744 
Q 775 591 1075 516 
Q 1375 441 1709 441 
Q 2250 441 2565 725 
Q 2881 1009 2881 1497 
Q 2881 1984 2565 2268 
Q 2250 2553 1709 2553 
Q 1456 2553 1204 2497 
Q 953 2441 691 2322 
L 691 4666 
z
" transform="scale(0.015625)"/>
      <path id="DejaVuSans-2c" d="M 750 794 
L 1409 794 
L 1409 256 
L 897 -744 
L 494 -744 
L 750 256 
L 750 794 
z
" transform="scale(0.015625)"/>
      <path id="DejaVuSans-20" transform="scale(0.015625)"/>
      <path id="DejaVuSans-33" d="M 2597 2516 
Q 3050 2419 3304 2112 
Q 3559 1806 3559 1356 
Q 3559 666 3084 287 
Q 2609 -91 1734 -91 
Q 1441 -91 1130 -33 
Q 819 25 488 141 
L 488 750 
Q 750 597 1062 519 
Q 1375 441 1716 441 
Q 2309 441 2620 675 
Q 2931 909 2931 1356 
Q 2931 1769 2642 2001 
Q 2353 2234 1838 2234 
L 1294 2234 
L 1294 2753 
L 1863 2753 
Q 2328 2753 2575 2939 
Q 2822 3125 2822 3475 
Q 2822 3834 2567 4026 
Q 2313 4219 1838 4219 
Q 1578 4219 1281 4162 
Q 984 4106 628 3988 
L 628 4550 
Q 988 4650 1302 4700 
Q 1616 4750 1894 4750 
Q 2613 4750 3031 4423 
Q 3450 4097 3450 3541 
Q 3450 3153 3228 2886 
Q 3006 2619 2597 2516 
z
" transform="scale(0.015625)"/>
      <path id="DejaVuSans-29" d="M 513 4856 
L 1013 4856 
Q 1481 4119 1714 3412 
Q 1947 2706 1947 2009 
Q 1947 1309 1714 600 
Q 1481 -109 1013 -844 
L 513 -844 
Q 928 -128 1133 580 
Q 1338 1288 1338 2009 
Q 1338 2731 1133 3434 
Q 928 4138 513 4856 
z
" transform="scale(0.015625)"/>
      <path id="DejaVuSans-3d" d="M 678 2906 
L 4684 2906 
L 4684 2381 
L 678 2381 
L 678 2906 
z
M 678 1631 
L 4684 1631 
L 4684 1100 
L 678 1100 
L 678 1631 
z
" transform="scale(0.015625)"/>
     </defs>
     <use xlink:href="#DejaVuSans-70"/>
     <use xlink:href="#DejaVuSans-28" x="63.476562"/>
     <use xlink:href="#DejaVuSans-49" x="102.490234"/>
     <use xlink:href="#DejaVuSans-41" x="131.982422"/>
     <use xlink:href="#DejaVuSans-43" x="198.640625"/>
     <use xlink:href="#DejaVuSans-5f" x="268.464844"/>
     <use xlink:href="#DejaVuSans-28" x="318.464844"/>
     <use xlink:href="#DejaVuSans-30" x="357.478516"/>
     <use xlink:href="#DejaVuSans-2e" x="421.101562"/>
     <use xlink:href="#DejaVuSans-30" x="452.888672"/>
     <use xlink:href="#DejaVuSans-35" x="516.511719"/>
     <use xlink:href="#DejaVuSans-2c" x="580.134766"/>
     <use xlink:href="#DejaVuSans-20" x="611.921875"/>
     <use xlink:href="#DejaVuSans-30" x="643.708984"/>
     <use xlink:href="#DejaVuSans-2e" x="707.332031"/>
     <use xlink:href="#DejaVuSans-33" x="739.119141"/>
     <use xlink:href="#DejaVuSans-29" x="802.742188"/>
     <use xlink:href="#DejaVuSans-29" x="841.755859"/>
     <use xlink:href="#DejaVuSans-20" x="880.769531"/>
     <use xlink:href="#DejaVuSans-3d" x="912.556641"/>
     <use xlink:href="#DejaVuSans-20" x="996.345703"/>
     <use xlink:href="#DejaVuSans-30" x="1028.132812"/>
     <use xlink:href="#DejaVuSans-2e" x="1091.755859"/>
     <use xlink:href="#DejaVuSans-30" x="1123.542969"/>
     <use xlink:href="#DejaVuSans-30" x="1187.166016"/>
     <use xlink:href="#DejaVuSans-30" x="1250.789062"/>
    </g>
   </g>
   <g id="text_2">
    <!-- p(rope) = 0.000 -->
    <g style="fill: #262626" transform="translate(188.146875 102.458266) scale(0.12 -0.12)">
     <defs>
      <path id="DejaVuSans-72" d="M 2631 2963 
Q 2534 3019 2420 3045 
Q 2306 3072 2169 3072 
Q 1681 3072 1420 2755 
Q 1159 2438 1159 1844 
L 1159 0 
L 581 0 
L 581 3500 
L 1159 3500 
L 1159 2956 
Q 1341 3275 1631 3429 
Q 1922 3584 2338 3584 
Q 2397 3584 2469 3576 
Q 2541 3569 2628 3553 
L 2631 2963 
z
" transform="scale(0.015625)"/>
      <path id="DejaVuSans-6f" d="M 1959 3097 
Q 1497 3097 1228 2736 
Q 959 2375 959 1747 
Q 959 1119 1226 758 
Q 1494 397 1959 397 
Q 2419 397 2687 759 
Q 2956 1122 2956 1747 
Q 2956 2369 2687 2733 
Q 2419 3097 1959 3097 
z
M 1959 3584 
Q 2709 3584 3137 3096 
Q 3566 2609 3566 1747 
Q 3566 888 3137 398 
Q 2709 -91 1959 -91 
Q 1206 -91 779 398 
Q 353 888 353 1747 
Q 353 2609 779 3096 
Q 1206 3584 1959 3584 
z
" transform="scale(0.015625)"/>
      <path id="DejaVuSans-65" d="M 3597 1894 
L 3597 1613 
L 953 1613 
Q 991 1019 1311 708 
Q 1631 397 2203 397 
Q 2534 397 2845 478 
Q 3156 559 3463 722 
L 3463 178 
Q 3153 47 2828 -22 
Q 2503 -91 2169 -91 
Q 1331 -91 842 396 
Q 353 884 353 1716 
Q 353 2575 817 3079 
Q 1281 3584 2069 3584 
Q 2775 3584 3186 3129 
Q 3597 2675 3597 1894 
z
M 3022 2063 
Q 3016 2534 2758 2815 
Q 2500 3097 2075 3097 
Q 1594 3097 1305 2825 
Q 1016 2553 972 2059 
L 3022 2063 
z
" transform="scale(0.015625)"/>
     </defs>
     <use xlink:href="#DejaVuSans-70"/>
     <use xlink:href="#DejaVuSans-28" x="63.476562"/>
     <use xlink:href="#DejaVuSans-72" x="102.490234"/>
     <use xlink:href="#DejaVuSans-6f" x="141.353516"/>
     <use xlink:href="#DejaVuSans-70" x="202.535156"/>
     <use xlink:href="#DejaVuSans-65" x="266.011719"/>
     <use xlink:href="#DejaVuSans-29" x="327.535156"/>
     <use xlink:href="#DejaVuSans-20" x="366.548828"/>
     <use xlink:href="#DejaVuSans-3d" x="398.335938"/>
     <use xlink:href="#DejaVuSans-20" x="482.125"/>
     <use xlink:href="#DejaVuSans-30" x="513.912109"/>
     <use xlink:href="#DejaVuSans-2e" x="577.535156"/>
     <use xlink:href="#DejaVuSans-30" x="609.322266"/>
     <use xlink:href="#DejaVuSans-30" x="672.945312"/>
     <use xlink:href="#DejaVuSans-30" x="736.568359"/>
    </g>
   </g>
   <g id="text_3">
    <!-- p(IAC_(0.2, 0.1)) = 1.000 -->
    <g style="fill: #262626" transform="translate(256.152188 286.2762) scale(0.12 -0.12)">
     <defs>
      <path id="DejaVuSans-32" d="M 1228 531 
L 3431 531 
L 3431 0 
L 469 0 
L 469 531 
Q 828 903 1448 1529 
Q 2069 2156 2228 2338 
Q 2531 2678 2651 2914 
Q 2772 3150 2772 3378 
Q 2772 3750 2511 3984 
Q 2250 4219 1831 4219 
Q 1534 4219 1204 4116 
Q 875 4013 500 3803 
L 500 4441 
Q 881 4594 1212 4672 
Q 1544 4750 1819 4750 
Q 2544 4750 2975 4387 
Q 3406 4025 3406 3419 
Q 3406 3131 3298 2873 
Q 3191 2616 2906 2266 
Q 2828 2175 2409 1742 
Q 1991 1309 1228 531 
z
" transform="scale(0.015625)"/>
      <path id="DejaVuSans-31" d="M 794 531 
L 1825 531 
L 1825 4091 
L 703 3866 
L 703 4441 
L 1819 4666 
L 2450 4666 
L 2450 531 
L 3481 531 
L 3481 0 
L 794 0 
L 794 531 
z
" transform="scale(0.015625)"/>
     </defs>
     <use xlink:href="#DejaVuSans-70"/>
     <use xlink:href="#DejaVuSans-28" x="63.476562"/>
     <use xlink:href="#DejaVuSans-49" x="102.490234"/>
     <use xlink:href="#DejaVuSans-41" x="131.982422"/>
     <use xlink:href="#DejaVuSans-43" x="198.640625"/>
     <use xlink:href="#DejaVuSans-5f" x="268.464844"/>
     <use xlink:href="#DejaVuSans-28" x="318.464844"/>
     <use xlink:href="#DejaVuSans-30" x="357.478516"/>
     <use xlink:href="#DejaVuSans-2e" x="421.101562"/>
     <use xlink:href="#DejaVuSans-32" x="452.888672"/>
     <use xlink:href="#DejaVuSans-2c" x="516.511719"/>
     <use xlink:href="#DejaVuSans-20" x="548.298828"/>
     <use xlink:href="#DejaVuSans-30" x="580.085938"/>
     <use xlink:href="#DejaVuSans-2e" x="643.708984"/>
     <use xlink:href="#DejaVuSans-31" x="675.496094"/>
     <use xlink:href="#DejaVuSans-29" x="739.119141"/>
     <use xlink:href="#DejaVuSans-29" x="778.132812"/>
     <use xlink:href="#DejaVuSans-20" x="817.146484"/>
     <use xlink:href="#DejaVuSans-3d" x="848.933594"/>
     <use xlink:href="#DejaVuSans-20" x="932.722656"/>
     <use xlink:href="#DejaVuSans-31" x="964.509766"/>
     <use xlink:href="#DejaVuSans-2e" x="1028.132812"/>
     <use xlink:href="#DejaVuSans-30" x="1059.919922"/>
     <use xlink:href="#DejaVuSans-30" x="1123.542969"/>
     <use xlink:href="#DejaVuSans-30" x="1187.166016"/>
    </g>
   </g>
  </g>
 </g>
 <defs>
  <clipPath id="pbdf899df47">
   <rect x="103.104" y="41.472" width="266.112" height="266.112"/>
  </clipPath>
 </defs>
</svg>
