<?xml version="1.0" encoding="utf-8" standalone="no"?>
<!DOCTYPE svg PUBLIC "-//W3C//DTD SVG 1.1//EN"
  "http://www.w3.org/Graphics/SVG/1.1/DTD/svg11.dtd">
<svg xmlns:xlink="http://www.w3.org/1999/xlink" width="460.8pt" height="345.6pt" viewBox="0 0 460.8 345.6" xmlns="http://www.w3.org/2000/svg" version="1.1">
 <metadata>
  <rdf:RDF xmlns:dc="http://purl.org/dc/elements/1.1/" xmlns:cc="http://creativecommons.org/ns#" xmlns:rdf="http://www.w3.org/1999/02/22-rdf-syntax-ns#">
   <cc:Work>
    <dc:type rdf:resource="http://purl.org/dc/dcmitype/StillImage"/>
    <dc:date>2023-04-26T00:11:51.555551</dc:date>
    <dc:format>image/svg+xml</dc:format>
    <dc:creator>
     <cc:Agent>
      <dc:title>Matplotlib v3.6.2, https://matplotlib.org/</dc:title>
     </cc:Agent>
    </dc:creator>
   </cc:Work>
  </rdf:RDF>
 </metadata>
 <defs>
  <style type="text/css">*{stroke-linejoin: round; stroke-linecap: butt}</style>
 </defs>
 <g id="figure_1">
  <g id="patch_1">
   <path d="M 0 345.6 
L 460.8 345.6 
L 460.8 0 
L 0 0 
z
" style="fill: #ffffff"/>
  </g>
  <g id="axes_1">
   <g id="PolyCollection_1">
    <defs>
     <path id="C0_0_3020b280a0" d="M 141.21881 -75.931916 
L 141.21881 -76.132084 
L 141.12 -76.232169 
L 141.02119 -76.132084 
L 141.02119 -75.931916 
L 141.12 -75.831831 
z
"/>
    </defs>
    <g clip-path="url(#pdcd9ffdff1)">
     <use xlink:href="#C0_0_3020b280a0" x="74.157896" y="217.154756" style="fill: #08306b; stroke: #08306b"/>
    </g>
    <g clip-path="url(#pdcd9ffdff1)">
     <use xlink:href="#C0_0_3020b280a0" x="75.54124" y="214.75273" style="fill: #08306b; stroke: #08306b"/>
    </g>
    <g clip-path="url(#pdcd9ffdff1)">
     <use xlink:href="#C0_0_3020b280a0" x="75.936481" y="214.152223" style="fill: #08306b; stroke: #08306b"/>
    </g>
    <g clip-path="url(#pdcd9ffdff1)">
     <use xlink:href="#C0_0_3020b280a0" x="76.529342" y="212.95121" style="fill: #08306b; stroke: #08306b"/>
    </g>
    <g clip-path="url(#pdcd9ffdff1)">
     <use xlink:href="#C0_0_3020b280a0" x="76.726963" y="212.95121" style="fill: #08306b; stroke: #08306b"/>
    </g>
    <g clip-path="url(#pdcd9ffdff1)">
     <use xlink:href="#C0_0_3020b280a0" x="77.517445" y="211.14969" style="fill: #08306b; stroke: #08306b"/>
    </g>
    <g clip-path="url(#pdcd9ffdff1)">
     <use xlink:href="#C0_0_3020b280a0" x="77.715065" y="211.14969" style="fill: #08306b; stroke: #08306b"/>
    </g>
    <g clip-path="url(#pdcd9ffdff1)">
     <use xlink:href="#C0_0_3020b280a0" x="77.912686" y="210.549183" style="fill: #08306b; stroke: #08306b"/>
    </g>
    <g clip-path="url(#pdcd9ffdff1)">
     <use xlink:href="#C0_0_3020b280a0" x="78.110307" y="210.549183" style="fill: #08306b; stroke: #08306b"/>
    </g>
    <g clip-path="url(#pdcd9ffdff1)">
     <use xlink:href="#C0_0_3020b280a0" x="78.307927" y="209.948677" style="fill: #08316d; stroke: #08316d"/>
    </g>
    <g clip-path="url(#pdcd9ffdff1)">
     <use xlink:href="#C0_0_3020b280a0" x="78.703168" y="209.34817" style="fill: #08316d; stroke: #08316d"/>
    </g>
    <g clip-path="url(#pdcd9ffdff1)">
     <use xlink:href="#C0_0_3020b280a0" x="78.900789" y="208.747663" style="fill: #08306b; stroke: #08306b"/>
    </g>
    <g clip-path="url(#pdcd9ffdff1)">
     <use xlink:href="#C0_0_3020b280a0" x="79.098409" y="208.747663" style="fill: #08316d; stroke: #08316d"/>
    </g>
    <g clip-path="url(#pdcd9ffdff1)">
     <use xlink:href="#C0_0_3020b280a0" x="79.29603" y="208.147157" style="fill: #08306b; stroke: #08306b"/>
    </g>
    <g clip-path="url(#pdcd9ffdff1)">
     <use xlink:href="#C0_0_3020b280a0" x="79.49365" y="208.147157" style="fill: #08306b; stroke: #08306b"/>
    </g>
    <g clip-path="url(#pdcd9ffdff1)">
     <use xlink:href="#C0_0_3020b280a0" x="79.691271" y="207.54665" style="fill: #08326e; stroke: #08326e"/>
    </g>
    <g clip-path="url(#pdcd9ffdff1)">
     <use xlink:href="#C0_0_3020b280a0" x="80.086512" y="206.946143" style="fill: #083370; stroke: #083370"/>
    </g>
    <g clip-path="url(#pdcd9ffdff1)">
     <use xlink:href="#C0_0_3020b280a0" x="80.284132" y="206.345637" style="fill: #08326e; stroke: #08326e"/>
    </g>
    <g clip-path="url(#pdcd9ffdff1)">
     <use xlink:href="#C0_0_3020b280a0" x="80.481753" y="206.345637" style="fill: #083370; stroke: #083370"/>
    </g>
    <g clip-path="url(#pdcd9ffdff1)">
     <use xlink:href="#C0_0_3020b280a0" x="80.679373" y="205.74513" style="fill: #083573; stroke: #083573"/>
    </g>
    <g clip-path="url(#pdcd9ffdff1)">
     <use xlink:href="#C0_0_3020b280a0" x="80.876994" y="205.74513" style="fill: #08316d; stroke: #08316d"/>
    </g>
    <g clip-path="url(#pdcd9ffdff1)">
     <use xlink:href="#C0_0_3020b280a0" x="81.074614" y="205.144623" style="fill: #083979; stroke: #083979"/>
    </g>
    <g clip-path="url(#pdcd9ffdff1)">
     <use xlink:href="#C0_0_3020b280a0" x="81.469855" y="204.544117" style="fill: #083776; stroke: #083776"/>
    </g>
    <g clip-path="url(#pdcd9ffdff1)">
     <use xlink:href="#C0_0_3020b280a0" x="81.667476" y="203.94361" style="fill: #083573; stroke: #083573"/>
    </g>
    <g clip-path="url(#pdcd9ffdff1)">
     <use xlink:href="#C0_0_3020b280a0" x="81.865097" y="203.94361" style="fill: #083a7a; stroke: #083a7a"/>
    </g>
    <g clip-path="url(#pdcd9ffdff1)">
     <use xlink:href="#C0_0_3020b280a0" x="82.062717" y="203.343103" style="fill: #083c7d; stroke: #083c7d"/>
    </g>
    <g clip-path="url(#pdcd9ffdff1)">
     <use xlink:href="#C0_0_3020b280a0" x="82.260338" y="203.343103" style="fill: #083674; stroke: #083674"/>
    </g>
    <g clip-path="url(#pdcd9ffdff1)">
     <use xlink:href="#C0_0_3020b280a0" x="82.457958" y="202.742597" style="fill: #084285; stroke: #084285"/>
    </g>
    <g clip-path="url(#pdcd9ffdff1)">
     <use xlink:href="#C0_0_3020b280a0" x="82.853199" y="202.14209" style="fill: #08488e; stroke: #08488e"/>
    </g>
    <g clip-path="url(#pdcd9ffdff1)">
     <use xlink:href="#C0_0_3020b280a0" x="83.05082" y="201.541583" style="fill: #084285; stroke: #084285"/>
    </g>
    <g clip-path="url(#pdcd9ffdff1)">
     <use xlink:href="#C0_0_3020b280a0" x="83.24844" y="201.541583" style="fill: #084b93; stroke: #084b93"/>
    </g>
    <g clip-path="url(#pdcd9ffdff1)">
     <use xlink:href="#C0_0_3020b280a0" x="83.446061" y="200.941077" style="fill: #084c95; stroke: #084c95"/>
    </g>
    <g clip-path="url(#pdcd9ffdff1)">
     <use xlink:href="#C0_0_3020b280a0" x="83.643681" y="200.941077" style="fill: #084184; stroke: #084184"/>
    </g>
    <g clip-path="url(#pdcd9ffdff1)">
     <use xlink:href="#C0_0_3020b280a0" x="83.841302" y="200.34057" style="fill: #0f5aa3; stroke: #0f5aa3"/>
    </g>
    <g clip-path="url(#pdcd9ffdff1)">
     <use xlink:href="#C0_0_3020b280a0" x="84.236543" y="199.740063" style="fill: #1663aa; stroke: #1663aa"/>
    </g>
    <g clip-path="url(#pdcd9ffdff1)">
     <use xlink:href="#C0_0_3020b280a0" x="84.434163" y="199.139557" style="fill: #08519c; stroke: #08519c"/>
    </g>
    <g clip-path="url(#pdcd9ffdff1)">
     <use xlink:href="#C0_0_3020b280a0" x="84.631784" y="199.139557" style="fill: #1c6bb0; stroke: #1c6bb0"/>
    </g>
    <g clip-path="url(#pdcd9ffdff1)">
     <use xlink:href="#C0_0_3020b280a0" x="84.829404" y="198.53905" style="fill: #1a68ae; stroke: #1a68ae"/>
    </g>
    <g clip-path="url(#pdcd9ffdff1)">
     <use xlink:href="#C0_0_3020b280a0" x="85.027025" y="198.53905" style="fill: #125ea6; stroke: #125ea6"/>
    </g>
    <g clip-path="url(#pdcd9ffdff1)">
     <use xlink:href="#C0_0_3020b280a0" x="85.224646" y="197.938543" style="fill: #4191c6; stroke: #4191c6"/>
    </g>
    <g clip-path="url(#pdcd9ffdff1)">
     <use xlink:href="#C0_0_3020b280a0" x="85.619887" y="197.338037" style="fill: #4896c8; stroke: #4896c8"/>
    </g>
    <g clip-path="url(#pdcd9ffdff1)">
     <use xlink:href="#C0_0_3020b280a0" x="85.817507" y="196.73753" style="fill: #1562a9; stroke: #1562a9"/>
    </g>
    <g clip-path="url(#pdcd9ffdff1)">
     <use xlink:href="#C0_0_3020b280a0" x="86.015128" y="196.73753" style="fill: #4695c8; stroke: #4695c8"/>
    </g>
    <g clip-path="url(#pdcd9ffdff1)">
     <use xlink:href="#C0_0_3020b280a0" x="86.212748" y="196.137023" style="fill: #5ba3d0; stroke: #5ba3d0"/>
    </g>
    <g clip-path="url(#pdcd9ffdff1)">
     <use xlink:href="#C0_0_3020b280a0" x="86.410369" y="196.137023" style="fill: #3a8ac2; stroke: #3a8ac2"/>
    </g>
    <g clip-path="url(#pdcd9ffdff1)">
     <use xlink:href="#C0_0_3020b280a0" x="86.607989" y="195.536517" style="fill: #81badb; stroke: #81badb"/>
    </g>
    <g clip-path="url(#pdcd9ffdff1)">
     <use xlink:href="#C0_0_3020b280a0" x="87.00323" y="194.93601" style="fill: #abd0e6; stroke: #abd0e6"/>
    </g>
    <g clip-path="url(#pdcd9ffdff1)">
     <use xlink:href="#C0_0_3020b280a0" x="87.200851" y="194.335503" style="fill: #2f7fbc; stroke: #2f7fbc"/>
    </g>
    <g clip-path="url(#pdcd9ffdff1)">
     <use xlink:href="#C0_0_3020b280a0" x="87.398471" y="194.335503" style="fill: #b3d3e8; stroke: #b3d3e8"/>
    </g>
    <g clip-path="url(#pdcd9ffdff1)">
     <use xlink:href="#C0_0_3020b280a0" x="87.596092" y="193.734997" style="fill: #a9cfe5; stroke: #a9cfe5"/>
    </g>
    <g clip-path="url(#pdcd9ffdff1)">
     <use xlink:href="#C0_0_3020b280a0" x="87.793712" y="193.734997" style="fill: #94c4df; stroke: #94c4df"/>
    </g>
    <g clip-path="url(#pdcd9ffdff1)">
     <use xlink:href="#C0_0_3020b280a0" x="87.991333" y="193.13449" style="fill: #deebf7; stroke: #deebf7"/>
    </g>
    <g clip-path="url(#pdcd9ffdff1)">
     <use xlink:href="#C0_0_3020b280a0" x="88.386574" y="192.533983" style="fill: #f2f7fd; stroke: #f2f7fd"/>
    </g>
    <g clip-path="url(#pdcd9ffdff1)">
     <use xlink:href="#C0_0_3020b280a0" x="88.584194" y="191.933477" style="fill: #3888c1; stroke: #3888c1"/>
    </g>
    <g clip-path="url(#pdcd9ffdff1)">
     <use xlink:href="#C0_0_3020b280a0" x="88.781815" y="191.933477" style="fill: #e2edf8; stroke: #e2edf8"/>
    </g>
    <g clip-path="url(#pdcd9ffdff1)">
     <use xlink:href="#C0_0_3020b280a0" x="88.979436" y="191.33297" style="fill: #d5e5f4; stroke: #d5e5f4"/>
    </g>
    <g clip-path="url(#pdcd9ffdff1)">
     <use xlink:href="#C0_0_3020b280a0" x="89.177056" y="191.33297" style="fill: #a4cce3; stroke: #a4cce3"/>
    </g>
    <g clip-path="url(#pdcd9ffdff1)">
     <use xlink:href="#C0_0_3020b280a0" x="89.374677" y="190.732464" style="fill: #f7fbff; stroke: #f7fbff"/>
    </g>
    <g clip-path="url(#pdcd9ffdff1)">
     <use xlink:href="#C0_0_3020b280a0" x="89.769918" y="190.131957" style="fill: #d9e7f5; stroke: #d9e7f5"/>
    </g>
    <g clip-path="url(#pdcd9ffdff1)">
     <use xlink:href="#C0_0_3020b280a0" x="89.967538" y="189.53145" style="fill: #206fb4; stroke: #206fb4"/>
    </g>
    <g clip-path="url(#pdcd9ffdff1)">
     <use xlink:href="#C0_0_3020b280a0" x="90.165159" y="189.53145" style="fill: #d0e1f2; stroke: #d0e1f2"/>
    </g>
    <g clip-path="url(#pdcd9ffdff1)">
     <use xlink:href="#C0_0_3020b280a0" x="90.362779" y="188.930944" style="fill: #a5cde3; stroke: #a5cde3"/>
    </g>
    <g clip-path="url(#pdcd9ffdff1)">
     <use xlink:href="#C0_0_3020b280a0" x="90.5604" y="188.930944" style="fill: #75b4d8; stroke: #75b4d8"/>
    </g>
    <g clip-path="url(#pdcd9ffdff1)">
     <use xlink:href="#C0_0_3020b280a0" x="90.75802" y="188.330437" style="fill: #a6cee4; stroke: #a6cee4"/>
    </g>
    <g clip-path="url(#pdcd9ffdff1)">
     <use xlink:href="#C0_0_3020b280a0" x="90.955641" y="188.330437" style="fill: #08316d; stroke: #08316d"/>
    </g>
    <g clip-path="url(#pdcd9ffdff1)">
     <use xlink:href="#C0_0_3020b280a0" x="91.153261" y="187.72993" style="fill: #75b4d8; stroke: #75b4d8"/>
    </g>
    <g clip-path="url(#pdcd9ffdff1)">
     <use xlink:href="#C0_0_3020b280a0" x="91.350882" y="187.129424" style="fill: #084a91; stroke: #084a91"/>
    </g>
    <g clip-path="url(#pdcd9ffdff1)">
     <use xlink:href="#C0_0_3020b280a0" x="91.548502" y="187.129424" style="fill: #4594c7; stroke: #4594c7"/>
    </g>
    <g clip-path="url(#pdcd9ffdff1)">
     <use xlink:href="#C0_0_3020b280a0" x="91.746123" y="186.528917" style="fill: #2070b4; stroke: #2070b4"/>
    </g>
    <g clip-path="url(#pdcd9ffdff1)">
     <use xlink:href="#C0_0_3020b280a0" x="91.943743" y="186.528917" style="fill: #1764ab; stroke: #1764ab"/>
    </g>
    <g clip-path="url(#pdcd9ffdff1)">
     <use xlink:href="#C0_0_3020b280a0" x="92.141364" y="185.92841" style="fill: #1561a9; stroke: #1561a9"/>
    </g>
    <g clip-path="url(#pdcd9ffdff1)">
     <use xlink:href="#C0_0_3020b280a0" x="92.338984" y="185.92841" style="fill: #08326e; stroke: #08326e"/>
    </g>
    <g clip-path="url(#pdcd9ffdff1)">
     <use xlink:href="#C0_0_3020b280a0" x="92.536605" y="185.327904" style="fill: #084b93; stroke: #084b93"/>
    </g>
    <g clip-path="url(#pdcd9ffdff1)">
     <use xlink:href="#C0_0_3020b280a0" x="92.734226" y="184.727397" style="fill: #08316d; stroke: #08316d"/>
    </g>
    <g clip-path="url(#pdcd9ffdff1)">
     <use xlink:href="#C0_0_3020b280a0" x="92.931846" y="184.727397" style="fill: #083b7c; stroke: #083b7c"/>
    </g>
    <g clip-path="url(#pdcd9ffdff1)">
     <use xlink:href="#C0_0_3020b280a0" x="93.129467" y="184.12689" style="fill: #083471; stroke: #083471"/>
    </g>
    <g clip-path="url(#pdcd9ffdff1)">
     <use xlink:href="#C0_0_3020b280a0" x="93.327087" y="184.12689" style="fill: #08316d; stroke: #08316d"/>
    </g>
    <g clip-path="url(#pdcd9ffdff1)">
     <use xlink:href="#C0_0_3020b280a0" x="93.524708" y="183.526384" style="fill: #08316d; stroke: #08316d"/>
    </g>
    <g clip-path="url(#pdcd9ffdff1)">
     <use xlink:href="#C0_0_3020b280a0" x="93.919949" y="182.925877" style="fill: #08306b; stroke: #08306b"/>
    </g>
    <g clip-path="url(#pdcd9ffdff1)">
     <use xlink:href="#C0_0_3020b280a0" x="76.035291" y="213.85197" style="fill: #08306b; stroke: #08306b"/>
    </g>
    <g clip-path="url(#pdcd9ffdff1)">
     <use xlink:href="#C0_0_3020b280a0" x="76.825773" y="212.650956" style="fill: #08306b; stroke: #08306b"/>
    </g>
    <g clip-path="url(#pdcd9ffdff1)">
     <use xlink:href="#C0_0_3020b280a0" x="77.023394" y="212.05045" style="fill: #08306b; stroke: #08306b"/>
    </g>
    <g clip-path="url(#pdcd9ffdff1)">
     <use xlink:href="#C0_0_3020b280a0" x="77.221014" y="212.05045" style="fill: #08306b; stroke: #08306b"/>
    </g>
    <g clip-path="url(#pdcd9ffdff1)">
     <use xlink:href="#C0_0_3020b280a0" x="77.418635" y="211.449943" style="fill: #08306b; stroke: #08306b"/>
    </g>
    <g clip-path="url(#pdcd9ffdff1)">
     <use xlink:href="#C0_0_3020b280a0" x="78.209117" y="210.24893" style="fill: #08306b; stroke: #08306b"/>
    </g>
    <g clip-path="url(#pdcd9ffdff1)">
     <use xlink:href="#C0_0_3020b280a0" x="78.406737" y="209.648423" style="fill: #08306b; stroke: #08306b"/>
    </g>
    <g clip-path="url(#pdcd9ffdff1)">
     <use xlink:href="#C0_0_3020b280a0" x="78.604358" y="209.648423" style="fill: #08306b; stroke: #08306b"/>
    </g>
    <g clip-path="url(#pdcd9ffdff1)">
     <use xlink:href="#C0_0_3020b280a0" x="78.801978" y="209.047917" style="fill: #08306b; stroke: #08306b"/>
    </g>
    <g clip-path="url(#pdcd9ffdff1)">
     <use xlink:href="#C0_0_3020b280a0" x="79.197219" y="208.44741" style="fill: #08316d; stroke: #08316d"/>
    </g>
    <g clip-path="url(#pdcd9ffdff1)">
     <use xlink:href="#C0_0_3020b280a0" x="79.39484" y="207.846903" style="fill: #08306b; stroke: #08306b"/>
    </g>
    <g clip-path="url(#pdcd9ffdff1)">
     <use xlink:href="#C0_0_3020b280a0" x="79.59246" y="207.846903" style="fill: #083370; stroke: #083370"/>
    </g>
    <g clip-path="url(#pdcd9ffdff1)">
     <use xlink:href="#C0_0_3020b280a0" x="79.790081" y="207.246397" style="fill: #08326e; stroke: #08326e"/>
    </g>
    <g clip-path="url(#pdcd9ffdff1)">
     <use xlink:href="#C0_0_3020b280a0" x="79.987702" y="207.246397" style="fill: #08326e; stroke: #08326e"/>
    </g>
    <g clip-path="url(#pdcd9ffdff1)">
     <use xlink:href="#C0_0_3020b280a0" x="80.185322" y="206.64589" style="fill: #08326e; stroke: #08326e"/>
    </g>
    <g clip-path="url(#pdcd9ffdff1)">
     <use xlink:href="#C0_0_3020b280a0" x="80.580563" y="206.045383" style="fill: #083674; stroke: #083674"/>
    </g>
    <g clip-path="url(#pdcd9ffdff1)">
     <use xlink:href="#C0_0_3020b280a0" x="80.778184" y="205.444877" style="fill: #08316d; stroke: #08316d"/>
    </g>
    <g clip-path="url(#pdcd9ffdff1)">
     <use xlink:href="#C0_0_3020b280a0" x="80.975804" y="205.444877" style="fill: #083471; stroke: #083471"/>
    </g>
    <g clip-path="url(#pdcd9ffdff1)">
     <use xlink:href="#C0_0_3020b280a0" x="81.173425" y="204.84437" style="fill: #083471; stroke: #083471"/>
    </g>
    <g clip-path="url(#pdcd9ffdff1)">
     <use xlink:href="#C0_0_3020b280a0" x="81.371045" y="204.84437" style="fill: #083471; stroke: #083471"/>
    </g>
    <g clip-path="url(#pdcd9ffdff1)">
     <use xlink:href="#C0_0_3020b280a0" x="81.568666" y="204.243863" style="fill: #083b7c; stroke: #083b7c"/>
    </g>
    <g clip-path="url(#pdcd9ffdff1)">
     <use xlink:href="#C0_0_3020b280a0" x="81.766286" y="204.243863" style="fill: #08306b; stroke: #08306b"/>
    </g>
    <g clip-path="url(#pdcd9ffdff1)">
     <use xlink:href="#C0_0_3020b280a0" x="81.963907" y="203.643357" style="fill: #083e81; stroke: #083e81"/>
    </g>
    <g clip-path="url(#pdcd9ffdff1)">
     <use xlink:href="#C0_0_3020b280a0" x="82.161527" y="203.04285" style="fill: #08326e; stroke: #08326e"/>
    </g>
    <g clip-path="url(#pdcd9ffdff1)">
     <use xlink:href="#C0_0_3020b280a0" x="82.359148" y="203.04285" style="fill: #083b7c; stroke: #083b7c"/>
    </g>
    <g clip-path="url(#pdcd9ffdff1)">
     <use xlink:href="#C0_0_3020b280a0" x="82.556768" y="202.442343" style="fill: #083d7f; stroke: #083d7f"/>
    </g>
    <g clip-path="url(#pdcd9ffdff1)">
     <use xlink:href="#C0_0_3020b280a0" x="82.754389" y="202.442343" style="fill: #084082; stroke: #084082"/>
    </g>
    <g clip-path="url(#pdcd9ffdff1)">
     <use xlink:href="#C0_0_3020b280a0" x="82.952009" y="201.841837" style="fill: #08458a; stroke: #08458a"/>
    </g>
    <g clip-path="url(#pdcd9ffdff1)">
     <use xlink:href="#C0_0_3020b280a0" x="83.14963" y="201.841837" style="fill: #083370; stroke: #083370"/>
    </g>
    <g clip-path="url(#pdcd9ffdff1)">
     <use xlink:href="#C0_0_3020b280a0" x="83.34725" y="201.24133" style="fill: #08519c; stroke: #08519c"/>
    </g>
    <g clip-path="url(#pdcd9ffdff1)">
     <use xlink:href="#C0_0_3020b280a0" x="83.544871" y="200.640823" style="fill: #083573; stroke: #083573"/>
    </g>
    <g clip-path="url(#pdcd9ffdff1)">
     <use xlink:href="#C0_0_3020b280a0" x="83.742492" y="200.640823" style="fill: #0a549e; stroke: #0a549e"/>
    </g>
    <g clip-path="url(#pdcd9ffdff1)">
     <use xlink:href="#C0_0_3020b280a0" x="83.940112" y="200.040317" style="fill: #084d96; stroke: #084d96"/>
    </g>
    <g clip-path="url(#pdcd9ffdff1)">
     <use xlink:href="#C0_0_3020b280a0" x="84.137733" y="200.040317" style="fill: #09529d; stroke: #09529d"/>
    </g>
    <g clip-path="url(#pdcd9ffdff1)">
     <use xlink:href="#C0_0_3020b280a0" x="84.335353" y="199.43981" style="fill: #1865ac; stroke: #1865ac"/>
    </g>
    <g clip-path="url(#pdcd9ffdff1)">
     <use xlink:href="#C0_0_3020b280a0" x="84.532974" y="199.43981" style="fill: #083776; stroke: #083776"/>
    </g>
    <g clip-path="url(#pdcd9ffdff1)">
     <use xlink:href="#C0_0_3020b280a0" x="84.730594" y="198.839303" style="fill: #2272b6; stroke: #2272b6"/>
    </g>
    <g clip-path="url(#pdcd9ffdff1)">
     <use xlink:href="#C0_0_3020b280a0" x="84.928215" y="198.238797" style="fill: #083979; stroke: #083979"/>
    </g>
    <g clip-path="url(#pdcd9ffdff1)">
     <use xlink:href="#C0_0_3020b280a0" x="85.125835" y="198.238797" style="fill: #3989c1; stroke: #3989c1"/>
    </g>
    <g clip-path="url(#pdcd9ffdff1)">
     <use xlink:href="#C0_0_3020b280a0" x="85.323456" y="197.63829" style="fill: #2474b7; stroke: #2474b7"/>
    </g>
    <g clip-path="url(#pdcd9ffdff1)">
     <use xlink:href="#C0_0_3020b280a0" x="85.521076" y="197.63829" style="fill: #2b7bba; stroke: #2b7bba"/>
    </g>
    <g clip-path="url(#pdcd9ffdff1)">
     <use xlink:href="#C0_0_3020b280a0" x="85.718697" y="197.037783" style="fill: #4997c9; stroke: #4997c9"/>
    </g>
    <g clip-path="url(#pdcd9ffdff1)">
     <use xlink:href="#C0_0_3020b280a0" x="85.916317" y="197.037783" style="fill: #084990; stroke: #084990"/>
    </g>
    <g clip-path="url(#pdcd9ffdff1)">
     <use xlink:href="#C0_0_3020b280a0" x="86.113938" y="196.437277" style="fill: #6dafd7; stroke: #6dafd7"/>
    </g>
    <g clip-path="url(#pdcd9ffdff1)">
     <use xlink:href="#C0_0_3020b280a0" x="86.311558" y="195.83677" style="fill: #083674; stroke: #083674"/>
    </g>
    <g clip-path="url(#pdcd9ffdff1)">
     <use xlink:href="#C0_0_3020b280a0" x="86.509179" y="195.83677" style="fill: #89bedc; stroke: #89bedc"/>
    </g>
    <g clip-path="url(#pdcd9ffdff1)">
     <use xlink:href="#C0_0_3020b280a0" x="86.706799" y="195.236263" style="fill: #58a1cf; stroke: #58a1cf"/>
    </g>
    <g clip-path="url(#pdcd9ffdff1)">
     <use xlink:href="#C0_0_3020b280a0" x="86.90442" y="195.236263" style="fill: #72b2d8; stroke: #72b2d8"/>
    </g>
    <g clip-path="url(#pdcd9ffdff1)">
     <use xlink:href="#C0_0_3020b280a0" x="87.102041" y="194.635757" style="fill: #abd0e6; stroke: #abd0e6"/>
    </g>
    <g clip-path="url(#pdcd9ffdff1)">
     <use xlink:href="#C0_0_3020b280a0" x="87.299661" y="194.635757" style="fill: #1764ab; stroke: #1764ab"/>
    </g>
    <g clip-path="url(#pdcd9ffdff1)">
     <use xlink:href="#C0_0_3020b280a0" x="87.497282" y="194.03525" style="fill: #d3e3f3; stroke: #d3e3f3"/>
    </g>
    <g clip-path="url(#pdcd9ffdff1)">
     <use xlink:href="#C0_0_3020b280a0" x="87.892523" y="193.434743" style="fill: #dbe9f6; stroke: #dbe9f6"/>
    </g>
    <g clip-path="url(#pdcd9ffdff1)">
     <use xlink:href="#C0_0_3020b280a0" x="88.090143" y="192.834237" style="fill: #a6cee4; stroke: #a6cee4"/>
    </g>
    <g clip-path="url(#pdcd9ffdff1)">
     <use xlink:href="#C0_0_3020b280a0" x="88.287764" y="192.834237" style="fill: #caddf0; stroke: #caddf0"/>
    </g>
    <g clip-path="url(#pdcd9ffdff1)">
     <use xlink:href="#C0_0_3020b280a0" x="88.485384" y="192.23373" style="fill: #e7f0fa; stroke: #e7f0fa"/>
    </g>
    <g clip-path="url(#pdcd9ffdff1)">
     <use xlink:href="#C0_0_3020b280a0" x="88.683005" y="192.23373" style="fill: #3c8cc3; stroke: #3c8cc3"/>
    </g>
    <g clip-path="url(#pdcd9ffdff1)">
     <use xlink:href="#C0_0_3020b280a0" x="88.880625" y="191.633224" style="fill: #f0f6fd; stroke: #f0f6fd"/>
    </g>
    <g clip-path="url(#pdcd9ffdff1)">
     <use xlink:href="#C0_0_3020b280a0" x="89.275866" y="191.032717" style="fill: #f7fbff; stroke: #f7fbff"/>
    </g>
    <g clip-path="url(#pdcd9ffdff1)">
     <use xlink:href="#C0_0_3020b280a0" x="89.473487" y="190.43221" style="fill: #aed1e7; stroke: #aed1e7"/>
    </g>
    <g clip-path="url(#pdcd9ffdff1)">
     <use xlink:href="#C0_0_3020b280a0" x="89.671107" y="190.43221" style="fill: #caddf0; stroke: #caddf0"/>
    </g>
    <g clip-path="url(#pdcd9ffdff1)">
     <use xlink:href="#C0_0_3020b280a0" x="89.868728" y="189.831704" style="fill: #deebf7; stroke: #deebf7"/>
    </g>
    <g clip-path="url(#pdcd9ffdff1)">
     <use xlink:href="#C0_0_3020b280a0" x="90.066348" y="189.831704" style="fill: #3e8ec4; stroke: #3e8ec4"/>
    </g>
    <g clip-path="url(#pdcd9ffdff1)">
     <use xlink:href="#C0_0_3020b280a0" x="90.263969" y="189.231197" style="fill: #d9e8f5; stroke: #d9e8f5"/>
    </g>
    <g clip-path="url(#pdcd9ffdff1)">
     <use xlink:href="#C0_0_3020b280a0" x="90.65921" y="188.63069" style="fill: #c7dcef; stroke: #c7dcef"/>
    </g>
    <g clip-path="url(#pdcd9ffdff1)">
     <use xlink:href="#C0_0_3020b280a0" x="90.856831" y="188.030184" style="fill: #519ccc; stroke: #519ccc"/>
    </g>
    <g clip-path="url(#pdcd9ffdff1)">
     <use xlink:href="#C0_0_3020b280a0" x="91.054451" y="188.030184" style="fill: #61a7d2; stroke: #61a7d2"/>
    </g>
    <g clip-path="url(#pdcd9ffdff1)">
     <use xlink:href="#C0_0_3020b280a0" x="91.252072" y="187.429677" style="fill: #60a7d2; stroke: #60a7d2"/>
    </g>
    <g clip-path="url(#pdcd9ffdff1)">
     <use xlink:href="#C0_0_3020b280a0" x="91.449692" y="187.429677" style="fill: #1764ab; stroke: #1764ab"/>
    </g>
    <g clip-path="url(#pdcd9ffdff1)">
     <use xlink:href="#C0_0_3020b280a0" x="91.647313" y="186.82917" style="fill: #4493c7; stroke: #4493c7"/>
    </g>
    <g clip-path="url(#pdcd9ffdff1)">
     <use xlink:href="#C0_0_3020b280a0" x="92.042554" y="186.228664" style="fill: #1967ad; stroke: #1967ad"/>
    </g>
    <g clip-path="url(#pdcd9ffdff1)">
     <use xlink:href="#C0_0_3020b280a0" x="92.240174" y="185.628157" style="fill: #08478d; stroke: #08478d"/>
    </g>
    <g clip-path="url(#pdcd9ffdff1)">
     <use xlink:href="#C0_0_3020b280a0" x="92.437795" y="185.628157" style="fill: #084d96; stroke: #084d96"/>
    </g>
    <g clip-path="url(#pdcd9ffdff1)">
     <use xlink:href="#C0_0_3020b280a0" x="92.635415" y="185.02765" style="fill: #084285; stroke: #084285"/>
    </g>
    <g clip-path="url(#pdcd9ffdff1)">
     <use xlink:href="#C0_0_3020b280a0" x="92.833036" y="185.02765" style="fill: #083877; stroke: #083877"/>
    </g>
    <g clip-path="url(#pdcd9ffdff1)">
     <use xlink:href="#C0_0_3020b280a0" x="93.030656" y="184.427144" style="fill: #083776; stroke: #083776"/>
    </g>
    <g clip-path="url(#pdcd9ffdff1)">
     <use xlink:href="#C0_0_3020b280a0" x="93.425897" y="183.826637" style="fill: #08316d; stroke: #08316d"/>
    </g>
    <g clip-path="url(#pdcd9ffdff1)">
     <use xlink:href="#C0_0_3020b280a0" x="93.623518" y="183.22613" style="fill: #08306b; stroke: #08306b"/>
    </g>
    <g clip-path="url(#pdcd9ffdff1)">
     <use xlink:href="#C0_0_3020b280a0" x="93.821138" y="183.22613" style="fill: #08306b; stroke: #08306b"/>
    </g>
   </g>
   <g id="line2d_1">
    <path d="M 141.12 269.568 
L 236.16 104.953891 
L 331.2 269.568 
L 141.12 269.568 
" clip-path="url(#pdcd9ffdff1)" style="fill: none; stroke: #ffa500; stroke-width: 1.5; stroke-linecap: round"/>
   </g>
   <g id="line2d_2">
    <path d="M 236.16 214.69663 
L 236.16 269.568 
" clip-path="url(#pdcd9ffdff1)" style="fill: none; stroke: #ffa500; stroke-width: 1.5; stroke-linecap: round"/>
   </g>
   <g id="line2d_3">
    <path d="M 236.16 214.69663 
L 188.64 187.260946 
" clip-path="url(#pdcd9ffdff1)" style="fill: none; stroke: #ffa500; stroke-width: 1.5; stroke-linecap: round"/>
   </g>
   <g id="line2d_4">
    <path d="M 236.16 214.69663 
L 283.68 187.260946 
" clip-path="url(#pdcd9ffdff1)" style="fill: none; stroke: #ffa500; stroke-width: 1.5; stroke-linecap: round"/>
   </g>
   <g id="text_1">
    <!-- p(IAC_(0.05, 0.1)) = 0.000 -->
    <g style="fill: #262626" transform="translate(62.254688 286.2762) scale(0.12 -0.12)">
     <defs>
      <path id="DejaVuSans-70" d="M 1159 525 
L 1159 -1331 
L 581 -1331 
L 581 3500 
L 1159 3500 
L 1159 2969 
Q 1341 3281 1617 3432 
Q 1894 3584 2278 3584 
Q 2916 3584 3314 3078 
Q 3713 2572 3713 1747 
Q 3713 922 3314 415 
Q 2916 -91 2278 -91 
Q 1894 -91 1617 61 
Q 1341 213 1159 525 
z
M 3116 1747 
Q 3116 2381 2855 2742 
Q 2594 3103 2138 3103 
Q 1681 3103 1420 2742 
Q 1159 2381 1159 1747 
Q 1159 1113 1420 752 
Q 1681 391 2138 391 
Q 2594 391 2855 752 
Q 3116 1113 3116 1747 
z
" transform="scale(0.015625)"/>
      <path id="DejaVuSans-28" d="M 1984 4856 
Q 1566 4138 1362 3434 
Q 1159 2731 1159 2009 
Q 1159 1288 1364 580 
Q 1569 -128 1984 -844 
L 1484 -844 
Q 1016 -109 783 600 
Q 550 1309 550 2009 
Q 550 2706 781 3412 
Q 1013 4119 1484 4856 
L 1984 4856 
z
" transform="scale(0.015625)"/>
      <path id="DejaVuSans-49" d="M 628 4666 
L 1259 4666 
L 1259 0 
L 628 0 
L 628 4666 
z
" transform="scale(0.015625)"/>
      <path id="DejaVuSans-41" d="M 2188 4044 
L 1331 1722 
L 3047 1722 
L 2188 4044 
z
M 1831 4666 
L 2547 4666 
L 4325 0 
L 3669 0 
L 3244 1197 
L 1141 1197 
L 716 0 
L 50 0 
L 1831 4666 
z
" transform="scale(0.015625)"/>
      <path id="DejaVuSans-43" d="M 4122 4306 
L 4122 3641 
Q 3803 3938 3442 4084 
Q 3081 4231 2675 4231 
Q 1875 4231 1450 3742 
Q 1025 3253 1025 2328 
Q 1025 1406 1450 917 
Q 1875 428 2675 428 
Q 3081 428 3442 575 
Q 3803 722 4122 1019 
L 4122 359 
Q 3791 134 3420 21 
Q 3050 -91 2638 -91 
Q 1578 -91 968 557 
Q 359 1206 359 2328 
Q 359 3453 968 4101 
Q 1578 4750 2638 4750 
Q 3056 4750 3426 4639 
Q 3797 4528 4122 4306 
z
" transform="scale(0.015625)"/>
      <path id="DejaVuSans-5f" d="M 3263 -1063 
L 3263 -1509 
L -63 -1509 
L -63 -1063 
L 3263 -1063 
z
" transform="scale(0.015625)"/>
      <path id="DejaVuSans-30" d="M 2034 4250 
Q 1547 4250 1301 3770 
Q 1056 3291 1056 2328 
Q 1056 1369 1301 889 
Q 1547 409 2034 409 
Q 2525 409 2770 889 
Q 3016 1369 3016 2328 
Q 3016 3291 2770 3770 
Q 2525 4250 2034 4250 
z
M 2034 4750 
Q 2819 4750 3233 4129 
Q 3647 3509 3647 2328 
Q 3647 1150 3233 529 
Q 2819 -91 2034 -91 
Q 1250 -91 836 529 
Q 422 1150 422 2328 
Q 422 3509 836 4129 
Q 1250 4750 2034 4750 
z
" transform="scale(0.015625)"/>
      <path id="DejaVuSans-2e" d="M 684 794 
L 1344 794 
L 1344 0 
L 684 0 
L 684 794 
z
" transform="scale(0.015625)"/>
      <path id="DejaVuSans-35" d="M 691 4666 
L 3169 4666 
L 3169 4134 
L 1269 4134 
L 1269 2991 
Q 1406 3038 1543 3061 
Q 1681 3084 1819 3084 
Q 2600 3084 3056 2656 
Q 3513 2228 3513 1497 
Q 3513 744 3044 326 
Q 2575 -91 1722 -91 
Q 1428 -91 1123 -41 
Q 819 9 494 109 
L 494 744 
Q 775 591 1075 516 
Q 1375 441 1709 441 
Q 2250 441 2565 725 
Q 2881 1009 2881 1497 
Q 2881 1984 2565 2268 
Q 2250 2553 1709 2553 
Q 1456 2553 1204 2497 
Q 953 2441 691 2322 
L 691 4666 
z
" transform="scale(0.015625)"/>
      <path id="DejaVuSans-2c" d="M 750 794 
L 1409 794 
L 1409 256 
L 897 -744 
L 494 -744 
L 750 256 
L 750 794 
z
" transform="scale(0.015625)"/>
      <path id="DejaVuSans-20" transform="scale(0.015625)"/>
      <path id="DejaVuSans-31" d="M 794 531 
L 1825 531 
L 1825 4091 
L 703 3866 
L 703 4441 
L 1819 4666 
L 2450 4666 
L 2450 531 
L 3481 531 
L 3481 0 
L 794 0 
L 794 531 
z
" transform="scale(0.015625)"/>
      <path id="DejaVuSans-29" d="M 513 4856 
L 1013 4856 
Q 1481 4119 1714 3412 
Q 1947 2706 1947 2009 
Q 1947 1309 1714 600 
Q 1481 -109 1013 -844 
L 513 -844 
Q 928 -128 1133 580 
Q 1338 1288 1338 2009 
Q 1338 2731 1133 3434 
Q 928 4138 513 4856 
z
" transform="scale(0.015625)"/>
      <path id="DejaVuSans-3d" d="M 678 2906 
L 4684 2906 
L 4684 2381 
L 678 2381 
L 678 2906 
z
M 678 1631 
L 4684 1631 
L 4684 1100 
L 678 1100 
L 678 1631 
z
" transform="scale(0.015625)"/>
     </defs>
     <use xlink:href="#DejaVuSans-70"/>
     <use xlink:href="#DejaVuSans-28" x="63.476562"/>
     <use xlink:href="#DejaVuSans-49" x="102.490234"/>
     <use xlink:href="#DejaVuSans-41" x="131.982422"/>
     <use xlink:href="#DejaVuSans-43" x="198.640625"/>
     <use xlink:href="#DejaVuSans-5f" x="268.464844"/>
     <use xlink:href="#DejaVuSans-28" x="318.464844"/>
     <use xlink:href="#DejaVuSans-30" x="357.478516"/>
     <use xlink:href="#DejaVuSans-2e" x="421.101562"/>
     <use xlink:href="#DejaVuSans-30" x="452.888672"/>
     <use xlink:href="#DejaVuSans-35" x="516.511719"/>
     <use xlink:href="#DejaVuSans-2c" x="580.134766"/>
     <use xlink:href="#DejaVuSans-20" x="611.921875"/>
     <use xlink:href="#DejaVuSans-30" x="643.708984"/>
     <use xlink:href="#DejaVuSans-2e" x="707.332031"/>
     <use xlink:href="#DejaVuSans-31" x="739.119141"/>
     <use xlink:href="#DejaVuSans-29" x="802.742188"/>
     <use xlink:href="#DejaVuSans-29" x="841.755859"/>
     <use xlink:href="#DejaVuSans-20" x="880.769531"/>
     <use xlink:href="#DejaVuSans-3d" x="912.556641"/>
     <use xlink:href="#DejaVuSans-20" x="996.345703"/>
     <use xlink:href="#DejaVuSans-30" x="1028.132812"/>
     <use xlink:href="#DejaVuSans-2e" x="1091.755859"/>
     <use xlink:href="#DejaVuSans-30" x="1123.542969"/>
     <use xlink:href="#DejaVuSans-30" x="1187.166016"/>
     <use xlink:href="#DejaVuSans-30" x="1250.789062"/>
    </g>
   </g>
   <g id="text_2">
    <!-- p(rope) = 1.000 -->
    <g style="fill: #262626" transform="translate(188.146875 102.458266) scale(0.12 -0.12)">
     <defs>
      <path id="DejaVuSans-72" d="M 2631 2963 
Q 2534 3019 2420 3045 
Q 2306 3072 2169 3072 
Q 1681 3072 1420 2755 
Q 1159 2438 1159 1844 
L 1159 0 
L 581 0 
L 581 3500 
L 1159 3500 
L 1159 2956 
Q 1341 3275 1631 3429 
Q 1922 3584 2338 3584 
Q 2397 3584 2469 3576 
Q 2541 3569 2628 3553 
L 2631 2963 
z
" transform="scale(0.015625)"/>
      <path id="DejaVuSans-6f" d="M 1959 3097 
Q 1497 3097 1228 2736 
Q 959 2375 959 1747 
Q 959 1119 1226 758 
Q 1494 397 1959 397 
Q 2419 397 2687 759 
Q 2956 1122 2956 1747 
Q 2956 2369 2687 2733 
Q 2419 3097 1959 3097 
z
M 1959 3584 
Q 2709 3584 3137 3096 
Q 3566 2609 3566 1747 
Q 3566 888 3137 398 
Q 2709 -91 1959 -91 
Q 1206 -91 779 398 
Q 353 888 353 1747 
Q 353 2609 779 3096 
Q 1206 3584 1959 3584 
z
" transform="scale(0.015625)"/>
      <path id="DejaVuSans-65" d="M 3597 1894 
L 3597 1613 
L 953 1613 
Q 991 1019 1311 708 
Q 1631 397 2203 397 
Q 2534 397 2845 478 
Q 3156 559 3463 722 
L 3463 178 
Q 3153 47 2828 -22 
Q 2503 -91 2169 -91 
Q 1331 -91 842 396 
Q 353 884 353 1716 
Q 353 2575 817 3079 
Q 1281 3584 2069 3584 
Q 2775 3584 3186 3129 
Q 3597 2675 3597 1894 
z
M 3022 2063 
Q 3016 2534 2758 2815 
Q 2500 3097 2075 3097 
Q 1594 3097 1305 2825 
Q 1016 2553 972 2059 
L 3022 2063 
z
" transform="scale(0.015625)"/>
     </defs>
     <use xlink:href="#DejaVuSans-70"/>
     <use xlink:href="#DejaVuSans-28" x="63.476562"/>
     <use xlink:href="#DejaVuSans-72" x="102.490234"/>
     <use xlink:href="#DejaVuSans-6f" x="141.353516"/>
     <use xlink:href="#DejaVuSans-70" x="202.535156"/>
     <use xlink:href="#DejaVuSans-65" x="266.011719"/>
     <use xlink:href="#DejaVuSans-29" x="327.535156"/>
     <use xlink:href="#DejaVuSans-20" x="366.548828"/>
     <use xlink:href="#DejaVuSans-3d" x="398.335938"/>
     <use xlink:href="#DejaVuSans-20" x="482.125"/>
     <use xlink:href="#DejaVuSans-31" x="513.912109"/>
     <use xlink:href="#DejaVuSans-2e" x="577.535156"/>
     <use xlink:href="#DejaVuSans-30" x="609.322266"/>
     <use xlink:href="#DejaVuSans-30" x="672.945312"/>
     <use xlink:href="#DejaVuSans-30" x="736.568359"/>
    </g>
   </g>
   <g id="text_3">
    <!-- p(IAC_(0.2, 0.5)) = 0.000 -->
    <g style="fill: #262626" transform="translate(256.152188 286.2762) scale(0.12 -0.12)">
     <defs>
      <path id="DejaVuSans-32" d="M 1228 531 
L 3431 531 
L 3431 0 
L 469 0 
L 469 531 
Q 828 903 1448 1529 
Q 2069 2156 2228 2338 
Q 2531 2678 2651 2914 
Q 2772 3150 2772 3378 
Q 2772 3750 2511 3984 
Q 2250 4219 1831 4219 
Q 1534 4219 1204 4116 
Q 875 4013 500 3803 
L 500 4441 
Q 881 4594 1212 4672 
Q 1544 4750 1819 4750 
Q 2544 4750 2975 4387 
Q 3406 4025 3406 3419 
Q 3406 3131 3298 2873 
Q 3191 2616 2906 2266 
Q 2828 2175 2409 1742 
Q 1991 1309 1228 531 
z
" transform="scale(0.015625)"/>
     </defs>
     <use xlink:href="#DejaVuSans-70"/>
     <use xlink:href="#DejaVuSans-28" x="63.476562"/>
     <use xlink:href="#DejaVuSans-49" x="102.490234"/>
     <use xlink:href="#DejaVuSans-41" x="131.982422"/>
     <use xlink:href="#DejaVuSans-43" x="198.640625"/>
     <use xlink:href="#DejaVuSans-5f" x="268.464844"/>
     <use xlink:href="#DejaVuSans-28" x="318.464844"/>
     <use xlink:href="#DejaVuSans-30" x="357.478516"/>
     <use xlink:href="#DejaVuSans-2e" x="421.101562"/>
     <use xlink:href="#DejaVuSans-32" x="452.888672"/>
     <use xlink:href="#DejaVuSans-2c" x="516.511719"/>
     <use xlink:href="#DejaVuSans-20" x="548.298828"/>
     <use xlink:href="#DejaVuSans-30" x="580.085938"/>
     <use xlink:href="#DejaVuSans-2e" x="643.708984"/>
     <use xlink:href="#DejaVuSans-35" x="675.496094"/>
     <use xlink:href="#DejaVuSans-29" x="739.119141"/>
     <use xlink:href="#DejaVuSans-29" x="778.132812"/>
     <use xlink:href="#DejaVuSans-20" x="817.146484"/>
     <use xlink:href="#DejaVuSans-3d" x="848.933594"/>
     <use xlink:href="#DejaVuSans-20" x="932.722656"/>
     <use xlink:href="#DejaVuSans-30" x="964.509766"/>
     <use xlink:href="#DejaVuSans-2e" x="1028.132812"/>
     <use xlink:href="#DejaVuSans-30" x="1059.919922"/>
     <use xlink:href="#DejaVuSans-30" x="1123.542969"/>
     <use xlink:href="#DejaVuSans-30" x="1187.166016"/>
    </g>
   </g>
  </g>
 </g>
 <defs>
  <clipPath id="pdcd9ffdff1">
   <rect x="103.104" y="41.472" width="266.112" height="266.112"/>
  </clipPath>
 </defs>
</svg>
