<?xml version="1.0" encoding="utf-8" standalone="no"?>
<!DOCTYPE svg PUBLIC "-//W3C//DTD SVG 1.1//EN"
  "http://www.w3.org/Graphics/SVG/1.1/DTD/svg11.dtd">
<svg xmlns:xlink="http://www.w3.org/1999/xlink" width="460.8pt" height="345.6pt" viewBox="0 0 460.8 345.6" xmlns="http://www.w3.org/2000/svg" version="1.1">
 <metadata>
  <rdf:RDF xmlns:dc="http://purl.org/dc/elements/1.1/" xmlns:cc="http://creativecommons.org/ns#" xmlns:rdf="http://www.w3.org/1999/02/22-rdf-syntax-ns#">
   <cc:Work>
    <dc:type rdf:resource="http://purl.org/dc/dcmitype/StillImage"/>
    <dc:date>2023-04-26T00:12:18.961283</dc:date>
    <dc:format>image/svg+xml</dc:format>
    <dc:creator>
     <cc:Agent>
      <dc:title>Matplotlib v3.6.2, https://matplotlib.org/</dc:title>
     </cc:Agent>
    </dc:creator>
   </cc:Work>
  </rdf:RDF>
 </metadata>
 <defs>
  <style type="text/css">*{stroke-linejoin: round; stroke-linecap: butt}</style>
 </defs>
 <g id="figure_1">
  <g id="patch_1">
   <path d="M 0 345.6 
L 460.8 345.6 
L 460.8 0 
L 0 0 
z
" style="fill: #ffffff"/>
  </g>
  <g id="axes_1">
   <g id="PolyCollection_1">
    <defs>
     <path id="C0_0_829aa980fc" d="M 141.354748 -75.794225 
L 141.354748 -76.269775 
L 141.12 -76.507551 
L 140.885252 -76.269775 
L 140.885252 -75.794225 
L 141.12 -75.556449 
z
"/>
    </defs>
    <g clip-path="url(#p57190a40b4)">
     <use xlink:href="#C0_0_829aa980fc" x="28.954774" y="295.44886" style="fill: #08306b; stroke: #08306b"/>
    </g>
    <g clip-path="url(#p57190a40b4)">
     <use xlink:href="#C0_0_829aa980fc" x="29.893767" y="294.022207" style="fill: #08306b; stroke: #08306b"/>
    </g>
    <g clip-path="url(#p57190a40b4)">
     <use xlink:href="#C0_0_829aa980fc" x="30.832761" y="292.595554" style="fill: #08306b; stroke: #08306b"/>
    </g>
    <g clip-path="url(#p57190a40b4)">
     <use xlink:href="#C0_0_829aa980fc" x="31.302258" y="291.168902" style="fill: #08306b; stroke: #08306b"/>
    </g>
    <g clip-path="url(#p57190a40b4)">
     <use xlink:href="#C0_0_829aa980fc" x="31.771754" y="291.168902" style="fill: #08306b; stroke: #08306b"/>
    </g>
    <g clip-path="url(#p57190a40b4)">
     <use xlink:href="#C0_0_829aa980fc" x="32.241251" y="289.742249" style="fill: #08306b; stroke: #08306b"/>
    </g>
    <g clip-path="url(#p57190a40b4)">
     <use xlink:href="#C0_0_829aa980fc" x="33.180244" y="288.315596" style="fill: #08306b; stroke: #08306b"/>
    </g>
    <g clip-path="url(#p57190a40b4)">
     <use xlink:href="#C0_0_829aa980fc" x="33.649741" y="286.888943" style="fill: #08316d; stroke: #08316d"/>
    </g>
    <g clip-path="url(#p57190a40b4)">
     <use xlink:href="#C0_0_829aa980fc" x="34.119238" y="286.888943" style="fill: #08326e; stroke: #08326e"/>
    </g>
    <g clip-path="url(#p57190a40b4)">
     <use xlink:href="#C0_0_829aa980fc" x="34.588734" y="285.46229" style="fill: #08316d; stroke: #08316d"/>
    </g>
    <g clip-path="url(#p57190a40b4)">
     <use xlink:href="#C0_0_829aa980fc" x="35.058231" y="285.46229" style="fill: #08306b; stroke: #08306b"/>
    </g>
    <g clip-path="url(#p57190a40b4)">
     <use xlink:href="#C0_0_829aa980fc" x="35.527728" y="284.035637" style="fill: #08326e; stroke: #08326e"/>
    </g>
    <g clip-path="url(#p57190a40b4)">
     <use xlink:href="#C0_0_829aa980fc" x="35.997224" y="282.608984" style="fill: #08306b; stroke: #08306b"/>
    </g>
    <g clip-path="url(#p57190a40b4)">
     <use xlink:href="#C0_0_829aa980fc" x="36.466721" y="282.608984" style="fill: #083573; stroke: #083573"/>
    </g>
    <g clip-path="url(#p57190a40b4)">
     <use xlink:href="#C0_0_829aa980fc" x="36.936218" y="281.182332" style="fill: #083776; stroke: #083776"/>
    </g>
    <g clip-path="url(#p57190a40b4)">
     <use xlink:href="#C0_0_829aa980fc" x="37.405715" y="281.182332" style="fill: #083674; stroke: #083674"/>
    </g>
    <g clip-path="url(#p57190a40b4)">
     <use xlink:href="#C0_0_829aa980fc" x="37.875211" y="279.755679" style="fill: #083979; stroke: #083979"/>
    </g>
    <g clip-path="url(#p57190a40b4)">
     <use xlink:href="#C0_0_829aa980fc" x="38.344708" y="279.755679" style="fill: #083370; stroke: #083370"/>
    </g>
    <g clip-path="url(#p57190a40b4)">
     <use xlink:href="#C0_0_829aa980fc" x="38.814205" y="278.329026" style="fill: #084285; stroke: #084285"/>
    </g>
    <g clip-path="url(#p57190a40b4)">
     <use xlink:href="#C0_0_829aa980fc" x="39.753198" y="276.902373" style="fill: #08488e; stroke: #08488e"/>
    </g>
    <g clip-path="url(#p57190a40b4)">
     <use xlink:href="#C0_0_829aa980fc" x="40.222695" y="275.47572" style="fill: #084285; stroke: #084285"/>
    </g>
    <g clip-path="url(#p57190a40b4)">
     <use xlink:href="#C0_0_829aa980fc" x="40.692191" y="275.47572" style="fill: #08468b; stroke: #08468b"/>
    </g>
    <g clip-path="url(#p57190a40b4)">
     <use xlink:href="#C0_0_829aa980fc" x="41.161688" y="274.049067" style="fill: #08509b; stroke: #08509b"/>
    </g>
    <g clip-path="url(#p57190a40b4)">
     <use xlink:href="#C0_0_829aa980fc" x="41.631185" y="274.049067" style="fill: #083b7c; stroke: #083b7c"/>
    </g>
    <g clip-path="url(#p57190a40b4)">
     <use xlink:href="#C0_0_829aa980fc" x="42.100681" y="272.622415" style="fill: #1865ac; stroke: #1865ac"/>
    </g>
    <g clip-path="url(#p57190a40b4)">
     <use xlink:href="#C0_0_829aa980fc" x="43.039675" y="271.195762" style="fill: #206fb4; stroke: #206fb4"/>
    </g>
    <g clip-path="url(#p57190a40b4)">
     <use xlink:href="#C0_0_829aa980fc" x="43.509172" y="269.769109" style="fill: #1764ab; stroke: #1764ab"/>
    </g>
    <g clip-path="url(#p57190a40b4)">
     <use xlink:href="#C0_0_829aa980fc" x="43.978668" y="269.769109" style="fill: #206fb4; stroke: #206fb4"/>
    </g>
    <g clip-path="url(#p57190a40b4)">
     <use xlink:href="#C0_0_829aa980fc" x="44.448165" y="268.342456" style="fill: #3484bf; stroke: #3484bf"/>
    </g>
    <g clip-path="url(#p57190a40b4)">
     <use xlink:href="#C0_0_829aa980fc" x="44.917662" y="268.342456" style="fill: #0d57a1; stroke: #0d57a1"/>
    </g>
    <g clip-path="url(#p57190a40b4)">
     <use xlink:href="#C0_0_829aa980fc" x="45.387158" y="266.915803" style="fill: #5aa2cf; stroke: #5aa2cf"/>
    </g>
    <g clip-path="url(#p57190a40b4)">
     <use xlink:href="#C0_0_829aa980fc" x="46.326152" y="265.48915" style="fill: #82bbdb; stroke: #82bbdb"/>
    </g>
    <g clip-path="url(#p57190a40b4)">
     <use xlink:href="#C0_0_829aa980fc" x="46.795648" y="264.062497" style="fill: #3383be; stroke: #3383be"/>
    </g>
    <g clip-path="url(#p57190a40b4)">
     <use xlink:href="#C0_0_829aa980fc" x="47.265145" y="264.062497" style="fill: #61a7d2; stroke: #61a7d2"/>
    </g>
    <g clip-path="url(#p57190a40b4)">
     <use xlink:href="#C0_0_829aa980fc" x="47.734642" y="262.635845" style="fill: #82bbdb; stroke: #82bbdb"/>
    </g>
    <g clip-path="url(#p57190a40b4)">
     <use xlink:href="#C0_0_829aa980fc" x="48.204138" y="262.635845" style="fill: #3181bd; stroke: #3181bd"/>
    </g>
    <g clip-path="url(#p57190a40b4)">
     <use xlink:href="#C0_0_829aa980fc" x="48.673635" y="261.209192" style="fill: #bdd7ec; stroke: #bdd7ec"/>
    </g>
    <g clip-path="url(#p57190a40b4)">
     <use xlink:href="#C0_0_829aa980fc" x="49.612629" y="259.782539" style="fill: #c7dcef; stroke: #c7dcef"/>
    </g>
    <g clip-path="url(#p57190a40b4)">
     <use xlink:href="#C0_0_829aa980fc" x="50.082125" y="258.355886" style="fill: #68acd5; stroke: #68acd5"/>
    </g>
    <g clip-path="url(#p57190a40b4)">
     <use xlink:href="#C0_0_829aa980fc" x="50.551622" y="258.355886" style="fill: #c2d9ee; stroke: #c2d9ee"/>
    </g>
    <g clip-path="url(#p57190a40b4)">
     <use xlink:href="#C0_0_829aa980fc" x="51.021119" y="256.929233" style="fill: #c8dcf0; stroke: #c8dcf0"/>
    </g>
    <g clip-path="url(#p57190a40b4)">
     <use xlink:href="#C0_0_829aa980fc" x="51.490615" y="256.929233" style="fill: #63a8d3; stroke: #63a8d3"/>
    </g>
    <g clip-path="url(#p57190a40b4)">
     <use xlink:href="#C0_0_829aa980fc" x="51.960112" y="255.50258" style="fill: #e8f1fa; stroke: #e8f1fa"/>
    </g>
    <g clip-path="url(#p57190a40b4)">
     <use xlink:href="#C0_0_829aa980fc" x="52.899105" y="254.075927" style="fill: #eff6fc; stroke: #eff6fc"/>
    </g>
    <g clip-path="url(#p57190a40b4)">
     <use xlink:href="#C0_0_829aa980fc" x="53.368602" y="252.649275" style="fill: #7cb7da; stroke: #7cb7da"/>
    </g>
    <g clip-path="url(#p57190a40b4)">
     <use xlink:href="#C0_0_829aa980fc" x="53.838099" y="252.649275" style="fill: #d5e5f4; stroke: #d5e5f4"/>
    </g>
    <g clip-path="url(#p57190a40b4)">
     <use xlink:href="#C0_0_829aa980fc" x="54.307595" y="251.222622" style="fill: #d4e4f4; stroke: #d4e4f4"/>
    </g>
    <g clip-path="url(#p57190a40b4)">
     <use xlink:href="#C0_0_829aa980fc" x="54.777092" y="251.222622" style="fill: #85bcdc; stroke: #85bcdc"/>
    </g>
    <g clip-path="url(#p57190a40b4)">
     <use xlink:href="#C0_0_829aa980fc" x="55.246589" y="249.795969" style="fill: #e7f1fa; stroke: #e7f1fa"/>
    </g>
    <g clip-path="url(#p57190a40b4)">
     <use xlink:href="#C0_0_829aa980fc" x="56.185582" y="248.369316" style="fill: #d9e8f5; stroke: #d9e8f5"/>
    </g>
    <g clip-path="url(#p57190a40b4)">
     <use xlink:href="#C0_0_829aa980fc" x="56.655079" y="246.942663" style="fill: #4a98c9; stroke: #4a98c9"/>
    </g>
    <g clip-path="url(#p57190a40b4)">
     <use xlink:href="#C0_0_829aa980fc" x="57.124576" y="246.942663" style="fill: #cde0f1; stroke: #cde0f1"/>
    </g>
    <g clip-path="url(#p57190a40b4)">
     <use xlink:href="#C0_0_829aa980fc" x="57.594072" y="245.51601" style="fill: #b5d4e9; stroke: #b5d4e9"/>
    </g>
    <g clip-path="url(#p57190a40b4)">
     <use xlink:href="#C0_0_829aa980fc" x="58.063569" y="245.51601" style="fill: #68acd5; stroke: #68acd5"/>
    </g>
    <g clip-path="url(#p57190a40b4)">
     <use xlink:href="#C0_0_829aa980fc" x="58.533066" y="244.089358" style="fill: #a8cee4; stroke: #a8cee4"/>
    </g>
    <g clip-path="url(#p57190a40b4)">
     <use xlink:href="#C0_0_829aa980fc" x="59.472059" y="242.662705" style="fill: #a3cce3; stroke: #a3cce3"/>
    </g>
    <g clip-path="url(#p57190a40b4)">
     <use xlink:href="#C0_0_829aa980fc" x="59.941556" y="241.236052" style="fill: #1c6bb0; stroke: #1c6bb0"/>
    </g>
    <g clip-path="url(#p57190a40b4)">
     <use xlink:href="#C0_0_829aa980fc" x="60.411052" y="241.236052" style="fill: #5da5d1; stroke: #5da5d1"/>
    </g>
    <g clip-path="url(#p57190a40b4)">
     <use xlink:href="#C0_0_829aa980fc" x="60.880549" y="239.809399" style="fill: #3e8ec4; stroke: #3e8ec4"/>
    </g>
    <g clip-path="url(#p57190a40b4)">
     <use xlink:href="#C0_0_829aa980fc" x="61.350046" y="239.809399" style="fill: #3282be; stroke: #3282be"/>
    </g>
    <g clip-path="url(#p57190a40b4)">
     <use xlink:href="#C0_0_829aa980fc" x="61.819543" y="238.382746" style="fill: #4292c6; stroke: #4292c6"/>
    </g>
    <g clip-path="url(#p57190a40b4)">
     <use xlink:href="#C0_0_829aa980fc" x="62.758536" y="236.956093" style="fill: #3686c0; stroke: #3686c0"/>
    </g>
    <g clip-path="url(#p57190a40b4)">
     <use xlink:href="#C0_0_829aa980fc" x="63.228033" y="235.52944" style="fill: #084a91; stroke: #084a91"/>
    </g>
    <g clip-path="url(#p57190a40b4)">
     <use xlink:href="#C0_0_829aa980fc" x="63.697529" y="235.52944" style="fill: #1966ad; stroke: #1966ad"/>
    </g>
    <g clip-path="url(#p57190a40b4)">
     <use xlink:href="#C0_0_829aa980fc" x="64.167026" y="234.102788" style="fill: #125da6; stroke: #125da6"/>
    </g>
    <g clip-path="url(#p57190a40b4)">
     <use xlink:href="#C0_0_829aa980fc" x="64.636523" y="234.102788" style="fill: #0a549e; stroke: #0a549e"/>
    </g>
    <g clip-path="url(#p57190a40b4)">
     <use xlink:href="#C0_0_829aa980fc" x="65.106019" y="232.676135" style="fill: #0c56a0; stroke: #0c56a0"/>
    </g>
    <g clip-path="url(#p57190a40b4)">
     <use xlink:href="#C0_0_829aa980fc" x="66.045013" y="231.249482" style="fill: #08519c; stroke: #08519c"/>
    </g>
    <g clip-path="url(#p57190a40b4)">
     <use xlink:href="#C0_0_829aa980fc" x="66.51451" y="229.822829" style="fill: #083674; stroke: #083674"/>
    </g>
    <g clip-path="url(#p57190a40b4)">
     <use xlink:href="#C0_0_829aa980fc" x="66.984006" y="229.822829" style="fill: #084387; stroke: #084387"/>
    </g>
    <g clip-path="url(#p57190a40b4)">
     <use xlink:href="#C0_0_829aa980fc" x="67.453503" y="228.396176" style="fill: #083c7d; stroke: #083c7d"/>
    </g>
    <g clip-path="url(#p57190a40b4)">
     <use xlink:href="#C0_0_829aa980fc" x="67.923" y="228.396176" style="fill: #083979; stroke: #083979"/>
    </g>
    <g clip-path="url(#p57190a40b4)">
     <use xlink:href="#C0_0_829aa980fc" x="68.392496" y="226.969523" style="fill: #083d7f; stroke: #083d7f"/>
    </g>
    <g clip-path="url(#p57190a40b4)">
     <use xlink:href="#C0_0_829aa980fc" x="69.33149" y="225.54287" style="fill: #083776; stroke: #083776"/>
    </g>
    <g clip-path="url(#p57190a40b4)">
     <use xlink:href="#C0_0_829aa980fc" x="69.800986" y="224.116218" style="fill: #08316d; stroke: #08316d"/>
    </g>
    <g clip-path="url(#p57190a40b4)">
     <use xlink:href="#C0_0_829aa980fc" x="70.270483" y="224.116218" style="fill: #083370; stroke: #083370"/>
    </g>
    <g clip-path="url(#p57190a40b4)">
     <use xlink:href="#C0_0_829aa980fc" x="70.73998" y="222.689565" style="fill: #08326e; stroke: #08326e"/>
    </g>
    <g clip-path="url(#p57190a40b4)">
     <use xlink:href="#C0_0_829aa980fc" x="71.209476" y="222.689565" style="fill: #08316d; stroke: #08316d"/>
    </g>
    <g clip-path="url(#p57190a40b4)">
     <use xlink:href="#C0_0_829aa980fc" x="71.678973" y="221.262912" style="fill: #08326e; stroke: #08326e"/>
    </g>
    <g clip-path="url(#p57190a40b4)">
     <use xlink:href="#C0_0_829aa980fc" x="72.14847" y="221.262912" style="fill: #08306b; stroke: #08306b"/>
    </g>
    <g clip-path="url(#p57190a40b4)">
     <use xlink:href="#C0_0_829aa980fc" x="72.617967" y="219.836259" style="fill: #08316d; stroke: #08316d"/>
    </g>
    <g clip-path="url(#p57190a40b4)">
     <use xlink:href="#C0_0_829aa980fc" x="73.55696" y="218.409606" style="fill: #08306b; stroke: #08306b"/>
    </g>
    <g clip-path="url(#p57190a40b4)">
     <use xlink:href="#C0_0_829aa980fc" x="74.026457" y="216.982953" style="fill: #08306b; stroke: #08306b"/>
    </g>
    <g clip-path="url(#p57190a40b4)">
     <use xlink:href="#C0_0_829aa980fc" x="74.96545" y="215.556301" style="fill: #08306b; stroke: #08306b"/>
    </g>
    <g clip-path="url(#p57190a40b4)">
     <use xlink:href="#C0_0_829aa980fc" x="75.904443" y="214.129648" style="fill: #08306b; stroke: #08306b"/>
    </g>
    <g clip-path="url(#p57190a40b4)">
     <use xlink:href="#C0_0_829aa980fc" x="29.659019" y="294.735534" style="fill: #08306b; stroke: #08306b"/>
    </g>
    <g clip-path="url(#p57190a40b4)">
     <use xlink:href="#C0_0_829aa980fc" x="30.128516" y="293.308881" style="fill: #08306b; stroke: #08306b"/>
    </g>
    <g clip-path="url(#p57190a40b4)">
     <use xlink:href="#C0_0_829aa980fc" x="31.537006" y="290.455575" style="fill: #08306b; stroke: #08306b"/>
    </g>
    <g clip-path="url(#p57190a40b4)">
     <use xlink:href="#C0_0_829aa980fc" x="32.006503" y="290.455575" style="fill: #08306b; stroke: #08306b"/>
    </g>
    <g clip-path="url(#p57190a40b4)">
     <use xlink:href="#C0_0_829aa980fc" x="32.475999" y="289.028922" style="fill: #08306b; stroke: #08306b"/>
    </g>
    <g clip-path="url(#p57190a40b4)">
     <use xlink:href="#C0_0_829aa980fc" x="32.945496" y="289.028922" style="fill: #08306b; stroke: #08306b"/>
    </g>
    <g clip-path="url(#p57190a40b4)">
     <use xlink:href="#C0_0_829aa980fc" x="33.414993" y="287.602269" style="fill: #08316d; stroke: #08316d"/>
    </g>
    <g clip-path="url(#p57190a40b4)">
     <use xlink:href="#C0_0_829aa980fc" x="34.353986" y="286.175617" style="fill: #08326e; stroke: #08326e"/>
    </g>
    <g clip-path="url(#p57190a40b4)">
     <use xlink:href="#C0_0_829aa980fc" x="34.823483" y="284.748964" style="fill: #08306b; stroke: #08306b"/>
    </g>
    <g clip-path="url(#p57190a40b4)">
     <use xlink:href="#C0_0_829aa980fc" x="35.292979" y="284.748964" style="fill: #08326e; stroke: #08326e"/>
    </g>
    <g clip-path="url(#p57190a40b4)">
     <use xlink:href="#C0_0_829aa980fc" x="35.762476" y="283.322311" style="fill: #083370; stroke: #083370"/>
    </g>
    <g clip-path="url(#p57190a40b4)">
     <use xlink:href="#C0_0_829aa980fc" x="36.231973" y="283.322311" style="fill: #083370; stroke: #083370"/>
    </g>
    <g clip-path="url(#p57190a40b4)">
     <use xlink:href="#C0_0_829aa980fc" x="36.701469" y="281.895658" style="fill: #083471; stroke: #083471"/>
    </g>
    <g clip-path="url(#p57190a40b4)">
     <use xlink:href="#C0_0_829aa980fc" x="37.640463" y="280.469005" style="fill: #083674; stroke: #083674"/>
    </g>
    <g clip-path="url(#p57190a40b4)">
     <use xlink:href="#C0_0_829aa980fc" x="38.10996" y="279.042352" style="fill: #083573; stroke: #083573"/>
    </g>
    <g clip-path="url(#p57190a40b4)">
     <use xlink:href="#C0_0_829aa980fc" x="38.579456" y="279.042352" style="fill: #083e81; stroke: #083e81"/>
    </g>
    <g clip-path="url(#p57190a40b4)">
     <use xlink:href="#C0_0_829aa980fc" x="39.048953" y="277.615699" style="fill: #083c7d; stroke: #083c7d"/>
    </g>
    <g clip-path="url(#p57190a40b4)">
     <use xlink:href="#C0_0_829aa980fc" x="39.51845" y="277.615699" style="fill: #083d7f; stroke: #083d7f"/>
    </g>
    <g clip-path="url(#p57190a40b4)">
     <use xlink:href="#C0_0_829aa980fc" x="39.987946" y="276.189047" style="fill: #08468b; stroke: #08468b"/>
    </g>
    <g clip-path="url(#p57190a40b4)">
     <use xlink:href="#C0_0_829aa980fc" x="40.92694" y="274.762394" style="fill: #08519c; stroke: #08519c"/>
    </g>
    <g clip-path="url(#p57190a40b4)">
     <use xlink:href="#C0_0_829aa980fc" x="41.396436" y="273.335741" style="fill: #083c7d; stroke: #083c7d"/>
    </g>
    <g clip-path="url(#p57190a40b4)">
     <use xlink:href="#C0_0_829aa980fc" x="41.865933" y="273.335741" style="fill: #0a549e; stroke: #0a549e"/>
    </g>
    <g clip-path="url(#p57190a40b4)">
     <use xlink:href="#C0_0_829aa980fc" x="42.33543" y="271.909088" style="fill: #0b559f; stroke: #0b559f"/>
    </g>
    <g clip-path="url(#p57190a40b4)">
     <use xlink:href="#C0_0_829aa980fc" x="42.804927" y="271.909088" style="fill: #0e59a2; stroke: #0e59a2"/>
    </g>
    <g clip-path="url(#p57190a40b4)">
     <use xlink:href="#C0_0_829aa980fc" x="43.274423" y="270.482435" style="fill: #2373b6; stroke: #2373b6"/>
    </g>
    <g clip-path="url(#p57190a40b4)">
     <use xlink:href="#C0_0_829aa980fc" x="44.213417" y="269.055782" style="fill: #3383be; stroke: #3383be"/>
    </g>
    <g clip-path="url(#p57190a40b4)">
     <use xlink:href="#C0_0_829aa980fc" x="44.682913" y="267.62913" style="fill: #084a91; stroke: #084a91"/>
    </g>
    <g clip-path="url(#p57190a40b4)">
     <use xlink:href="#C0_0_829aa980fc" x="45.15241" y="267.62913" style="fill: #4090c5; stroke: #4090c5"/>
    </g>
    <g clip-path="url(#p57190a40b4)">
     <use xlink:href="#C0_0_829aa980fc" x="45.621907" y="266.202477" style="fill: #3f8fc5; stroke: #3f8fc5"/>
    </g>
    <g clip-path="url(#p57190a40b4)">
     <use xlink:href="#C0_0_829aa980fc" x="46.091403" y="266.202477" style="fill: #3484bf; stroke: #3484bf"/>
    </g>
    <g clip-path="url(#p57190a40b4)">
     <use xlink:href="#C0_0_829aa980fc" x="46.5609" y="264.775824" style="fill: #6dafd7; stroke: #6dafd7"/>
    </g>
    <g clip-path="url(#p57190a40b4)">
     <use xlink:href="#C0_0_829aa980fc" x="47.030397" y="264.775824" style="fill: #083573; stroke: #083573"/>
    </g>
    <g clip-path="url(#p57190a40b4)">
     <use xlink:href="#C0_0_829aa980fc" x="47.499893" y="263.349171" style="fill: #8fc2de; stroke: #8fc2de"/>
    </g>
    <g clip-path="url(#p57190a40b4)">
     <use xlink:href="#C0_0_829aa980fc" x="47.96939" y="261.922518" style="fill: #0b559f; stroke: #0b559f"/>
    </g>
    <g clip-path="url(#p57190a40b4)">
     <use xlink:href="#C0_0_829aa980fc" x="48.438887" y="261.922518" style="fill: #a5cde3; stroke: #a5cde3"/>
    </g>
    <g clip-path="url(#p57190a40b4)">
     <use xlink:href="#C0_0_829aa980fc" x="48.908384" y="260.495865" style="fill: #94c4df; stroke: #94c4df"/>
    </g>
    <g clip-path="url(#p57190a40b4)">
     <use xlink:href="#C0_0_829aa980fc" x="49.37788" y="260.495865" style="fill: #8cc0dd; stroke: #8cc0dd"/>
    </g>
    <g clip-path="url(#p57190a40b4)">
     <use xlink:href="#C0_0_829aa980fc" x="49.847377" y="259.069212" style="fill: #d3e3f3; stroke: #d3e3f3"/>
    </g>
    <g clip-path="url(#p57190a40b4)">
     <use xlink:href="#C0_0_829aa980fc" x="50.316874" y="259.069212" style="fill: #084285; stroke: #084285"/>
    </g>
    <g clip-path="url(#p57190a40b4)">
     <use xlink:href="#C0_0_829aa980fc" x="50.78637" y="257.64256" style="fill: #dfecf7; stroke: #dfecf7"/>
    </g>
    <g clip-path="url(#p57190a40b4)">
     <use xlink:href="#C0_0_829aa980fc" x="51.255867" y="256.215907" style="fill: #0a549e; stroke: #0a549e"/>
    </g>
    <g clip-path="url(#p57190a40b4)">
     <use xlink:href="#C0_0_829aa980fc" x="51.725364" y="256.215907" style="fill: #ddeaf7; stroke: #ddeaf7"/>
    </g>
    <g clip-path="url(#p57190a40b4)">
     <use xlink:href="#C0_0_829aa980fc" x="52.19486" y="254.789254" style="fill: #bcd7eb; stroke: #bcd7eb"/>
    </g>
    <g clip-path="url(#p57190a40b4)">
     <use xlink:href="#C0_0_829aa980fc" x="52.664357" y="254.789254" style="fill: #afd1e7; stroke: #afd1e7"/>
    </g>
    <g clip-path="url(#p57190a40b4)">
     <use xlink:href="#C0_0_829aa980fc" x="53.133854" y="253.362601" style="fill: #ecf4fb; stroke: #ecf4fb"/>
    </g>
    <g clip-path="url(#p57190a40b4)">
     <use xlink:href="#C0_0_829aa980fc" x="53.60335" y="253.362601" style="fill: #0e59a2; stroke: #0e59a2"/>
    </g>
    <g clip-path="url(#p57190a40b4)">
     <use xlink:href="#C0_0_829aa980fc" x="54.072847" y="251.935948" style="fill: #f7fbff; stroke: #f7fbff"/>
    </g>
    <g clip-path="url(#p57190a40b4)">
     <use xlink:href="#C0_0_829aa980fc" x="54.542344" y="250.509295" style="fill: #08458a; stroke: #08458a"/>
    </g>
    <g clip-path="url(#p57190a40b4)">
     <use xlink:href="#C0_0_829aa980fc" x="55.011841" y="250.509295" style="fill: #f5fafe; stroke: #f5fafe"/>
    </g>
    <g clip-path="url(#p57190a40b4)">
     <use xlink:href="#C0_0_829aa980fc" x="55.481337" y="249.082642" style="fill: #b3d3e8; stroke: #b3d3e8"/>
    </g>
    <g clip-path="url(#p57190a40b4)">
     <use xlink:href="#C0_0_829aa980fc" x="55.950834" y="249.082642" style="fill: #b5d4e9; stroke: #b5d4e9"/>
    </g>
    <g clip-path="url(#p57190a40b4)">
     <use xlink:href="#C0_0_829aa980fc" x="56.420331" y="247.65599" style="fill: #d3e3f3; stroke: #d3e3f3"/>
    </g>
    <g clip-path="url(#p57190a40b4)">
     <use xlink:href="#C0_0_829aa980fc" x="56.889827" y="247.65599" style="fill: #1561a9; stroke: #1561a9"/>
    </g>
    <g clip-path="url(#p57190a40b4)">
     <use xlink:href="#C0_0_829aa980fc" x="57.359324" y="246.229337" style="fill: #d0e1f2; stroke: #d0e1f2"/>
    </g>
    <g clip-path="url(#p57190a40b4)">
     <use xlink:href="#C0_0_829aa980fc" x="57.828821" y="244.802684" style="fill: #083776; stroke: #083776"/>
    </g>
    <g clip-path="url(#p57190a40b4)">
     <use xlink:href="#C0_0_829aa980fc" x="58.298317" y="244.802684" style="fill: #bad6eb; stroke: #bad6eb"/>
    </g>
    <g clip-path="url(#p57190a40b4)">
     <use xlink:href="#C0_0_829aa980fc" x="58.767814" y="243.376031" style="fill: #64a9d3; stroke: #64a9d3"/>
    </g>
    <g clip-path="url(#p57190a40b4)">
     <use xlink:href="#C0_0_829aa980fc" x="59.237311" y="243.376031" style="fill: #72b2d8; stroke: #72b2d8"/>
    </g>
    <g clip-path="url(#p57190a40b4)">
     <use xlink:href="#C0_0_829aa980fc" x="59.706807" y="241.949378" style="fill: #7fb9da; stroke: #7fb9da"/>
    </g>
    <g clip-path="url(#p57190a40b4)">
     <use xlink:href="#C0_0_829aa980fc" x="60.176304" y="241.949378" style="fill: #0c56a0; stroke: #0c56a0"/>
    </g>
    <g clip-path="url(#p57190a40b4)">
     <use xlink:href="#C0_0_829aa980fc" x="60.645801" y="240.522725" style="fill: #64a9d3; stroke: #64a9d3"/>
    </g>
    <g clip-path="url(#p57190a40b4)">
     <use xlink:href="#C0_0_829aa980fc" x="61.584794" y="239.096073" style="fill: #4292c6; stroke: #4292c6"/>
    </g>
    <g clip-path="url(#p57190a40b4)">
     <use xlink:href="#C0_0_829aa980fc" x="62.054291" y="237.66942" style="fill: #2979b9; stroke: #2979b9"/>
    </g>
    <g clip-path="url(#p57190a40b4)">
     <use xlink:href="#C0_0_829aa980fc" x="62.523788" y="237.66942" style="fill: #3080bd; stroke: #3080bd"/>
    </g>
    <g clip-path="url(#p57190a40b4)">
     <use xlink:href="#C0_0_829aa980fc" x="62.993284" y="236.242767" style="fill: #2c7cba; stroke: #2c7cba"/>
    </g>
    <g clip-path="url(#p57190a40b4)">
     <use xlink:href="#C0_0_829aa980fc" x="63.462781" y="236.242767" style="fill: #084488; stroke: #084488"/>
    </g>
    <g clip-path="url(#p57190a40b4)">
     <use xlink:href="#C0_0_829aa980fc" x="63.932278" y="234.816114" style="fill: #1b69af; stroke: #1b69af"/>
    </g>
    <g clip-path="url(#p57190a40b4)">
     <use xlink:href="#C0_0_829aa980fc" x="64.871271" y="233.389461" style="fill: #125da6; stroke: #125da6"/>
    </g>
    <g clip-path="url(#p57190a40b4)">
     <use xlink:href="#C0_0_829aa980fc" x="65.340768" y="231.962808" style="fill: #08488e; stroke: #08488e"/>
    </g>
    <g clip-path="url(#p57190a40b4)">
     <use xlink:href="#C0_0_829aa980fc" x="65.810264" y="231.962808" style="fill: #084990; stroke: #084990"/>
    </g>
    <g clip-path="url(#p57190a40b4)">
     <use xlink:href="#C0_0_829aa980fc" x="66.279761" y="230.536155" style="fill: #084c95; stroke: #084c95"/>
    </g>
    <g clip-path="url(#p57190a40b4)">
     <use xlink:href="#C0_0_829aa980fc" x="66.749258" y="230.536155" style="fill: #083877; stroke: #083877"/>
    </g>
    <g clip-path="url(#p57190a40b4)">
     <use xlink:href="#C0_0_829aa980fc" x="67.218755" y="229.109503" style="fill: #083e81; stroke: #083e81"/>
    </g>
    <g clip-path="url(#p57190a40b4)">
     <use xlink:href="#C0_0_829aa980fc" x="68.157748" y="227.68285" style="fill: #083a7a; stroke: #083a7a"/>
    </g>
    <g clip-path="url(#p57190a40b4)">
     <use xlink:href="#C0_0_829aa980fc" x="68.627245" y="226.256197" style="fill: #083776; stroke: #083776"/>
    </g>
    <g clip-path="url(#p57190a40b4)">
     <use xlink:href="#C0_0_829aa980fc" x="69.096741" y="226.256197" style="fill: #083776; stroke: #083776"/>
    </g>
    <g clip-path="url(#p57190a40b4)">
     <use xlink:href="#C0_0_829aa980fc" x="69.566238" y="224.829544" style="fill: #083674; stroke: #083674"/>
    </g>
    <g clip-path="url(#p57190a40b4)">
     <use xlink:href="#C0_0_829aa980fc" x="70.035735" y="224.829544" style="fill: #08326e; stroke: #08326e"/>
    </g>
    <g clip-path="url(#p57190a40b4)">
     <use xlink:href="#C0_0_829aa980fc" x="70.505231" y="223.402891" style="fill: #083370; stroke: #083370"/>
    </g>
    <g clip-path="url(#p57190a40b4)">
     <use xlink:href="#C0_0_829aa980fc" x="71.444225" y="221.976238" style="fill: #08316d; stroke: #08316d"/>
    </g>
    <g clip-path="url(#p57190a40b4)">
     <use xlink:href="#C0_0_829aa980fc" x="71.913721" y="220.549585" style="fill: #08316d; stroke: #08316d"/>
    </g>
    <g clip-path="url(#p57190a40b4)">
     <use xlink:href="#C0_0_829aa980fc" x="72.383218" y="220.549585" style="fill: #08306b; stroke: #08306b"/>
    </g>
    <g clip-path="url(#p57190a40b4)">
     <use xlink:href="#C0_0_829aa980fc" x="72.852715" y="219.122933" style="fill: #08306b; stroke: #08306b"/>
    </g>
    <g clip-path="url(#p57190a40b4)">
     <use xlink:href="#C0_0_829aa980fc" x="73.322212" y="219.122933" style="fill: #08306b; stroke: #08306b"/>
    </g>
    <g clip-path="url(#p57190a40b4)">
     <use xlink:href="#C0_0_829aa980fc" x="73.791708" y="217.69628" style="fill: #08306b; stroke: #08306b"/>
    </g>
    <g clip-path="url(#p57190a40b4)">
     <use xlink:href="#C0_0_829aa980fc" x="75.200198" y="214.842974" style="fill: #08306b; stroke: #08306b"/>
    </g>
   </g>
   <g id="line2d_1">
    <path d="M 141.12 269.568 
L 236.16 104.953891 
L 331.2 269.568 
L 141.12 269.568 
" clip-path="url(#p57190a40b4)" style="fill: none; stroke: #ffa500; stroke-width: 1.5; stroke-linecap: round"/>
   </g>
   <g id="line2d_2">
    <path d="M 236.16 214.69663 
L 236.16 269.568 
" clip-path="url(#p57190a40b4)" style="fill: none; stroke: #ffa500; stroke-width: 1.5; stroke-linecap: round"/>
   </g>
   <g id="line2d_3">
    <path d="M 236.16 214.69663 
L 188.64 187.260946 
" clip-path="url(#p57190a40b4)" style="fill: none; stroke: #ffa500; stroke-width: 1.5; stroke-linecap: round"/>
   </g>
   <g id="line2d_4">
    <path d="M 236.16 214.69663 
L 283.68 187.260946 
" clip-path="url(#p57190a40b4)" style="fill: none; stroke: #ffa500; stroke-width: 1.5; stroke-linecap: round"/>
   </g>
   <g id="text_1">
    <!-- p(IAC_(0.05, 0.5)) = 0.170 -->
    <g style="fill: #262626" transform="translate(62.254688 286.2762) scale(0.12 -0.12)">
     <defs>
      <path id="DejaVuSans-70" d="M 1159 525 
L 1159 -1331 
L 581 -1331 
L 581 3500 
L 1159 3500 
L 1159 2969 
Q 1341 3281 1617 3432 
Q 1894 3584 2278 3584 
Q 2916 3584 3314 3078 
Q 3713 2572 3713 1747 
Q 3713 922 3314 415 
Q 2916 -91 2278 -91 
Q 1894 -91 1617 61 
Q 1341 213 1159 525 
z
M 3116 1747 
Q 3116 2381 2855 2742 
Q 2594 3103 2138 3103 
Q 1681 3103 1420 2742 
Q 1159 2381 1159 1747 
Q 1159 1113 1420 752 
Q 1681 391 2138 391 
Q 2594 391 2855 752 
Q 3116 1113 3116 1747 
z
" transform="scale(0.015625)"/>
      <path id="DejaVuSans-28" d="M 1984 4856 
Q 1566 4138 1362 3434 
Q 1159 2731 1159 2009 
Q 1159 1288 1364 580 
Q 1569 -128 1984 -844 
L 1484 -844 
Q 1016 -109 783 600 
Q 550 1309 550 2009 
Q 550 2706 781 3412 
Q 1013 4119 1484 4856 
L 1984 4856 
z
" transform="scale(0.015625)"/>
      <path id="DejaVuSans-49" d="M 628 4666 
L 1259 4666 
L 1259 0 
L 628 0 
L 628 4666 
z
" transform="scale(0.015625)"/>
      <path id="DejaVuSans-41" d="M 2188 4044 
L 1331 1722 
L 3047 1722 
L 2188 4044 
z
M 1831 4666 
L 2547 4666 
L 4325 0 
L 3669 0 
L 3244 1197 
L 1141 1197 
L 716 0 
L 50 0 
L 1831 4666 
z
" transform="scale(0.015625)"/>
      <path id="DejaVuSans-43" d="M 4122 4306 
L 4122 3641 
Q 3803 3938 3442 4084 
Q 3081 4231 2675 4231 
Q 1875 4231 1450 3742 
Q 1025 3253 1025 2328 
Q 1025 1406 1450 917 
Q 1875 428 2675 428 
Q 3081 428 3442 575 
Q 3803 722 4122 1019 
L 4122 359 
Q 3791 134 3420 21 
Q 3050 -91 2638 -91 
Q 1578 -91 968 557 
Q 359 1206 359 2328 
Q 359 3453 968 4101 
Q 1578 4750 2638 4750 
Q 3056 4750 3426 4639 
Q 3797 4528 4122 4306 
z
" transform="scale(0.015625)"/>
      <path id="DejaVuSans-5f" d="M 3263 -1063 
L 3263 -1509 
L -63 -1509 
L -63 -1063 
L 3263 -1063 
z
" transform="scale(0.015625)"/>
      <path id="DejaVuSans-30" d="M 2034 4250 
Q 1547 4250 1301 3770 
Q 1056 3291 1056 2328 
Q 1056 1369 1301 889 
Q 1547 409 2034 409 
Q 2525 409 2770 889 
Q 3016 1369 3016 2328 
Q 3016 3291 2770 3770 
Q 2525 4250 2034 4250 
z
M 2034 4750 
Q 2819 4750 3233 4129 
Q 3647 3509 3647 2328 
Q 3647 1150 3233 529 
Q 2819 -91 2034 -91 
Q 1250 -91 836 529 
Q 422 1150 422 2328 
Q 422 3509 836 4129 
Q 1250 4750 2034 4750 
z
" transform="scale(0.015625)"/>
      <path id="DejaVuSans-2e" d="M 684 794 
L 1344 794 
L 1344 0 
L 684 0 
L 684 794 
z
" transform="scale(0.015625)"/>
      <path id="DejaVuSans-35" d="M 691 4666 
L 3169 4666 
L 3169 4134 
L 1269 4134 
L 1269 2991 
Q 1406 3038 1543 3061 
Q 1681 3084 1819 3084 
Q 2600 3084 3056 2656 
Q 3513 2228 3513 1497 
Q 3513 744 3044 326 
Q 2575 -91 1722 -91 
Q 1428 -91 1123 -41 
Q 819 9 494 109 
L 494 744 
Q 775 591 1075 516 
Q 1375 441 1709 441 
Q 2250 441 2565 725 
Q 2881 1009 2881 1497 
Q 2881 1984 2565 2268 
Q 2250 2553 1709 2553 
Q 1456 2553 1204 2497 
Q 953 2441 691 2322 
L 691 4666 
z
" transform="scale(0.015625)"/>
      <path id="DejaVuSans-2c" d="M 750 794 
L 1409 794 
L 1409 256 
L 897 -744 
L 494 -744 
L 750 256 
L 750 794 
z
" transform="scale(0.015625)"/>
      <path id="DejaVuSans-20" transform="scale(0.015625)"/>
      <path id="DejaVuSans-29" d="M 513 4856 
L 1013 4856 
Q 1481 4119 1714 3412 
Q 1947 2706 1947 2009 
Q 1947 1309 1714 600 
Q 1481 -109 1013 -844 
L 513 -844 
Q 928 -128 1133 580 
Q 1338 1288 1338 2009 
Q 1338 2731 1133 3434 
Q 928 4138 513 4856 
z
" transform="scale(0.015625)"/>
      <path id="DejaVuSans-3d" d="M 678 2906 
L 4684 2906 
L 4684 2381 
L 678 2381 
L 678 2906 
z
M 678 1631 
L 4684 1631 
L 4684 1100 
L 678 1100 
L 678 1631 
z
" transform="scale(0.015625)"/>
      <path id="DejaVuSans-31" d="M 794 531 
L 1825 531 
L 1825 4091 
L 703 3866 
L 703 4441 
L 1819 4666 
L 2450 4666 
L 2450 531 
L 3481 531 
L 3481 0 
L 794 0 
L 794 531 
z
" transform="scale(0.015625)"/>
      <path id="DejaVuSans-37" d="M 525 4666 
L 3525 4666 
L 3525 4397 
L 1831 0 
L 1172 0 
L 2766 4134 
L 525 4134 
L 525 4666 
z
" transform="scale(0.015625)"/>
     </defs>
     <use xlink:href="#DejaVuSans-70"/>
     <use xlink:href="#DejaVuSans-28" x="63.476562"/>
     <use xlink:href="#DejaVuSans-49" x="102.490234"/>
     <use xlink:href="#DejaVuSans-41" x="131.982422"/>
     <use xlink:href="#DejaVuSans-43" x="198.640625"/>
     <use xlink:href="#DejaVuSans-5f" x="268.464844"/>
     <use xlink:href="#DejaVuSans-28" x="318.464844"/>
     <use xlink:href="#DejaVuSans-30" x="357.478516"/>
     <use xlink:href="#DejaVuSans-2e" x="421.101562"/>
     <use xlink:href="#DejaVuSans-30" x="452.888672"/>
     <use xlink:href="#DejaVuSans-35" x="516.511719"/>
     <use xlink:href="#DejaVuSans-2c" x="580.134766"/>
     <use xlink:href="#DejaVuSans-20" x="611.921875"/>
     <use xlink:href="#DejaVuSans-30" x="643.708984"/>
     <use xlink:href="#DejaVuSans-2e" x="707.332031"/>
     <use xlink:href="#DejaVuSans-35" x="739.119141"/>
     <use xlink:href="#DejaVuSans-29" x="802.742188"/>
     <use xlink:href="#DejaVuSans-29" x="841.755859"/>
     <use xlink:href="#DejaVuSans-20" x="880.769531"/>
     <use xlink:href="#DejaVuSans-3d" x="912.556641"/>
     <use xlink:href="#DejaVuSans-20" x="996.345703"/>
     <use xlink:href="#DejaVuSans-30" x="1028.132812"/>
     <use xlink:href="#DejaVuSans-2e" x="1091.755859"/>
     <use xlink:href="#DejaVuSans-31" x="1123.542969"/>
     <use xlink:href="#DejaVuSans-37" x="1187.166016"/>
     <use xlink:href="#DejaVuSans-30" x="1250.789062"/>
    </g>
   </g>
   <g id="text_2">
    <!-- p(rope) = 0.830 -->
    <g style="fill: #262626" transform="translate(188.146875 102.458266) scale(0.12 -0.12)">
     <defs>
      <path id="DejaVuSans-72" d="M 2631 2963 
Q 2534 3019 2420 3045 
Q 2306 3072 2169 3072 
Q 1681 3072 1420 2755 
Q 1159 2438 1159 1844 
L 1159 0 
L 581 0 
L 581 3500 
L 1159 3500 
L 1159 2956 
Q 1341 3275 1631 3429 
Q 1922 3584 2338 3584 
Q 2397 3584 2469 3576 
Q 2541 3569 2628 3553 
L 2631 2963 
z
" transform="scale(0.015625)"/>
      <path id="DejaVuSans-6f" d="M 1959 3097 
Q 1497 3097 1228 2736 
Q 959 2375 959 1747 
Q 959 1119 1226 758 
Q 1494 397 1959 397 
Q 2419 397 2687 759 
Q 2956 1122 2956 1747 
Q 2956 2369 2687 2733 
Q 2419 3097 1959 3097 
z
M 1959 3584 
Q 2709 3584 3137 3096 
Q 3566 2609 3566 1747 
Q 3566 888 3137 398 
Q 2709 -91 1959 -91 
Q 1206 -91 779 398 
Q 353 888 353 1747 
Q 353 2609 779 3096 
Q 1206 3584 1959 3584 
z
" transform="scale(0.015625)"/>
      <path id="DejaVuSans-65" d="M 3597 1894 
L 3597 1613 
L 953 1613 
Q 991 1019 1311 708 
Q 1631 397 2203 397 
Q 2534 397 2845 478 
Q 3156 559 3463 722 
L 3463 178 
Q 3153 47 2828 -22 
Q 2503 -91 2169 -91 
Q 1331 -91 842 396 
Q 353 884 353 1716 
Q 353 2575 817 3079 
Q 1281 3584 2069 3584 
Q 2775 3584 3186 3129 
Q 3597 2675 3597 1894 
z
M 3022 2063 
Q 3016 2534 2758 2815 
Q 2500 3097 2075 3097 
Q 1594 3097 1305 2825 
Q 1016 2553 972 2059 
L 3022 2063 
z
" transform="scale(0.015625)"/>
      <path id="DejaVuSans-38" d="M 2034 2216 
Q 1584 2216 1326 1975 
Q 1069 1734 1069 1313 
Q 1069 891 1326 650 
Q 1584 409 2034 409 
Q 2484 409 2743 651 
Q 3003 894 3003 1313 
Q 3003 1734 2745 1975 
Q 2488 2216 2034 2216 
z
M 1403 2484 
Q 997 2584 770 2862 
Q 544 3141 544 3541 
Q 544 4100 942 4425 
Q 1341 4750 2034 4750 
Q 2731 4750 3128 4425 
Q 3525 4100 3525 3541 
Q 3525 3141 3298 2862 
Q 3072 2584 2669 2484 
Q 3125 2378 3379 2068 
Q 3634 1759 3634 1313 
Q 3634 634 3220 271 
Q 2806 -91 2034 -91 
Q 1263 -91 848 271 
Q 434 634 434 1313 
Q 434 1759 690 2068 
Q 947 2378 1403 2484 
z
M 1172 3481 
Q 1172 3119 1398 2916 
Q 1625 2713 2034 2713 
Q 2441 2713 2670 2916 
Q 2900 3119 2900 3481 
Q 2900 3844 2670 4047 
Q 2441 4250 2034 4250 
Q 1625 4250 1398 4047 
Q 1172 3844 1172 3481 
z
" transform="scale(0.015625)"/>
      <path id="DejaVuSans-33" d="M 2597 2516 
Q 3050 2419 3304 2112 
Q 3559 1806 3559 1356 
Q 3559 666 3084 287 
Q 2609 -91 1734 -91 
Q 1441 -91 1130 -33 
Q 819 25 488 141 
L 488 750 
Q 750 597 1062 519 
Q 1375 441 1716 441 
Q 2309 441 2620 675 
Q 2931 909 2931 1356 
Q 2931 1769 2642 2001 
Q 2353 2234 1838 2234 
L 1294 2234 
L 1294 2753 
L 1863 2753 
Q 2328 2753 2575 2939 
Q 2822 3125 2822 3475 
Q 2822 3834 2567 4026 
Q 2313 4219 1838 4219 
Q 1578 4219 1281 4162 
Q 984 4106 628 3988 
L 628 4550 
Q 988 4650 1302 4700 
Q 1616 4750 1894 4750 
Q 2613 4750 3031 4423 
Q 3450 4097 3450 3541 
Q 3450 3153 3228 2886 
Q 3006 2619 2597 2516 
z
" transform="scale(0.015625)"/>
     </defs>
     <use xlink:href="#DejaVuSans-70"/>
     <use xlink:href="#DejaVuSans-28" x="63.476562"/>
     <use xlink:href="#DejaVuSans-72" x="102.490234"/>
     <use xlink:href="#DejaVuSans-6f" x="141.353516"/>
     <use xlink:href="#DejaVuSans-70" x="202.535156"/>
     <use xlink:href="#DejaVuSans-65" x="266.011719"/>
     <use xlink:href="#DejaVuSans-29" x="327.535156"/>
     <use xlink:href="#DejaVuSans-20" x="366.548828"/>
     <use xlink:href="#DejaVuSans-3d" x="398.335938"/>
     <use xlink:href="#DejaVuSans-20" x="482.125"/>
     <use xlink:href="#DejaVuSans-30" x="513.912109"/>
     <use xlink:href="#DejaVuSans-2e" x="577.535156"/>
     <use xlink:href="#DejaVuSans-38" x="609.322266"/>
     <use xlink:href="#DejaVuSans-33" x="672.945312"/>
     <use xlink:href="#DejaVuSans-30" x="736.568359"/>
    </g>
   </g>
   <g id="text_3">
    <!-- p(IAC_(0.2, 0.5)) = 0.000 -->
    <g style="fill: #262626" transform="translate(256.152188 286.2762) scale(0.12 -0.12)">
     <defs>
      <path id="DejaVuSans-32" d="M 1228 531 
L 3431 531 
L 3431 0 
L 469 0 
L 469 531 
Q 828 903 1448 1529 
Q 2069 2156 2228 2338 
Q 2531 2678 2651 2914 
Q 2772 3150 2772 3378 
Q 2772 3750 2511 3984 
Q 2250 4219 1831 4219 
Q 1534 4219 1204 4116 
Q 875 4013 500 3803 
L 500 4441 
Q 881 4594 1212 4672 
Q 1544 4750 1819 4750 
Q 2544 4750 2975 4387 
Q 3406 4025 3406 3419 
Q 3406 3131 3298 2873 
Q 3191 2616 2906 2266 
Q 2828 2175 2409 1742 
Q 1991 1309 1228 531 
z
" transform="scale(0.015625)"/>
     </defs>
     <use xlink:href="#DejaVuSans-70"/>
     <use xlink:href="#DejaVuSans-28" x="63.476562"/>
     <use xlink:href="#DejaVuSans-49" x="102.490234"/>
     <use xlink:href="#DejaVuSans-41" x="131.982422"/>
     <use xlink:href="#DejaVuSans-43" x="198.640625"/>
     <use xlink:href="#DejaVuSans-5f" x="268.464844"/>
     <use xlink:href="#DejaVuSans-28" x="318.464844"/>
     <use xlink:href="#DejaVuSans-30" x="357.478516"/>
     <use xlink:href="#DejaVuSans-2e" x="421.101562"/>
     <use xlink:href="#DejaVuSans-32" x="452.888672"/>
     <use xlink:href="#DejaVuSans-2c" x="516.511719"/>
     <use xlink:href="#DejaVuSans-20" x="548.298828"/>
     <use xlink:href="#DejaVuSans-30" x="580.085938"/>
     <use xlink:href="#DejaVuSans-2e" x="643.708984"/>
     <use xlink:href="#DejaVuSans-35" x="675.496094"/>
     <use xlink:href="#DejaVuSans-29" x="739.119141"/>
     <use xlink:href="#DejaVuSans-29" x="778.132812"/>
     <use xlink:href="#DejaVuSans-20" x="817.146484"/>
     <use xlink:href="#DejaVuSans-3d" x="848.933594"/>
     <use xlink:href="#DejaVuSans-20" x="932.722656"/>
     <use xlink:href="#DejaVuSans-30" x="964.509766"/>
     <use xlink:href="#DejaVuSans-2e" x="1028.132812"/>
     <use xlink:href="#DejaVuSans-30" x="1059.919922"/>
     <use xlink:href="#DejaVuSans-30" x="1123.542969"/>
     <use xlink:href="#DejaVuSans-30" x="1187.166016"/>
    </g>
   </g>
  </g>
 </g>
 <defs>
  <clipPath id="p57190a40b4">
   <rect x="103.104" y="41.472" width="266.112" height="266.112"/>
  </clipPath>
 </defs>
</svg>
