<?xml version="1.0" encoding="utf-8" standalone="no"?>
<!DOCTYPE svg PUBLIC "-//W3C//DTD SVG 1.1//EN"
  "http://www.w3.org/Graphics/SVG/1.1/DTD/svg11.dtd">
<svg xmlns:xlink="http://www.w3.org/1999/xlink" width="460.8pt" height="345.6pt" viewBox="0 0 460.8 345.6" xmlns="http://www.w3.org/2000/svg" version="1.1">
 <metadata>
  <rdf:RDF xmlns:dc="http://purl.org/dc/elements/1.1/" xmlns:cc="http://creativecommons.org/ns#" xmlns:rdf="http://www.w3.org/1999/02/22-rdf-syntax-ns#">
   <cc:Work>
    <dc:type rdf:resource="http://purl.org/dc/dcmitype/StillImage"/>
    <dc:date>2023-04-26T00:11:49.196826</dc:date>
    <dc:format>image/svg+xml</dc:format>
    <dc:creator>
     <cc:Agent>
      <dc:title>Matplotlib v3.6.2, https://matplotlib.org/</dc:title>
     </cc:Agent>
    </dc:creator>
   </cc:Work>
  </rdf:RDF>
 </metadata>
 <defs>
  <style type="text/css">*{stroke-linejoin: round; stroke-linecap: butt}</style>
 </defs>
 <g id="figure_1">
  <g id="patch_1">
   <path d="M 0 345.6 
L 460.8 345.6 
L 460.8 0 
L 0 0 
z
" style="fill: #ffffff"/>
  </g>
  <g id="axes_1">
   <g id="PolyCollection_1">
    <defs>
     <path id="C0_0_0b48149c73" d="M 141.184745 -75.96642 
L 141.184745 -76.09758 
L 141.12 -76.16316 
L 141.055255 -76.09758 
L 141.055255 -75.96642 
L 141.12 -75.90084 
z
"/>
    </defs>
    <g clip-path="url(#p878a7497d3)">
     <use xlink:href="#C0_0_0b48149c73" x="81.739385" y="204.023232" style="fill: #08306b; stroke: #08306b"/>
    </g>
    <g clip-path="url(#p878a7497d3)">
     <use xlink:href="#C0_0_0b48149c73" x="82.257347" y="203.23627" style="fill: #08306b; stroke: #08306b"/>
    </g>
    <g clip-path="url(#p878a7497d3)">
     <use xlink:href="#C0_0_0b48149c73" x="82.645819" y="202.449308" style="fill: #08306b; stroke: #08306b"/>
    </g>
    <g clip-path="url(#p878a7497d3)">
     <use xlink:href="#C0_0_0b48149c73" x="83.811233" y="200.481903" style="fill: #08306b; stroke: #08306b"/>
    </g>
    <g clip-path="url(#p878a7497d3)">
     <use xlink:href="#C0_0_0b48149c73" x="84.070214" y="200.088422" style="fill: #08306b; stroke: #08306b"/>
    </g>
    <g clip-path="url(#p878a7497d3)">
     <use xlink:href="#C0_0_0b48149c73" x="84.199705" y="199.694941" style="fill: #08306b; stroke: #08306b"/>
    </g>
    <g clip-path="url(#p878a7497d3)">
     <use xlink:href="#C0_0_0b48149c73" x="84.717667" y="198.907979" style="fill: #08306b; stroke: #08306b"/>
    </g>
    <g clip-path="url(#p878a7497d3)">
     <use xlink:href="#C0_0_0b48149c73" x="84.847157" y="198.514498" style="fill: #08306b; stroke: #08306b"/>
    </g>
    <g clip-path="url(#p878a7497d3)">
     <use xlink:href="#C0_0_0b48149c73" x="84.976648" y="198.514498" style="fill: #08306b; stroke: #08306b"/>
    </g>
    <g clip-path="url(#p878a7497d3)">
     <use xlink:href="#C0_0_0b48149c73" x="85.106139" y="198.121017" style="fill: #08306b; stroke: #08306b"/>
    </g>
    <g clip-path="url(#p878a7497d3)">
     <use xlink:href="#C0_0_0b48149c73" x="85.235629" y="198.121017" style="fill: #08306b; stroke: #08306b"/>
    </g>
    <g clip-path="url(#p878a7497d3)">
     <use xlink:href="#C0_0_0b48149c73" x="85.36512" y="197.727536" style="fill: #08306b; stroke: #08306b"/>
    </g>
    <g clip-path="url(#p878a7497d3)">
     <use xlink:href="#C0_0_0b48149c73" x="85.624101" y="197.334055" style="fill: #08306b; stroke: #08306b"/>
    </g>
    <g clip-path="url(#p878a7497d3)">
     <use xlink:href="#C0_0_0b48149c73" x="85.753591" y="196.940574" style="fill: #08306b; stroke: #08306b"/>
    </g>
    <g clip-path="url(#p878a7497d3)">
     <use xlink:href="#C0_0_0b48149c73" x="85.883082" y="196.940574" style="fill: #08306b; stroke: #08306b"/>
    </g>
    <g clip-path="url(#p878a7497d3)">
     <use xlink:href="#C0_0_0b48149c73" x="86.012572" y="196.547094" style="fill: #08326e; stroke: #08326e"/>
    </g>
    <g clip-path="url(#p878a7497d3)">
     <use xlink:href="#C0_0_0b48149c73" x="86.142063" y="196.547094" style="fill: #08306b; stroke: #08306b"/>
    </g>
    <g clip-path="url(#p878a7497d3)">
     <use xlink:href="#C0_0_0b48149c73" x="86.271553" y="196.153613" style="fill: #08326e; stroke: #08326e"/>
    </g>
    <g clip-path="url(#p878a7497d3)">
     <use xlink:href="#C0_0_0b48149c73" x="86.530534" y="195.760132" style="fill: #08316d; stroke: #08316d"/>
    </g>
    <g clip-path="url(#p878a7497d3)">
     <use xlink:href="#C0_0_0b48149c73" x="86.660025" y="195.366651" style="fill: #08316d; stroke: #08316d"/>
    </g>
    <g clip-path="url(#p878a7497d3)">
     <use xlink:href="#C0_0_0b48149c73" x="86.789515" y="195.366651" style="fill: #083370; stroke: #083370"/>
    </g>
    <g clip-path="url(#p878a7497d3)">
     <use xlink:href="#C0_0_0b48149c73" x="86.919006" y="194.97317" style="fill: #083370; stroke: #083370"/>
    </g>
    <g clip-path="url(#p878a7497d3)">
     <use xlink:href="#C0_0_0b48149c73" x="87.048496" y="194.97317" style="fill: #08316d; stroke: #08316d"/>
    </g>
    <g clip-path="url(#p878a7497d3)">
     <use xlink:href="#C0_0_0b48149c73" x="87.177987" y="194.579689" style="fill: #083674; stroke: #083674"/>
    </g>
    <g clip-path="url(#p878a7497d3)">
     <use xlink:href="#C0_0_0b48149c73" x="87.436968" y="194.186208" style="fill: #083471; stroke: #083471"/>
    </g>
    <g clip-path="url(#p878a7497d3)">
     <use xlink:href="#C0_0_0b48149c73" x="87.566458" y="193.792727" style="fill: #083370; stroke: #083370"/>
    </g>
    <g clip-path="url(#p878a7497d3)">
     <use xlink:href="#C0_0_0b48149c73" x="87.695949" y="193.792727" style="fill: #083674; stroke: #083674"/>
    </g>
    <g clip-path="url(#p878a7497d3)">
     <use xlink:href="#C0_0_0b48149c73" x="87.825439" y="193.399246" style="fill: #083a7a; stroke: #083a7a"/>
    </g>
    <g clip-path="url(#p878a7497d3)">
     <use xlink:href="#C0_0_0b48149c73" x="87.95493" y="193.399246" style="fill: #083471; stroke: #083471"/>
    </g>
    <g clip-path="url(#p878a7497d3)">
     <use xlink:href="#C0_0_0b48149c73" x="88.084421" y="193.005765" style="fill: #083a7a; stroke: #083a7a"/>
    </g>
    <g clip-path="url(#p878a7497d3)">
     <use xlink:href="#C0_0_0b48149c73" x="88.343402" y="192.612284" style="fill: #084285; stroke: #084285"/>
    </g>
    <g clip-path="url(#p878a7497d3)">
     <use xlink:href="#C0_0_0b48149c73" x="88.472892" y="192.218803" style="fill: #083979; stroke: #083979"/>
    </g>
    <g clip-path="url(#p878a7497d3)">
     <use xlink:href="#C0_0_0b48149c73" x="88.602383" y="192.218803" style="fill: #084184; stroke: #084184"/>
    </g>
    <g clip-path="url(#p878a7497d3)">
     <use xlink:href="#C0_0_0b48149c73" x="88.731873" y="191.825322" style="fill: #084387; stroke: #084387"/>
    </g>
    <g clip-path="url(#p878a7497d3)">
     <use xlink:href="#C0_0_0b48149c73" x="88.861364" y="191.825322" style="fill: #084082; stroke: #084082"/>
    </g>
    <g clip-path="url(#p878a7497d3)">
     <use xlink:href="#C0_0_0b48149c73" x="88.990854" y="191.431841" style="fill: #084f99; stroke: #084f99"/>
    </g>
    <g clip-path="url(#p878a7497d3)">
     <use xlink:href="#C0_0_0b48149c73" x="89.249835" y="191.03836" style="fill: #0b559f; stroke: #0b559f"/>
    </g>
    <g clip-path="url(#p878a7497d3)">
     <use xlink:href="#C0_0_0b48149c73" x="89.379326" y="190.644879" style="fill: #084387; stroke: #084387"/>
    </g>
    <g clip-path="url(#p878a7497d3)">
     <use xlink:href="#C0_0_0b48149c73" x="89.508816" y="190.644879" style="fill: #0e59a2; stroke: #0e59a2"/>
    </g>
    <g clip-path="url(#p878a7497d3)">
     <use xlink:href="#C0_0_0b48149c73" x="89.638307" y="190.251398" style="fill: #0e58a2; stroke: #0e58a2"/>
    </g>
    <g clip-path="url(#p878a7497d3)">
     <use xlink:href="#C0_0_0b48149c73" x="89.767797" y="190.251398" style="fill: #0c56a0; stroke: #0c56a0"/>
    </g>
    <g clip-path="url(#p878a7497d3)">
     <use xlink:href="#C0_0_0b48149c73" x="89.897288" y="189.857917" style="fill: #1e6db2; stroke: #1e6db2"/>
    </g>
    <g clip-path="url(#p878a7497d3)">
     <use xlink:href="#C0_0_0b48149c73" x="90.156269" y="189.464436" style="fill: #2b7bba; stroke: #2b7bba"/>
    </g>
    <g clip-path="url(#p878a7497d3)">
     <use xlink:href="#C0_0_0b48149c73" x="90.285759" y="189.070955" style="fill: #0e58a2; stroke: #0e58a2"/>
    </g>
    <g clip-path="url(#p878a7497d3)">
     <use xlink:href="#C0_0_0b48149c73" x="90.41525" y="189.070955" style="fill: #3888c1; stroke: #3888c1"/>
    </g>
    <g clip-path="url(#p878a7497d3)">
     <use xlink:href="#C0_0_0b48149c73" x="90.54474" y="188.677474" style="fill: #3787c0; stroke: #3787c0"/>
    </g>
    <g clip-path="url(#p878a7497d3)">
     <use xlink:href="#C0_0_0b48149c73" x="90.674231" y="188.677474" style="fill: #2f7fbc; stroke: #2f7fbc"/>
    </g>
    <g clip-path="url(#p878a7497d3)">
     <use xlink:href="#C0_0_0b48149c73" x="90.803721" y="188.283993" style="fill: #64a9d3; stroke: #64a9d3"/>
    </g>
    <g clip-path="url(#p878a7497d3)">
     <use xlink:href="#C0_0_0b48149c73" x="91.062702" y="187.890512" style="fill: #84bcdb; stroke: #84bcdb"/>
    </g>
    <g clip-path="url(#p878a7497d3)">
     <use xlink:href="#C0_0_0b48149c73" x="91.192193" y="187.497031" style="fill: #1b69af; stroke: #1b69af"/>
    </g>
    <g clip-path="url(#p878a7497d3)">
     <use xlink:href="#C0_0_0b48149c73" x="91.321684" y="187.497031" style="fill: #94c4df; stroke: #94c4df"/>
    </g>
    <g clip-path="url(#p878a7497d3)">
     <use xlink:href="#C0_0_0b48149c73" x="91.451174" y="187.10355" style="fill: #7cb7da; stroke: #7cb7da"/>
    </g>
    <g clip-path="url(#p878a7497d3)">
     <use xlink:href="#C0_0_0b48149c73" x="91.580665" y="187.10355" style="fill: #7cb7da; stroke: #7cb7da"/>
    </g>
    <g clip-path="url(#p878a7497d3)">
     <use xlink:href="#C0_0_0b48149c73" x="91.710155" y="186.710069" style="fill: #d7e6f5; stroke: #d7e6f5"/>
    </g>
    <g clip-path="url(#p878a7497d3)">
     <use xlink:href="#C0_0_0b48149c73" x="91.969136" y="186.316588" style="fill: #e4eff9; stroke: #e4eff9"/>
    </g>
    <g clip-path="url(#p878a7497d3)">
     <use xlink:href="#C0_0_0b48149c73" x="92.098627" y="185.923107" style="fill: #2e7ebc; stroke: #2e7ebc"/>
    </g>
    <g clip-path="url(#p878a7497d3)">
     <use xlink:href="#C0_0_0b48149c73" x="92.228117" y="185.923107" style="fill: #e8f1fa; stroke: #e8f1fa"/>
    </g>
    <g clip-path="url(#p878a7497d3)">
     <use xlink:href="#C0_0_0b48149c73" x="92.357608" y="185.529626" style="fill: #d1e2f3; stroke: #d1e2f3"/>
    </g>
    <g clip-path="url(#p878a7497d3)">
     <use xlink:href="#C0_0_0b48149c73" x="92.487098" y="185.529626" style="fill: #bed8ec; stroke: #bed8ec"/>
    </g>
    <g clip-path="url(#p878a7497d3)">
     <use xlink:href="#C0_0_0b48149c73" x="92.616589" y="185.136145" style="fill: #f7fbff; stroke: #f7fbff"/>
    </g>
    <g clip-path="url(#p878a7497d3)">
     <use xlink:href="#C0_0_0b48149c73" x="92.746079" y="185.136145" style="fill: #08316d; stroke: #08316d"/>
    </g>
    <g clip-path="url(#p878a7497d3)">
     <use xlink:href="#C0_0_0b48149c73" x="92.87557" y="184.742664" style="fill: #f2f8fd; stroke: #f2f8fd"/>
    </g>
    <g clip-path="url(#p878a7497d3)">
     <use xlink:href="#C0_0_0b48149c73" x="93.00506" y="184.349183" style="fill: #1c6ab0; stroke: #1c6ab0"/>
    </g>
    <g clip-path="url(#p878a7497d3)">
     <use xlink:href="#C0_0_0b48149c73" x="93.134551" y="184.349183" style="fill: #c9ddf0; stroke: #c9ddf0"/>
    </g>
    <g clip-path="url(#p878a7497d3)">
     <use xlink:href="#C0_0_0b48149c73" x="93.264041" y="183.955702" style="fill: #8dc1dd; stroke: #8dc1dd"/>
    </g>
    <g clip-path="url(#p878a7497d3)">
     <use xlink:href="#C0_0_0b48149c73" x="93.393532" y="183.955702" style="fill: #79b5d9; stroke: #79b5d9"/>
    </g>
    <g clip-path="url(#p878a7497d3)">
     <use xlink:href="#C0_0_0b48149c73" x="93.523022" y="183.562221" style="fill: #8abfdd; stroke: #8abfdd"/>
    </g>
    <g clip-path="url(#p878a7497d3)">
     <use xlink:href="#C0_0_0b48149c73" x="93.652513" y="183.562221" style="fill: #083a7a; stroke: #083a7a"/>
    </g>
    <g clip-path="url(#p878a7497d3)">
     <use xlink:href="#C0_0_0b48149c73" x="93.782003" y="183.16874" style="fill: #4997c9; stroke: #4997c9"/>
    </g>
    <g clip-path="url(#p878a7497d3)">
     <use xlink:href="#C0_0_0b48149c73" x="93.911494" y="182.775259" style="fill: #083b7c; stroke: #083b7c"/>
    </g>
    <g clip-path="url(#p878a7497d3)">
     <use xlink:href="#C0_0_0b48149c73" x="94.040984" y="182.775259" style="fill: #1c6bb0; stroke: #1c6bb0"/>
    </g>
    <g clip-path="url(#p878a7497d3)">
     <use xlink:href="#C0_0_0b48149c73" x="94.170475" y="182.381778" style="fill: #084a91; stroke: #084a91"/>
    </g>
    <g clip-path="url(#p878a7497d3)">
     <use xlink:href="#C0_0_0b48149c73" x="94.299966" y="182.381778" style="fill: #084285; stroke: #084285"/>
    </g>
    <g clip-path="url(#p878a7497d3)">
     <use xlink:href="#C0_0_0b48149c73" x="94.429456" y="181.988297" style="fill: #083a7a; stroke: #083a7a"/>
    </g>
    <g clip-path="url(#p878a7497d3)">
     <use xlink:href="#C0_0_0b48149c73" x="94.558947" y="181.988297" style="fill: #08306b; stroke: #08306b"/>
    </g>
    <g clip-path="url(#p878a7497d3)">
     <use xlink:href="#C0_0_0b48149c73" x="94.688437" y="181.594816" style="fill: #08306b; stroke: #08306b"/>
    </g>
    <g clip-path="url(#p878a7497d3)">
     <use xlink:href="#C0_0_0b48149c73" x="82.581073" y="202.646049" style="fill: #08306b; stroke: #08306b"/>
    </g>
    <g clip-path="url(#p878a7497d3)">
     <use xlink:href="#C0_0_0b48149c73" x="82.840054" y="202.252568" style="fill: #08306b; stroke: #08306b"/>
    </g>
    <g clip-path="url(#p878a7497d3)">
     <use xlink:href="#C0_0_0b48149c73" x="82.969545" y="201.859087" style="fill: #08306b; stroke: #08306b"/>
    </g>
    <g clip-path="url(#p878a7497d3)">
     <use xlink:href="#C0_0_0b48149c73" x="83.358016" y="201.072125" style="fill: #08306b; stroke: #08306b"/>
    </g>
    <g clip-path="url(#p878a7497d3)">
     <use xlink:href="#C0_0_0b48149c73" x="83.487507" y="201.072125" style="fill: #08306b; stroke: #08306b"/>
    </g>
    <g clip-path="url(#p878a7497d3)">
     <use xlink:href="#C0_0_0b48149c73" x="83.875979" y="200.285163" style="fill: #08306b; stroke: #08306b"/>
    </g>
    <g clip-path="url(#p878a7497d3)">
     <use xlink:href="#C0_0_0b48149c73" x="84.13496" y="199.891682" style="fill: #08306b; stroke: #08306b"/>
    </g>
    <g clip-path="url(#p878a7497d3)">
     <use xlink:href="#C0_0_0b48149c73" x="84.26445" y="199.498201" style="fill: #08306b; stroke: #08306b"/>
    </g>
    <g clip-path="url(#p878a7497d3)">
     <use xlink:href="#C0_0_0b48149c73" x="84.393941" y="199.498201" style="fill: #08306b; stroke: #08306b"/>
    </g>
    <g clip-path="url(#p878a7497d3)">
     <use xlink:href="#C0_0_0b48149c73" x="84.652922" y="199.10472" style="fill: #08306b; stroke: #08306b"/>
    </g>
    <g clip-path="url(#p878a7497d3)">
     <use xlink:href="#C0_0_0b48149c73" x="84.782412" y="198.711239" style="fill: #08306b; stroke: #08306b"/>
    </g>
    <g clip-path="url(#p878a7497d3)">
     <use xlink:href="#C0_0_0b48149c73" x="85.041393" y="198.317758" style="fill: #08306b; stroke: #08306b"/>
    </g>
    <g clip-path="url(#p878a7497d3)">
     <use xlink:href="#C0_0_0b48149c73" x="85.170884" y="197.924277" style="fill: #08306b; stroke: #08306b"/>
    </g>
    <g clip-path="url(#p878a7497d3)">
     <use xlink:href="#C0_0_0b48149c73" x="85.300374" y="197.924277" style="fill: #08306b; stroke: #08306b"/>
    </g>
    <g clip-path="url(#p878a7497d3)">
     <use xlink:href="#C0_0_0b48149c73" x="85.429865" y="197.530796" style="fill: #08306b; stroke: #08306b"/>
    </g>
    <g clip-path="url(#p878a7497d3)">
     <use xlink:href="#C0_0_0b48149c73" x="85.559355" y="197.530796" style="fill: #08306b; stroke: #08306b"/>
    </g>
    <g clip-path="url(#p878a7497d3)">
     <use xlink:href="#C0_0_0b48149c73" x="85.688846" y="197.137315" style="fill: #08306b; stroke: #08306b"/>
    </g>
    <g clip-path="url(#p878a7497d3)">
     <use xlink:href="#C0_0_0b48149c73" x="85.947827" y="196.743834" style="fill: #08316d; stroke: #08316d"/>
    </g>
    <g clip-path="url(#p878a7497d3)">
     <use xlink:href="#C0_0_0b48149c73" x="86.077317" y="196.350353" style="fill: #08306b; stroke: #08306b"/>
    </g>
    <g clip-path="url(#p878a7497d3)">
     <use xlink:href="#C0_0_0b48149c73" x="86.206808" y="196.350353" style="fill: #08326e; stroke: #08326e"/>
    </g>
    <g clip-path="url(#p878a7497d3)">
     <use xlink:href="#C0_0_0b48149c73" x="86.336298" y="195.956872" style="fill: #08316d; stroke: #08316d"/>
    </g>
    <g clip-path="url(#p878a7497d3)">
     <use xlink:href="#C0_0_0b48149c73" x="86.465789" y="195.956872" style="fill: #08316d; stroke: #08316d"/>
    </g>
    <g clip-path="url(#p878a7497d3)">
     <use xlink:href="#C0_0_0b48149c73" x="86.59528" y="195.563391" style="fill: #08326e; stroke: #08326e"/>
    </g>
    <g clip-path="url(#p878a7497d3)">
     <use xlink:href="#C0_0_0b48149c73" x="86.854261" y="195.16991" style="fill: #083370; stroke: #083370"/>
    </g>
    <g clip-path="url(#p878a7497d3)">
     <use xlink:href="#C0_0_0b48149c73" x="86.983751" y="194.776429" style="fill: #08306b; stroke: #08306b"/>
    </g>
    <g clip-path="url(#p878a7497d3)">
     <use xlink:href="#C0_0_0b48149c73" x="87.113242" y="194.776429" style="fill: #083370; stroke: #083370"/>
    </g>
    <g clip-path="url(#p878a7497d3)">
     <use xlink:href="#C0_0_0b48149c73" x="87.242732" y="194.382948" style="fill: #083471; stroke: #083471"/>
    </g>
    <g clip-path="url(#p878a7497d3)">
     <use xlink:href="#C0_0_0b48149c73" x="87.372223" y="194.382948" style="fill: #083370; stroke: #083370"/>
    </g>
    <g clip-path="url(#p878a7497d3)">
     <use xlink:href="#C0_0_0b48149c73" x="87.501713" y="193.989467" style="fill: #083674; stroke: #083674"/>
    </g>
    <g clip-path="url(#p878a7497d3)">
     <use xlink:href="#C0_0_0b48149c73" x="87.631204" y="193.989467" style="fill: #08306b; stroke: #08306b"/>
    </g>
    <g clip-path="url(#p878a7497d3)">
     <use xlink:href="#C0_0_0b48149c73" x="87.760694" y="193.595986" style="fill: #083979; stroke: #083979"/>
    </g>
    <g clip-path="url(#p878a7497d3)">
     <use xlink:href="#C0_0_0b48149c73" x="87.890185" y="193.202505" style="fill: #08316d; stroke: #08316d"/>
    </g>
    <g clip-path="url(#p878a7497d3)">
     <use xlink:href="#C0_0_0b48149c73" x="88.019675" y="193.202505" style="fill: #083979; stroke: #083979"/>
    </g>
    <g clip-path="url(#p878a7497d3)">
     <use xlink:href="#C0_0_0b48149c73" x="88.149166" y="192.809024" style="fill: #083a7a; stroke: #083a7a"/>
    </g>
    <g clip-path="url(#p878a7497d3)">
     <use xlink:href="#C0_0_0b48149c73" x="88.278656" y="192.809024" style="fill: #083b7c; stroke: #083b7c"/>
    </g>
    <g clip-path="url(#p878a7497d3)">
     <use xlink:href="#C0_0_0b48149c73" x="88.408147" y="192.415543" style="fill: #083d7f; stroke: #083d7f"/>
    </g>
    <g clip-path="url(#p878a7497d3)">
     <use xlink:href="#C0_0_0b48149c73" x="88.537637" y="192.415543" style="fill: #08326e; stroke: #08326e"/>
    </g>
    <g clip-path="url(#p878a7497d3)">
     <use xlink:href="#C0_0_0b48149c73" x="88.667128" y="192.022062" style="fill: #08488e; stroke: #08488e"/>
    </g>
    <g clip-path="url(#p878a7497d3)">
     <use xlink:href="#C0_0_0b48149c73" x="88.796618" y="191.628581" style="fill: #08326e; stroke: #08326e"/>
    </g>
    <g clip-path="url(#p878a7497d3)">
     <use xlink:href="#C0_0_0b48149c73" x="88.926109" y="191.628581" style="fill: #08478d; stroke: #08478d"/>
    </g>
    <g clip-path="url(#p878a7497d3)">
     <use xlink:href="#C0_0_0b48149c73" x="89.055599" y="191.2351" style="fill: #08478d; stroke: #08478d"/>
    </g>
    <g clip-path="url(#p878a7497d3)">
     <use xlink:href="#C0_0_0b48149c73" x="89.18509" y="191.2351" style="fill: #084a91; stroke: #084a91"/>
    </g>
    <g clip-path="url(#p878a7497d3)">
     <use xlink:href="#C0_0_0b48149c73" x="89.31458" y="190.841619" style="fill: #0a549e; stroke: #0a549e"/>
    </g>
    <g clip-path="url(#p878a7497d3)">
     <use xlink:href="#C0_0_0b48149c73" x="89.444071" y="190.841619" style="fill: #083674; stroke: #083674"/>
    </g>
    <g clip-path="url(#p878a7497d3)">
     <use xlink:href="#C0_0_0b48149c73" x="89.573562" y="190.448138" style="fill: #1966ad; stroke: #1966ad"/>
    </g>
    <g clip-path="url(#p878a7497d3)">
     <use xlink:href="#C0_0_0b48149c73" x="89.703052" y="190.054657" style="fill: #08316d; stroke: #08316d"/>
    </g>
    <g clip-path="url(#p878a7497d3)">
     <use xlink:href="#C0_0_0b48149c73" x="89.832543" y="190.054657" style="fill: #1f6eb3; stroke: #1f6eb3"/>
    </g>
    <g clip-path="url(#p878a7497d3)">
     <use xlink:href="#C0_0_0b48149c73" x="89.962033" y="189.661176" style="fill: #125ea6; stroke: #125ea6"/>
    </g>
    <g clip-path="url(#p878a7497d3)">
     <use xlink:href="#C0_0_0b48149c73" x="90.091524" y="189.661176" style="fill: #1c6bb0; stroke: #1c6bb0"/>
    </g>
    <g clip-path="url(#p878a7497d3)">
     <use xlink:href="#C0_0_0b48149c73" x="90.221014" y="189.267695" style="fill: #2e7ebc; stroke: #2e7ebc"/>
    </g>
    <g clip-path="url(#p878a7497d3)">
     <use xlink:href="#C0_0_0b48149c73" x="90.350505" y="189.267695" style="fill: #08488e; stroke: #08488e"/>
    </g>
    <g clip-path="url(#p878a7497d3)">
     <use xlink:href="#C0_0_0b48149c73" x="90.479995" y="188.874214" style="fill: #4594c7; stroke: #4594c7"/>
    </g>
    <g clip-path="url(#p878a7497d3)">
     <use xlink:href="#C0_0_0b48149c73" x="90.738976" y="188.480733" style="fill: #5da5d1; stroke: #5da5d1"/>
    </g>
    <g clip-path="url(#p878a7497d3)">
     <use xlink:href="#C0_0_0b48149c73" x="90.868467" y="188.087252" style="fill: #4090c5; stroke: #4090c5"/>
    </g>
    <g clip-path="url(#p878a7497d3)">
     <use xlink:href="#C0_0_0b48149c73" x="90.997957" y="188.087252" style="fill: #4f9bcb; stroke: #4f9bcb"/>
    </g>
    <g clip-path="url(#p878a7497d3)">
     <use xlink:href="#C0_0_0b48149c73" x="91.127448" y="187.693771" style="fill: #82bbdb; stroke: #82bbdb"/>
    </g>
    <g clip-path="url(#p878a7497d3)">
     <use xlink:href="#C0_0_0b48149c73" x="91.256938" y="187.693771" style="fill: #1663aa; stroke: #1663aa"/>
    </g>
    <g clip-path="url(#p878a7497d3)">
     <use xlink:href="#C0_0_0b48149c73" x="91.386429" y="187.30029" style="fill: #b7d4ea; stroke: #b7d4ea"/>
    </g>
    <g clip-path="url(#p878a7497d3)">
     <use xlink:href="#C0_0_0b48149c73" x="91.64541" y="186.906809" style="fill: #cadef0; stroke: #cadef0"/>
    </g>
    <g clip-path="url(#p878a7497d3)">
     <use xlink:href="#C0_0_0b48149c73" x="91.7749" y="186.513328" style="fill: #94c4df; stroke: #94c4df"/>
    </g>
    <g clip-path="url(#p878a7497d3)">
     <use xlink:href="#C0_0_0b48149c73" x="91.904391" y="186.513328" style="fill: #b0d2e7; stroke: #b0d2e7"/>
    </g>
    <g clip-path="url(#p878a7497d3)">
     <use xlink:href="#C0_0_0b48149c73" x="92.033881" y="186.119847" style="fill: #cddff1; stroke: #cddff1"/>
    </g>
    <g clip-path="url(#p878a7497d3)">
     <use xlink:href="#C0_0_0b48149c73" x="92.163372" y="186.119847" style="fill: #3f8fc5; stroke: #3f8fc5"/>
    </g>
    <g clip-path="url(#p878a7497d3)">
     <use xlink:href="#C0_0_0b48149c73" x="92.292862" y="185.726366" style="fill: #ecf4fb; stroke: #ecf4fb"/>
    </g>
    <g clip-path="url(#p878a7497d3)">
     <use xlink:href="#C0_0_0b48149c73" x="92.551843" y="185.332885" style="fill: #f7fbff; stroke: #f7fbff"/>
    </g>
    <g clip-path="url(#p878a7497d3)">
     <use xlink:href="#C0_0_0b48149c73" x="92.681334" y="184.939404" style="fill: #a8cee4; stroke: #a8cee4"/>
    </g>
    <g clip-path="url(#p878a7497d3)">
     <use xlink:href="#C0_0_0b48149c73" x="92.810825" y="184.939404" style="fill: #d0e1f2; stroke: #d0e1f2"/>
    </g>
    <g clip-path="url(#p878a7497d3)">
     <use xlink:href="#C0_0_0b48149c73" x="92.940315" y="184.545923" style="fill: #cfe1f2; stroke: #cfe1f2"/>
    </g>
    <g clip-path="url(#p878a7497d3)">
     <use xlink:href="#C0_0_0b48149c73" x="93.069806" y="184.545923" style="fill: #4b98ca; stroke: #4b98ca"/>
    </g>
    <g clip-path="url(#p878a7497d3)">
     <use xlink:href="#C0_0_0b48149c73" x="93.199296" y="184.152443" style="fill: #d0e2f2; stroke: #d0e2f2"/>
    </g>
    <g clip-path="url(#p878a7497d3)">
     <use xlink:href="#C0_0_0b48149c73" x="93.458277" y="183.758962" style="fill: #b2d2e8; stroke: #b2d2e8"/>
    </g>
    <g clip-path="url(#p878a7497d3)">
     <use xlink:href="#C0_0_0b48149c73" x="93.587768" y="183.365481" style="fill: #3c8cc3; stroke: #3c8cc3"/>
    </g>
    <g clip-path="url(#p878a7497d3)">
     <use xlink:href="#C0_0_0b48149c73" x="93.717258" y="183.365481" style="fill: #4292c6; stroke: #4292c6"/>
    </g>
    <g clip-path="url(#p878a7497d3)">
     <use xlink:href="#C0_0_0b48149c73" x="93.846749" y="182.972" style="fill: #2777b8; stroke: #2777b8"/>
    </g>
    <g clip-path="url(#p878a7497d3)">
     <use xlink:href="#C0_0_0b48149c73" x="93.976239" y="182.972" style="fill: #0c56a0; stroke: #0c56a0"/>
    </g>
    <g clip-path="url(#p878a7497d3)">
     <use xlink:href="#C0_0_0b48149c73" x="94.10573" y="182.578519" style="fill: #125ea6; stroke: #125ea6"/>
    </g>
    <g clip-path="url(#p878a7497d3)">
     <use xlink:href="#C0_0_0b48149c73" x="94.364711" y="182.185038" style="fill: #084082; stroke: #084082"/>
    </g>
    <g clip-path="url(#p878a7497d3)">
     <use xlink:href="#C0_0_0b48149c73" x="94.494201" y="181.791557" style="fill: #08326e; stroke: #08326e"/>
    </g>
    <g clip-path="url(#p878a7497d3)">
     <use xlink:href="#C0_0_0b48149c73" x="94.623692" y="181.791557" style="fill: #08316d; stroke: #08316d"/>
    </g>
   </g>
   <g id="line2d_1">
    <path d="M 141.12 269.568 
L 236.16 104.953891 
L 331.2 269.568 
L 141.12 269.568 
" clip-path="url(#p878a7497d3)" style="fill: none; stroke: #ffa500; stroke-width: 1.5; stroke-linecap: round"/>
   </g>
   <g id="line2d_2">
    <path d="M 236.16 214.69663 
L 236.16 269.568 
" clip-path="url(#p878a7497d3)" style="fill: none; stroke: #ffa500; stroke-width: 1.5; stroke-linecap: round"/>
   </g>
   <g id="line2d_3">
    <path d="M 236.16 214.69663 
L 188.64 187.260946 
" clip-path="url(#p878a7497d3)" style="fill: none; stroke: #ffa500; stroke-width: 1.5; stroke-linecap: round"/>
   </g>
   <g id="line2d_4">
    <path d="M 236.16 214.69663 
L 283.68 187.260946 
" clip-path="url(#p878a7497d3)" style="fill: none; stroke: #ffa500; stroke-width: 1.5; stroke-linecap: round"/>
   </g>
   <g id="text_1">
    <!-- p(IAC_(0.05, 0.1)) = 0.000 -->
    <g style="fill: #262626" transform="translate(62.254688 286.2762) scale(0.12 -0.12)">
     <defs>
      <path id="DejaVuSans-70" d="M 1159 525 
L 1159 -1331 
L 581 -1331 
L 581 3500 
L 1159 3500 
L 1159 2969 
Q 1341 3281 1617 3432 
Q 1894 3584 2278 3584 
Q 2916 3584 3314 3078 
Q 3713 2572 3713 1747 
Q 3713 922 3314 415 
Q 2916 -91 2278 -91 
Q 1894 -91 1617 61 
Q 1341 213 1159 525 
z
M 3116 1747 
Q 3116 2381 2855 2742 
Q 2594 3103 2138 3103 
Q 1681 3103 1420 2742 
Q 1159 2381 1159 1747 
Q 1159 1113 1420 752 
Q 1681 391 2138 391 
Q 2594 391 2855 752 
Q 3116 1113 3116 1747 
z
" transform="scale(0.015625)"/>
      <path id="DejaVuSans-28" d="M 1984 4856 
Q 1566 4138 1362 3434 
Q 1159 2731 1159 2009 
Q 1159 1288 1364 580 
Q 1569 -128 1984 -844 
L 1484 -844 
Q 1016 -109 783 600 
Q 550 1309 550 2009 
Q 550 2706 781 3412 
Q 1013 4119 1484 4856 
L 1984 4856 
z
" transform="scale(0.015625)"/>
      <path id="DejaVuSans-49" d="M 628 4666 
L 1259 4666 
L 1259 0 
L 628 0 
L 628 4666 
z
" transform="scale(0.015625)"/>
      <path id="DejaVuSans-41" d="M 2188 4044 
L 1331 1722 
L 3047 1722 
L 2188 4044 
z
M 1831 4666 
L 2547 4666 
L 4325 0 
L 3669 0 
L 3244 1197 
L 1141 1197 
L 716 0 
L 50 0 
L 1831 4666 
z
" transform="scale(0.015625)"/>
      <path id="DejaVuSans-43" d="M 4122 4306 
L 4122 3641 
Q 3803 3938 3442 4084 
Q 3081 4231 2675 4231 
Q 1875 4231 1450 3742 
Q 1025 3253 1025 2328 
Q 1025 1406 1450 917 
Q 1875 428 2675 428 
Q 3081 428 3442 575 
Q 3803 722 4122 1019 
L 4122 359 
Q 3791 134 3420 21 
Q 3050 -91 2638 -91 
Q 1578 -91 968 557 
Q 359 1206 359 2328 
Q 359 3453 968 4101 
Q 1578 4750 2638 4750 
Q 3056 4750 3426 4639 
Q 3797 4528 4122 4306 
z
" transform="scale(0.015625)"/>
      <path id="DejaVuSans-5f" d="M 3263 -1063 
L 3263 -1509 
L -63 -1509 
L -63 -1063 
L 3263 -1063 
z
" transform="scale(0.015625)"/>
      <path id="DejaVuSans-30" d="M 2034 4250 
Q 1547 4250 1301 3770 
Q 1056 3291 1056 2328 
Q 1056 1369 1301 889 
Q 1547 409 2034 409 
Q 2525 409 2770 889 
Q 3016 1369 3016 2328 
Q 3016 3291 2770 3770 
Q 2525 4250 2034 4250 
z
M 2034 4750 
Q 2819 4750 3233 4129 
Q 3647 3509 3647 2328 
Q 3647 1150 3233 529 
Q 2819 -91 2034 -91 
Q 1250 -91 836 529 
Q 422 1150 422 2328 
Q 422 3509 836 4129 
Q 1250 4750 2034 4750 
z
" transform="scale(0.015625)"/>
      <path id="DejaVuSans-2e" d="M 684 794 
L 1344 794 
L 1344 0 
L 684 0 
L 684 794 
z
" transform="scale(0.015625)"/>
      <path id="DejaVuSans-35" d="M 691 4666 
L 3169 4666 
L 3169 4134 
L 1269 4134 
L 1269 2991 
Q 1406 3038 1543 3061 
Q 1681 3084 1819 3084 
Q 2600 3084 3056 2656 
Q 3513 2228 3513 1497 
Q 3513 744 3044 326 
Q 2575 -91 1722 -91 
Q 1428 -91 1123 -41 
Q 819 9 494 109 
L 494 744 
Q 775 591 1075 516 
Q 1375 441 1709 441 
Q 2250 441 2565 725 
Q 2881 1009 2881 1497 
Q 2881 1984 2565 2268 
Q 2250 2553 1709 2553 
Q 1456 2553 1204 2497 
Q 953 2441 691 2322 
L 691 4666 
z
" transform="scale(0.015625)"/>
      <path id="DejaVuSans-2c" d="M 750 794 
L 1409 794 
L 1409 256 
L 897 -744 
L 494 -744 
L 750 256 
L 750 794 
z
" transform="scale(0.015625)"/>
      <path id="DejaVuSans-20" transform="scale(0.015625)"/>
      <path id="DejaVuSans-31" d="M 794 531 
L 1825 531 
L 1825 4091 
L 703 3866 
L 703 4441 
L 1819 4666 
L 2450 4666 
L 2450 531 
L 3481 531 
L 3481 0 
L 794 0 
L 794 531 
z
" transform="scale(0.015625)"/>
      <path id="DejaVuSans-29" d="M 513 4856 
L 1013 4856 
Q 1481 4119 1714 3412 
Q 1947 2706 1947 2009 
Q 1947 1309 1714 600 
Q 1481 -109 1013 -844 
L 513 -844 
Q 928 -128 1133 580 
Q 1338 1288 1338 2009 
Q 1338 2731 1133 3434 
Q 928 4138 513 4856 
z
" transform="scale(0.015625)"/>
      <path id="DejaVuSans-3d" d="M 678 2906 
L 4684 2906 
L 4684 2381 
L 678 2381 
L 678 2906 
z
M 678 1631 
L 4684 1631 
L 4684 1100 
L 678 1100 
L 678 1631 
z
" transform="scale(0.015625)"/>
     </defs>
     <use xlink:href="#DejaVuSans-70"/>
     <use xlink:href="#DejaVuSans-28" x="63.476562"/>
     <use xlink:href="#DejaVuSans-49" x="102.490234"/>
     <use xlink:href="#DejaVuSans-41" x="131.982422"/>
     <use xlink:href="#DejaVuSans-43" x="198.640625"/>
     <use xlink:href="#DejaVuSans-5f" x="268.464844"/>
     <use xlink:href="#DejaVuSans-28" x="318.464844"/>
     <use xlink:href="#DejaVuSans-30" x="357.478516"/>
     <use xlink:href="#DejaVuSans-2e" x="421.101562"/>
     <use xlink:href="#DejaVuSans-30" x="452.888672"/>
     <use xlink:href="#DejaVuSans-35" x="516.511719"/>
     <use xlink:href="#DejaVuSans-2c" x="580.134766"/>
     <use xlink:href="#DejaVuSans-20" x="611.921875"/>
     <use xlink:href="#DejaVuSans-30" x="643.708984"/>
     <use xlink:href="#DejaVuSans-2e" x="707.332031"/>
     <use xlink:href="#DejaVuSans-31" x="739.119141"/>
     <use xlink:href="#DejaVuSans-29" x="802.742188"/>
     <use xlink:href="#DejaVuSans-29" x="841.755859"/>
     <use xlink:href="#DejaVuSans-20" x="880.769531"/>
     <use xlink:href="#DejaVuSans-3d" x="912.556641"/>
     <use xlink:href="#DejaVuSans-20" x="996.345703"/>
     <use xlink:href="#DejaVuSans-30" x="1028.132812"/>
     <use xlink:href="#DejaVuSans-2e" x="1091.755859"/>
     <use xlink:href="#DejaVuSans-30" x="1123.542969"/>
     <use xlink:href="#DejaVuSans-30" x="1187.166016"/>
     <use xlink:href="#DejaVuSans-30" x="1250.789062"/>
    </g>
   </g>
   <g id="text_2">
    <!-- p(rope) = 1.000 -->
    <g style="fill: #262626" transform="translate(188.146875 102.458266) scale(0.12 -0.12)">
     <defs>
      <path id="DejaVuSans-72" d="M 2631 2963 
Q 2534 3019 2420 3045 
Q 2306 3072 2169 3072 
Q 1681 3072 1420 2755 
Q 1159 2438 1159 1844 
L 1159 0 
L 581 0 
L 581 3500 
L 1159 3500 
L 1159 2956 
Q 1341 3275 1631 3429 
Q 1922 3584 2338 3584 
Q 2397 3584 2469 3576 
Q 2541 3569 2628 3553 
L 2631 2963 
z
" transform="scale(0.015625)"/>
      <path id="DejaVuSans-6f" d="M 1959 3097 
Q 1497 3097 1228 2736 
Q 959 2375 959 1747 
Q 959 1119 1226 758 
Q 1494 397 1959 397 
Q 2419 397 2687 759 
Q 2956 1122 2956 1747 
Q 2956 2369 2687 2733 
Q 2419 3097 1959 3097 
z
M 1959 3584 
Q 2709 3584 3137 3096 
Q 3566 2609 3566 1747 
Q 3566 888 3137 398 
Q 2709 -91 1959 -91 
Q 1206 -91 779 398 
Q 353 888 353 1747 
Q 353 2609 779 3096 
Q 1206 3584 1959 3584 
z
" transform="scale(0.015625)"/>
      <path id="DejaVuSans-65" d="M 3597 1894 
L 3597 1613 
L 953 1613 
Q 991 1019 1311 708 
Q 1631 397 2203 397 
Q 2534 397 2845 478 
Q 3156 559 3463 722 
L 3463 178 
Q 3153 47 2828 -22 
Q 2503 -91 2169 -91 
Q 1331 -91 842 396 
Q 353 884 353 1716 
Q 353 2575 817 3079 
Q 1281 3584 2069 3584 
Q 2775 3584 3186 3129 
Q 3597 2675 3597 1894 
z
M 3022 2063 
Q 3016 2534 2758 2815 
Q 2500 3097 2075 3097 
Q 1594 3097 1305 2825 
Q 1016 2553 972 2059 
L 3022 2063 
z
" transform="scale(0.015625)"/>
     </defs>
     <use xlink:href="#DejaVuSans-70"/>
     <use xlink:href="#DejaVuSans-28" x="63.476562"/>
     <use xlink:href="#DejaVuSans-72" x="102.490234"/>
     <use xlink:href="#DejaVuSans-6f" x="141.353516"/>
     <use xlink:href="#DejaVuSans-70" x="202.535156"/>
     <use xlink:href="#DejaVuSans-65" x="266.011719"/>
     <use xlink:href="#DejaVuSans-29" x="327.535156"/>
     <use xlink:href="#DejaVuSans-20" x="366.548828"/>
     <use xlink:href="#DejaVuSans-3d" x="398.335938"/>
     <use xlink:href="#DejaVuSans-20" x="482.125"/>
     <use xlink:href="#DejaVuSans-31" x="513.912109"/>
     <use xlink:href="#DejaVuSans-2e" x="577.535156"/>
     <use xlink:href="#DejaVuSans-30" x="609.322266"/>
     <use xlink:href="#DejaVuSans-30" x="672.945312"/>
     <use xlink:href="#DejaVuSans-30" x="736.568359"/>
    </g>
   </g>
   <g id="text_3">
    <!-- p(IAC_(0.2, 0.3)) = 0.000 -->
    <g style="fill: #262626" transform="translate(256.152188 286.2762) scale(0.12 -0.12)">
     <defs>
      <path id="DejaVuSans-32" d="M 1228 531 
L 3431 531 
L 3431 0 
L 469 0 
L 469 531 
Q 828 903 1448 1529 
Q 2069 2156 2228 2338 
Q 2531 2678 2651 2914 
Q 2772 3150 2772 3378 
Q 2772 3750 2511 3984 
Q 2250 4219 1831 4219 
Q 1534 4219 1204 4116 
Q 875 4013 500 3803 
L 500 4441 
Q 881 4594 1212 4672 
Q 1544 4750 1819 4750 
Q 2544 4750 2975 4387 
Q 3406 4025 3406 3419 
Q 3406 3131 3298 2873 
Q 3191 2616 2906 2266 
Q 2828 2175 2409 1742 
Q 1991 1309 1228 531 
z
" transform="scale(0.015625)"/>
      <path id="DejaVuSans-33" d="M 2597 2516 
Q 3050 2419 3304 2112 
Q 3559 1806 3559 1356 
Q 3559 666 3084 287 
Q 2609 -91 1734 -91 
Q 1441 -91 1130 -33 
Q 819 25 488 141 
L 488 750 
Q 750 597 1062 519 
Q 1375 441 1716 441 
Q 2309 441 2620 675 
Q 2931 909 2931 1356 
Q 2931 1769 2642 2001 
Q 2353 2234 1838 2234 
L 1294 2234 
L 1294 2753 
L 1863 2753 
Q 2328 2753 2575 2939 
Q 2822 3125 2822 3475 
Q 2822 3834 2567 4026 
Q 2313 4219 1838 4219 
Q 1578 4219 1281 4162 
Q 984 4106 628 3988 
L 628 4550 
Q 988 4650 1302 4700 
Q 1616 4750 1894 4750 
Q 2613 4750 3031 4423 
Q 3450 4097 3450 3541 
Q 3450 3153 3228 2886 
Q 3006 2619 2597 2516 
z
" transform="scale(0.015625)"/>
     </defs>
     <use xlink:href="#DejaVuSans-70"/>
     <use xlink:href="#DejaVuSans-28" x="63.476562"/>
     <use xlink:href="#DejaVuSans-49" x="102.490234"/>
     <use xlink:href="#DejaVuSans-41" x="131.982422"/>
     <use xlink:href="#DejaVuSans-43" x="198.640625"/>
     <use xlink:href="#DejaVuSans-5f" x="268.464844"/>
     <use xlink:href="#DejaVuSans-28" x="318.464844"/>
     <use xlink:href="#DejaVuSans-30" x="357.478516"/>
     <use xlink:href="#DejaVuSans-2e" x="421.101562"/>
     <use xlink:href="#DejaVuSans-32" x="452.888672"/>
     <use xlink:href="#DejaVuSans-2c" x="516.511719"/>
     <use xlink:href="#DejaVuSans-20" x="548.298828"/>
     <use xlink:href="#DejaVuSans-30" x="580.085938"/>
     <use xlink:href="#DejaVuSans-2e" x="643.708984"/>
     <use xlink:href="#DejaVuSans-33" x="675.496094"/>
     <use xlink:href="#DejaVuSans-29" x="739.119141"/>
     <use xlink:href="#DejaVuSans-29" x="778.132812"/>
     <use xlink:href="#DejaVuSans-20" x="817.146484"/>
     <use xlink:href="#DejaVuSans-3d" x="848.933594"/>
     <use xlink:href="#DejaVuSans-20" x="932.722656"/>
     <use xlink:href="#DejaVuSans-30" x="964.509766"/>
     <use xlink:href="#DejaVuSans-2e" x="1028.132812"/>
     <use xlink:href="#DejaVuSans-30" x="1059.919922"/>
     <use xlink:href="#DejaVuSans-30" x="1123.542969"/>
     <use xlink:href="#DejaVuSans-30" x="1187.166016"/>
    </g>
   </g>
  </g>
 </g>
 <defs>
  <clipPath id="p878a7497d3">
   <rect x="103.104" y="41.472" width="266.112" height="266.112"/>
  </clipPath>
 </defs>
</svg>
