<?xml version="1.0" encoding="utf-8" standalone="no"?>
<!DOCTYPE svg PUBLIC "-//W3C//DTD SVG 1.1//EN"
  "http://www.w3.org/Graphics/SVG/1.1/DTD/svg11.dtd">
<svg xmlns:xlink="http://www.w3.org/1999/xlink" width="460.8pt" height="345.6pt" viewBox="0 0 460.8 345.6" xmlns="http://www.w3.org/2000/svg" version="1.1">
 <metadata>
  <rdf:RDF xmlns:dc="http://purl.org/dc/elements/1.1/" xmlns:cc="http://creativecommons.org/ns#" xmlns:rdf="http://www.w3.org/1999/02/22-rdf-syntax-ns#">
   <cc:Work>
    <dc:type rdf:resource="http://purl.org/dc/dcmitype/StillImage"/>
    <dc:date>2023-04-26T00:12:14.233315</dc:date>
    <dc:format>image/svg+xml</dc:format>
    <dc:creator>
     <cc:Agent>
      <dc:title>Matplotlib v3.6.2, https://matplotlib.org/</dc:title>
     </cc:Agent>
    </dc:creator>
   </cc:Work>
  </rdf:RDF>
 </metadata>
 <defs>
  <style type="text/css">*{stroke-linejoin: round; stroke-linecap: butt}</style>
 </defs>
 <g id="figure_1">
  <g id="patch_1">
   <path d="M 0 345.6 
L 460.8 345.6 
L 460.8 0 
L 0 0 
z
" style="fill: #ffffff"/>
  </g>
  <g id="axes_1">
   <g id="PolyCollection_1">
    <defs>
     <path id="C0_0_bdd991584d" d="M 141.220395 -75.93031 
L 141.220395 -76.13369 
L 141.12 -76.23538 
L 141.019605 -76.13369 
L 141.019605 -75.93031 
L 141.12 -75.82862 
z
"/>
    </defs>
    <g clip-path="url(#pf8dcedee9d)">
     <use xlink:href="#C0_0_bdd991584d" x="74.657182" y="216.289968" style="fill: #08306b; stroke: #08306b"/>
    </g>
    <g clip-path="url(#pf8dcedee9d)">
     <use xlink:href="#C0_0_bdd991584d" x="75.259555" y="215.069687" style="fill: #08306b; stroke: #08306b"/>
    </g>
    <g clip-path="url(#pf8dcedee9d)">
     <use xlink:href="#C0_0_bdd991584d" x="76.665091" y="212.629124" style="fill: #08306b; stroke: #08306b"/>
    </g>
    <g clip-path="url(#pf8dcedee9d)">
     <use xlink:href="#C0_0_bdd991584d" x="78.070628" y="210.188562" style="fill: #08306b; stroke: #08306b"/>
    </g>
    <g clip-path="url(#pf8dcedee9d)">
     <use xlink:href="#C0_0_bdd991584d" x="78.873792" y="208.96828" style="fill: #08306b; stroke: #08306b"/>
    </g>
    <g clip-path="url(#pf8dcedee9d)">
     <use xlink:href="#C0_0_bdd991584d" x="79.275374" y="208.358139" style="fill: #08306b; stroke: #08306b"/>
    </g>
    <g clip-path="url(#pf8dcedee9d)">
     <use xlink:href="#C0_0_bdd991584d" x="79.476165" y="207.747999" style="fill: #08306b; stroke: #08306b"/>
    </g>
    <g clip-path="url(#pf8dcedee9d)">
     <use xlink:href="#C0_0_bdd991584d" x="79.676956" y="207.747999" style="fill: #08306b; stroke: #08306b"/>
    </g>
    <g clip-path="url(#pf8dcedee9d)">
     <use xlink:href="#C0_0_bdd991584d" x="79.877747" y="207.137858" style="fill: #08306b; stroke: #08306b"/>
    </g>
    <g clip-path="url(#pf8dcedee9d)">
     <use xlink:href="#C0_0_bdd991584d" x="80.078538" y="207.137858" style="fill: #08306b; stroke: #08306b"/>
    </g>
    <g clip-path="url(#pf8dcedee9d)">
     <use xlink:href="#C0_0_bdd991584d" x="80.279329" y="206.527717" style="fill: #08316d; stroke: #08316d"/>
    </g>
    <g clip-path="url(#pf8dcedee9d)">
     <use xlink:href="#C0_0_bdd991584d" x="80.680911" y="205.917577" style="fill: #08316d; stroke: #08316d"/>
    </g>
    <g clip-path="url(#pf8dcedee9d)">
     <use xlink:href="#C0_0_bdd991584d" x="80.881702" y="205.307436" style="fill: #08306b; stroke: #08306b"/>
    </g>
    <g clip-path="url(#pf8dcedee9d)">
     <use xlink:href="#C0_0_bdd991584d" x="81.082493" y="205.307436" style="fill: #08316d; stroke: #08316d"/>
    </g>
    <g clip-path="url(#pf8dcedee9d)">
     <use xlink:href="#C0_0_bdd991584d" x="81.283284" y="204.697295" style="fill: #08306b; stroke: #08306b"/>
    </g>
    <g clip-path="url(#pf8dcedee9d)">
     <use xlink:href="#C0_0_bdd991584d" x="81.484075" y="204.697295" style="fill: #08306b; stroke: #08306b"/>
    </g>
    <g clip-path="url(#pf8dcedee9d)">
     <use xlink:href="#C0_0_bdd991584d" x="81.684866" y="204.087155" style="fill: #083370; stroke: #083370"/>
    </g>
    <g clip-path="url(#pf8dcedee9d)">
     <use xlink:href="#C0_0_bdd991584d" x="82.086448" y="203.477014" style="fill: #083370; stroke: #083370"/>
    </g>
    <g clip-path="url(#pf8dcedee9d)">
     <use xlink:href="#C0_0_bdd991584d" x="82.287239" y="202.866873" style="fill: #08326e; stroke: #08326e"/>
    </g>
    <g clip-path="url(#pf8dcedee9d)">
     <use xlink:href="#C0_0_bdd991584d" x="82.48803" y="202.866873" style="fill: #08316d; stroke: #08316d"/>
    </g>
    <g clip-path="url(#pf8dcedee9d)">
     <use xlink:href="#C0_0_bdd991584d" x="82.688821" y="202.256733" style="fill: #083370; stroke: #083370"/>
    </g>
    <g clip-path="url(#pf8dcedee9d)">
     <use xlink:href="#C0_0_bdd991584d" x="82.889612" y="202.256733" style="fill: #08316d; stroke: #08316d"/>
    </g>
    <g clip-path="url(#pf8dcedee9d)">
     <use xlink:href="#C0_0_bdd991584d" x="83.090403" y="201.646592" style="fill: #083573; stroke: #083573"/>
    </g>
    <g clip-path="url(#pf8dcedee9d)">
     <use xlink:href="#C0_0_bdd991584d" x="83.491985" y="201.036451" style="fill: #083877; stroke: #083877"/>
    </g>
    <g clip-path="url(#pf8dcedee9d)">
     <use xlink:href="#C0_0_bdd991584d" x="83.692776" y="200.426311" style="fill: #083370; stroke: #083370"/>
    </g>
    <g clip-path="url(#pf8dcedee9d)">
     <use xlink:href="#C0_0_bdd991584d" x="83.893567" y="200.426311" style="fill: #083877; stroke: #083877"/>
    </g>
    <g clip-path="url(#pf8dcedee9d)">
     <use xlink:href="#C0_0_bdd991584d" x="84.094358" y="199.81617" style="fill: #083a7a; stroke: #083a7a"/>
    </g>
    <g clip-path="url(#pf8dcedee9d)">
     <use xlink:href="#C0_0_bdd991584d" x="84.295149" y="199.81617" style="fill: #083471; stroke: #083471"/>
    </g>
    <g clip-path="url(#pf8dcedee9d)">
     <use xlink:href="#C0_0_bdd991584d" x="84.49594" y="199.206029" style="fill: #084082; stroke: #084082"/>
    </g>
    <g clip-path="url(#pf8dcedee9d)">
     <use xlink:href="#C0_0_bdd991584d" x="84.897522" y="198.595889" style="fill: #084387; stroke: #084387"/>
    </g>
    <g clip-path="url(#pf8dcedee9d)">
     <use xlink:href="#C0_0_bdd991584d" x="85.098313" y="197.985748" style="fill: #083a7a; stroke: #083a7a"/>
    </g>
    <g clip-path="url(#pf8dcedee9d)">
     <use xlink:href="#C0_0_bdd991584d" x="85.299104" y="197.985748" style="fill: #08458a; stroke: #08458a"/>
    </g>
    <g clip-path="url(#pf8dcedee9d)">
     <use xlink:href="#C0_0_bdd991584d" x="85.499895" y="197.375607" style="fill: #084990; stroke: #084990"/>
    </g>
    <g clip-path="url(#pf8dcedee9d)">
     <use xlink:href="#C0_0_bdd991584d" x="85.700686" y="197.375607" style="fill: #084387; stroke: #084387"/>
    </g>
    <g clip-path="url(#pf8dcedee9d)">
     <use xlink:href="#C0_0_bdd991584d" x="85.901477" y="196.765467" style="fill: #08509b; stroke: #08509b"/>
    </g>
    <g clip-path="url(#pf8dcedee9d)">
     <use xlink:href="#C0_0_bdd991584d" x="86.303059" y="196.155326" style="fill: #0e59a2; stroke: #0e59a2"/>
    </g>
    <g clip-path="url(#pf8dcedee9d)">
     <use xlink:href="#C0_0_bdd991584d" x="86.50385" y="195.545185" style="fill: #08488e; stroke: #08488e"/>
    </g>
    <g clip-path="url(#pf8dcedee9d)">
     <use xlink:href="#C0_0_bdd991584d" x="86.704641" y="195.545185" style="fill: #115ca5; stroke: #115ca5"/>
    </g>
    <g clip-path="url(#pf8dcedee9d)">
     <use xlink:href="#C0_0_bdd991584d" x="86.905432" y="194.935045" style="fill: #1562a9; stroke: #1562a9"/>
    </g>
    <g clip-path="url(#pf8dcedee9d)">
     <use xlink:href="#C0_0_bdd991584d" x="87.106223" y="194.935045" style="fill: #0d57a1; stroke: #0d57a1"/>
    </g>
    <g clip-path="url(#pf8dcedee9d)">
     <use xlink:href="#C0_0_bdd991584d" x="87.307014" y="194.324904" style="fill: #3080bd; stroke: #3080bd"/>
    </g>
    <g clip-path="url(#pf8dcedee9d)">
     <use xlink:href="#C0_0_bdd991584d" x="87.708596" y="193.714763" style="fill: #3484bf; stroke: #3484bf"/>
    </g>
    <g clip-path="url(#pf8dcedee9d)">
     <use xlink:href="#C0_0_bdd991584d" x="87.909387" y="193.104623" style="fill: #115ca5; stroke: #115ca5"/>
    </g>
    <g clip-path="url(#pf8dcedee9d)">
     <use xlink:href="#C0_0_bdd991584d" x="88.110178" y="193.104623" style="fill: #3e8ec4; stroke: #3e8ec4"/>
    </g>
    <g clip-path="url(#pf8dcedee9d)">
     <use xlink:href="#C0_0_bdd991584d" x="88.310968" y="192.494482" style="fill: #3c8cc3; stroke: #3c8cc3"/>
    </g>
    <g clip-path="url(#pf8dcedee9d)">
     <use xlink:href="#C0_0_bdd991584d" x="88.511759" y="192.494482" style="fill: #3484bf; stroke: #3484bf"/>
    </g>
    <g clip-path="url(#pf8dcedee9d)">
     <use xlink:href="#C0_0_bdd991584d" x="88.71255" y="191.884341" style="fill: #72b2d8; stroke: #72b2d8"/>
    </g>
    <g clip-path="url(#pf8dcedee9d)">
     <use xlink:href="#C0_0_bdd991584d" x="89.114132" y="191.274201" style="fill: #95c5df; stroke: #95c5df"/>
    </g>
    <g clip-path="url(#pf8dcedee9d)">
     <use xlink:href="#C0_0_bdd991584d" x="89.314923" y="190.66406" style="fill: #1d6cb1; stroke: #1d6cb1"/>
    </g>
    <g clip-path="url(#pf8dcedee9d)">
     <use xlink:href="#C0_0_bdd991584d" x="89.515714" y="190.66406" style="fill: #94c4df; stroke: #94c4df"/>
    </g>
    <g clip-path="url(#pf8dcedee9d)">
     <use xlink:href="#C0_0_bdd991584d" x="89.716505" y="190.053919" style="fill: #9ac8e0; stroke: #9ac8e0"/>
    </g>
    <g clip-path="url(#pf8dcedee9d)">
     <use xlink:href="#C0_0_bdd991584d" x="89.917296" y="190.053919" style="fill: #81badb; stroke: #81badb"/>
    </g>
    <g clip-path="url(#pf8dcedee9d)">
     <use xlink:href="#C0_0_bdd991584d" x="90.118087" y="189.443779" style="fill: #dae8f6; stroke: #dae8f6"/>
    </g>
    <g clip-path="url(#pf8dcedee9d)">
     <use xlink:href="#C0_0_bdd991584d" x="90.519669" y="188.833638" style="fill: #e5eff9; stroke: #e5eff9"/>
    </g>
    <g clip-path="url(#pf8dcedee9d)">
     <use xlink:href="#C0_0_bdd991584d" x="90.72046" y="188.223497" style="fill: #2f7fbc; stroke: #2f7fbc"/>
    </g>
    <g clip-path="url(#pf8dcedee9d)">
     <use xlink:href="#C0_0_bdd991584d" x="90.921251" y="188.223497" style="fill: #e4eff9; stroke: #e4eff9"/>
    </g>
    <g clip-path="url(#pf8dcedee9d)">
     <use xlink:href="#C0_0_bdd991584d" x="91.122042" y="187.613357" style="fill: #cde0f1; stroke: #cde0f1"/>
    </g>
    <g clip-path="url(#pf8dcedee9d)">
     <use xlink:href="#C0_0_bdd991584d" x="91.322833" y="187.613357" style="fill: #b8d5ea; stroke: #b8d5ea"/>
    </g>
    <g clip-path="url(#pf8dcedee9d)">
     <use xlink:href="#C0_0_bdd991584d" x="91.523624" y="187.003216" style="fill: #f5f9fe; stroke: #f5f9fe"/>
    </g>
    <g clip-path="url(#pf8dcedee9d)">
     <use xlink:href="#C0_0_bdd991584d" x="91.724415" y="187.003216" style="fill: #083370; stroke: #083370"/>
    </g>
    <g clip-path="url(#pf8dcedee9d)">
     <use xlink:href="#C0_0_bdd991584d" x="91.925206" y="186.393075" style="fill: #f0f6fd; stroke: #f0f6fd"/>
    </g>
    <g clip-path="url(#pf8dcedee9d)">
     <use xlink:href="#C0_0_bdd991584d" x="92.125997" y="185.782935" style="fill: #1966ad; stroke: #1966ad"/>
    </g>
    <g clip-path="url(#pf8dcedee9d)">
     <use xlink:href="#C0_0_bdd991584d" x="92.326788" y="185.782935" style="fill: #d6e5f4; stroke: #d6e5f4"/>
    </g>
    <g clip-path="url(#pf8dcedee9d)">
     <use xlink:href="#C0_0_bdd991584d" x="92.527579" y="185.172794" style="fill: #8abfdd; stroke: #8abfdd"/>
    </g>
    <g clip-path="url(#pf8dcedee9d)">
     <use xlink:href="#C0_0_bdd991584d" x="92.72837" y="185.172794" style="fill: #74b3d8; stroke: #74b3d8"/>
    </g>
    <g clip-path="url(#pf8dcedee9d)">
     <use xlink:href="#C0_0_bdd991584d" x="92.929161" y="184.562653" style="fill: #97c6df; stroke: #97c6df"/>
    </g>
    <g clip-path="url(#pf8dcedee9d)">
     <use xlink:href="#C0_0_bdd991584d" x="93.129952" y="184.562653" style="fill: #083877; stroke: #083877"/>
    </g>
    <g clip-path="url(#pf8dcedee9d)">
     <use xlink:href="#C0_0_bdd991584d" x="93.330743" y="183.952513" style="fill: #4d99ca; stroke: #4d99ca"/>
    </g>
    <g clip-path="url(#pf8dcedee9d)">
     <use xlink:href="#C0_0_bdd991584d" x="93.531534" y="183.342372" style="fill: #083a7a; stroke: #083a7a"/>
    </g>
    <g clip-path="url(#pf8dcedee9d)">
     <use xlink:href="#C0_0_bdd991584d" x="93.732325" y="183.342372" style="fill: #1e6db2; stroke: #1e6db2"/>
    </g>
    <g clip-path="url(#pf8dcedee9d)">
     <use xlink:href="#C0_0_bdd991584d" x="93.933116" y="182.732231" style="fill: #084a91; stroke: #084a91"/>
    </g>
    <g clip-path="url(#pf8dcedee9d)">
     <use xlink:href="#C0_0_bdd991584d" x="94.133907" y="182.732231" style="fill: #084184; stroke: #084184"/>
    </g>
    <g clip-path="url(#pf8dcedee9d)">
     <use xlink:href="#C0_0_bdd991584d" x="94.334698" y="182.122091" style="fill: #083674; stroke: #083674"/>
    </g>
    <g clip-path="url(#pf8dcedee9d)">
     <use xlink:href="#C0_0_bdd991584d" x="94.535489" y="182.122091" style="fill: #08306b; stroke: #08306b"/>
    </g>
    <g clip-path="url(#pf8dcedee9d)">
     <use xlink:href="#C0_0_bdd991584d" x="94.73628" y="181.51195" style="fill: #08306b; stroke: #08306b"/>
    </g>
    <g clip-path="url(#pf8dcedee9d)">
     <use xlink:href="#C0_0_bdd991584d" x="76.966278" y="212.324054" style="fill: #08306b; stroke: #08306b"/>
    </g>
    <g clip-path="url(#pf8dcedee9d)">
     <use xlink:href="#C0_0_bdd991584d" x="77.167069" y="211.713913" style="fill: #08306b; stroke: #08306b"/>
    </g>
    <g clip-path="url(#pf8dcedee9d)">
     <use xlink:href="#C0_0_bdd991584d" x="77.970233" y="210.493632" style="fill: #08306b; stroke: #08306b"/>
    </g>
    <g clip-path="url(#pf8dcedee9d)">
     <use xlink:href="#C0_0_bdd991584d" x="78.773397" y="209.27335" style="fill: #08306b; stroke: #08306b"/>
    </g>
    <g clip-path="url(#pf8dcedee9d)">
     <use xlink:href="#C0_0_bdd991584d" x="78.974188" y="208.66321" style="fill: #08306b; stroke: #08306b"/>
    </g>
    <g clip-path="url(#pf8dcedee9d)">
     <use xlink:href="#C0_0_bdd991584d" x="79.777352" y="207.442928" style="fill: #08306b; stroke: #08306b"/>
    </g>
    <g clip-path="url(#pf8dcedee9d)">
     <use xlink:href="#C0_0_bdd991584d" x="79.978143" y="206.832788" style="fill: #08306b; stroke: #08306b"/>
    </g>
    <g clip-path="url(#pf8dcedee9d)">
     <use xlink:href="#C0_0_bdd991584d" x="80.178934" y="206.832788" style="fill: #08306b; stroke: #08306b"/>
    </g>
    <g clip-path="url(#pf8dcedee9d)">
     <use xlink:href="#C0_0_bdd991584d" x="80.379725" y="206.222647" style="fill: #08306b; stroke: #08306b"/>
    </g>
    <g clip-path="url(#pf8dcedee9d)">
     <use xlink:href="#C0_0_bdd991584d" x="80.580516" y="206.222647" style="fill: #08306b; stroke: #08306b"/>
    </g>
    <g clip-path="url(#pf8dcedee9d)">
     <use xlink:href="#C0_0_bdd991584d" x="80.781307" y="205.612506" style="fill: #08306b; stroke: #08306b"/>
    </g>
    <g clip-path="url(#pf8dcedee9d)">
     <use xlink:href="#C0_0_bdd991584d" x="81.182889" y="205.002366" style="fill: #08316d; stroke: #08316d"/>
    </g>
    <g clip-path="url(#pf8dcedee9d)">
     <use xlink:href="#C0_0_bdd991584d" x="81.38368" y="204.392225" style="fill: #08306b; stroke: #08306b"/>
    </g>
    <g clip-path="url(#pf8dcedee9d)">
     <use xlink:href="#C0_0_bdd991584d" x="81.584471" y="204.392225" style="fill: #08316d; stroke: #08316d"/>
    </g>
    <g clip-path="url(#pf8dcedee9d)">
     <use xlink:href="#C0_0_bdd991584d" x="81.785262" y="203.782084" style="fill: #08316d; stroke: #08316d"/>
    </g>
    <g clip-path="url(#pf8dcedee9d)">
     <use xlink:href="#C0_0_bdd991584d" x="81.986053" y="203.782084" style="fill: #08316d; stroke: #08316d"/>
    </g>
    <g clip-path="url(#pf8dcedee9d)">
     <use xlink:href="#C0_0_bdd991584d" x="82.186843" y="203.171944" style="fill: #08316d; stroke: #08316d"/>
    </g>
    <g clip-path="url(#pf8dcedee9d)">
     <use xlink:href="#C0_0_bdd991584d" x="82.588425" y="202.561803" style="fill: #083471; stroke: #083471"/>
    </g>
    <g clip-path="url(#pf8dcedee9d)">
     <use xlink:href="#C0_0_bdd991584d" x="82.789216" y="201.951662" style="fill: #08306b; stroke: #08306b"/>
    </g>
    <g clip-path="url(#pf8dcedee9d)">
     <use xlink:href="#C0_0_bdd991584d" x="82.990007" y="201.951662" style="fill: #083370; stroke: #083370"/>
    </g>
    <g clip-path="url(#pf8dcedee9d)">
     <use xlink:href="#C0_0_bdd991584d" x="83.190798" y="201.341522" style="fill: #083573; stroke: #083573"/>
    </g>
    <g clip-path="url(#pf8dcedee9d)">
     <use xlink:href="#C0_0_bdd991584d" x="83.391589" y="201.341522" style="fill: #083674; stroke: #083674"/>
    </g>
    <g clip-path="url(#pf8dcedee9d)">
     <use xlink:href="#C0_0_bdd991584d" x="83.59238" y="200.731381" style="fill: #083776; stroke: #083776"/>
    </g>
    <g clip-path="url(#pf8dcedee9d)">
     <use xlink:href="#C0_0_bdd991584d" x="83.793171" y="200.731381" style="fill: #08306b; stroke: #08306b"/>
    </g>
    <g clip-path="url(#pf8dcedee9d)">
     <use xlink:href="#C0_0_bdd991584d" x="83.993962" y="200.12124" style="fill: #083a7a; stroke: #083a7a"/>
    </g>
    <g clip-path="url(#pf8dcedee9d)">
     <use xlink:href="#C0_0_bdd991584d" x="84.194753" y="199.5111" style="fill: #08316d; stroke: #08316d"/>
    </g>
    <g clip-path="url(#pf8dcedee9d)">
     <use xlink:href="#C0_0_bdd991584d" x="84.395544" y="199.5111" style="fill: #083a7a; stroke: #083a7a"/>
    </g>
    <g clip-path="url(#pf8dcedee9d)">
     <use xlink:href="#C0_0_bdd991584d" x="84.596335" y="198.900959" style="fill: #083979; stroke: #083979"/>
    </g>
    <g clip-path="url(#pf8dcedee9d)">
     <use xlink:href="#C0_0_bdd991584d" x="84.797126" y="198.900959" style="fill: #083c7d; stroke: #083c7d"/>
    </g>
    <g clip-path="url(#pf8dcedee9d)">
     <use xlink:href="#C0_0_bdd991584d" x="84.997917" y="198.290818" style="fill: #084488; stroke: #084488"/>
    </g>
    <g clip-path="url(#pf8dcedee9d)">
     <use xlink:href="#C0_0_bdd991584d" x="85.198708" y="198.290818" style="fill: #083370; stroke: #083370"/>
    </g>
    <g clip-path="url(#pf8dcedee9d)">
     <use xlink:href="#C0_0_bdd991584d" x="85.399499" y="197.680678" style="fill: #084d96; stroke: #084d96"/>
    </g>
    <g clip-path="url(#pf8dcedee9d)">
     <use xlink:href="#C0_0_bdd991584d" x="85.60029" y="197.070537" style="fill: #08326e; stroke: #08326e"/>
    </g>
    <g clip-path="url(#pf8dcedee9d)">
     <use xlink:href="#C0_0_bdd991584d" x="85.801081" y="197.070537" style="fill: #084c95; stroke: #084c95"/>
    </g>
    <g clip-path="url(#pf8dcedee9d)">
     <use xlink:href="#C0_0_bdd991584d" x="86.001872" y="196.460396" style="fill: #084a91; stroke: #084a91"/>
    </g>
    <g clip-path="url(#pf8dcedee9d)">
     <use xlink:href="#C0_0_bdd991584d" x="86.202663" y="196.460396" style="fill: #084c95; stroke: #084c95"/>
    </g>
    <g clip-path="url(#pf8dcedee9d)">
     <use xlink:href="#C0_0_bdd991584d" x="86.403454" y="195.850256" style="fill: #105ba4; stroke: #105ba4"/>
    </g>
    <g clip-path="url(#pf8dcedee9d)">
     <use xlink:href="#C0_0_bdd991584d" x="86.604245" y="195.850256" style="fill: #083c7d; stroke: #083c7d"/>
    </g>
    <g clip-path="url(#pf8dcedee9d)">
     <use xlink:href="#C0_0_bdd991584d" x="86.805036" y="195.240115" style="fill: #1865ac; stroke: #1865ac"/>
    </g>
    <g clip-path="url(#pf8dcedee9d)">
     <use xlink:href="#C0_0_bdd991584d" x="87.005827" y="194.629974" style="fill: #08316d; stroke: #08316d"/>
    </g>
    <g clip-path="url(#pf8dcedee9d)">
     <use xlink:href="#C0_0_bdd991584d" x="87.206618" y="194.629974" style="fill: #2474b7; stroke: #2474b7"/>
    </g>
    <g clip-path="url(#pf8dcedee9d)">
     <use xlink:href="#C0_0_bdd991584d" x="87.407409" y="194.019834" style="fill: #1b69af; stroke: #1b69af"/>
    </g>
    <g clip-path="url(#pf8dcedee9d)">
     <use xlink:href="#C0_0_bdd991584d" x="87.6082" y="194.019834" style="fill: #1f6eb3; stroke: #1f6eb3"/>
    </g>
    <g clip-path="url(#pf8dcedee9d)">
     <use xlink:href="#C0_0_bdd991584d" x="87.808991" y="193.409693" style="fill: #3484bf; stroke: #3484bf"/>
    </g>
    <g clip-path="url(#pf8dcedee9d)">
     <use xlink:href="#C0_0_bdd991584d" x="88.009782" y="193.409693" style="fill: #08458a; stroke: #08458a"/>
    </g>
    <g clip-path="url(#pf8dcedee9d)">
     <use xlink:href="#C0_0_bdd991584d" x="88.210573" y="192.799552" style="fill: #5aa2cf; stroke: #5aa2cf"/>
    </g>
    <g clip-path="url(#pf8dcedee9d)">
     <use xlink:href="#C0_0_bdd991584d" x="88.612155" y="192.189412" style="fill: #63a8d3; stroke: #63a8d3"/>
    </g>
    <g clip-path="url(#pf8dcedee9d)">
     <use xlink:href="#C0_0_bdd991584d" x="88.812946" y="191.579271" style="fill: #4d99ca; stroke: #4d99ca"/>
    </g>
    <g clip-path="url(#pf8dcedee9d)">
     <use xlink:href="#C0_0_bdd991584d" x="89.013737" y="191.579271" style="fill: #68acd5; stroke: #68acd5"/>
    </g>
    <g clip-path="url(#pf8dcedee9d)">
     <use xlink:href="#C0_0_bdd991584d" x="89.214528" y="190.96913" style="fill: #8abfdd; stroke: #8abfdd"/>
    </g>
    <g clip-path="url(#pf8dcedee9d)">
     <use xlink:href="#C0_0_bdd991584d" x="89.415319" y="190.96913" style="fill: #1966ad; stroke: #1966ad"/>
    </g>
    <g clip-path="url(#pf8dcedee9d)">
     <use xlink:href="#C0_0_bdd991584d" x="89.61611" y="190.35899" style="fill: #b8d5ea; stroke: #b8d5ea"/>
    </g>
    <g clip-path="url(#pf8dcedee9d)">
     <use xlink:href="#C0_0_bdd991584d" x="90.017692" y="189.748849" style="fill: #cde0f1; stroke: #cde0f1"/>
    </g>
    <g clip-path="url(#pf8dcedee9d)">
     <use xlink:href="#C0_0_bdd991584d" x="90.218483" y="189.138708" style="fill: #91c3de; stroke: #91c3de"/>
    </g>
    <g clip-path="url(#pf8dcedee9d)">
     <use xlink:href="#C0_0_bdd991584d" x="90.419274" y="189.138708" style="fill: #bad6eb; stroke: #bad6eb"/>
    </g>
    <g clip-path="url(#pf8dcedee9d)">
     <use xlink:href="#C0_0_bdd991584d" x="90.620065" y="188.528568" style="fill: #d7e6f5; stroke: #d7e6f5"/>
    </g>
    <g clip-path="url(#pf8dcedee9d)">
     <use xlink:href="#C0_0_bdd991584d" x="90.820856" y="188.528568" style="fill: #3f8fc5; stroke: #3f8fc5"/>
    </g>
    <g clip-path="url(#pf8dcedee9d)">
     <use xlink:href="#C0_0_bdd991584d" x="91.021647" y="187.918427" style="fill: #f7fbff; stroke: #f7fbff"/>
    </g>
    <g clip-path="url(#pf8dcedee9d)">
     <use xlink:href="#C0_0_bdd991584d" x="91.423229" y="187.308286" style="fill: #f2f7fd; stroke: #f2f7fd"/>
    </g>
    <g clip-path="url(#pf8dcedee9d)">
     <use xlink:href="#C0_0_bdd991584d" x="91.62402" y="186.698146" style="fill: #a6cee4; stroke: #a6cee4"/>
    </g>
    <g clip-path="url(#pf8dcedee9d)">
     <use xlink:href="#C0_0_bdd991584d" x="91.824811" y="186.698146" style="fill: #d2e3f3; stroke: #d2e3f3"/>
    </g>
    <g clip-path="url(#pf8dcedee9d)">
     <use xlink:href="#C0_0_bdd991584d" x="92.025602" y="186.088005" style="fill: #d9e7f5; stroke: #d9e7f5"/>
    </g>
    <g clip-path="url(#pf8dcedee9d)">
     <use xlink:href="#C0_0_bdd991584d" x="92.226393" y="186.088005" style="fill: #4e9acb; stroke: #4e9acb"/>
    </g>
    <g clip-path="url(#pf8dcedee9d)">
     <use xlink:href="#C0_0_bdd991584d" x="92.427184" y="185.477864" style="fill: #d3e4f3; stroke: #d3e4f3"/>
    </g>
    <g clip-path="url(#pf8dcedee9d)">
     <use xlink:href="#C0_0_bdd991584d" x="92.828766" y="184.867724" style="fill: #aed1e7; stroke: #aed1e7"/>
    </g>
    <g clip-path="url(#pf8dcedee9d)">
     <use xlink:href="#C0_0_bdd991584d" x="93.029557" y="184.257583" style="fill: #3181bd; stroke: #3181bd"/>
    </g>
    <g clip-path="url(#pf8dcedee9d)">
     <use xlink:href="#C0_0_bdd991584d" x="93.230348" y="184.257583" style="fill: #4997c9; stroke: #4997c9"/>
    </g>
    <g clip-path="url(#pf8dcedee9d)">
     <use xlink:href="#C0_0_bdd991584d" x="93.431139" y="183.647442" style="fill: #2f7fbc; stroke: #2f7fbc"/>
    </g>
    <g clip-path="url(#pf8dcedee9d)">
     <use xlink:href="#C0_0_bdd991584d" x="93.63193" y="183.647442" style="fill: #09529d; stroke: #09529d"/>
    </g>
    <g clip-path="url(#pf8dcedee9d)">
     <use xlink:href="#C0_0_bdd991584d" x="93.832721" y="183.037302" style="fill: #105ba4; stroke: #105ba4"/>
    </g>
    <g clip-path="url(#pf8dcedee9d)">
     <use xlink:href="#C0_0_bdd991584d" x="94.234302" y="182.427161" style="fill: #084184; stroke: #084184"/>
    </g>
    <g clip-path="url(#pf8dcedee9d)">
     <use xlink:href="#C0_0_bdd991584d" x="94.435093" y="181.81702" style="fill: #08326e; stroke: #08326e"/>
    </g>
    <g clip-path="url(#pf8dcedee9d)">
     <use xlink:href="#C0_0_bdd991584d" x="94.635884" y="181.81702" style="fill: #08326e; stroke: #08326e"/>
    </g>
   </g>
   <g id="line2d_1">
    <path d="M 141.12 269.568 
L 236.16 104.953891 
L 331.2 269.568 
L 141.12 269.568 
" clip-path="url(#pf8dcedee9d)" style="fill: none; stroke: #ffa500; stroke-width: 1.5; stroke-linecap: round"/>
   </g>
   <g id="line2d_2">
    <path d="M 236.16 214.69663 
L 236.16 269.568 
" clip-path="url(#pf8dcedee9d)" style="fill: none; stroke: #ffa500; stroke-width: 1.5; stroke-linecap: round"/>
   </g>
   <g id="line2d_3">
    <path d="M 236.16 214.69663 
L 188.64 187.260946 
" clip-path="url(#pf8dcedee9d)" style="fill: none; stroke: #ffa500; stroke-width: 1.5; stroke-linecap: round"/>
   </g>
   <g id="line2d_4">
    <path d="M 236.16 214.69663 
L 283.68 187.260946 
" clip-path="url(#pf8dcedee9d)" style="fill: none; stroke: #ffa500; stroke-width: 1.5; stroke-linecap: round"/>
   </g>
   <g id="text_1">
    <!-- p(IAC_(0.05, 0.5)) = 0.000 -->
    <g style="fill: #262626" transform="translate(62.254688 286.2762) scale(0.12 -0.12)">
     <defs>
      <path id="DejaVuSans-70" d="M 1159 525 
L 1159 -1331 
L 581 -1331 
L 581 3500 
L 1159 3500 
L 1159 2969 
Q 1341 3281 1617 3432 
Q 1894 3584 2278 3584 
Q 2916 3584 3314 3078 
Q 3713 2572 3713 1747 
Q 3713 922 3314 415 
Q 2916 -91 2278 -91 
Q 1894 -91 1617 61 
Q 1341 213 1159 525 
z
M 3116 1747 
Q 3116 2381 2855 2742 
Q 2594 3103 2138 3103 
Q 1681 3103 1420 2742 
Q 1159 2381 1159 1747 
Q 1159 1113 1420 752 
Q 1681 391 2138 391 
Q 2594 391 2855 752 
Q 3116 1113 3116 1747 
z
" transform="scale(0.015625)"/>
      <path id="DejaVuSans-28" d="M 1984 4856 
Q 1566 4138 1362 3434 
Q 1159 2731 1159 2009 
Q 1159 1288 1364 580 
Q 1569 -128 1984 -844 
L 1484 -844 
Q 1016 -109 783 600 
Q 550 1309 550 2009 
Q 550 2706 781 3412 
Q 1013 4119 1484 4856 
L 1984 4856 
z
" transform="scale(0.015625)"/>
      <path id="DejaVuSans-49" d="M 628 4666 
L 1259 4666 
L 1259 0 
L 628 0 
L 628 4666 
z
" transform="scale(0.015625)"/>
      <path id="DejaVuSans-41" d="M 2188 4044 
L 1331 1722 
L 3047 1722 
L 2188 4044 
z
M 1831 4666 
L 2547 4666 
L 4325 0 
L 3669 0 
L 3244 1197 
L 1141 1197 
L 716 0 
L 50 0 
L 1831 4666 
z
" transform="scale(0.015625)"/>
      <path id="DejaVuSans-43" d="M 4122 4306 
L 4122 3641 
Q 3803 3938 3442 4084 
Q 3081 4231 2675 4231 
Q 1875 4231 1450 3742 
Q 1025 3253 1025 2328 
Q 1025 1406 1450 917 
Q 1875 428 2675 428 
Q 3081 428 3442 575 
Q 3803 722 4122 1019 
L 4122 359 
Q 3791 134 3420 21 
Q 3050 -91 2638 -91 
Q 1578 -91 968 557 
Q 359 1206 359 2328 
Q 359 3453 968 4101 
Q 1578 4750 2638 4750 
Q 3056 4750 3426 4639 
Q 3797 4528 4122 4306 
z
" transform="scale(0.015625)"/>
      <path id="DejaVuSans-5f" d="M 3263 -1063 
L 3263 -1509 
L -63 -1509 
L -63 -1063 
L 3263 -1063 
z
" transform="scale(0.015625)"/>
      <path id="DejaVuSans-30" d="M 2034 4250 
Q 1547 4250 1301 3770 
Q 1056 3291 1056 2328 
Q 1056 1369 1301 889 
Q 1547 409 2034 409 
Q 2525 409 2770 889 
Q 3016 1369 3016 2328 
Q 3016 3291 2770 3770 
Q 2525 4250 2034 4250 
z
M 2034 4750 
Q 2819 4750 3233 4129 
Q 3647 3509 3647 2328 
Q 3647 1150 3233 529 
Q 2819 -91 2034 -91 
Q 1250 -91 836 529 
Q 422 1150 422 2328 
Q 422 3509 836 4129 
Q 1250 4750 2034 4750 
z
" transform="scale(0.015625)"/>
      <path id="DejaVuSans-2e" d="M 684 794 
L 1344 794 
L 1344 0 
L 684 0 
L 684 794 
z
" transform="scale(0.015625)"/>
      <path id="DejaVuSans-35" d="M 691 4666 
L 3169 4666 
L 3169 4134 
L 1269 4134 
L 1269 2991 
Q 1406 3038 1543 3061 
Q 1681 3084 1819 3084 
Q 2600 3084 3056 2656 
Q 3513 2228 3513 1497 
Q 3513 744 3044 326 
Q 2575 -91 1722 -91 
Q 1428 -91 1123 -41 
Q 819 9 494 109 
L 494 744 
Q 775 591 1075 516 
Q 1375 441 1709 441 
Q 2250 441 2565 725 
Q 2881 1009 2881 1497 
Q 2881 1984 2565 2268 
Q 2250 2553 1709 2553 
Q 1456 2553 1204 2497 
Q 953 2441 691 2322 
L 691 4666 
z
" transform="scale(0.015625)"/>
      <path id="DejaVuSans-2c" d="M 750 794 
L 1409 794 
L 1409 256 
L 897 -744 
L 494 -744 
L 750 256 
L 750 794 
z
" transform="scale(0.015625)"/>
      <path id="DejaVuSans-20" transform="scale(0.015625)"/>
      <path id="DejaVuSans-29" d="M 513 4856 
L 1013 4856 
Q 1481 4119 1714 3412 
Q 1947 2706 1947 2009 
Q 1947 1309 1714 600 
Q 1481 -109 1013 -844 
L 513 -844 
Q 928 -128 1133 580 
Q 1338 1288 1338 2009 
Q 1338 2731 1133 3434 
Q 928 4138 513 4856 
z
" transform="scale(0.015625)"/>
      <path id="DejaVuSans-3d" d="M 678 2906 
L 4684 2906 
L 4684 2381 
L 678 2381 
L 678 2906 
z
M 678 1631 
L 4684 1631 
L 4684 1100 
L 678 1100 
L 678 1631 
z
" transform="scale(0.015625)"/>
     </defs>
     <use xlink:href="#DejaVuSans-70"/>
     <use xlink:href="#DejaVuSans-28" x="63.476562"/>
     <use xlink:href="#DejaVuSans-49" x="102.490234"/>
     <use xlink:href="#DejaVuSans-41" x="131.982422"/>
     <use xlink:href="#DejaVuSans-43" x="198.640625"/>
     <use xlink:href="#DejaVuSans-5f" x="268.464844"/>
     <use xlink:href="#DejaVuSans-28" x="318.464844"/>
     <use xlink:href="#DejaVuSans-30" x="357.478516"/>
     <use xlink:href="#DejaVuSans-2e" x="421.101562"/>
     <use xlink:href="#DejaVuSans-30" x="452.888672"/>
     <use xlink:href="#DejaVuSans-35" x="516.511719"/>
     <use xlink:href="#DejaVuSans-2c" x="580.134766"/>
     <use xlink:href="#DejaVuSans-20" x="611.921875"/>
     <use xlink:href="#DejaVuSans-30" x="643.708984"/>
     <use xlink:href="#DejaVuSans-2e" x="707.332031"/>
     <use xlink:href="#DejaVuSans-35" x="739.119141"/>
     <use xlink:href="#DejaVuSans-29" x="802.742188"/>
     <use xlink:href="#DejaVuSans-29" x="841.755859"/>
     <use xlink:href="#DejaVuSans-20" x="880.769531"/>
     <use xlink:href="#DejaVuSans-3d" x="912.556641"/>
     <use xlink:href="#DejaVuSans-20" x="996.345703"/>
     <use xlink:href="#DejaVuSans-30" x="1028.132812"/>
     <use xlink:href="#DejaVuSans-2e" x="1091.755859"/>
     <use xlink:href="#DejaVuSans-30" x="1123.542969"/>
     <use xlink:href="#DejaVuSans-30" x="1187.166016"/>
     <use xlink:href="#DejaVuSans-30" x="1250.789062"/>
    </g>
   </g>
   <g id="text_2">
    <!-- p(rope) = 1.000 -->
    <g style="fill: #262626" transform="translate(188.146875 102.458266) scale(0.12 -0.12)">
     <defs>
      <path id="DejaVuSans-72" d="M 2631 2963 
Q 2534 3019 2420 3045 
Q 2306 3072 2169 3072 
Q 1681 3072 1420 2755 
Q 1159 2438 1159 1844 
L 1159 0 
L 581 0 
L 581 3500 
L 1159 3500 
L 1159 2956 
Q 1341 3275 1631 3429 
Q 1922 3584 2338 3584 
Q 2397 3584 2469 3576 
Q 2541 3569 2628 3553 
L 2631 2963 
z
" transform="scale(0.015625)"/>
      <path id="DejaVuSans-6f" d="M 1959 3097 
Q 1497 3097 1228 2736 
Q 959 2375 959 1747 
Q 959 1119 1226 758 
Q 1494 397 1959 397 
Q 2419 397 2687 759 
Q 2956 1122 2956 1747 
Q 2956 2369 2687 2733 
Q 2419 3097 1959 3097 
z
M 1959 3584 
Q 2709 3584 3137 3096 
Q 3566 2609 3566 1747 
Q 3566 888 3137 398 
Q 2709 -91 1959 -91 
Q 1206 -91 779 398 
Q 353 888 353 1747 
Q 353 2609 779 3096 
Q 1206 3584 1959 3584 
z
" transform="scale(0.015625)"/>
      <path id="DejaVuSans-65" d="M 3597 1894 
L 3597 1613 
L 953 1613 
Q 991 1019 1311 708 
Q 1631 397 2203 397 
Q 2534 397 2845 478 
Q 3156 559 3463 722 
L 3463 178 
Q 3153 47 2828 -22 
Q 2503 -91 2169 -91 
Q 1331 -91 842 396 
Q 353 884 353 1716 
Q 353 2575 817 3079 
Q 1281 3584 2069 3584 
Q 2775 3584 3186 3129 
Q 3597 2675 3597 1894 
z
M 3022 2063 
Q 3016 2534 2758 2815 
Q 2500 3097 2075 3097 
Q 1594 3097 1305 2825 
Q 1016 2553 972 2059 
L 3022 2063 
z
" transform="scale(0.015625)"/>
      <path id="DejaVuSans-31" d="M 794 531 
L 1825 531 
L 1825 4091 
L 703 3866 
L 703 4441 
L 1819 4666 
L 2450 4666 
L 2450 531 
L 3481 531 
L 3481 0 
L 794 0 
L 794 531 
z
" transform="scale(0.015625)"/>
     </defs>
     <use xlink:href="#DejaVuSans-70"/>
     <use xlink:href="#DejaVuSans-28" x="63.476562"/>
     <use xlink:href="#DejaVuSans-72" x="102.490234"/>
     <use xlink:href="#DejaVuSans-6f" x="141.353516"/>
     <use xlink:href="#DejaVuSans-70" x="202.535156"/>
     <use xlink:href="#DejaVuSans-65" x="266.011719"/>
     <use xlink:href="#DejaVuSans-29" x="327.535156"/>
     <use xlink:href="#DejaVuSans-20" x="366.548828"/>
     <use xlink:href="#DejaVuSans-3d" x="398.335938"/>
     <use xlink:href="#DejaVuSans-20" x="482.125"/>
     <use xlink:href="#DejaVuSans-31" x="513.912109"/>
     <use xlink:href="#DejaVuSans-2e" x="577.535156"/>
     <use xlink:href="#DejaVuSans-30" x="609.322266"/>
     <use xlink:href="#DejaVuSans-30" x="672.945312"/>
     <use xlink:href="#DejaVuSans-30" x="736.568359"/>
    </g>
   </g>
   <g id="text_3">
    <!-- p(IAC_(0.2, 0.1)) = 0.000 -->
    <g style="fill: #262626" transform="translate(256.152188 286.2762) scale(0.12 -0.12)">
     <defs>
      <path id="DejaVuSans-32" d="M 1228 531 
L 3431 531 
L 3431 0 
L 469 0 
L 469 531 
Q 828 903 1448 1529 
Q 2069 2156 2228 2338 
Q 2531 2678 2651 2914 
Q 2772 3150 2772 3378 
Q 2772 3750 2511 3984 
Q 2250 4219 1831 4219 
Q 1534 4219 1204 4116 
Q 875 4013 500 3803 
L 500 4441 
Q 881 4594 1212 4672 
Q 1544 4750 1819 4750 
Q 2544 4750 2975 4387 
Q 3406 4025 3406 3419 
Q 3406 3131 3298 2873 
Q 3191 2616 2906 2266 
Q 2828 2175 2409 1742 
Q 1991 1309 1228 531 
z
" transform="scale(0.015625)"/>
     </defs>
     <use xlink:href="#DejaVuSans-70"/>
     <use xlink:href="#DejaVuSans-28" x="63.476562"/>
     <use xlink:href="#DejaVuSans-49" x="102.490234"/>
     <use xlink:href="#DejaVuSans-41" x="131.982422"/>
     <use xlink:href="#DejaVuSans-43" x="198.640625"/>
     <use xlink:href="#DejaVuSans-5f" x="268.464844"/>
     <use xlink:href="#DejaVuSans-28" x="318.464844"/>
     <use xlink:href="#DejaVuSans-30" x="357.478516"/>
     <use xlink:href="#DejaVuSans-2e" x="421.101562"/>
     <use xlink:href="#DejaVuSans-32" x="452.888672"/>
     <use xlink:href="#DejaVuSans-2c" x="516.511719"/>
     <use xlink:href="#DejaVuSans-20" x="548.298828"/>
     <use xlink:href="#DejaVuSans-30" x="580.085938"/>
     <use xlink:href="#DejaVuSans-2e" x="643.708984"/>
     <use xlink:href="#DejaVuSans-31" x="675.496094"/>
     <use xlink:href="#DejaVuSans-29" x="739.119141"/>
     <use xlink:href="#DejaVuSans-29" x="778.132812"/>
     <use xlink:href="#DejaVuSans-20" x="817.146484"/>
     <use xlink:href="#DejaVuSans-3d" x="848.933594"/>
     <use xlink:href="#DejaVuSans-20" x="932.722656"/>
     <use xlink:href="#DejaVuSans-30" x="964.509766"/>
     <use xlink:href="#DejaVuSans-2e" x="1028.132812"/>
     <use xlink:href="#DejaVuSans-30" x="1059.919922"/>
     <use xlink:href="#DejaVuSans-30" x="1123.542969"/>
     <use xlink:href="#DejaVuSans-30" x="1187.166016"/>
    </g>
   </g>
  </g>
 </g>
 <defs>
  <clipPath id="pf8dcedee9d">
   <rect x="103.104" y="41.472" width="266.112" height="266.112"/>
  </clipPath>
 </defs>
</svg>
