<?xml version="1.0" encoding="utf-8" standalone="no"?>
<!DOCTYPE svg PUBLIC "-//W3C//DTD SVG 1.1//EN"
  "http://www.w3.org/Graphics/SVG/1.1/DTD/svg11.dtd">
<svg xmlns:xlink="http://www.w3.org/1999/xlink" width="460.8pt" height="345.6pt" viewBox="0 0 460.8 345.6" xmlns="http://www.w3.org/2000/svg" version="1.1">
 <metadata>
  <rdf:RDF xmlns:dc="http://purl.org/dc/elements/1.1/" xmlns:cc="http://creativecommons.org/ns#" xmlns:rdf="http://www.w3.org/1999/02/22-rdf-syntax-ns#">
   <cc:Work>
    <dc:type rdf:resource="http://purl.org/dc/dcmitype/StillImage"/>
    <dc:date>2023-04-26T00:11:58.743805</dc:date>
    <dc:format>image/svg+xml</dc:format>
    <dc:creator>
     <cc:Agent>
      <dc:title>Matplotlib v3.6.2, https://matplotlib.org/</dc:title>
     </cc:Agent>
    </dc:creator>
   </cc:Work>
  </rdf:RDF>
 </metadata>
 <defs>
  <style type="text/css">*{stroke-linejoin: round; stroke-linecap: butt}</style>
 </defs>
 <g id="figure_1">
  <g id="patch_1">
   <path d="M 0 345.6 
L 460.8 345.6 
L 460.8 0 
L 0 0 
z
" style="fill: #ffffff"/>
  </g>
  <g id="axes_1">
   <g id="PolyCollection_1">
    <defs>
     <path id="C0_0_0b20574c25" d="M 141.169605 -75.981755 
L 141.169605 -76.082245 
L 141.12 -76.13249 
L 141.070395 -76.082245 
L 141.070395 -75.981755 
L 141.12 -75.93151 
z
"/>
    </defs>
    <g clip-path="url(#p3d54fdbf58)">
     <use xlink:href="#C0_0_0b20574c25" x="180.108367" y="328.328624" style="fill: #08306b; stroke: #08306b"/>
    </g>
    <g clip-path="url(#p3d54fdbf58)">
     <use xlink:href="#C0_0_0b20574c25" x="182.886261" y="333.152138" style="fill: #08306b; stroke: #08306b"/>
    </g>
    <g clip-path="url(#p3d54fdbf58)">
     <use xlink:href="#C0_0_0b20574c25" x="183.084682" y="333.453607" style="fill: #08306b; stroke: #08306b"/>
    </g>
    <g clip-path="url(#p3d54fdbf58)">
     <use xlink:href="#C0_0_0b20574c25" x="183.283103" y="333.755077" style="fill: #08306b; stroke: #08306b"/>
    </g>
    <g clip-path="url(#p3d54fdbf58)">
     <use xlink:href="#C0_0_0b20574c25" x="183.481524" y="334.056546" style="fill: #08306b; stroke: #08306b"/>
    </g>
    <g clip-path="url(#p3d54fdbf58)">
     <use xlink:href="#C0_0_0b20574c25" x="183.580735" y="334.358016" style="fill: #08306b; stroke: #08306b"/>
    </g>
    <g clip-path="url(#p3d54fdbf58)">
     <use xlink:href="#C0_0_0b20574c25" x="183.779156" y="334.659486" style="fill: #08306b; stroke: #08306b"/>
    </g>
    <g clip-path="url(#p3d54fdbf58)">
     <use xlink:href="#C0_0_0b20574c25" x="183.878366" y="334.960955" style="fill: #08306b; stroke: #08306b"/>
    </g>
    <g clip-path="url(#p3d54fdbf58)">
     <use xlink:href="#C0_0_0b20574c25" x="183.977577" y="334.960955" style="fill: #08306b; stroke: #08306b"/>
    </g>
    <g clip-path="url(#p3d54fdbf58)">
     <use xlink:href="#C0_0_0b20574c25" x="184.076787" y="335.262425" style="fill: #08306b; stroke: #08306b"/>
    </g>
    <g clip-path="url(#p3d54fdbf58)">
     <use xlink:href="#C0_0_0b20574c25" x="184.175998" y="335.262425" style="fill: #08306b; stroke: #08306b"/>
    </g>
    <g clip-path="url(#p3d54fdbf58)">
     <use xlink:href="#C0_0_0b20574c25" x="184.275209" y="335.563894" style="fill: #08306b; stroke: #08306b"/>
    </g>
    <g clip-path="url(#p3d54fdbf58)">
     <use xlink:href="#C0_0_0b20574c25" x="184.47363" y="335.865364" style="fill: #08306b; stroke: #08306b"/>
    </g>
    <g clip-path="url(#p3d54fdbf58)">
     <use xlink:href="#C0_0_0b20574c25" x="184.57284" y="336.166834" style="fill: #08306b; stroke: #08306b"/>
    </g>
    <g clip-path="url(#p3d54fdbf58)">
     <use xlink:href="#C0_0_0b20574c25" x="184.672051" y="336.166834" style="fill: #08316d; stroke: #08316d"/>
    </g>
    <g clip-path="url(#p3d54fdbf58)">
     <use xlink:href="#C0_0_0b20574c25" x="184.771261" y="336.468303" style="fill: #08306b; stroke: #08306b"/>
    </g>
    <g clip-path="url(#p3d54fdbf58)">
     <use xlink:href="#C0_0_0b20574c25" x="184.870472" y="336.468303" style="fill: #08306b; stroke: #08306b"/>
    </g>
    <g clip-path="url(#p3d54fdbf58)">
     <use xlink:href="#C0_0_0b20574c25" x="184.969682" y="336.769773" style="fill: #08316d; stroke: #08316d"/>
    </g>
    <g clip-path="url(#p3d54fdbf58)">
     <use xlink:href="#C0_0_0b20574c25" x="185.168103" y="337.071242" style="fill: #08326e; stroke: #08326e"/>
    </g>
    <g clip-path="url(#p3d54fdbf58)">
     <use xlink:href="#C0_0_0b20574c25" x="185.267314" y="337.372712" style="fill: #08316d; stroke: #08316d"/>
    </g>
    <g clip-path="url(#p3d54fdbf58)">
     <use xlink:href="#C0_0_0b20574c25" x="185.366524" y="337.372712" style="fill: #08326e; stroke: #08326e"/>
    </g>
    <g clip-path="url(#p3d54fdbf58)">
     <use xlink:href="#C0_0_0b20574c25" x="185.465735" y="337.674182" style="fill: #083370; stroke: #083370"/>
    </g>
    <g clip-path="url(#p3d54fdbf58)">
     <use xlink:href="#C0_0_0b20574c25" x="185.564945" y="337.674182" style="fill: #083370; stroke: #083370"/>
    </g>
    <g clip-path="url(#p3d54fdbf58)">
     <use xlink:href="#C0_0_0b20574c25" x="185.664156" y="337.975651" style="fill: #083471; stroke: #083471"/>
    </g>
    <g clip-path="url(#p3d54fdbf58)">
     <use xlink:href="#C0_0_0b20574c25" x="185.862577" y="338.277121" style="fill: #083573; stroke: #083573"/>
    </g>
    <g clip-path="url(#p3d54fdbf58)">
     <use xlink:href="#C0_0_0b20574c25" x="185.961787" y="338.57859" style="fill: #08326e; stroke: #08326e"/>
    </g>
    <g clip-path="url(#p3d54fdbf58)">
     <use xlink:href="#C0_0_0b20574c25" x="186.060998" y="338.57859" style="fill: #083674; stroke: #083674"/>
    </g>
    <g clip-path="url(#p3d54fdbf58)">
     <use xlink:href="#C0_0_0b20574c25" x="186.160209" y="338.88006" style="fill: #083979; stroke: #083979"/>
    </g>
    <g clip-path="url(#p3d54fdbf58)">
     <use xlink:href="#C0_0_0b20574c25" x="186.259419" y="338.88006" style="fill: #083674; stroke: #083674"/>
    </g>
    <g clip-path="url(#p3d54fdbf58)">
     <use xlink:href="#C0_0_0b20574c25" x="186.35863" y="339.18153" style="fill: #083c7d; stroke: #083c7d"/>
    </g>
    <g clip-path="url(#p3d54fdbf58)">
     <use xlink:href="#C0_0_0b20574c25" x="186.557051" y="339.482999" style="fill: #084082; stroke: #084082"/>
    </g>
    <g clip-path="url(#p3d54fdbf58)">
     <use xlink:href="#C0_0_0b20574c25" x="186.656261" y="339.784469" style="fill: #083573; stroke: #083573"/>
    </g>
    <g clip-path="url(#p3d54fdbf58)">
     <use xlink:href="#C0_0_0b20574c25" x="186.755472" y="339.784469" style="fill: #084285; stroke: #084285"/>
    </g>
    <g clip-path="url(#p3d54fdbf58)">
     <use xlink:href="#C0_0_0b20574c25" x="186.854682" y="340.085938" style="fill: #08458a; stroke: #08458a"/>
    </g>
    <g clip-path="url(#p3d54fdbf58)">
     <use xlink:href="#C0_0_0b20574c25" x="186.953893" y="340.085938" style="fill: #084387; stroke: #084387"/>
    </g>
    <g clip-path="url(#p3d54fdbf58)">
     <use xlink:href="#C0_0_0b20574c25" x="187.053103" y="340.387408" style="fill: #084c95; stroke: #084c95"/>
    </g>
    <g clip-path="url(#p3d54fdbf58)">
     <use xlink:href="#C0_0_0b20574c25" x="187.251524" y="340.688878" style="fill: #0a549e; stroke: #0a549e"/>
    </g>
    <g clip-path="url(#p3d54fdbf58)">
     <use xlink:href="#C0_0_0b20574c25" x="187.350735" y="340.990347" style="fill: #083e81; stroke: #083e81"/>
    </g>
    <g clip-path="url(#p3d54fdbf58)">
     <use xlink:href="#C0_0_0b20574c25" x="187.449945" y="340.990347" style="fill: #0e58a2; stroke: #0e58a2"/>
    </g>
    <g clip-path="url(#p3d54fdbf58)">
     <use xlink:href="#C0_0_0b20574c25" x="187.549156" y="341.291817" style="fill: #0e59a2; stroke: #0e59a2"/>
    </g>
    <g clip-path="url(#p3d54fdbf58)">
     <use xlink:href="#C0_0_0b20574c25" x="187.648366" y="341.291817" style="fill: #0f5aa3; stroke: #0f5aa3"/>
    </g>
    <g clip-path="url(#p3d54fdbf58)">
     <use xlink:href="#C0_0_0b20574c25" x="187.747577" y="341.593286" style="fill: #2070b4; stroke: #2070b4"/>
    </g>
    <g clip-path="url(#p3d54fdbf58)">
     <use xlink:href="#C0_0_0b20574c25" x="187.945998" y="341.894756" style="fill: #3888c1; stroke: #3888c1"/>
    </g>
    <g clip-path="url(#p3d54fdbf58)">
     <use xlink:href="#C0_0_0b20574c25" x="188.045208" y="342.196226" style="fill: #084f99; stroke: #084f99"/>
    </g>
    <g clip-path="url(#p3d54fdbf58)">
     <use xlink:href="#C0_0_0b20574c25" x="188.144419" y="342.196226" style="fill: #4695c8; stroke: #4695c8"/>
    </g>
    <g clip-path="url(#p3d54fdbf58)">
     <use xlink:href="#C0_0_0b20574c25" x="188.24363" y="342.497695" style="fill: #3f8fc5; stroke: #3f8fc5"/>
    </g>
    <g clip-path="url(#p3d54fdbf58)">
     <use xlink:href="#C0_0_0b20574c25" x="188.34284" y="342.497695" style="fill: #4695c8; stroke: #4695c8"/>
    </g>
    <g clip-path="url(#p3d54fdbf58)">
     <use xlink:href="#C0_0_0b20574c25" x="188.442051" y="342.799165" style="fill: #97c6df; stroke: #97c6df"/>
    </g>
    <g clip-path="url(#p3d54fdbf58)">
     <use xlink:href="#C0_0_0b20574c25" x="188.541261" y="342.799165" style="fill: #08326e; stroke: #08326e"/>
    </g>
    <g clip-path="url(#p3d54fdbf58)">
     <use xlink:href="#C0_0_0b20574c25" x="188.640472" y="343.100634" style="fill: #bdd7ec; stroke: #bdd7ec"/>
    </g>
    <g clip-path="url(#p3d54fdbf58)">
     <use xlink:href="#C0_0_0b20574c25" x="188.739682" y="343.402104" style="fill: #1561a9; stroke: #1561a9"/>
    </g>
    <g clip-path="url(#p3d54fdbf58)">
     <use xlink:href="#C0_0_0b20574c25" x="188.838893" y="343.402104" style="fill: #c9ddf0; stroke: #c9ddf0"/>
    </g>
    <g clip-path="url(#p3d54fdbf58)">
     <use xlink:href="#C0_0_0b20574c25" x="188.938103" y="343.703573" style="fill: #b4d3e9; stroke: #b4d3e9"/>
    </g>
    <g clip-path="url(#p3d54fdbf58)">
     <use xlink:href="#C0_0_0b20574c25" x="189.037314" y="343.703573" style="fill: #abd0e6; stroke: #abd0e6"/>
    </g>
    <g clip-path="url(#p3d54fdbf58)">
     <use xlink:href="#C0_0_0b20574c25" x="189.136524" y="344.005043" style="fill: #e9f2fa; stroke: #e9f2fa"/>
    </g>
    <g clip-path="url(#p3d54fdbf58)">
     <use xlink:href="#C0_0_0b20574c25" x="189.235735" y="344.005043" style="fill: #084488; stroke: #084488"/>
    </g>
    <g clip-path="url(#p3d54fdbf58)">
     <use xlink:href="#C0_0_0b20574c25" x="189.334945" y="344.306513" style="fill: #f7fbff; stroke: #f7fbff"/>
    </g>
    <g clip-path="url(#p3d54fdbf58)">
     <use xlink:href="#C0_0_0b20574c25" x="189.434156" y="344.607982" style="fill: #0e58a2; stroke: #0e58a2"/>
    </g>
    <g clip-path="url(#p3d54fdbf58)">
     <use xlink:href="#C0_0_0b20574c25" x="189.533366" y="344.607982" style="fill: #d7e6f5; stroke: #d7e6f5"/>
    </g>
    <g clip-path="url(#p3d54fdbf58)">
     <use xlink:href="#C0_0_0b20574c25" x="189.632577" y="344.909452" style="fill: #6caed6; stroke: #6caed6"/>
    </g>
    <g clip-path="url(#p3d54fdbf58)">
     <use xlink:href="#C0_0_0b20574c25" x="189.731787" y="344.909452" style="fill: #5aa2cf; stroke: #5aa2cf"/>
    </g>
    <g clip-path="url(#p3d54fdbf58)">
     <use xlink:href="#C0_0_0b20574c25" x="189.830998" y="345.210921" style="fill: #2e7ebc; stroke: #2e7ebc"/>
    </g>
    <g clip-path="url(#p3d54fdbf58)">
     <use xlink:href="#C0_0_0b20574c25" x="189.930208" y="345.210921" style="fill: #083776; stroke: #083776"/>
    </g>
    <g clip-path="url(#p3d54fdbf58)">
     <use xlink:href="#C0_0_0b20574c25" x="190.029419" y="345.512391" style="fill: #08316d; stroke: #08316d"/>
    </g>
    <g clip-path="url(#p3d54fdbf58)">
     <use xlink:href="#C0_0_0b20574c25" x="181.64613" y="330.891116" style="fill: #08306b; stroke: #08306b"/>
    </g>
    <g clip-path="url(#p3d54fdbf58)">
     <use xlink:href="#C0_0_0b20574c25" x="182.142182" y="331.795525" style="fill: #08306b; stroke: #08306b"/>
    </g>
    <g clip-path="url(#p3d54fdbf58)">
     <use xlink:href="#C0_0_0b20574c25" x="182.241393" y="332.096994" style="fill: #08306b; stroke: #08306b"/>
    </g>
    <g clip-path="url(#p3d54fdbf58)">
     <use xlink:href="#C0_0_0b20574c25" x="183.035077" y="333.302872" style="fill: #08306b; stroke: #08306b"/>
    </g>
    <g clip-path="url(#p3d54fdbf58)">
     <use xlink:href="#C0_0_0b20574c25" x="183.134288" y="333.604342" style="fill: #08306b; stroke: #08306b"/>
    </g>
    <g clip-path="url(#p3d54fdbf58)">
     <use xlink:href="#C0_0_0b20574c25" x="183.332709" y="333.905812" style="fill: #08306b; stroke: #08306b"/>
    </g>
    <g clip-path="url(#p3d54fdbf58)">
     <use xlink:href="#C0_0_0b20574c25" x="183.431919" y="334.207281" style="fill: #08306b; stroke: #08306b"/>
    </g>
    <g clip-path="url(#p3d54fdbf58)">
     <use xlink:href="#C0_0_0b20574c25" x="183.63034" y="334.508751" style="fill: #08306b; stroke: #08306b"/>
    </g>
    <g clip-path="url(#p3d54fdbf58)">
     <use xlink:href="#C0_0_0b20574c25" x="183.729551" y="334.508751" style="fill: #08306b; stroke: #08306b"/>
    </g>
    <g clip-path="url(#p3d54fdbf58)">
     <use xlink:href="#C0_0_0b20574c25" x="183.828761" y="334.81022" style="fill: #08306b; stroke: #08306b"/>
    </g>
    <g clip-path="url(#p3d54fdbf58)">
     <use xlink:href="#C0_0_0b20574c25" x="184.027182" y="335.11169" style="fill: #08306b; stroke: #08306b"/>
    </g>
    <g clip-path="url(#p3d54fdbf58)">
     <use xlink:href="#C0_0_0b20574c25" x="184.126393" y="335.41316" style="fill: #08306b; stroke: #08306b"/>
    </g>
    <g clip-path="url(#p3d54fdbf58)">
     <use xlink:href="#C0_0_0b20574c25" x="184.225603" y="335.41316" style="fill: #08306b; stroke: #08306b"/>
    </g>
    <g clip-path="url(#p3d54fdbf58)">
     <use xlink:href="#C0_0_0b20574c25" x="184.324814" y="335.714629" style="fill: #08306b; stroke: #08306b"/>
    </g>
    <g clip-path="url(#p3d54fdbf58)">
     <use xlink:href="#C0_0_0b20574c25" x="184.424024" y="335.714629" style="fill: #08306b; stroke: #08306b"/>
    </g>
    <g clip-path="url(#p3d54fdbf58)">
     <use xlink:href="#C0_0_0b20574c25" x="184.523235" y="336.016099" style="fill: #08316d; stroke: #08316d"/>
    </g>
    <g clip-path="url(#p3d54fdbf58)">
     <use xlink:href="#C0_0_0b20574c25" x="184.721656" y="336.317568" style="fill: #08316d; stroke: #08316d"/>
    </g>
    <g clip-path="url(#p3d54fdbf58)">
     <use xlink:href="#C0_0_0b20574c25" x="184.920077" y="336.619038" style="fill: #08316d; stroke: #08316d"/>
    </g>
    <g clip-path="url(#p3d54fdbf58)">
     <use xlink:href="#C0_0_0b20574c25" x="185.019287" y="336.920508" style="fill: #08316d; stroke: #08316d"/>
    </g>
    <g clip-path="url(#p3d54fdbf58)">
     <use xlink:href="#C0_0_0b20574c25" x="185.118498" y="336.920508" style="fill: #08316d; stroke: #08316d"/>
    </g>
    <g clip-path="url(#p3d54fdbf58)">
     <use xlink:href="#C0_0_0b20574c25" x="185.217709" y="337.221977" style="fill: #08326e; stroke: #08326e"/>
    </g>
    <g clip-path="url(#p3d54fdbf58)">
     <use xlink:href="#C0_0_0b20574c25" x="185.316919" y="337.221977" style="fill: #08306b; stroke: #08306b"/>
    </g>
    <g clip-path="url(#p3d54fdbf58)">
     <use xlink:href="#C0_0_0b20574c25" x="185.41613" y="337.523447" style="fill: #08326e; stroke: #08326e"/>
    </g>
    <g clip-path="url(#p3d54fdbf58)">
     <use xlink:href="#C0_0_0b20574c25" x="185.51534" y="337.824916" style="fill: #08306b; stroke: #08306b"/>
    </g>
    <g clip-path="url(#p3d54fdbf58)">
     <use xlink:href="#C0_0_0b20574c25" x="185.614551" y="337.824916" style="fill: #083370; stroke: #083370"/>
    </g>
    <g clip-path="url(#p3d54fdbf58)">
     <use xlink:href="#C0_0_0b20574c25" x="185.713761" y="338.126386" style="fill: #083471; stroke: #083471"/>
    </g>
    <g clip-path="url(#p3d54fdbf58)">
     <use xlink:href="#C0_0_0b20574c25" x="185.812972" y="338.126386" style="fill: #083471; stroke: #083471"/>
    </g>
    <g clip-path="url(#p3d54fdbf58)">
     <use xlink:href="#C0_0_0b20574c25" x="185.912182" y="338.427856" style="fill: #083471; stroke: #083471"/>
    </g>
    <g clip-path="url(#p3d54fdbf58)">
     <use xlink:href="#C0_0_0b20574c25" x="186.011393" y="338.427856" style="fill: #08316d; stroke: #08316d"/>
    </g>
    <g clip-path="url(#p3d54fdbf58)">
     <use xlink:href="#C0_0_0b20574c25" x="186.110603" y="338.729325" style="fill: #083776; stroke: #083776"/>
    </g>
    <g clip-path="url(#p3d54fdbf58)">
     <use xlink:href="#C0_0_0b20574c25" x="186.209814" y="339.030795" style="fill: #08306b; stroke: #08306b"/>
    </g>
    <g clip-path="url(#p3d54fdbf58)">
     <use xlink:href="#C0_0_0b20574c25" x="186.309024" y="339.030795" style="fill: #083b7c; stroke: #083b7c"/>
    </g>
    <g clip-path="url(#p3d54fdbf58)">
     <use xlink:href="#C0_0_0b20574c25" x="186.408235" y="339.332264" style="fill: #083877; stroke: #083877"/>
    </g>
    <g clip-path="url(#p3d54fdbf58)">
     <use xlink:href="#C0_0_0b20574c25" x="186.507445" y="339.332264" style="fill: #083a7a; stroke: #083a7a"/>
    </g>
    <g clip-path="url(#p3d54fdbf58)">
     <use xlink:href="#C0_0_0b20574c25" x="186.606656" y="339.633734" style="fill: #084184; stroke: #084184"/>
    </g>
    <g clip-path="url(#p3d54fdbf58)">
     <use xlink:href="#C0_0_0b20574c25" x="186.705866" y="339.633734" style="fill: #083573; stroke: #083573"/>
    </g>
    <g clip-path="url(#p3d54fdbf58)">
     <use xlink:href="#C0_0_0b20574c25" x="186.805077" y="339.935204" style="fill: #08458a; stroke: #08458a"/>
    </g>
    <g clip-path="url(#p3d54fdbf58)">
     <use xlink:href="#C0_0_0b20574c25" x="187.003498" y="340.236673" style="fill: #084c95; stroke: #084c95"/>
    </g>
    <g clip-path="url(#p3d54fdbf58)">
     <use xlink:href="#C0_0_0b20574c25" x="187.102708" y="340.538143" style="fill: #08468b; stroke: #08468b"/>
    </g>
    <g clip-path="url(#p3d54fdbf58)">
     <use xlink:href="#C0_0_0b20574c25" x="187.201919" y="340.538143" style="fill: #084a91; stroke: #084a91"/>
    </g>
    <g clip-path="url(#p3d54fdbf58)">
     <use xlink:href="#C0_0_0b20574c25" x="187.30113" y="340.839612" style="fill: #0b559f; stroke: #0b559f"/>
    </g>
    <g clip-path="url(#p3d54fdbf58)">
     <use xlink:href="#C0_0_0b20574c25" x="187.40034" y="340.839612" style="fill: #084082; stroke: #084082"/>
    </g>
    <g clip-path="url(#p3d54fdbf58)">
     <use xlink:href="#C0_0_0b20574c25" x="187.499551" y="341.141082" style="fill: #1562a9; stroke: #1562a9"/>
    </g>
    <g clip-path="url(#p3d54fdbf58)">
     <use xlink:href="#C0_0_0b20574c25" x="187.697972" y="341.442552" style="fill: #1e6db2; stroke: #1e6db2"/>
    </g>
    <g clip-path="url(#p3d54fdbf58)">
     <use xlink:href="#C0_0_0b20574c25" x="187.797182" y="341.744021" style="fill: #1764ab; stroke: #1764ab"/>
    </g>
    <g clip-path="url(#p3d54fdbf58)">
     <use xlink:href="#C0_0_0b20574c25" x="187.896393" y="341.744021" style="fill: #206fb4; stroke: #206fb4"/>
    </g>
    <g clip-path="url(#p3d54fdbf58)">
     <use xlink:href="#C0_0_0b20574c25" x="187.995603" y="342.045491" style="fill: #3585bf; stroke: #3585bf"/>
    </g>
    <g clip-path="url(#p3d54fdbf58)">
     <use xlink:href="#C0_0_0b20574c25" x="188.094814" y="342.045491" style="fill: #0b559f; stroke: #0b559f"/>
    </g>
    <g clip-path="url(#p3d54fdbf58)">
     <use xlink:href="#C0_0_0b20574c25" x="188.194024" y="342.34696" style="fill: #5da5d1; stroke: #5da5d1"/>
    </g>
    <g clip-path="url(#p3d54fdbf58)">
     <use xlink:href="#C0_0_0b20574c25" x="188.392445" y="342.64843" style="fill: #7db8da; stroke: #7db8da"/>
    </g>
    <g clip-path="url(#p3d54fdbf58)">
     <use xlink:href="#C0_0_0b20574c25" x="188.491656" y="342.9499" style="fill: #519ccc; stroke: #519ccc"/>
    </g>
    <g clip-path="url(#p3d54fdbf58)">
     <use xlink:href="#C0_0_0b20574c25" x="188.590866" y="342.9499" style="fill: #7fb9da; stroke: #7fb9da"/>
    </g>
    <g clip-path="url(#p3d54fdbf58)">
     <use xlink:href="#C0_0_0b20574c25" x="188.690077" y="343.251369" style="fill: #a6cee4; stroke: #a6cee4"/>
    </g>
    <g clip-path="url(#p3d54fdbf58)">
     <use xlink:href="#C0_0_0b20574c25" x="188.789287" y="343.251369" style="fill: #3888c1; stroke: #3888c1"/>
    </g>
    <g clip-path="url(#p3d54fdbf58)">
     <use xlink:href="#C0_0_0b20574c25" x="188.888498" y="343.552839" style="fill: #e0ecf8; stroke: #e0ecf8"/>
    </g>
    <g clip-path="url(#p3d54fdbf58)">
     <use xlink:href="#C0_0_0b20574c25" x="189.086919" y="343.854308" style="fill: #eef5fc; stroke: #eef5fc"/>
    </g>
    <g clip-path="url(#p3d54fdbf58)">
     <use xlink:href="#C0_0_0b20574c25" x="189.18613" y="344.155778" style="fill: #9ac8e0; stroke: #9ac8e0"/>
    </g>
    <g clip-path="url(#p3d54fdbf58)">
     <use xlink:href="#C0_0_0b20574c25" x="189.28534" y="344.155778" style="fill: #d6e6f4; stroke: #d6e6f4"/>
    </g>
    <g clip-path="url(#p3d54fdbf58)">
     <use xlink:href="#C0_0_0b20574c25" x="189.384551" y="344.457247" style="fill: #d9e7f5; stroke: #d9e7f5"/>
    </g>
    <g clip-path="url(#p3d54fdbf58)">
     <use xlink:href="#C0_0_0b20574c25" x="189.483761" y="344.457247" style="fill: #5da5d1; stroke: #5da5d1"/>
    </g>
    <g clip-path="url(#p3d54fdbf58)">
     <use xlink:href="#C0_0_0b20574c25" x="189.582972" y="344.758717" style="fill: #cadef0; stroke: #cadef0"/>
    </g>
    <g clip-path="url(#p3d54fdbf58)">
     <use xlink:href="#C0_0_0b20574c25" x="189.781393" y="345.060187" style="fill: #5da5d1; stroke: #5da5d1"/>
    </g>
    <g clip-path="url(#p3d54fdbf58)">
     <use xlink:href="#C0_0_0b20574c25" x="189.880603" y="345.361656" style="fill: #08488e; stroke: #08488e"/>
    </g>
    <g clip-path="url(#p3d54fdbf58)">
     <use xlink:href="#C0_0_0b20574c25" x="189.979814" y="345.361656" style="fill: #084082; stroke: #084082"/>
    </g>
   </g>
   <g id="line2d_1">
    <path d="M 141.12 269.568 
L 236.16 104.953891 
L 331.2 269.568 
L 141.12 269.568 
" clip-path="url(#p3d54fdbf58)" style="fill: none; stroke: #ffa500; stroke-width: 1.5; stroke-linecap: round"/>
   </g>
   <g id="line2d_2">
    <path d="M 236.16 214.69663 
L 236.16 269.568 
" clip-path="url(#p3d54fdbf58)" style="fill: none; stroke: #ffa500; stroke-width: 1.5; stroke-linecap: round"/>
   </g>
   <g id="line2d_3">
    <path d="M 236.16 214.69663 
L 188.64 187.260946 
" clip-path="url(#p3d54fdbf58)" style="fill: none; stroke: #ffa500; stroke-width: 1.5; stroke-linecap: round"/>
   </g>
   <g id="line2d_4">
    <path d="M 236.16 214.69663 
L 283.68 187.260946 
" clip-path="url(#p3d54fdbf58)" style="fill: none; stroke: #ffa500; stroke-width: 1.5; stroke-linecap: round"/>
   </g>
   <g id="text_1">
    <!-- p(IAC_(0.05, 0.3)) = 0.000 -->
    <g style="fill: #262626" transform="translate(62.254688 286.2762) scale(0.12 -0.12)">
     <defs>
      <path id="DejaVuSans-70" d="M 1159 525 
L 1159 -1331 
L 581 -1331 
L 581 3500 
L 1159 3500 
L 1159 2969 
Q 1341 3281 1617 3432 
Q 1894 3584 2278 3584 
Q 2916 3584 3314 3078 
Q 3713 2572 3713 1747 
Q 3713 922 3314 415 
Q 2916 -91 2278 -91 
Q 1894 -91 1617 61 
Q 1341 213 1159 525 
z
M 3116 1747 
Q 3116 2381 2855 2742 
Q 2594 3103 2138 3103 
Q 1681 3103 1420 2742 
Q 1159 2381 1159 1747 
Q 1159 1113 1420 752 
Q 1681 391 2138 391 
Q 2594 391 2855 752 
Q 3116 1113 3116 1747 
z
" transform="scale(0.015625)"/>
      <path id="DejaVuSans-28" d="M 1984 4856 
Q 1566 4138 1362 3434 
Q 1159 2731 1159 2009 
Q 1159 1288 1364 580 
Q 1569 -128 1984 -844 
L 1484 -844 
Q 1016 -109 783 600 
Q 550 1309 550 2009 
Q 550 2706 781 3412 
Q 1013 4119 1484 4856 
L 1984 4856 
z
" transform="scale(0.015625)"/>
      <path id="DejaVuSans-49" d="M 628 4666 
L 1259 4666 
L 1259 0 
L 628 0 
L 628 4666 
z
" transform="scale(0.015625)"/>
      <path id="DejaVuSans-41" d="M 2188 4044 
L 1331 1722 
L 3047 1722 
L 2188 4044 
z
M 1831 4666 
L 2547 4666 
L 4325 0 
L 3669 0 
L 3244 1197 
L 1141 1197 
L 716 0 
L 50 0 
L 1831 4666 
z
" transform="scale(0.015625)"/>
      <path id="DejaVuSans-43" d="M 4122 4306 
L 4122 3641 
Q 3803 3938 3442 4084 
Q 3081 4231 2675 4231 
Q 1875 4231 1450 3742 
Q 1025 3253 1025 2328 
Q 1025 1406 1450 917 
Q 1875 428 2675 428 
Q 3081 428 3442 575 
Q 3803 722 4122 1019 
L 4122 359 
Q 3791 134 3420 21 
Q 3050 -91 2638 -91 
Q 1578 -91 968 557 
Q 359 1206 359 2328 
Q 359 3453 968 4101 
Q 1578 4750 2638 4750 
Q 3056 4750 3426 4639 
Q 3797 4528 4122 4306 
z
" transform="scale(0.015625)"/>
      <path id="DejaVuSans-5f" d="M 3263 -1063 
L 3263 -1509 
L -63 -1509 
L -63 -1063 
L 3263 -1063 
z
" transform="scale(0.015625)"/>
      <path id="DejaVuSans-30" d="M 2034 4250 
Q 1547 4250 1301 3770 
Q 1056 3291 1056 2328 
Q 1056 1369 1301 889 
Q 1547 409 2034 409 
Q 2525 409 2770 889 
Q 3016 1369 3016 2328 
Q 3016 3291 2770 3770 
Q 2525 4250 2034 4250 
z
M 2034 4750 
Q 2819 4750 3233 4129 
Q 3647 3509 3647 2328 
Q 3647 1150 3233 529 
Q 2819 -91 2034 -91 
Q 1250 -91 836 529 
Q 422 1150 422 2328 
Q 422 3509 836 4129 
Q 1250 4750 2034 4750 
z
" transform="scale(0.015625)"/>
      <path id="DejaVuSans-2e" d="M 684 794 
L 1344 794 
L 1344 0 
L 684 0 
L 684 794 
z
" transform="scale(0.015625)"/>
      <path id="DejaVuSans-35" d="M 691 4666 
L 3169 4666 
L 3169 4134 
L 1269 4134 
L 1269 2991 
Q 1406 3038 1543 3061 
Q 1681 3084 1819 3084 
Q 2600 3084 3056 2656 
Q 3513 2228 3513 1497 
Q 3513 744 3044 326 
Q 2575 -91 1722 -91 
Q 1428 -91 1123 -41 
Q 819 9 494 109 
L 494 744 
Q 775 591 1075 516 
Q 1375 441 1709 441 
Q 2250 441 2565 725 
Q 2881 1009 2881 1497 
Q 2881 1984 2565 2268 
Q 2250 2553 1709 2553 
Q 1456 2553 1204 2497 
Q 953 2441 691 2322 
L 691 4666 
z
" transform="scale(0.015625)"/>
      <path id="DejaVuSans-2c" d="M 750 794 
L 1409 794 
L 1409 256 
L 897 -744 
L 494 -744 
L 750 256 
L 750 794 
z
" transform="scale(0.015625)"/>
      <path id="DejaVuSans-20" transform="scale(0.015625)"/>
      <path id="DejaVuSans-33" d="M 2597 2516 
Q 3050 2419 3304 2112 
Q 3559 1806 3559 1356 
Q 3559 666 3084 287 
Q 2609 -91 1734 -91 
Q 1441 -91 1130 -33 
Q 819 25 488 141 
L 488 750 
Q 750 597 1062 519 
Q 1375 441 1716 441 
Q 2309 441 2620 675 
Q 2931 909 2931 1356 
Q 2931 1769 2642 2001 
Q 2353 2234 1838 2234 
L 1294 2234 
L 1294 2753 
L 1863 2753 
Q 2328 2753 2575 2939 
Q 2822 3125 2822 3475 
Q 2822 3834 2567 4026 
Q 2313 4219 1838 4219 
Q 1578 4219 1281 4162 
Q 984 4106 628 3988 
L 628 4550 
Q 988 4650 1302 4700 
Q 1616 4750 1894 4750 
Q 2613 4750 3031 4423 
Q 3450 4097 3450 3541 
Q 3450 3153 3228 2886 
Q 3006 2619 2597 2516 
z
" transform="scale(0.015625)"/>
      <path id="DejaVuSans-29" d="M 513 4856 
L 1013 4856 
Q 1481 4119 1714 3412 
Q 1947 2706 1947 2009 
Q 1947 1309 1714 600 
Q 1481 -109 1013 -844 
L 513 -844 
Q 928 -128 1133 580 
Q 1338 1288 1338 2009 
Q 1338 2731 1133 3434 
Q 928 4138 513 4856 
z
" transform="scale(0.015625)"/>
      <path id="DejaVuSans-3d" d="M 678 2906 
L 4684 2906 
L 4684 2381 
L 678 2381 
L 678 2906 
z
M 678 1631 
L 4684 1631 
L 4684 1100 
L 678 1100 
L 678 1631 
z
" transform="scale(0.015625)"/>
     </defs>
     <use xlink:href="#DejaVuSans-70"/>
     <use xlink:href="#DejaVuSans-28" x="63.476562"/>
     <use xlink:href="#DejaVuSans-49" x="102.490234"/>
     <use xlink:href="#DejaVuSans-41" x="131.982422"/>
     <use xlink:href="#DejaVuSans-43" x="198.640625"/>
     <use xlink:href="#DejaVuSans-5f" x="268.464844"/>
     <use xlink:href="#DejaVuSans-28" x="318.464844"/>
     <use xlink:href="#DejaVuSans-30" x="357.478516"/>
     <use xlink:href="#DejaVuSans-2e" x="421.101562"/>
     <use xlink:href="#DejaVuSans-30" x="452.888672"/>
     <use xlink:href="#DejaVuSans-35" x="516.511719"/>
     <use xlink:href="#DejaVuSans-2c" x="580.134766"/>
     <use xlink:href="#DejaVuSans-20" x="611.921875"/>
     <use xlink:href="#DejaVuSans-30" x="643.708984"/>
     <use xlink:href="#DejaVuSans-2e" x="707.332031"/>
     <use xlink:href="#DejaVuSans-33" x="739.119141"/>
     <use xlink:href="#DejaVuSans-29" x="802.742188"/>
     <use xlink:href="#DejaVuSans-29" x="841.755859"/>
     <use xlink:href="#DejaVuSans-20" x="880.769531"/>
     <use xlink:href="#DejaVuSans-3d" x="912.556641"/>
     <use xlink:href="#DejaVuSans-20" x="996.345703"/>
     <use xlink:href="#DejaVuSans-30" x="1028.132812"/>
     <use xlink:href="#DejaVuSans-2e" x="1091.755859"/>
     <use xlink:href="#DejaVuSans-30" x="1123.542969"/>
     <use xlink:href="#DejaVuSans-30" x="1187.166016"/>
     <use xlink:href="#DejaVuSans-30" x="1250.789062"/>
    </g>
   </g>
   <g id="text_2">
    <!-- p(rope) = 0.000 -->
    <g style="fill: #262626" transform="translate(188.146875 102.458266) scale(0.12 -0.12)">
     <defs>
      <path id="DejaVuSans-72" d="M 2631 2963 
Q 2534 3019 2420 3045 
Q 2306 3072 2169 3072 
Q 1681 3072 1420 2755 
Q 1159 2438 1159 1844 
L 1159 0 
L 581 0 
L 581 3500 
L 1159 3500 
L 1159 2956 
Q 1341 3275 1631 3429 
Q 1922 3584 2338 3584 
Q 2397 3584 2469 3576 
Q 2541 3569 2628 3553 
L 2631 2963 
z
" transform="scale(0.015625)"/>
      <path id="DejaVuSans-6f" d="M 1959 3097 
Q 1497 3097 1228 2736 
Q 959 2375 959 1747 
Q 959 1119 1226 758 
Q 1494 397 1959 397 
Q 2419 397 2687 759 
Q 2956 1122 2956 1747 
Q 2956 2369 2687 2733 
Q 2419 3097 1959 3097 
z
M 1959 3584 
Q 2709 3584 3137 3096 
Q 3566 2609 3566 1747 
Q 3566 888 3137 398 
Q 2709 -91 1959 -91 
Q 1206 -91 779 398 
Q 353 888 353 1747 
Q 353 2609 779 3096 
Q 1206 3584 1959 3584 
z
" transform="scale(0.015625)"/>
      <path id="DejaVuSans-65" d="M 3597 1894 
L 3597 1613 
L 953 1613 
Q 991 1019 1311 708 
Q 1631 397 2203 397 
Q 2534 397 2845 478 
Q 3156 559 3463 722 
L 3463 178 
Q 3153 47 2828 -22 
Q 2503 -91 2169 -91 
Q 1331 -91 842 396 
Q 353 884 353 1716 
Q 353 2575 817 3079 
Q 1281 3584 2069 3584 
Q 2775 3584 3186 3129 
Q 3597 2675 3597 1894 
z
M 3022 2063 
Q 3016 2534 2758 2815 
Q 2500 3097 2075 3097 
Q 1594 3097 1305 2825 
Q 1016 2553 972 2059 
L 3022 2063 
z
" transform="scale(0.015625)"/>
     </defs>
     <use xlink:href="#DejaVuSans-70"/>
     <use xlink:href="#DejaVuSans-28" x="63.476562"/>
     <use xlink:href="#DejaVuSans-72" x="102.490234"/>
     <use xlink:href="#DejaVuSans-6f" x="141.353516"/>
     <use xlink:href="#DejaVuSans-70" x="202.535156"/>
     <use xlink:href="#DejaVuSans-65" x="266.011719"/>
     <use xlink:href="#DejaVuSans-29" x="327.535156"/>
     <use xlink:href="#DejaVuSans-20" x="366.548828"/>
     <use xlink:href="#DejaVuSans-3d" x="398.335938"/>
     <use xlink:href="#DejaVuSans-20" x="482.125"/>
     <use xlink:href="#DejaVuSans-30" x="513.912109"/>
     <use xlink:href="#DejaVuSans-2e" x="577.535156"/>
     <use xlink:href="#DejaVuSans-30" x="609.322266"/>
     <use xlink:href="#DejaVuSans-30" x="672.945312"/>
     <use xlink:href="#DejaVuSans-30" x="736.568359"/>
    </g>
   </g>
   <g id="text_3">
    <!-- p(IAC_(0.05, 1)) = 1.000 -->
    <g style="fill: #262626" transform="translate(258.059063 286.2762) scale(0.12 -0.12)">
     <defs>
      <path id="DejaVuSans-31" d="M 794 531 
L 1825 531 
L 1825 4091 
L 703 3866 
L 703 4441 
L 1819 4666 
L 2450 4666 
L 2450 531 
L 3481 531 
L 3481 0 
L 794 0 
L 794 531 
z
" transform="scale(0.015625)"/>
     </defs>
     <use xlink:href="#DejaVuSans-70"/>
     <use xlink:href="#DejaVuSans-28" x="63.476562"/>
     <use xlink:href="#DejaVuSans-49" x="102.490234"/>
     <use xlink:href="#DejaVuSans-41" x="131.982422"/>
     <use xlink:href="#DejaVuSans-43" x="198.640625"/>
     <use xlink:href="#DejaVuSans-5f" x="268.464844"/>
     <use xlink:href="#DejaVuSans-28" x="318.464844"/>
     <use xlink:href="#DejaVuSans-30" x="357.478516"/>
     <use xlink:href="#DejaVuSans-2e" x="421.101562"/>
     <use xlink:href="#DejaVuSans-30" x="452.888672"/>
     <use xlink:href="#DejaVuSans-35" x="516.511719"/>
     <use xlink:href="#DejaVuSans-2c" x="580.134766"/>
     <use xlink:href="#DejaVuSans-20" x="611.921875"/>
     <use xlink:href="#DejaVuSans-31" x="643.708984"/>
     <use xlink:href="#DejaVuSans-29" x="707.332031"/>
     <use xlink:href="#DejaVuSans-29" x="746.345703"/>
     <use xlink:href="#DejaVuSans-20" x="785.359375"/>
     <use xlink:href="#DejaVuSans-3d" x="817.146484"/>
     <use xlink:href="#DejaVuSans-20" x="900.935547"/>
     <use xlink:href="#DejaVuSans-31" x="932.722656"/>
     <use xlink:href="#DejaVuSans-2e" x="996.345703"/>
     <use xlink:href="#DejaVuSans-30" x="1028.132812"/>
     <use xlink:href="#DejaVuSans-30" x="1091.755859"/>
     <use xlink:href="#DejaVuSans-30" x="1155.378906"/>
    </g>
   </g>
  </g>
 </g>
 <defs>
  <clipPath id="p3d54fdbf58">
   <rect x="103.104" y="41.472" width="266.112" height="266.112"/>
  </clipPath>
 </defs>
</svg>
