<?xml version="1.0" encoding="utf-8" standalone="no"?>
<!DOCTYPE svg PUBLIC "-//W3C//DTD SVG 1.1//EN"
  "http://www.w3.org/Graphics/SVG/1.1/DTD/svg11.dtd">
<svg xmlns:xlink="http://www.w3.org/1999/xlink" width="460.8pt" height="345.6pt" viewBox="0 0 460.8 345.6" xmlns="http://www.w3.org/2000/svg" version="1.1">
 <metadata>
  <rdf:RDF xmlns:dc="http://purl.org/dc/elements/1.1/" xmlns:cc="http://creativecommons.org/ns#" xmlns:rdf="http://www.w3.org/1999/02/22-rdf-syntax-ns#">
   <cc:Work>
    <dc:type rdf:resource="http://purl.org/dc/dcmitype/StillImage"/>
    <dc:date>2023-04-26T00:11:53.928318</dc:date>
    <dc:format>image/svg+xml</dc:format>
    <dc:creator>
     <cc:Agent>
      <dc:title>Matplotlib v3.6.2, https://matplotlib.org/</dc:title>
     </cc:Agent>
    </dc:creator>
   </cc:Work>
  </rdf:RDF>
 </metadata>
 <defs>
  <style type="text/css">*{stroke-linejoin: round; stroke-linecap: butt}</style>
 </defs>
 <g id="figure_1">
  <g id="patch_1">
   <path d="M 0 345.6 
L 460.8 345.6 
L 460.8 0 
L 0 0 
z
" style="fill: #ffffff"/>
  </g>
  <g id="axes_1">
   <g id="PolyCollection_1">
    <defs>
     <path id="C0_0_3e62d02396" d="M 141.306913 -75.842677 
L 141.306913 -76.221323 
L 141.12 -76.410647 
L 140.933087 -76.221323 
L 140.933087 -75.842677 
L 141.12 -75.653353 
z
"/>
    </defs>
    <g clip-path="url(#p6971d6b27e)">
     <use xlink:href="#C0_0_3e62d02396" x="5.43794" y="336.181211" style="fill: #08306b; stroke: #08306b"/>
    </g>
    <g clip-path="url(#p6971d6b27e)">
     <use xlink:href="#C0_0_3e62d02396" x="6.185593" y="335.04527" style="fill: #08306b; stroke: #08306b"/>
    </g>
    <g clip-path="url(#p6971d6b27e)">
     <use xlink:href="#C0_0_3e62d02396" x="6.559419" y="333.909329" style="fill: #08306b; stroke: #08306b"/>
    </g>
    <g clip-path="url(#p6971d6b27e)">
     <use xlink:href="#C0_0_3e62d02396" x="6.933246" y="333.909329" style="fill: #08306b; stroke: #08306b"/>
    </g>
    <g clip-path="url(#p6971d6b27e)">
     <use xlink:href="#C0_0_3e62d02396" x="7.307072" y="332.773389" style="fill: #08316d; stroke: #08316d"/>
    </g>
    <g clip-path="url(#p6971d6b27e)">
     <use xlink:href="#C0_0_3e62d02396" x="7.680899" y="332.773389" style="fill: #08306b; stroke: #08306b"/>
    </g>
    <g clip-path="url(#p6971d6b27e)">
     <use xlink:href="#C0_0_3e62d02396" x="8.054725" y="331.637448" style="fill: #083370; stroke: #083370"/>
    </g>
    <g clip-path="url(#p6971d6b27e)">
     <use xlink:href="#C0_0_3e62d02396" x="8.428551" y="330.501507" style="fill: #08306b; stroke: #08306b"/>
    </g>
    <g clip-path="url(#p6971d6b27e)">
     <use xlink:href="#C0_0_3e62d02396" x="8.802378" y="330.501507" style="fill: #083674; stroke: #083674"/>
    </g>
    <g clip-path="url(#p6971d6b27e)">
     <use xlink:href="#C0_0_3e62d02396" x="9.176204" y="329.365566" style="fill: #083776; stroke: #083776"/>
    </g>
    <g clip-path="url(#p6971d6b27e)">
     <use xlink:href="#C0_0_3e62d02396" x="9.55003" y="329.365566" style="fill: #083a7a; stroke: #083a7a"/>
    </g>
    <g clip-path="url(#p6971d6b27e)">
     <use xlink:href="#C0_0_3e62d02396" x="9.923857" y="328.229625" style="fill: #083d7f; stroke: #083d7f"/>
    </g>
    <g clip-path="url(#p6971d6b27e)">
     <use xlink:href="#C0_0_3e62d02396" x="10.297683" y="328.229625" style="fill: #083573; stroke: #083573"/>
    </g>
    <g clip-path="url(#p6971d6b27e)">
     <use xlink:href="#C0_0_3e62d02396" x="10.671509" y="327.093685" style="fill: #08519c; stroke: #08519c"/>
    </g>
    <g clip-path="url(#p6971d6b27e)">
     <use xlink:href="#C0_0_3e62d02396" x="11.045336" y="325.957744" style="fill: #08306b; stroke: #08306b"/>
    </g>
    <g clip-path="url(#p6971d6b27e)">
     <use xlink:href="#C0_0_3e62d02396" x="11.419162" y="325.957744" style="fill: #1764ab; stroke: #1764ab"/>
    </g>
    <g clip-path="url(#p6971d6b27e)">
     <use xlink:href="#C0_0_3e62d02396" x="11.792988" y="324.821803" style="fill: #1663aa; stroke: #1663aa"/>
    </g>
    <g clip-path="url(#p6971d6b27e)">
     <use xlink:href="#C0_0_3e62d02396" x="12.166815" y="324.821803" style="fill: #1c6bb0; stroke: #1c6bb0"/>
    </g>
    <g clip-path="url(#p6971d6b27e)">
     <use xlink:href="#C0_0_3e62d02396" x="12.540641" y="323.685862" style="fill: #3d8dc4; stroke: #3d8dc4"/>
    </g>
    <g clip-path="url(#p6971d6b27e)">
     <use xlink:href="#C0_0_3e62d02396" x="12.914467" y="323.685862" style="fill: #084d96; stroke: #084d96"/>
    </g>
    <g clip-path="url(#p6971d6b27e)">
     <use xlink:href="#C0_0_3e62d02396" x="13.288294" y="322.549922" style="fill: #5fa6d1; stroke: #5fa6d1"/>
    </g>
    <g clip-path="url(#p6971d6b27e)">
     <use xlink:href="#C0_0_3e62d02396" x="14.035947" y="321.413981" style="fill: #91c3de; stroke: #91c3de"/>
    </g>
    <g clip-path="url(#p6971d6b27e)">
     <use xlink:href="#C0_0_3e62d02396" x="14.409773" y="320.27804" style="fill: #5ca4d0; stroke: #5ca4d0"/>
    </g>
    <g clip-path="url(#p6971d6b27e)">
     <use xlink:href="#C0_0_3e62d02396" x="14.783599" y="320.27804" style="fill: #7fb9da; stroke: #7fb9da"/>
    </g>
    <g clip-path="url(#p6971d6b27e)">
     <use xlink:href="#C0_0_3e62d02396" x="15.157426" y="319.142099" style="fill: #bcd7eb; stroke: #bcd7eb"/>
    </g>
    <g clip-path="url(#p6971d6b27e)">
     <use xlink:href="#C0_0_3e62d02396" x="15.531252" y="319.142099" style="fill: #2a7ab9; stroke: #2a7ab9"/>
    </g>
    <g clip-path="url(#p6971d6b27e)">
     <use xlink:href="#C0_0_3e62d02396" x="15.905078" y="318.006159" style="fill: #d3e4f3; stroke: #d3e4f3"/>
    </g>
    <g clip-path="url(#p6971d6b27e)">
     <use xlink:href="#C0_0_3e62d02396" x="16.652731" y="316.870218" style="fill: #eff6fc; stroke: #eff6fc"/>
    </g>
    <g clip-path="url(#p6971d6b27e)">
     <use xlink:href="#C0_0_3e62d02396" x="17.026557" y="315.734277" style="fill: #a4cce3; stroke: #a4cce3"/>
    </g>
    <g clip-path="url(#p6971d6b27e)">
     <use xlink:href="#C0_0_3e62d02396" x="17.400384" y="315.734277" style="fill: #c7dbef; stroke: #c7dbef"/>
    </g>
    <g clip-path="url(#p6971d6b27e)">
     <use xlink:href="#C0_0_3e62d02396" x="17.77421" y="314.598336" style="fill: #d7e6f5; stroke: #d7e6f5"/>
    </g>
    <g clip-path="url(#p6971d6b27e)">
     <use xlink:href="#C0_0_3e62d02396" x="18.148036" y="314.598336" style="fill: #4e9acb; stroke: #4e9acb"/>
    </g>
    <g clip-path="url(#p6971d6b27e)">
     <use xlink:href="#C0_0_3e62d02396" x="18.521863" y="313.462396" style="fill: #eff6fc; stroke: #eff6fc"/>
    </g>
    <g clip-path="url(#p6971d6b27e)">
     <use xlink:href="#C0_0_3e62d02396" x="19.269515" y="312.326455" style="fill: #f1f7fd; stroke: #f1f7fd"/>
    </g>
    <g clip-path="url(#p6971d6b27e)">
     <use xlink:href="#C0_0_3e62d02396" x="19.643342" y="311.190514" style="fill: #87bddc; stroke: #87bddc"/>
    </g>
    <g clip-path="url(#p6971d6b27e)">
     <use xlink:href="#C0_0_3e62d02396" x="20.017168" y="311.190514" style="fill: #c3daee; stroke: #c3daee"/>
    </g>
    <g clip-path="url(#p6971d6b27e)">
     <use xlink:href="#C0_0_3e62d02396" x="20.390995" y="310.054573" style="fill: #bad6eb; stroke: #bad6eb"/>
    </g>
    <g clip-path="url(#p6971d6b27e)">
     <use xlink:href="#C0_0_3e62d02396" x="20.764821" y="310.054573" style="fill: #3e8ec4; stroke: #3e8ec4"/>
    </g>
    <g clip-path="url(#p6971d6b27e)">
     <use xlink:href="#C0_0_3e62d02396" x="21.138647" y="308.918632" style="fill: #ccdff1; stroke: #ccdff1"/>
    </g>
    <g clip-path="url(#p6971d6b27e)">
     <use xlink:href="#C0_0_3e62d02396" x="21.8863" y="307.782692" style="fill: #add0e6; stroke: #add0e6"/>
    </g>
    <g clip-path="url(#p6971d6b27e)">
     <use xlink:href="#C0_0_3e62d02396" x="22.260126" y="306.646751" style="fill: #3a8ac2; stroke: #3a8ac2"/>
    </g>
    <g clip-path="url(#p6971d6b27e)">
     <use xlink:href="#C0_0_3e62d02396" x="22.633953" y="306.646751" style="fill: #6dafd7; stroke: #6dafd7"/>
    </g>
    <g clip-path="url(#p6971d6b27e)">
     <use xlink:href="#C0_0_3e62d02396" x="23.007779" y="305.51081" style="fill: #56a0ce; stroke: #56a0ce"/>
    </g>
    <g clip-path="url(#p6971d6b27e)">
     <use xlink:href="#C0_0_3e62d02396" x="23.381605" y="305.51081" style="fill: #1d6cb1; stroke: #1d6cb1"/>
    </g>
    <g clip-path="url(#p6971d6b27e)">
     <use xlink:href="#C0_0_3e62d02396" x="23.755432" y="304.374869" style="fill: #529dcc; stroke: #529dcc"/>
    </g>
    <g clip-path="url(#p6971d6b27e)">
     <use xlink:href="#C0_0_3e62d02396" x="24.503084" y="303.238929" style="fill: #4090c5; stroke: #4090c5"/>
    </g>
    <g clip-path="url(#p6971d6b27e)">
     <use xlink:href="#C0_0_3e62d02396" x="24.876911" y="302.102988" style="fill: #105ba4; stroke: #105ba4"/>
    </g>
    <g clip-path="url(#p6971d6b27e)">
     <use xlink:href="#C0_0_3e62d02396" x="25.250737" y="302.102988" style="fill: #206fb4; stroke: #206fb4"/>
    </g>
    <g clip-path="url(#p6971d6b27e)">
     <use xlink:href="#C0_0_3e62d02396" x="25.624564" y="300.967047" style="fill: #1c6ab0; stroke: #1c6ab0"/>
    </g>
    <g clip-path="url(#p6971d6b27e)">
     <use xlink:href="#C0_0_3e62d02396" x="25.99839" y="300.967047" style="fill: #0b559f; stroke: #0b559f"/>
    </g>
    <g clip-path="url(#p6971d6b27e)">
     <use xlink:href="#C0_0_3e62d02396" x="26.372216" y="299.831106" style="fill: #1562a9; stroke: #1562a9"/>
    </g>
    <g clip-path="url(#p6971d6b27e)">
     <use xlink:href="#C0_0_3e62d02396" x="27.119869" y="298.695166" style="fill: #0d57a1; stroke: #0d57a1"/>
    </g>
    <g clip-path="url(#p6971d6b27e)">
     <use xlink:href="#C0_0_3e62d02396" x="27.493695" y="297.559225" style="fill: #083d7f; stroke: #083d7f"/>
    </g>
    <g clip-path="url(#p6971d6b27e)">
     <use xlink:href="#C0_0_3e62d02396" x="27.867522" y="297.559225" style="fill: #084d96; stroke: #084d96"/>
    </g>
    <g clip-path="url(#p6971d6b27e)">
     <use xlink:href="#C0_0_3e62d02396" x="28.241348" y="296.423284" style="fill: #08478d; stroke: #08478d"/>
    </g>
    <g clip-path="url(#p6971d6b27e)">
     <use xlink:href="#C0_0_3e62d02396" x="28.615174" y="296.423284" style="fill: #084082; stroke: #084082"/>
    </g>
    <g clip-path="url(#p6971d6b27e)">
     <use xlink:href="#C0_0_3e62d02396" x="28.989001" y="295.287343" style="fill: #084184; stroke: #084184"/>
    </g>
    <g clip-path="url(#p6971d6b27e)">
     <use xlink:href="#C0_0_3e62d02396" x="29.736653" y="294.151403" style="fill: #083b7c; stroke: #083b7c"/>
    </g>
    <g clip-path="url(#p6971d6b27e)">
     <use xlink:href="#C0_0_3e62d02396" x="30.11048" y="293.015462" style="fill: #083573; stroke: #083573"/>
    </g>
    <g clip-path="url(#p6971d6b27e)">
     <use xlink:href="#C0_0_3e62d02396" x="30.484306" y="293.015462" style="fill: #083a7a; stroke: #083a7a"/>
    </g>
    <g clip-path="url(#p6971d6b27e)">
     <use xlink:href="#C0_0_3e62d02396" x="30.858132" y="291.879521" style="fill: #083573; stroke: #083573"/>
    </g>
    <g clip-path="url(#p6971d6b27e)">
     <use xlink:href="#C0_0_3e62d02396" x="31.231959" y="291.879521" style="fill: #083471; stroke: #083471"/>
    </g>
    <g clip-path="url(#p6971d6b27e)">
     <use xlink:href="#C0_0_3e62d02396" x="31.605785" y="290.74358" style="fill: #083370; stroke: #083370"/>
    </g>
    <g clip-path="url(#p6971d6b27e)">
     <use xlink:href="#C0_0_3e62d02396" x="32.353438" y="289.607639" style="fill: #08326e; stroke: #08326e"/>
    </g>
    <g clip-path="url(#p6971d6b27e)">
     <use xlink:href="#C0_0_3e62d02396" x="32.727264" y="288.471699" style="fill: #08306b; stroke: #08306b"/>
    </g>
    <g clip-path="url(#p6971d6b27e)">
     <use xlink:href="#C0_0_3e62d02396" x="33.101091" y="288.471699" style="fill: #08326e; stroke: #08326e"/>
    </g>
    <g clip-path="url(#p6971d6b27e)">
     <use xlink:href="#C0_0_3e62d02396" x="33.474917" y="287.335758" style="fill: #08316d; stroke: #08316d"/>
    </g>
    <g clip-path="url(#p6971d6b27e)">
     <use xlink:href="#C0_0_3e62d02396" x="33.848743" y="287.335758" style="fill: #08316d; stroke: #08316d"/>
    </g>
    <g clip-path="url(#p6971d6b27e)">
     <use xlink:href="#C0_0_3e62d02396" x="34.22257" y="286.199817" style="fill: #08316d; stroke: #08316d"/>
    </g>
    <g clip-path="url(#p6971d6b27e)">
     <use xlink:href="#C0_0_3e62d02396" x="34.970222" y="285.063876" style="fill: #08306b; stroke: #08306b"/>
    </g>
    <g clip-path="url(#p6971d6b27e)">
     <use xlink:href="#C0_0_3e62d02396" x="35.344049" y="283.927936" style="fill: #08306b; stroke: #08306b"/>
    </g>
    <g clip-path="url(#p6971d6b27e)">
     <use xlink:href="#C0_0_3e62d02396" x="36.091701" y="282.791995" style="fill: #08306b; stroke: #08306b"/>
    </g>
    <g clip-path="url(#p6971d6b27e)">
     <use xlink:href="#C0_0_3e62d02396" x="36.465528" y="282.791995" style="fill: #08306b; stroke: #08306b"/>
    </g>
    <g clip-path="url(#p6971d6b27e)">
     <use xlink:href="#C0_0_3e62d02396" x="36.839354" y="281.656054" style="fill: #08306b; stroke: #08306b"/>
    </g>
    <g clip-path="url(#p6971d6b27e)">
     <use xlink:href="#C0_0_3e62d02396" x="40.203791" y="275.97635" style="fill: #08306b; stroke: #08306b"/>
    </g>
    <g clip-path="url(#p6971d6b27e)">
     <use xlink:href="#C0_0_3e62d02396" x="42.820576" y="271.432587" style="fill: #08306b; stroke: #08306b"/>
    </g>
    <g clip-path="url(#p6971d6b27e)">
     <use xlink:href="#C0_0_3e62d02396" x="5.99868" y="335.61324" style="fill: #08306b; stroke: #08306b"/>
    </g>
    <g clip-path="url(#p6971d6b27e)">
     <use xlink:href="#C0_0_3e62d02396" x="6.372506" y="334.4773" style="fill: #08306b; stroke: #08306b"/>
    </g>
    <g clip-path="url(#p6971d6b27e)">
     <use xlink:href="#C0_0_3e62d02396" x="7.120159" y="333.341359" style="fill: #08306b; stroke: #08306b"/>
    </g>
    <g clip-path="url(#p6971d6b27e)">
     <use xlink:href="#C0_0_3e62d02396" x="7.493985" y="332.205418" style="fill: #08306b; stroke: #08306b"/>
    </g>
    <g clip-path="url(#p6971d6b27e)">
     <use xlink:href="#C0_0_3e62d02396" x="7.867812" y="332.205418" style="fill: #08316d; stroke: #08316d"/>
    </g>
    <g clip-path="url(#p6971d6b27e)">
     <use xlink:href="#C0_0_3e62d02396" x="8.241638" y="331.069477" style="fill: #08326e; stroke: #08326e"/>
    </g>
    <g clip-path="url(#p6971d6b27e)">
     <use xlink:href="#C0_0_3e62d02396" x="8.615464" y="331.069477" style="fill: #083370; stroke: #083370"/>
    </g>
    <g clip-path="url(#p6971d6b27e)">
     <use xlink:href="#C0_0_3e62d02396" x="8.989291" y="329.933537" style="fill: #083674; stroke: #083674"/>
    </g>
    <g clip-path="url(#p6971d6b27e)">
     <use xlink:href="#C0_0_3e62d02396" x="9.736943" y="328.797596" style="fill: #084082; stroke: #084082"/>
    </g>
    <g clip-path="url(#p6971d6b27e)">
     <use xlink:href="#C0_0_3e62d02396" x="10.11077" y="327.661655" style="fill: #083a7a; stroke: #083a7a"/>
    </g>
    <g clip-path="url(#p6971d6b27e)">
     <use xlink:href="#C0_0_3e62d02396" x="10.484596" y="327.661655" style="fill: #08488e; stroke: #08488e"/>
    </g>
    <g clip-path="url(#p6971d6b27e)">
     <use xlink:href="#C0_0_3e62d02396" x="10.858423" y="326.525714" style="fill: #08509b; stroke: #08509b"/>
    </g>
    <g clip-path="url(#p6971d6b27e)">
     <use xlink:href="#C0_0_3e62d02396" x="11.232249" y="326.525714" style="fill: #08509b; stroke: #08509b"/>
    </g>
    <g clip-path="url(#p6971d6b27e)">
     <use xlink:href="#C0_0_3e62d02396" x="11.606075" y="325.389774" style="fill: #206fb4; stroke: #206fb4"/>
    </g>
    <g clip-path="url(#p6971d6b27e)">
     <use xlink:href="#C0_0_3e62d02396" x="12.353728" y="324.253833" style="fill: #3282be; stroke: #3282be"/>
    </g>
    <g clip-path="url(#p6971d6b27e)">
     <use xlink:href="#C0_0_3e62d02396" x="12.727554" y="323.117892" style="fill: #0b559f; stroke: #0b559f"/>
    </g>
    <g clip-path="url(#p6971d6b27e)">
     <use xlink:href="#C0_0_3e62d02396" x="13.101381" y="323.117892" style="fill: #4997c9; stroke: #4997c9"/>
    </g>
    <g clip-path="url(#p6971d6b27e)">
     <use xlink:href="#C0_0_3e62d02396" x="13.475207" y="321.981951" style="fill: #4191c6; stroke: #4191c6"/>
    </g>
    <g clip-path="url(#p6971d6b27e)">
     <use xlink:href="#C0_0_3e62d02396" x="13.849033" y="321.981951" style="fill: #3888c1; stroke: #3888c1"/>
    </g>
    <g clip-path="url(#p6971d6b27e)">
     <use xlink:href="#C0_0_3e62d02396" x="14.22286" y="320.846011" style="fill: #9ac8e0; stroke: #9ac8e0"/>
    </g>
    <g clip-path="url(#p6971d6b27e)">
     <use xlink:href="#C0_0_3e62d02396" x="14.970512" y="319.71007" style="fill: #bcd7eb; stroke: #bcd7eb"/>
    </g>
    <g clip-path="url(#p6971d6b27e)">
     <use xlink:href="#C0_0_3e62d02396" x="15.344339" y="318.574129" style="fill: #2575b7; stroke: #2575b7"/>
    </g>
    <g clip-path="url(#p6971d6b27e)">
     <use xlink:href="#C0_0_3e62d02396" x="15.718165" y="318.574129" style="fill: #bfd8ed; stroke: #bfd8ed"/>
    </g>
    <g clip-path="url(#p6971d6b27e)">
     <use xlink:href="#C0_0_3e62d02396" x="16.091991" y="317.438188" style="fill: #bcd7eb; stroke: #bcd7eb"/>
    </g>
    <g clip-path="url(#p6971d6b27e)">
     <use xlink:href="#C0_0_3e62d02396" x="16.465818" y="317.438188" style="fill: #99c7e0; stroke: #99c7e0"/>
    </g>
    <g clip-path="url(#p6971d6b27e)">
     <use xlink:href="#C0_0_3e62d02396" x="16.839644" y="316.302247" style="fill: #e6f0f9; stroke: #e6f0f9"/>
    </g>
    <g clip-path="url(#p6971d6b27e)">
     <use xlink:href="#C0_0_3e62d02396" x="17.587297" y="315.166307" style="fill: #f7fbff; stroke: #f7fbff"/>
    </g>
    <g clip-path="url(#p6971d6b27e)">
     <use xlink:href="#C0_0_3e62d02396" x="17.961123" y="314.030366" style="fill: #2676b8; stroke: #2676b8"/>
    </g>
    <g clip-path="url(#p6971d6b27e)">
     <use xlink:href="#C0_0_3e62d02396" x="18.33495" y="314.030366" style="fill: #e5eff9; stroke: #e5eff9"/>
    </g>
    <g clip-path="url(#p6971d6b27e)">
     <use xlink:href="#C0_0_3e62d02396" x="18.708776" y="312.894425" style="fill: #c2d9ee; stroke: #c2d9ee"/>
    </g>
    <g clip-path="url(#p6971d6b27e)">
     <use xlink:href="#C0_0_3e62d02396" x="19.082602" y="312.894425" style="fill: #abd0e6; stroke: #abd0e6"/>
    </g>
    <g clip-path="url(#p6971d6b27e)">
     <use xlink:href="#C0_0_3e62d02396" x="19.456429" y="311.758484" style="fill: #e8f1fa; stroke: #e8f1fa"/>
    </g>
    <g clip-path="url(#p6971d6b27e)">
     <use xlink:href="#C0_0_3e62d02396" x="19.830255" y="311.758484" style="fill: #083b7c; stroke: #083b7c"/>
    </g>
    <g clip-path="url(#p6971d6b27e)">
     <use xlink:href="#C0_0_3e62d02396" x="20.204081" y="310.622544" style="fill: #d0e1f2; stroke: #d0e1f2"/>
    </g>
    <g clip-path="url(#p6971d6b27e)">
     <use xlink:href="#C0_0_3e62d02396" x="20.577908" y="309.486603" style="fill: #105ba4; stroke: #105ba4"/>
    </g>
    <g clip-path="url(#p6971d6b27e)">
     <use xlink:href="#C0_0_3e62d02396" x="20.951734" y="309.486603" style="fill: #bdd7ec; stroke: #bdd7ec"/>
    </g>
    <g clip-path="url(#p6971d6b27e)">
     <use xlink:href="#C0_0_3e62d02396" x="21.32556" y="308.350662" style="fill: #79b5d9; stroke: #79b5d9"/>
    </g>
    <g clip-path="url(#p6971d6b27e)">
     <use xlink:href="#C0_0_3e62d02396" x="21.699387" y="308.350662" style="fill: #6fb0d7; stroke: #6fb0d7"/>
    </g>
    <g clip-path="url(#p6971d6b27e)">
     <use xlink:href="#C0_0_3e62d02396" x="22.073213" y="307.214721" style="fill: #91c3de; stroke: #91c3de"/>
    </g>
    <g clip-path="url(#p6971d6b27e)">
     <use xlink:href="#C0_0_3e62d02396" x="22.44704" y="307.214721" style="fill: #084285; stroke: #084285"/>
    </g>
    <g clip-path="url(#p6971d6b27e)">
     <use xlink:href="#C0_0_3e62d02396" x="22.820866" y="306.078781" style="fill: #7cb7da; stroke: #7cb7da"/>
    </g>
    <g clip-path="url(#p6971d6b27e)">
     <use xlink:href="#C0_0_3e62d02396" x="23.194692" y="304.94284" style="fill: #084285; stroke: #084285"/>
    </g>
    <g clip-path="url(#p6971d6b27e)">
     <use xlink:href="#C0_0_3e62d02396" x="23.568519" y="304.94284" style="fill: #56a0ce; stroke: #56a0ce"/>
    </g>
    <g clip-path="url(#p6971d6b27e)">
     <use xlink:href="#C0_0_3e62d02396" x="23.942345" y="303.806899" style="fill: #2a7ab9; stroke: #2a7ab9"/>
    </g>
    <g clip-path="url(#p6971d6b27e)">
     <use xlink:href="#C0_0_3e62d02396" x="24.316171" y="303.806899" style="fill: #2b7bba; stroke: #2b7bba"/>
    </g>
    <g clip-path="url(#p6971d6b27e)">
     <use xlink:href="#C0_0_3e62d02396" x="24.689998" y="302.670958" style="fill: #3383be; stroke: #3383be"/>
    </g>
    <g clip-path="url(#p6971d6b27e)">
     <use xlink:href="#C0_0_3e62d02396" x="25.063824" y="302.670958" style="fill: #083c7d; stroke: #083c7d"/>
    </g>
    <g clip-path="url(#p6971d6b27e)">
     <use xlink:href="#C0_0_3e62d02396" x="25.43765" y="301.535018" style="fill: #2676b8; stroke: #2676b8"/>
    </g>
    <g clip-path="url(#p6971d6b27e)">
     <use xlink:href="#C0_0_3e62d02396" x="25.811477" y="300.399077" style="fill: #083370; stroke: #083370"/>
    </g>
    <g clip-path="url(#p6971d6b27e)">
     <use xlink:href="#C0_0_3e62d02396" x="26.185303" y="300.399077" style="fill: #1865ac; stroke: #1865ac"/>
    </g>
    <g clip-path="url(#p6971d6b27e)">
     <use xlink:href="#C0_0_3e62d02396" x="26.559129" y="299.263136" style="fill: #08519c; stroke: #08519c"/>
    </g>
    <g clip-path="url(#p6971d6b27e)">
     <use xlink:href="#C0_0_3e62d02396" x="26.932956" y="299.263136" style="fill: #084f99; stroke: #084f99"/>
    </g>
    <g clip-path="url(#p6971d6b27e)">
     <use xlink:href="#C0_0_3e62d02396" x="27.306782" y="298.127195" style="fill: #0a539e; stroke: #0a539e"/>
    </g>
    <g clip-path="url(#p6971d6b27e)">
     <use xlink:href="#C0_0_3e62d02396" x="27.680608" y="298.127195" style="fill: #083776; stroke: #083776"/>
    </g>
    <g clip-path="url(#p6971d6b27e)">
     <use xlink:href="#C0_0_3e62d02396" x="28.054435" y="296.991254" style="fill: #084f99; stroke: #084f99"/>
    </g>
    <g clip-path="url(#p6971d6b27e)">
     <use xlink:href="#C0_0_3e62d02396" x="28.428261" y="295.855314" style="fill: #08316d; stroke: #08316d"/>
    </g>
    <g clip-path="url(#p6971d6b27e)">
     <use xlink:href="#C0_0_3e62d02396" x="28.802088" y="295.855314" style="fill: #08478d; stroke: #08478d"/>
    </g>
    <g clip-path="url(#p6971d6b27e)">
     <use xlink:href="#C0_0_3e62d02396" x="29.175914" y="294.719373" style="fill: #083b7c; stroke: #083b7c"/>
    </g>
    <g clip-path="url(#p6971d6b27e)">
     <use xlink:href="#C0_0_3e62d02396" x="29.54974" y="294.719373" style="fill: #083b7c; stroke: #083b7c"/>
    </g>
    <g clip-path="url(#p6971d6b27e)">
     <use xlink:href="#C0_0_3e62d02396" x="29.923567" y="293.583432" style="fill: #083b7c; stroke: #083b7c"/>
    </g>
    <g clip-path="url(#p6971d6b27e)">
     <use xlink:href="#C0_0_3e62d02396" x="30.297393" y="293.583432" style="fill: #083370; stroke: #083370"/>
    </g>
    <g clip-path="url(#p6971d6b27e)">
     <use xlink:href="#C0_0_3e62d02396" x="30.671219" y="292.447491" style="fill: #083979; stroke: #083979"/>
    </g>
    <g clip-path="url(#p6971d6b27e)">
     <use xlink:href="#C0_0_3e62d02396" x="31.418872" y="291.311551" style="fill: #083573; stroke: #083573"/>
    </g>
    <g clip-path="url(#p6971d6b27e)">
     <use xlink:href="#C0_0_3e62d02396" x="31.792698" y="290.17561" style="fill: #083471; stroke: #083471"/>
    </g>
    <g clip-path="url(#p6971d6b27e)">
     <use xlink:href="#C0_0_3e62d02396" x="32.166525" y="290.17561" style="fill: #08326e; stroke: #08326e"/>
    </g>
    <g clip-path="url(#p6971d6b27e)">
     <use xlink:href="#C0_0_3e62d02396" x="32.540351" y="289.039669" style="fill: #083370; stroke: #083370"/>
    </g>
    <g clip-path="url(#p6971d6b27e)">
     <use xlink:href="#C0_0_3e62d02396" x="32.914177" y="289.039669" style="fill: #08306b; stroke: #08306b"/>
    </g>
    <g clip-path="url(#p6971d6b27e)">
     <use xlink:href="#C0_0_3e62d02396" x="33.288004" y="287.903728" style="fill: #08326e; stroke: #08326e"/>
    </g>
    <g clip-path="url(#p6971d6b27e)">
     <use xlink:href="#C0_0_3e62d02396" x="34.035656" y="286.767788" style="fill: #08306b; stroke: #08306b"/>
    </g>
    <g clip-path="url(#p6971d6b27e)">
     <use xlink:href="#C0_0_3e62d02396" x="34.409483" y="285.631847" style="fill: #08306b; stroke: #08306b"/>
    </g>
    <g clip-path="url(#p6971d6b27e)">
     <use xlink:href="#C0_0_3e62d02396" x="34.783309" y="285.631847" style="fill: #08306b; stroke: #08306b"/>
    </g>
    <g clip-path="url(#p6971d6b27e)">
     <use xlink:href="#C0_0_3e62d02396" x="35.157136" y="284.495906" style="fill: #08306b; stroke: #08306b"/>
    </g>
    <g clip-path="url(#p6971d6b27e)">
     <use xlink:href="#C0_0_3e62d02396" x="35.530962" y="284.495906" style="fill: #08306b; stroke: #08306b"/>
    </g>
    <g clip-path="url(#p6971d6b27e)">
     <use xlink:href="#C0_0_3e62d02396" x="35.904788" y="283.359965" style="fill: #08306b; stroke: #08306b"/>
    </g>
    <g clip-path="url(#p6971d6b27e)">
     <use xlink:href="#C0_0_3e62d02396" x="36.652441" y="282.224025" style="fill: #08306b; stroke: #08306b"/>
    </g>
    <g clip-path="url(#p6971d6b27e)">
     <use xlink:href="#C0_0_3e62d02396" x="37.400094" y="281.088084" style="fill: #08306b; stroke: #08306b"/>
    </g>
    <g clip-path="url(#p6971d6b27e)">
     <use xlink:href="#C0_0_3e62d02396" x="38.147746" y="279.952143" style="fill: #08306b; stroke: #08306b"/>
    </g>
    <g clip-path="url(#p6971d6b27e)">
     <use xlink:href="#C0_0_3e62d02396" x="38.521573" y="278.816202" style="fill: #08306b; stroke: #08306b"/>
    </g>
   </g>
   <g id="line2d_1">
    <path d="M 141.12 269.568 
L 236.16 104.953891 
L 331.2 269.568 
L 141.12 269.568 
" clip-path="url(#p6971d6b27e)" style="fill: none; stroke: #ffa500; stroke-width: 1.5; stroke-linecap: round"/>
   </g>
   <g id="line2d_2">
    <path d="M 236.16 214.69663 
L 236.16 269.568 
" clip-path="url(#p6971d6b27e)" style="fill: none; stroke: #ffa500; stroke-width: 1.5; stroke-linecap: round"/>
   </g>
   <g id="line2d_3">
    <path d="M 236.16 214.69663 
L 188.64 187.260946 
" clip-path="url(#p6971d6b27e)" style="fill: none; stroke: #ffa500; stroke-width: 1.5; stroke-linecap: round"/>
   </g>
   <g id="line2d_4">
    <path d="M 236.16 214.69663 
L 283.68 187.260946 
" clip-path="url(#p6971d6b27e)" style="fill: none; stroke: #ffa500; stroke-width: 1.5; stroke-linecap: round"/>
   </g>
   <g id="text_1">
    <!-- p(IAC_(0.05, 0.1)) = 1.000 -->
    <g style="fill: #262626" transform="translate(62.254688 286.2762) scale(0.12 -0.12)">
     <defs>
      <path id="DejaVuSans-70" d="M 1159 525 
L 1159 -1331 
L 581 -1331 
L 581 3500 
L 1159 3500 
L 1159 2969 
Q 1341 3281 1617 3432 
Q 1894 3584 2278 3584 
Q 2916 3584 3314 3078 
Q 3713 2572 3713 1747 
Q 3713 922 3314 415 
Q 2916 -91 2278 -91 
Q 1894 -91 1617 61 
Q 1341 213 1159 525 
z
M 3116 1747 
Q 3116 2381 2855 2742 
Q 2594 3103 2138 3103 
Q 1681 3103 1420 2742 
Q 1159 2381 1159 1747 
Q 1159 1113 1420 752 
Q 1681 391 2138 391 
Q 2594 391 2855 752 
Q 3116 1113 3116 1747 
z
" transform="scale(0.015625)"/>
      <path id="DejaVuSans-28" d="M 1984 4856 
Q 1566 4138 1362 3434 
Q 1159 2731 1159 2009 
Q 1159 1288 1364 580 
Q 1569 -128 1984 -844 
L 1484 -844 
Q 1016 -109 783 600 
Q 550 1309 550 2009 
Q 550 2706 781 3412 
Q 1013 4119 1484 4856 
L 1984 4856 
z
" transform="scale(0.015625)"/>
      <path id="DejaVuSans-49" d="M 628 4666 
L 1259 4666 
L 1259 0 
L 628 0 
L 628 4666 
z
" transform="scale(0.015625)"/>
      <path id="DejaVuSans-41" d="M 2188 4044 
L 1331 1722 
L 3047 1722 
L 2188 4044 
z
M 1831 4666 
L 2547 4666 
L 4325 0 
L 3669 0 
L 3244 1197 
L 1141 1197 
L 716 0 
L 50 0 
L 1831 4666 
z
" transform="scale(0.015625)"/>
      <path id="DejaVuSans-43" d="M 4122 4306 
L 4122 3641 
Q 3803 3938 3442 4084 
Q 3081 4231 2675 4231 
Q 1875 4231 1450 3742 
Q 1025 3253 1025 2328 
Q 1025 1406 1450 917 
Q 1875 428 2675 428 
Q 3081 428 3442 575 
Q 3803 722 4122 1019 
L 4122 359 
Q 3791 134 3420 21 
Q 3050 -91 2638 -91 
Q 1578 -91 968 557 
Q 359 1206 359 2328 
Q 359 3453 968 4101 
Q 1578 4750 2638 4750 
Q 3056 4750 3426 4639 
Q 3797 4528 4122 4306 
z
" transform="scale(0.015625)"/>
      <path id="DejaVuSans-5f" d="M 3263 -1063 
L 3263 -1509 
L -63 -1509 
L -63 -1063 
L 3263 -1063 
z
" transform="scale(0.015625)"/>
      <path id="DejaVuSans-30" d="M 2034 4250 
Q 1547 4250 1301 3770 
Q 1056 3291 1056 2328 
Q 1056 1369 1301 889 
Q 1547 409 2034 409 
Q 2525 409 2770 889 
Q 3016 1369 3016 2328 
Q 3016 3291 2770 3770 
Q 2525 4250 2034 4250 
z
M 2034 4750 
Q 2819 4750 3233 4129 
Q 3647 3509 3647 2328 
Q 3647 1150 3233 529 
Q 2819 -91 2034 -91 
Q 1250 -91 836 529 
Q 422 1150 422 2328 
Q 422 3509 836 4129 
Q 1250 4750 2034 4750 
z
" transform="scale(0.015625)"/>
      <path id="DejaVuSans-2e" d="M 684 794 
L 1344 794 
L 1344 0 
L 684 0 
L 684 794 
z
" transform="scale(0.015625)"/>
      <path id="DejaVuSans-35" d="M 691 4666 
L 3169 4666 
L 3169 4134 
L 1269 4134 
L 1269 2991 
Q 1406 3038 1543 3061 
Q 1681 3084 1819 3084 
Q 2600 3084 3056 2656 
Q 3513 2228 3513 1497 
Q 3513 744 3044 326 
Q 2575 -91 1722 -91 
Q 1428 -91 1123 -41 
Q 819 9 494 109 
L 494 744 
Q 775 591 1075 516 
Q 1375 441 1709 441 
Q 2250 441 2565 725 
Q 2881 1009 2881 1497 
Q 2881 1984 2565 2268 
Q 2250 2553 1709 2553 
Q 1456 2553 1204 2497 
Q 953 2441 691 2322 
L 691 4666 
z
" transform="scale(0.015625)"/>
      <path id="DejaVuSans-2c" d="M 750 794 
L 1409 794 
L 1409 256 
L 897 -744 
L 494 -744 
L 750 256 
L 750 794 
z
" transform="scale(0.015625)"/>
      <path id="DejaVuSans-20" transform="scale(0.015625)"/>
      <path id="DejaVuSans-31" d="M 794 531 
L 1825 531 
L 1825 4091 
L 703 3866 
L 703 4441 
L 1819 4666 
L 2450 4666 
L 2450 531 
L 3481 531 
L 3481 0 
L 794 0 
L 794 531 
z
" transform="scale(0.015625)"/>
      <path id="DejaVuSans-29" d="M 513 4856 
L 1013 4856 
Q 1481 4119 1714 3412 
Q 1947 2706 1947 2009 
Q 1947 1309 1714 600 
Q 1481 -109 1013 -844 
L 513 -844 
Q 928 -128 1133 580 
Q 1338 1288 1338 2009 
Q 1338 2731 1133 3434 
Q 928 4138 513 4856 
z
" transform="scale(0.015625)"/>
      <path id="DejaVuSans-3d" d="M 678 2906 
L 4684 2906 
L 4684 2381 
L 678 2381 
L 678 2906 
z
M 678 1631 
L 4684 1631 
L 4684 1100 
L 678 1100 
L 678 1631 
z
" transform="scale(0.015625)"/>
     </defs>
     <use xlink:href="#DejaVuSans-70"/>
     <use xlink:href="#DejaVuSans-28" x="63.476562"/>
     <use xlink:href="#DejaVuSans-49" x="102.490234"/>
     <use xlink:href="#DejaVuSans-41" x="131.982422"/>
     <use xlink:href="#DejaVuSans-43" x="198.640625"/>
     <use xlink:href="#DejaVuSans-5f" x="268.464844"/>
     <use xlink:href="#DejaVuSans-28" x="318.464844"/>
     <use xlink:href="#DejaVuSans-30" x="357.478516"/>
     <use xlink:href="#DejaVuSans-2e" x="421.101562"/>
     <use xlink:href="#DejaVuSans-30" x="452.888672"/>
     <use xlink:href="#DejaVuSans-35" x="516.511719"/>
     <use xlink:href="#DejaVuSans-2c" x="580.134766"/>
     <use xlink:href="#DejaVuSans-20" x="611.921875"/>
     <use xlink:href="#DejaVuSans-30" x="643.708984"/>
     <use xlink:href="#DejaVuSans-2e" x="707.332031"/>
     <use xlink:href="#DejaVuSans-31" x="739.119141"/>
     <use xlink:href="#DejaVuSans-29" x="802.742188"/>
     <use xlink:href="#DejaVuSans-29" x="841.755859"/>
     <use xlink:href="#DejaVuSans-20" x="880.769531"/>
     <use xlink:href="#DejaVuSans-3d" x="912.556641"/>
     <use xlink:href="#DejaVuSans-20" x="996.345703"/>
     <use xlink:href="#DejaVuSans-31" x="1028.132812"/>
     <use xlink:href="#DejaVuSans-2e" x="1091.755859"/>
     <use xlink:href="#DejaVuSans-30" x="1123.542969"/>
     <use xlink:href="#DejaVuSans-30" x="1187.166016"/>
     <use xlink:href="#DejaVuSans-30" x="1250.789062"/>
    </g>
   </g>
   <g id="text_2">
    <!-- p(rope) = 0.000 -->
    <g style="fill: #262626" transform="translate(188.146875 102.458266) scale(0.12 -0.12)">
     <defs>
      <path id="DejaVuSans-72" d="M 2631 2963 
Q 2534 3019 2420 3045 
Q 2306 3072 2169 3072 
Q 1681 3072 1420 2755 
Q 1159 2438 1159 1844 
L 1159 0 
L 581 0 
L 581 3500 
L 1159 3500 
L 1159 2956 
Q 1341 3275 1631 3429 
Q 1922 3584 2338 3584 
Q 2397 3584 2469 3576 
Q 2541 3569 2628 3553 
L 2631 2963 
z
" transform="scale(0.015625)"/>
      <path id="DejaVuSans-6f" d="M 1959 3097 
Q 1497 3097 1228 2736 
Q 959 2375 959 1747 
Q 959 1119 1226 758 
Q 1494 397 1959 397 
Q 2419 397 2687 759 
Q 2956 1122 2956 1747 
Q 2956 2369 2687 2733 
Q 2419 3097 1959 3097 
z
M 1959 3584 
Q 2709 3584 3137 3096 
Q 3566 2609 3566 1747 
Q 3566 888 3137 398 
Q 2709 -91 1959 -91 
Q 1206 -91 779 398 
Q 353 888 353 1747 
Q 353 2609 779 3096 
Q 1206 3584 1959 3584 
z
" transform="scale(0.015625)"/>
      <path id="DejaVuSans-65" d="M 3597 1894 
L 3597 1613 
L 953 1613 
Q 991 1019 1311 708 
Q 1631 397 2203 397 
Q 2534 397 2845 478 
Q 3156 559 3463 722 
L 3463 178 
Q 3153 47 2828 -22 
Q 2503 -91 2169 -91 
Q 1331 -91 842 396 
Q 353 884 353 1716 
Q 353 2575 817 3079 
Q 1281 3584 2069 3584 
Q 2775 3584 3186 3129 
Q 3597 2675 3597 1894 
z
M 3022 2063 
Q 3016 2534 2758 2815 
Q 2500 3097 2075 3097 
Q 1594 3097 1305 2825 
Q 1016 2553 972 2059 
L 3022 2063 
z
" transform="scale(0.015625)"/>
     </defs>
     <use xlink:href="#DejaVuSans-70"/>
     <use xlink:href="#DejaVuSans-28" x="63.476562"/>
     <use xlink:href="#DejaVuSans-72" x="102.490234"/>
     <use xlink:href="#DejaVuSans-6f" x="141.353516"/>
     <use xlink:href="#DejaVuSans-70" x="202.535156"/>
     <use xlink:href="#DejaVuSans-65" x="266.011719"/>
     <use xlink:href="#DejaVuSans-29" x="327.535156"/>
     <use xlink:href="#DejaVuSans-20" x="366.548828"/>
     <use xlink:href="#DejaVuSans-3d" x="398.335938"/>
     <use xlink:href="#DejaVuSans-20" x="482.125"/>
     <use xlink:href="#DejaVuSans-30" x="513.912109"/>
     <use xlink:href="#DejaVuSans-2e" x="577.535156"/>
     <use xlink:href="#DejaVuSans-30" x="609.322266"/>
     <use xlink:href="#DejaVuSans-30" x="672.945312"/>
     <use xlink:href="#DejaVuSans-30" x="736.568359"/>
    </g>
   </g>
   <g id="text_3">
    <!-- p(IAC_(0.2, 1)) = 0.000 -->
    <g style="fill: #262626" transform="translate(261.876563 286.2762) scale(0.12 -0.12)">
     <defs>
      <path id="DejaVuSans-32" d="M 1228 531 
L 3431 531 
L 3431 0 
L 469 0 
L 469 531 
Q 828 903 1448 1529 
Q 2069 2156 2228 2338 
Q 2531 2678 2651 2914 
Q 2772 3150 2772 3378 
Q 2772 3750 2511 3984 
Q 2250 4219 1831 4219 
Q 1534 4219 1204 4116 
Q 875 4013 500 3803 
L 500 4441 
Q 881 4594 1212 4672 
Q 1544 4750 1819 4750 
Q 2544 4750 2975 4387 
Q 3406 4025 3406 3419 
Q 3406 3131 3298 2873 
Q 3191 2616 2906 2266 
Q 2828 2175 2409 1742 
Q 1991 1309 1228 531 
z
" transform="scale(0.015625)"/>
     </defs>
     <use xlink:href="#DejaVuSans-70"/>
     <use xlink:href="#DejaVuSans-28" x="63.476562"/>
     <use xlink:href="#DejaVuSans-49" x="102.490234"/>
     <use xlink:href="#DejaVuSans-41" x="131.982422"/>
     <use xlink:href="#DejaVuSans-43" x="198.640625"/>
     <use xlink:href="#DejaVuSans-5f" x="268.464844"/>
     <use xlink:href="#DejaVuSans-28" x="318.464844"/>
     <use xlink:href="#DejaVuSans-30" x="357.478516"/>
     <use xlink:href="#DejaVuSans-2e" x="421.101562"/>
     <use xlink:href="#DejaVuSans-32" x="452.888672"/>
     <use xlink:href="#DejaVuSans-2c" x="516.511719"/>
     <use xlink:href="#DejaVuSans-20" x="548.298828"/>
     <use xlink:href="#DejaVuSans-31" x="580.085938"/>
     <use xlink:href="#DejaVuSans-29" x="643.708984"/>
     <use xlink:href="#DejaVuSans-29" x="682.722656"/>
     <use xlink:href="#DejaVuSans-20" x="721.736328"/>
     <use xlink:href="#DejaVuSans-3d" x="753.523438"/>
     <use xlink:href="#DejaVuSans-20" x="837.3125"/>
     <use xlink:href="#DejaVuSans-30" x="869.099609"/>
     <use xlink:href="#DejaVuSans-2e" x="932.722656"/>
     <use xlink:href="#DejaVuSans-30" x="964.509766"/>
     <use xlink:href="#DejaVuSans-30" x="1028.132812"/>
     <use xlink:href="#DejaVuSans-30" x="1091.755859"/>
    </g>
   </g>
  </g>
 </g>
 <defs>
  <clipPath id="p6971d6b27e">
   <rect x="103.104" y="41.472" width="266.112" height="266.112"/>
  </clipPath>
 </defs>
</svg>
