<?xml version="1.0" encoding="utf-8" standalone="no"?>
<!DOCTYPE svg PUBLIC "-//W3C//DTD SVG 1.1//EN"
  "http://www.w3.org/Graphics/SVG/1.1/DTD/svg11.dtd">
<svg xmlns:xlink="http://www.w3.org/1999/xlink" width="460.8pt" height="345.6pt" viewBox="0 0 460.8 345.6" xmlns="http://www.w3.org/2000/svg" version="1.1">
 <metadata>
  <rdf:RDF xmlns:dc="http://purl.org/dc/elements/1.1/" xmlns:cc="http://creativecommons.org/ns#" xmlns:rdf="http://www.w3.org/1999/02/22-rdf-syntax-ns#">
   <cc:Work>
    <dc:type rdf:resource="http://purl.org/dc/dcmitype/StillImage"/>
    <dc:date>2023-04-26T00:12:11.688510</dc:date>
    <dc:format>image/svg+xml</dc:format>
    <dc:creator>
     <cc:Agent>
      <dc:title>Matplotlib v3.6.2, https://matplotlib.org/</dc:title>
     </cc:Agent>
    </dc:creator>
   </cc:Work>
  </rdf:RDF>
 </metadata>
 <defs>
  <style type="text/css">*{stroke-linejoin: round; stroke-linecap: butt}</style>
 </defs>
 <g id="figure_1">
  <g id="patch_1">
   <path d="M 0 345.6 
L 460.8 345.6 
L 460.8 0 
L 0 0 
z
" style="fill: #ffffff"/>
  </g>
  <g id="axes_1">
   <g id="PolyCollection_1">
    <defs>
     <path id="C0_0_86409cbbbe" d="M 141.227823 -75.922787 
L 141.227823 -76.141213 
L 141.12 -76.250427 
L 141.012177 -76.141213 
L 141.012177 -75.922787 
L 141.12 -75.813573 
z
"/>
    </defs>
    <g clip-path="url(#p2338cf3905)">
     <use xlink:href="#C0_0_86409cbbbe" x="167.13904" y="305.865091" style="fill: #08306b; stroke: #08306b"/>
    </g>
    <g clip-path="url(#p2338cf3905)">
     <use xlink:href="#C0_0_86409cbbbe" x="167.785978" y="307.175653" style="fill: #08306b; stroke: #08306b"/>
    </g>
    <g clip-path="url(#p2338cf3905)">
     <use xlink:href="#C0_0_86409cbbbe" x="168.001624" y="307.175653" style="fill: #08306b; stroke: #08306b"/>
    </g>
    <g clip-path="url(#p2338cf3905)">
     <use xlink:href="#C0_0_86409cbbbe" x="169.079855" y="309.141496" style="fill: #08306b; stroke: #08306b"/>
    </g>
    <g clip-path="url(#p2338cf3905)">
     <use xlink:href="#C0_0_86409cbbbe" x="169.511148" y="309.796777" style="fill: #08306b; stroke: #08306b"/>
    </g>
    <g clip-path="url(#p2338cf3905)">
     <use xlink:href="#C0_0_86409cbbbe" x="169.726794" y="310.452058" style="fill: #08306b; stroke: #08306b"/>
    </g>
    <g clip-path="url(#p2338cf3905)">
     <use xlink:href="#C0_0_86409cbbbe" x="169.94244" y="310.452058" style="fill: #08306b; stroke: #08306b"/>
    </g>
    <g clip-path="url(#p2338cf3905)">
     <use xlink:href="#C0_0_86409cbbbe" x="170.158086" y="311.107339" style="fill: #08306b; stroke: #08306b"/>
    </g>
    <g clip-path="url(#p2338cf3905)">
     <use xlink:href="#C0_0_86409cbbbe" x="170.589379" y="311.76262" style="fill: #08306b; stroke: #08306b"/>
    </g>
    <g clip-path="url(#p2338cf3905)">
     <use xlink:href="#C0_0_86409cbbbe" x="170.805025" y="312.417901" style="fill: #08306b; stroke: #08306b"/>
    </g>
    <g clip-path="url(#p2338cf3905)">
     <use xlink:href="#C0_0_86409cbbbe" x="171.020671" y="312.417901" style="fill: #08316d; stroke: #08316d"/>
    </g>
    <g clip-path="url(#p2338cf3905)">
     <use xlink:href="#C0_0_86409cbbbe" x="171.236317" y="313.073182" style="fill: #08306b; stroke: #08306b"/>
    </g>
    <g clip-path="url(#p2338cf3905)">
     <use xlink:href="#C0_0_86409cbbbe" x="171.66761" y="313.728463" style="fill: #08316d; stroke: #08316d"/>
    </g>
    <g clip-path="url(#p2338cf3905)">
     <use xlink:href="#C0_0_86409cbbbe" x="172.098902" y="314.383744" style="fill: #08316d; stroke: #08316d"/>
    </g>
    <g clip-path="url(#p2338cf3905)">
     <use xlink:href="#C0_0_86409cbbbe" x="172.314548" y="315.039025" style="fill: #08326e; stroke: #08326e"/>
    </g>
    <g clip-path="url(#p2338cf3905)">
     <use xlink:href="#C0_0_86409cbbbe" x="172.530194" y="315.039025" style="fill: #08316d; stroke: #08316d"/>
    </g>
    <g clip-path="url(#p2338cf3905)">
     <use xlink:href="#C0_0_86409cbbbe" x="172.745841" y="315.694306" style="fill: #083370; stroke: #083370"/>
    </g>
    <g clip-path="url(#p2338cf3905)">
     <use xlink:href="#C0_0_86409cbbbe" x="172.961487" y="315.694306" style="fill: #08306b; stroke: #08306b"/>
    </g>
    <g clip-path="url(#p2338cf3905)">
     <use xlink:href="#C0_0_86409cbbbe" x="173.177133" y="316.349587" style="fill: #083471; stroke: #083471"/>
    </g>
    <g clip-path="url(#p2338cf3905)">
     <use xlink:href="#C0_0_86409cbbbe" x="173.608425" y="317.004868" style="fill: #083674; stroke: #083674"/>
    </g>
    <g clip-path="url(#p2338cf3905)">
     <use xlink:href="#C0_0_86409cbbbe" x="173.824072" y="317.660149" style="fill: #083573; stroke: #083573"/>
    </g>
    <g clip-path="url(#p2338cf3905)">
     <use xlink:href="#C0_0_86409cbbbe" x="174.039718" y="317.660149" style="fill: #083471; stroke: #083471"/>
    </g>
    <g clip-path="url(#p2338cf3905)">
     <use xlink:href="#C0_0_86409cbbbe" x="174.255364" y="318.31543" style="fill: #083776; stroke: #083776"/>
    </g>
    <g clip-path="url(#p2338cf3905)">
     <use xlink:href="#C0_0_86409cbbbe" x="174.47101" y="318.31543" style="fill: #08326e; stroke: #08326e"/>
    </g>
    <g clip-path="url(#p2338cf3905)">
     <use xlink:href="#C0_0_86409cbbbe" x="174.686656" y="318.970711" style="fill: #083776; stroke: #083776"/>
    </g>
    <g clip-path="url(#p2338cf3905)">
     <use xlink:href="#C0_0_86409cbbbe" x="175.117949" y="319.625992" style="fill: #083d7f; stroke: #083d7f"/>
    </g>
    <g clip-path="url(#p2338cf3905)">
     <use xlink:href="#C0_0_86409cbbbe" x="175.333595" y="320.281273" style="fill: #083979; stroke: #083979"/>
    </g>
    <g clip-path="url(#p2338cf3905)">
     <use xlink:href="#C0_0_86409cbbbe" x="175.549241" y="320.281273" style="fill: #083d7f; stroke: #083d7f"/>
    </g>
    <g clip-path="url(#p2338cf3905)">
     <use xlink:href="#C0_0_86409cbbbe" x="175.764887" y="320.936554" style="fill: #084488; stroke: #084488"/>
    </g>
    <g clip-path="url(#p2338cf3905)">
     <use xlink:href="#C0_0_86409cbbbe" x="175.980534" y="320.936554" style="fill: #083b7c; stroke: #083b7c"/>
    </g>
    <g clip-path="url(#p2338cf3905)">
     <use xlink:href="#C0_0_86409cbbbe" x="176.19618" y="321.591835" style="fill: #08488e; stroke: #08488e"/>
    </g>
    <g clip-path="url(#p2338cf3905)">
     <use xlink:href="#C0_0_86409cbbbe" x="176.627472" y="322.247116" style="fill: #08519c; stroke: #08519c"/>
    </g>
    <g clip-path="url(#p2338cf3905)">
     <use xlink:href="#C0_0_86409cbbbe" x="176.843118" y="322.902397" style="fill: #08488e; stroke: #08488e"/>
    </g>
    <g clip-path="url(#p2338cf3905)">
     <use xlink:href="#C0_0_86409cbbbe" x="177.058764" y="322.902397" style="fill: #084f99; stroke: #084f99"/>
    </g>
    <g clip-path="url(#p2338cf3905)">
     <use xlink:href="#C0_0_86409cbbbe" x="177.274411" y="323.557678" style="fill: #0f5aa3; stroke: #0f5aa3"/>
    </g>
    <g clip-path="url(#p2338cf3905)">
     <use xlink:href="#C0_0_86409cbbbe" x="177.490057" y="323.557678" style="fill: #08468b; stroke: #08468b"/>
    </g>
    <g clip-path="url(#p2338cf3905)">
     <use xlink:href="#C0_0_86409cbbbe" x="177.705703" y="324.212959" style="fill: #1865ac; stroke: #1865ac"/>
    </g>
    <g clip-path="url(#p2338cf3905)">
     <use xlink:href="#C0_0_86409cbbbe" x="178.136995" y="324.86824" style="fill: #2474b7; stroke: #2474b7"/>
    </g>
    <g clip-path="url(#p2338cf3905)">
     <use xlink:href="#C0_0_86409cbbbe" x="178.352642" y="325.523521" style="fill: #0e58a2; stroke: #0e58a2"/>
    </g>
    <g clip-path="url(#p2338cf3905)">
     <use xlink:href="#C0_0_86409cbbbe" x="178.568288" y="325.523521" style="fill: #2272b6; stroke: #2272b6"/>
    </g>
    <g clip-path="url(#p2338cf3905)">
     <use xlink:href="#C0_0_86409cbbbe" x="178.783934" y="326.178802" style="fill: #2979b9; stroke: #2979b9"/>
    </g>
    <g clip-path="url(#p2338cf3905)">
     <use xlink:href="#C0_0_86409cbbbe" x="178.99958" y="326.178802" style="fill: #1b69af; stroke: #1b69af"/>
    </g>
    <g clip-path="url(#p2338cf3905)">
     <use xlink:href="#C0_0_86409cbbbe" x="179.215226" y="326.834083" style="fill: #539ecd; stroke: #539ecd"/>
    </g>
    <g clip-path="url(#p2338cf3905)">
     <use xlink:href="#C0_0_86409cbbbe" x="179.646519" y="327.489364" style="fill: #68acd5; stroke: #68acd5"/>
    </g>
    <g clip-path="url(#p2338cf3905)">
     <use xlink:href="#C0_0_86409cbbbe" x="179.862165" y="328.144645" style="fill: #206fb4; stroke: #206fb4"/>
    </g>
    <g clip-path="url(#p2338cf3905)">
     <use xlink:href="#C0_0_86409cbbbe" x="180.077811" y="328.144645" style="fill: #63a8d3; stroke: #63a8d3"/>
    </g>
    <g clip-path="url(#p2338cf3905)">
     <use xlink:href="#C0_0_86409cbbbe" x="180.293457" y="328.799926" style="fill: #60a7d2; stroke: #60a7d2"/>
    </g>
    <g clip-path="url(#p2338cf3905)">
     <use xlink:href="#C0_0_86409cbbbe" x="180.509104" y="328.799926" style="fill: #4b98ca; stroke: #4b98ca"/>
    </g>
    <g clip-path="url(#p2338cf3905)">
     <use xlink:href="#C0_0_86409cbbbe" x="180.72475" y="329.455207" style="fill: #bcd7eb; stroke: #bcd7eb"/>
    </g>
    <g clip-path="url(#p2338cf3905)">
     <use xlink:href="#C0_0_86409cbbbe" x="181.156042" y="330.110487" style="fill: #cbdef1; stroke: #cbdef1"/>
    </g>
    <g clip-path="url(#p2338cf3905)">
     <use xlink:href="#C0_0_86409cbbbe" x="181.371688" y="330.765768" style="fill: #3686c0; stroke: #3686c0"/>
    </g>
    <g clip-path="url(#p2338cf3905)">
     <use xlink:href="#C0_0_86409cbbbe" x="181.587335" y="330.765768" style="fill: #c8dcf0; stroke: #c8dcf0"/>
    </g>
    <g clip-path="url(#p2338cf3905)">
     <use xlink:href="#C0_0_86409cbbbe" x="181.802981" y="331.421049" style="fill: #bdd7ec; stroke: #bdd7ec"/>
    </g>
    <g clip-path="url(#p2338cf3905)">
     <use xlink:href="#C0_0_86409cbbbe" x="182.018627" y="331.421049" style="fill: #9ac8e0; stroke: #9ac8e0"/>
    </g>
    <g clip-path="url(#p2338cf3905)">
     <use xlink:href="#C0_0_86409cbbbe" x="182.234273" y="332.07633" style="fill: #eaf2fb; stroke: #eaf2fb"/>
    </g>
    <g clip-path="url(#p2338cf3905)">
     <use xlink:href="#C0_0_86409cbbbe" x="182.665565" y="332.731611" style="fill: #f6faff; stroke: #f6faff"/>
    </g>
    <g clip-path="url(#p2338cf3905)">
     <use xlink:href="#C0_0_86409cbbbe" x="182.881212" y="333.386892" style="fill: #3585bf; stroke: #3585bf"/>
    </g>
    <g clip-path="url(#p2338cf3905)">
     <use xlink:href="#C0_0_86409cbbbe" x="183.096858" y="333.386892" style="fill: #d9e7f5; stroke: #d9e7f5"/>
    </g>
    <g clip-path="url(#p2338cf3905)">
     <use xlink:href="#C0_0_86409cbbbe" x="183.312504" y="334.042173" style="fill: #caddf0; stroke: #caddf0"/>
    </g>
    <g clip-path="url(#p2338cf3905)">
     <use xlink:href="#C0_0_86409cbbbe" x="183.52815" y="334.042173" style="fill: #b2d2e8; stroke: #b2d2e8"/>
    </g>
    <g clip-path="url(#p2338cf3905)">
     <use xlink:href="#C0_0_86409cbbbe" x="183.743796" y="334.697454" style="fill: #e0ecf8; stroke: #e0ecf8"/>
    </g>
    <g clip-path="url(#p2338cf3905)">
     <use xlink:href="#C0_0_86409cbbbe" x="184.175089" y="335.352735" style="fill: #dae8f6; stroke: #dae8f6"/>
    </g>
    <g clip-path="url(#p2338cf3905)">
     <use xlink:href="#C0_0_86409cbbbe" x="184.390735" y="336.008016" style="fill: #1c6ab0; stroke: #1c6ab0"/>
    </g>
    <g clip-path="url(#p2338cf3905)">
     <use xlink:href="#C0_0_86409cbbbe" x="184.606381" y="336.008016" style="fill: #b9d6ea; stroke: #b9d6ea"/>
    </g>
    <g clip-path="url(#p2338cf3905)">
     <use xlink:href="#C0_0_86409cbbbe" x="184.822027" y="336.663297" style="fill: #7fb9da; stroke: #7fb9da"/>
    </g>
    <g clip-path="url(#p2338cf3905)">
     <use xlink:href="#C0_0_86409cbbbe" x="185.037674" y="336.663297" style="fill: #5ba3d0; stroke: #5ba3d0"/>
    </g>
    <g clip-path="url(#p2338cf3905)">
     <use xlink:href="#C0_0_86409cbbbe" x="185.25332" y="337.318578" style="fill: #84bcdb; stroke: #84bcdb"/>
    </g>
    <g clip-path="url(#p2338cf3905)">
     <use xlink:href="#C0_0_86409cbbbe" x="185.468966" y="337.318578" style="fill: #08316d; stroke: #08316d"/>
    </g>
    <g clip-path="url(#p2338cf3905)">
     <use xlink:href="#C0_0_86409cbbbe" x="185.684612" y="337.973859" style="fill: #5fa6d1; stroke: #5fa6d1"/>
    </g>
    <g clip-path="url(#p2338cf3905)">
     <use xlink:href="#C0_0_86409cbbbe" x="185.900258" y="338.62914" style="fill: #08458a; stroke: #08458a"/>
    </g>
    <g clip-path="url(#p2338cf3905)">
     <use xlink:href="#C0_0_86409cbbbe" x="186.115905" y="338.62914" style="fill: #2f7fbc; stroke: #2f7fbc"/>
    </g>
    <g clip-path="url(#p2338cf3905)">
     <use xlink:href="#C0_0_86409cbbbe" x="186.331551" y="339.284421" style="fill: #1865ac; stroke: #1865ac"/>
    </g>
    <g clip-path="url(#p2338cf3905)">
     <use xlink:href="#C0_0_86409cbbbe" x="186.547197" y="339.284421" style="fill: #0b559f; stroke: #0b559f"/>
    </g>
    <g clip-path="url(#p2338cf3905)">
     <use xlink:href="#C0_0_86409cbbbe" x="186.762843" y="339.939702" style="fill: #0a549e; stroke: #0a549e"/>
    </g>
    <g clip-path="url(#p2338cf3905)">
     <use xlink:href="#C0_0_86409cbbbe" x="186.978489" y="339.939702" style="fill: #083370; stroke: #083370"/>
    </g>
    <g clip-path="url(#p2338cf3905)">
     <use xlink:href="#C0_0_86409cbbbe" x="187.194135" y="340.594983" style="fill: #084285; stroke: #084285"/>
    </g>
    <g clip-path="url(#p2338cf3905)">
     <use xlink:href="#C0_0_86409cbbbe" x="187.409782" y="341.250264" style="fill: #08316d; stroke: #08316d"/>
    </g>
    <g clip-path="url(#p2338cf3905)">
     <use xlink:href="#C0_0_86409cbbbe" x="187.625428" y="341.250264" style="fill: #083776; stroke: #083776"/>
    </g>
    <g clip-path="url(#p2338cf3905)">
     <use xlink:href="#C0_0_86409cbbbe" x="187.841074" y="341.905545" style="fill: #08316d; stroke: #08316d"/>
    </g>
    <g clip-path="url(#p2338cf3905)">
     <use xlink:href="#C0_0_86409cbbbe" x="188.05672" y="341.905545" style="fill: #08316d; stroke: #08316d"/>
    </g>
    <g clip-path="url(#p2338cf3905)">
     <use xlink:href="#C0_0_86409cbbbe" x="188.272366" y="342.560826" style="fill: #08316d; stroke: #08316d"/>
    </g>
    <g clip-path="url(#p2338cf3905)">
     <use xlink:href="#C0_0_86409cbbbe" x="188.488013" y="342.560826" style="fill: #08306b; stroke: #08306b"/>
    </g>
    <g clip-path="url(#p2338cf3905)">
     <use xlink:href="#C0_0_86409cbbbe" x="188.703659" y="343.216107" style="fill: #08306b; stroke: #08306b"/>
    </g>
    <g clip-path="url(#p2338cf3905)">
     <use xlink:href="#C0_0_86409cbbbe" x="167.246863" y="306.192732" style="fill: #08306b; stroke: #08306b"/>
    </g>
    <g clip-path="url(#p2338cf3905)">
     <use xlink:href="#C0_0_86409cbbbe" x="168.325094" y="308.158575" style="fill: #08306b; stroke: #08306b"/>
    </g>
    <g clip-path="url(#p2338cf3905)">
     <use xlink:href="#C0_0_86409cbbbe" x="168.54074" y="308.158575" style="fill: #08306b; stroke: #08306b"/>
    </g>
    <g clip-path="url(#p2338cf3905)">
     <use xlink:href="#C0_0_86409cbbbe" x="168.972032" y="308.813856" style="fill: #08306b; stroke: #08306b"/>
    </g>
    <g clip-path="url(#p2338cf3905)">
     <use xlink:href="#C0_0_86409cbbbe" x="169.187679" y="309.469137" style="fill: #08306b; stroke: #08306b"/>
    </g>
    <g clip-path="url(#p2338cf3905)">
     <use xlink:href="#C0_0_86409cbbbe" x="169.618971" y="310.124418" style="fill: #08306b; stroke: #08306b"/>
    </g>
    <g clip-path="url(#p2338cf3905)">
     <use xlink:href="#C0_0_86409cbbbe" x="169.834617" y="310.779699" style="fill: #08306b; stroke: #08306b"/>
    </g>
    <g clip-path="url(#p2338cf3905)">
     <use xlink:href="#C0_0_86409cbbbe" x="170.050263" y="310.779699" style="fill: #08306b; stroke: #08306b"/>
    </g>
    <g clip-path="url(#p2338cf3905)">
     <use xlink:href="#C0_0_86409cbbbe" x="170.265909" y="311.43498" style="fill: #08306b; stroke: #08306b"/>
    </g>
    <g clip-path="url(#p2338cf3905)">
     <use xlink:href="#C0_0_86409cbbbe" x="170.481556" y="311.43498" style="fill: #08306b; stroke: #08306b"/>
    </g>
    <g clip-path="url(#p2338cf3905)">
     <use xlink:href="#C0_0_86409cbbbe" x="170.697202" y="312.090261" style="fill: #08306b; stroke: #08306b"/>
    </g>
    <g clip-path="url(#p2338cf3905)">
     <use xlink:href="#C0_0_86409cbbbe" x="171.128494" y="312.745542" style="fill: #08306b; stroke: #08306b"/>
    </g>
    <g clip-path="url(#p2338cf3905)">
     <use xlink:href="#C0_0_86409cbbbe" x="171.34414" y="313.400822" style="fill: #08306b; stroke: #08306b"/>
    </g>
    <g clip-path="url(#p2338cf3905)">
     <use xlink:href="#C0_0_86409cbbbe" x="171.559787" y="313.400822" style="fill: #08326e; stroke: #08326e"/>
    </g>
    <g clip-path="url(#p2338cf3905)">
     <use xlink:href="#C0_0_86409cbbbe" x="171.775433" y="314.056103" style="fill: #08316d; stroke: #08316d"/>
    </g>
    <g clip-path="url(#p2338cf3905)">
     <use xlink:href="#C0_0_86409cbbbe" x="171.991079" y="314.056103" style="fill: #08316d; stroke: #08316d"/>
    </g>
    <g clip-path="url(#p2338cf3905)">
     <use xlink:href="#C0_0_86409cbbbe" x="172.206725" y="314.711384" style="fill: #08316d; stroke: #08316d"/>
    </g>
    <g clip-path="url(#p2338cf3905)">
     <use xlink:href="#C0_0_86409cbbbe" x="172.638018" y="315.366665" style="fill: #08326e; stroke: #08326e"/>
    </g>
    <g clip-path="url(#p2338cf3905)">
     <use xlink:href="#C0_0_86409cbbbe" x="172.853664" y="316.021946" style="fill: #08306b; stroke: #08306b"/>
    </g>
    <g clip-path="url(#p2338cf3905)">
     <use xlink:href="#C0_0_86409cbbbe" x="173.06931" y="316.021946" style="fill: #083370; stroke: #083370"/>
    </g>
    <g clip-path="url(#p2338cf3905)">
     <use xlink:href="#C0_0_86409cbbbe" x="173.284956" y="316.677227" style="fill: #083471; stroke: #083471"/>
    </g>
    <g clip-path="url(#p2338cf3905)">
     <use xlink:href="#C0_0_86409cbbbe" x="173.500602" y="316.677227" style="fill: #083370; stroke: #083370"/>
    </g>
    <g clip-path="url(#p2338cf3905)">
     <use xlink:href="#C0_0_86409cbbbe" x="173.716249" y="317.332508" style="fill: #083573; stroke: #083573"/>
    </g>
    <g clip-path="url(#p2338cf3905)">
     <use xlink:href="#C0_0_86409cbbbe" x="174.147541" y="317.987789" style="fill: #083674; stroke: #083674"/>
    </g>
    <g clip-path="url(#p2338cf3905)">
     <use xlink:href="#C0_0_86409cbbbe" x="174.363187" y="318.64307" style="fill: #08326e; stroke: #08326e"/>
    </g>
    <g clip-path="url(#p2338cf3905)">
     <use xlink:href="#C0_0_86409cbbbe" x="174.578833" y="318.64307" style="fill: #083a7a; stroke: #083a7a"/>
    </g>
    <g clip-path="url(#p2338cf3905)">
     <use xlink:href="#C0_0_86409cbbbe" x="174.794479" y="319.298351" style="fill: #083979; stroke: #083979"/>
    </g>
    <g clip-path="url(#p2338cf3905)">
     <use xlink:href="#C0_0_86409cbbbe" x="175.010126" y="319.298351" style="fill: #083877; stroke: #083877"/>
    </g>
    <g clip-path="url(#p2338cf3905)">
     <use xlink:href="#C0_0_86409cbbbe" x="175.225772" y="319.953632" style="fill: #084082; stroke: #084082"/>
    </g>
    <g clip-path="url(#p2338cf3905)">
     <use xlink:href="#C0_0_86409cbbbe" x="175.441418" y="319.953632" style="fill: #08306b; stroke: #08306b"/>
    </g>
    <g clip-path="url(#p2338cf3905)">
     <use xlink:href="#C0_0_86409cbbbe" x="175.657064" y="320.608913" style="fill: #08468b; stroke: #08468b"/>
    </g>
    <g clip-path="url(#p2338cf3905)">
     <use xlink:href="#C0_0_86409cbbbe" x="175.87271" y="321.264194" style="fill: #083573; stroke: #083573"/>
    </g>
    <g clip-path="url(#p2338cf3905)">
     <use xlink:href="#C0_0_86409cbbbe" x="176.088357" y="321.264194" style="fill: #08488e; stroke: #08488e"/>
    </g>
    <g clip-path="url(#p2338cf3905)">
     <use xlink:href="#C0_0_86409cbbbe" x="176.304003" y="321.919475" style="fill: #084488; stroke: #084488"/>
    </g>
    <g clip-path="url(#p2338cf3905)">
     <use xlink:href="#C0_0_86409cbbbe" x="176.519649" y="321.919475" style="fill: #08458a; stroke: #08458a"/>
    </g>
    <g clip-path="url(#p2338cf3905)">
     <use xlink:href="#C0_0_86409cbbbe" x="176.735295" y="322.574756" style="fill: #0e59a2; stroke: #0e59a2"/>
    </g>
    <g clip-path="url(#p2338cf3905)">
     <use xlink:href="#C0_0_86409cbbbe" x="176.950941" y="322.574756" style="fill: #083370; stroke: #083370"/>
    </g>
    <g clip-path="url(#p2338cf3905)">
     <use xlink:href="#C0_0_86409cbbbe" x="177.166588" y="323.230037" style="fill: #0f5aa3; stroke: #0f5aa3"/>
    </g>
    <g clip-path="url(#p2338cf3905)">
     <use xlink:href="#C0_0_86409cbbbe" x="177.382234" y="323.885318" style="fill: #083776; stroke: #083776"/>
    </g>
    <g clip-path="url(#p2338cf3905)">
     <use xlink:href="#C0_0_86409cbbbe" x="177.59788" y="323.885318" style="fill: #1764ab; stroke: #1764ab"/>
    </g>
    <g clip-path="url(#p2338cf3905)">
     <use xlink:href="#C0_0_86409cbbbe" x="177.813526" y="324.540599" style="fill: #115ca5; stroke: #115ca5"/>
    </g>
    <g clip-path="url(#p2338cf3905)">
     <use xlink:href="#C0_0_86409cbbbe" x="178.029172" y="324.540599" style="fill: #1561a9; stroke: #1561a9"/>
    </g>
    <g clip-path="url(#p2338cf3905)">
     <use xlink:href="#C0_0_86409cbbbe" x="178.244819" y="325.19588" style="fill: #2777b8; stroke: #2777b8"/>
    </g>
    <g clip-path="url(#p2338cf3905)">
     <use xlink:href="#C0_0_86409cbbbe" x="178.460465" y="325.19588" style="fill: #083b7c; stroke: #083b7c"/>
    </g>
    <g clip-path="url(#p2338cf3905)">
     <use xlink:href="#C0_0_86409cbbbe" x="178.676111" y="325.851161" style="fill: #3282be; stroke: #3282be"/>
    </g>
    <g clip-path="url(#p2338cf3905)">
     <use xlink:href="#C0_0_86409cbbbe" x="178.891757" y="326.506442" style="fill: #083674; stroke: #083674"/>
    </g>
    <g clip-path="url(#p2338cf3905)">
     <use xlink:href="#C0_0_86409cbbbe" x="179.107403" y="326.506442" style="fill: #4090c5; stroke: #4090c5"/>
    </g>
    <g clip-path="url(#p2338cf3905)">
     <use xlink:href="#C0_0_86409cbbbe" x="179.323049" y="327.161723" style="fill: #3484bf; stroke: #3484bf"/>
    </g>
    <g clip-path="url(#p2338cf3905)">
     <use xlink:href="#C0_0_86409cbbbe" x="179.538696" y="327.161723" style="fill: #4d99ca; stroke: #4d99ca"/>
    </g>
    <g clip-path="url(#p2338cf3905)">
     <use xlink:href="#C0_0_86409cbbbe" x="179.754342" y="327.817004" style="fill: #57a0ce; stroke: #57a0ce"/>
    </g>
    <g clip-path="url(#p2338cf3905)">
     <use xlink:href="#C0_0_86409cbbbe" x="179.969988" y="327.817004" style="fill: #08519c; stroke: #08519c"/>
    </g>
    <g clip-path="url(#p2338cf3905)">
     <use xlink:href="#C0_0_86409cbbbe" x="180.185634" y="328.472285" style="fill: #8dc1dd; stroke: #8dc1dd"/>
    </g>
    <g clip-path="url(#p2338cf3905)">
     <use xlink:href="#C0_0_86409cbbbe" x="180.40128" y="329.127566" style="fill: #083573; stroke: #083573"/>
    </g>
    <g clip-path="url(#p2338cf3905)">
     <use xlink:href="#C0_0_86409cbbbe" x="180.616927" y="329.127566" style="fill: #99c7e0; stroke: #99c7e0"/>
    </g>
    <g clip-path="url(#p2338cf3905)">
     <use xlink:href="#C0_0_86409cbbbe" x="180.832573" y="329.782847" style="fill: #7ab6d9; stroke: #7ab6d9"/>
    </g>
    <g clip-path="url(#p2338cf3905)">
     <use xlink:href="#C0_0_86409cbbbe" x="181.048219" y="329.782847" style="fill: #87bddc; stroke: #87bddc"/>
    </g>
    <g clip-path="url(#p2338cf3905)">
     <use xlink:href="#C0_0_86409cbbbe" x="181.263865" y="330.438128" style="fill: #c9ddf0; stroke: #c9ddf0"/>
    </g>
    <g clip-path="url(#p2338cf3905)">
     <use xlink:href="#C0_0_86409cbbbe" x="181.479511" y="330.438128" style="fill: #1663aa; stroke: #1663aa"/>
    </g>
    <g clip-path="url(#p2338cf3905)">
     <use xlink:href="#C0_0_86409cbbbe" x="181.695158" y="331.093409" style="fill: #d7e6f5; stroke: #d7e6f5"/>
    </g>
    <g clip-path="url(#p2338cf3905)">
     <use xlink:href="#C0_0_86409cbbbe" x="182.12645" y="331.74869" style="fill: #f0f6fd; stroke: #f0f6fd"/>
    </g>
    <g clip-path="url(#p2338cf3905)">
     <use xlink:href="#C0_0_86409cbbbe" x="182.342096" y="332.403971" style="fill: #aed1e7; stroke: #aed1e7"/>
    </g>
    <g clip-path="url(#p2338cf3905)">
     <use xlink:href="#C0_0_86409cbbbe" x="182.557742" y="332.403971" style="fill: #cee0f2; stroke: #cee0f2"/>
    </g>
    <g clip-path="url(#p2338cf3905)">
     <use xlink:href="#C0_0_86409cbbbe" x="182.773389" y="333.059252" style="fill: #ddeaf7; stroke: #ddeaf7"/>
    </g>
    <g clip-path="url(#p2338cf3905)">
     <use xlink:href="#C0_0_86409cbbbe" x="182.989035" y="333.059252" style="fill: #3282be; stroke: #3282be"/>
    </g>
    <g clip-path="url(#p2338cf3905)">
     <use xlink:href="#C0_0_86409cbbbe" x="183.204681" y="333.714533" style="fill: #f7fbff; stroke: #f7fbff"/>
    </g>
    <g clip-path="url(#p2338cf3905)">
     <use xlink:href="#C0_0_86409cbbbe" x="183.635973" y="334.369814" style="fill: #eff6fc; stroke: #eff6fc"/>
    </g>
    <g clip-path="url(#p2338cf3905)">
     <use xlink:href="#C0_0_86409cbbbe" x="183.85162" y="335.025095" style="fill: #91c3de; stroke: #91c3de"/>
    </g>
    <g clip-path="url(#p2338cf3905)">
     <use xlink:href="#C0_0_86409cbbbe" x="184.067266" y="335.025095" style="fill: #bdd7ec; stroke: #bdd7ec"/>
    </g>
    <g clip-path="url(#p2338cf3905)">
     <use xlink:href="#C0_0_86409cbbbe" x="184.282912" y="335.680376" style="fill: #c3daee; stroke: #c3daee"/>
    </g>
    <g clip-path="url(#p2338cf3905)">
     <use xlink:href="#C0_0_86409cbbbe" x="184.498558" y="335.680376" style="fill: #3181bd; stroke: #3181bd"/>
    </g>
    <g clip-path="url(#p2338cf3905)">
     <use xlink:href="#C0_0_86409cbbbe" x="184.714204" y="336.335657" style="fill: #bdd7ec; stroke: #bdd7ec"/>
    </g>
    <g clip-path="url(#p2338cf3905)">
     <use xlink:href="#C0_0_86409cbbbe" x="185.145497" y="336.990938" style="fill: #92c4de; stroke: #92c4de"/>
    </g>
    <g clip-path="url(#p2338cf3905)">
     <use xlink:href="#C0_0_86409cbbbe" x="185.361143" y="337.646219" style="fill: #3b8bc2; stroke: #3b8bc2"/>
    </g>
    <g clip-path="url(#p2338cf3905)">
     <use xlink:href="#C0_0_86409cbbbe" x="185.576789" y="337.646219" style="fill: #57a0ce; stroke: #57a0ce"/>
    </g>
    <g clip-path="url(#p2338cf3905)">
     <use xlink:href="#C0_0_86409cbbbe" x="185.792435" y="338.3015" style="fill: #3a8ac2; stroke: #3a8ac2"/>
    </g>
    <g clip-path="url(#p2338cf3905)">
     <use xlink:href="#C0_0_86409cbbbe" x="186.008081" y="338.3015" style="fill: #105ba4; stroke: #105ba4"/>
    </g>
    <g clip-path="url(#p2338cf3905)">
     <use xlink:href="#C0_0_86409cbbbe" x="186.223728" y="338.956781" style="fill: #2979b9; stroke: #2979b9"/>
    </g>
    <g clip-path="url(#p2338cf3905)">
     <use xlink:href="#C0_0_86409cbbbe" x="186.65502" y="339.612062" style="fill: #125ea6; stroke: #125ea6"/>
    </g>
    <g clip-path="url(#p2338cf3905)">
     <use xlink:href="#C0_0_86409cbbbe" x="186.870666" y="340.267343" style="fill: #084488; stroke: #084488"/>
    </g>
    <g clip-path="url(#p2338cf3905)">
     <use xlink:href="#C0_0_86409cbbbe" x="187.086312" y="340.267343" style="fill: #08458a; stroke: #08458a"/>
    </g>
    <g clip-path="url(#p2338cf3905)">
     <use xlink:href="#C0_0_86409cbbbe" x="187.301959" y="340.922624" style="fill: #083d7f; stroke: #083d7f"/>
    </g>
    <g clip-path="url(#p2338cf3905)">
     <use xlink:href="#C0_0_86409cbbbe" x="187.517605" y="340.922624" style="fill: #083370; stroke: #083370"/>
    </g>
    <g clip-path="url(#p2338cf3905)">
     <use xlink:href="#C0_0_86409cbbbe" x="187.733251" y="341.577905" style="fill: #083573; stroke: #083573"/>
    </g>
    <g clip-path="url(#p2338cf3905)">
     <use xlink:href="#C0_0_86409cbbbe" x="188.164543" y="342.233186" style="fill: #08316d; stroke: #08316d"/>
    </g>
    <g clip-path="url(#p2338cf3905)">
     <use xlink:href="#C0_0_86409cbbbe" x="188.595836" y="342.888467" style="fill: #08306b; stroke: #08306b"/>
    </g>
   </g>
   <g id="line2d_1">
    <path d="M 141.12 269.568 
L 236.16 104.953891 
L 331.2 269.568 
L 141.12 269.568 
" clip-path="url(#p2338cf3905)" style="fill: none; stroke: #ffa500; stroke-width: 1.5; stroke-linecap: round"/>
   </g>
   <g id="line2d_2">
    <path d="M 236.16 214.69663 
L 236.16 269.568 
" clip-path="url(#p2338cf3905)" style="fill: none; stroke: #ffa500; stroke-width: 1.5; stroke-linecap: round"/>
   </g>
   <g id="line2d_3">
    <path d="M 236.16 214.69663 
L 188.64 187.260946 
" clip-path="url(#p2338cf3905)" style="fill: none; stroke: #ffa500; stroke-width: 1.5; stroke-linecap: round"/>
   </g>
   <g id="line2d_4">
    <path d="M 236.16 214.69663 
L 283.68 187.260946 
" clip-path="url(#p2338cf3905)" style="fill: none; stroke: #ffa500; stroke-width: 1.5; stroke-linecap: round"/>
   </g>
   <g id="text_1">
    <!-- p(IAC_(0.05, 0.5)) = 0.000 -->
    <g style="fill: #262626" transform="translate(62.254688 286.2762) scale(0.12 -0.12)">
     <defs>
      <path id="DejaVuSans-70" d="M 1159 525 
L 1159 -1331 
L 581 -1331 
L 581 3500 
L 1159 3500 
L 1159 2969 
Q 1341 3281 1617 3432 
Q 1894 3584 2278 3584 
Q 2916 3584 3314 3078 
Q 3713 2572 3713 1747 
Q 3713 922 3314 415 
Q 2916 -91 2278 -91 
Q 1894 -91 1617 61 
Q 1341 213 1159 525 
z
M 3116 1747 
Q 3116 2381 2855 2742 
Q 2594 3103 2138 3103 
Q 1681 3103 1420 2742 
Q 1159 2381 1159 1747 
Q 1159 1113 1420 752 
Q 1681 391 2138 391 
Q 2594 391 2855 752 
Q 3116 1113 3116 1747 
z
" transform="scale(0.015625)"/>
      <path id="DejaVuSans-28" d="M 1984 4856 
Q 1566 4138 1362 3434 
Q 1159 2731 1159 2009 
Q 1159 1288 1364 580 
Q 1569 -128 1984 -844 
L 1484 -844 
Q 1016 -109 783 600 
Q 550 1309 550 2009 
Q 550 2706 781 3412 
Q 1013 4119 1484 4856 
L 1984 4856 
z
" transform="scale(0.015625)"/>
      <path id="DejaVuSans-49" d="M 628 4666 
L 1259 4666 
L 1259 0 
L 628 0 
L 628 4666 
z
" transform="scale(0.015625)"/>
      <path id="DejaVuSans-41" d="M 2188 4044 
L 1331 1722 
L 3047 1722 
L 2188 4044 
z
M 1831 4666 
L 2547 4666 
L 4325 0 
L 3669 0 
L 3244 1197 
L 1141 1197 
L 716 0 
L 50 0 
L 1831 4666 
z
" transform="scale(0.015625)"/>
      <path id="DejaVuSans-43" d="M 4122 4306 
L 4122 3641 
Q 3803 3938 3442 4084 
Q 3081 4231 2675 4231 
Q 1875 4231 1450 3742 
Q 1025 3253 1025 2328 
Q 1025 1406 1450 917 
Q 1875 428 2675 428 
Q 3081 428 3442 575 
Q 3803 722 4122 1019 
L 4122 359 
Q 3791 134 3420 21 
Q 3050 -91 2638 -91 
Q 1578 -91 968 557 
Q 359 1206 359 2328 
Q 359 3453 968 4101 
Q 1578 4750 2638 4750 
Q 3056 4750 3426 4639 
Q 3797 4528 4122 4306 
z
" transform="scale(0.015625)"/>
      <path id="DejaVuSans-5f" d="M 3263 -1063 
L 3263 -1509 
L -63 -1509 
L -63 -1063 
L 3263 -1063 
z
" transform="scale(0.015625)"/>
      <path id="DejaVuSans-30" d="M 2034 4250 
Q 1547 4250 1301 3770 
Q 1056 3291 1056 2328 
Q 1056 1369 1301 889 
Q 1547 409 2034 409 
Q 2525 409 2770 889 
Q 3016 1369 3016 2328 
Q 3016 3291 2770 3770 
Q 2525 4250 2034 4250 
z
M 2034 4750 
Q 2819 4750 3233 4129 
Q 3647 3509 3647 2328 
Q 3647 1150 3233 529 
Q 2819 -91 2034 -91 
Q 1250 -91 836 529 
Q 422 1150 422 2328 
Q 422 3509 836 4129 
Q 1250 4750 2034 4750 
z
" transform="scale(0.015625)"/>
      <path id="DejaVuSans-2e" d="M 684 794 
L 1344 794 
L 1344 0 
L 684 0 
L 684 794 
z
" transform="scale(0.015625)"/>
      <path id="DejaVuSans-35" d="M 691 4666 
L 3169 4666 
L 3169 4134 
L 1269 4134 
L 1269 2991 
Q 1406 3038 1543 3061 
Q 1681 3084 1819 3084 
Q 2600 3084 3056 2656 
Q 3513 2228 3513 1497 
Q 3513 744 3044 326 
Q 2575 -91 1722 -91 
Q 1428 -91 1123 -41 
Q 819 9 494 109 
L 494 744 
Q 775 591 1075 516 
Q 1375 441 1709 441 
Q 2250 441 2565 725 
Q 2881 1009 2881 1497 
Q 2881 1984 2565 2268 
Q 2250 2553 1709 2553 
Q 1456 2553 1204 2497 
Q 953 2441 691 2322 
L 691 4666 
z
" transform="scale(0.015625)"/>
      <path id="DejaVuSans-2c" d="M 750 794 
L 1409 794 
L 1409 256 
L 897 -744 
L 494 -744 
L 750 256 
L 750 794 
z
" transform="scale(0.015625)"/>
      <path id="DejaVuSans-20" transform="scale(0.015625)"/>
      <path id="DejaVuSans-29" d="M 513 4856 
L 1013 4856 
Q 1481 4119 1714 3412 
Q 1947 2706 1947 2009 
Q 1947 1309 1714 600 
Q 1481 -109 1013 -844 
L 513 -844 
Q 928 -128 1133 580 
Q 1338 1288 1338 2009 
Q 1338 2731 1133 3434 
Q 928 4138 513 4856 
z
" transform="scale(0.015625)"/>
      <path id="DejaVuSans-3d" d="M 678 2906 
L 4684 2906 
L 4684 2381 
L 678 2381 
L 678 2906 
z
M 678 1631 
L 4684 1631 
L 4684 1100 
L 678 1100 
L 678 1631 
z
" transform="scale(0.015625)"/>
     </defs>
     <use xlink:href="#DejaVuSans-70"/>
     <use xlink:href="#DejaVuSans-28" x="63.476562"/>
     <use xlink:href="#DejaVuSans-49" x="102.490234"/>
     <use xlink:href="#DejaVuSans-41" x="131.982422"/>
     <use xlink:href="#DejaVuSans-43" x="198.640625"/>
     <use xlink:href="#DejaVuSans-5f" x="268.464844"/>
     <use xlink:href="#DejaVuSans-28" x="318.464844"/>
     <use xlink:href="#DejaVuSans-30" x="357.478516"/>
     <use xlink:href="#DejaVuSans-2e" x="421.101562"/>
     <use xlink:href="#DejaVuSans-30" x="452.888672"/>
     <use xlink:href="#DejaVuSans-35" x="516.511719"/>
     <use xlink:href="#DejaVuSans-2c" x="580.134766"/>
     <use xlink:href="#DejaVuSans-20" x="611.921875"/>
     <use xlink:href="#DejaVuSans-30" x="643.708984"/>
     <use xlink:href="#DejaVuSans-2e" x="707.332031"/>
     <use xlink:href="#DejaVuSans-35" x="739.119141"/>
     <use xlink:href="#DejaVuSans-29" x="802.742188"/>
     <use xlink:href="#DejaVuSans-29" x="841.755859"/>
     <use xlink:href="#DejaVuSans-20" x="880.769531"/>
     <use xlink:href="#DejaVuSans-3d" x="912.556641"/>
     <use xlink:href="#DejaVuSans-20" x="996.345703"/>
     <use xlink:href="#DejaVuSans-30" x="1028.132812"/>
     <use xlink:href="#DejaVuSans-2e" x="1091.755859"/>
     <use xlink:href="#DejaVuSans-30" x="1123.542969"/>
     <use xlink:href="#DejaVuSans-30" x="1187.166016"/>
     <use xlink:href="#DejaVuSans-30" x="1250.789062"/>
    </g>
   </g>
   <g id="text_2">
    <!-- p(rope) = 0.000 -->
    <g style="fill: #262626" transform="translate(188.146875 102.458266) scale(0.12 -0.12)">
     <defs>
      <path id="DejaVuSans-72" d="M 2631 2963 
Q 2534 3019 2420 3045 
Q 2306 3072 2169 3072 
Q 1681 3072 1420 2755 
Q 1159 2438 1159 1844 
L 1159 0 
L 581 0 
L 581 3500 
L 1159 3500 
L 1159 2956 
Q 1341 3275 1631 3429 
Q 1922 3584 2338 3584 
Q 2397 3584 2469 3576 
Q 2541 3569 2628 3553 
L 2631 2963 
z
" transform="scale(0.015625)"/>
      <path id="DejaVuSans-6f" d="M 1959 3097 
Q 1497 3097 1228 2736 
Q 959 2375 959 1747 
Q 959 1119 1226 758 
Q 1494 397 1959 397 
Q 2419 397 2687 759 
Q 2956 1122 2956 1747 
Q 2956 2369 2687 2733 
Q 2419 3097 1959 3097 
z
M 1959 3584 
Q 2709 3584 3137 3096 
Q 3566 2609 3566 1747 
Q 3566 888 3137 398 
Q 2709 -91 1959 -91 
Q 1206 -91 779 398 
Q 353 888 353 1747 
Q 353 2609 779 3096 
Q 1206 3584 1959 3584 
z
" transform="scale(0.015625)"/>
      <path id="DejaVuSans-65" d="M 3597 1894 
L 3597 1613 
L 953 1613 
Q 991 1019 1311 708 
Q 1631 397 2203 397 
Q 2534 397 2845 478 
Q 3156 559 3463 722 
L 3463 178 
Q 3153 47 2828 -22 
Q 2503 -91 2169 -91 
Q 1331 -91 842 396 
Q 353 884 353 1716 
Q 353 2575 817 3079 
Q 1281 3584 2069 3584 
Q 2775 3584 3186 3129 
Q 3597 2675 3597 1894 
z
M 3022 2063 
Q 3016 2534 2758 2815 
Q 2500 3097 2075 3097 
Q 1594 3097 1305 2825 
Q 1016 2553 972 2059 
L 3022 2063 
z
" transform="scale(0.015625)"/>
     </defs>
     <use xlink:href="#DejaVuSans-70"/>
     <use xlink:href="#DejaVuSans-28" x="63.476562"/>
     <use xlink:href="#DejaVuSans-72" x="102.490234"/>
     <use xlink:href="#DejaVuSans-6f" x="141.353516"/>
     <use xlink:href="#DejaVuSans-70" x="202.535156"/>
     <use xlink:href="#DejaVuSans-65" x="266.011719"/>
     <use xlink:href="#DejaVuSans-29" x="327.535156"/>
     <use xlink:href="#DejaVuSans-20" x="366.548828"/>
     <use xlink:href="#DejaVuSans-3d" x="398.335938"/>
     <use xlink:href="#DejaVuSans-20" x="482.125"/>
     <use xlink:href="#DejaVuSans-30" x="513.912109"/>
     <use xlink:href="#DejaVuSans-2e" x="577.535156"/>
     <use xlink:href="#DejaVuSans-30" x="609.322266"/>
     <use xlink:href="#DejaVuSans-30" x="672.945312"/>
     <use xlink:href="#DejaVuSans-30" x="736.568359"/>
    </g>
   </g>
   <g id="text_3">
    <!-- p(IAC_(0.05, 1)) = 1.000 -->
    <g style="fill: #262626" transform="translate(258.059063 286.2762) scale(0.12 -0.12)">
     <defs>
      <path id="DejaVuSans-31" d="M 794 531 
L 1825 531 
L 1825 4091 
L 703 3866 
L 703 4441 
L 1819 4666 
L 2450 4666 
L 2450 531 
L 3481 531 
L 3481 0 
L 794 0 
L 794 531 
z
" transform="scale(0.015625)"/>
     </defs>
     <use xlink:href="#DejaVuSans-70"/>
     <use xlink:href="#DejaVuSans-28" x="63.476562"/>
     <use xlink:href="#DejaVuSans-49" x="102.490234"/>
     <use xlink:href="#DejaVuSans-41" x="131.982422"/>
     <use xlink:href="#DejaVuSans-43" x="198.640625"/>
     <use xlink:href="#DejaVuSans-5f" x="268.464844"/>
     <use xlink:href="#DejaVuSans-28" x="318.464844"/>
     <use xlink:href="#DejaVuSans-30" x="357.478516"/>
     <use xlink:href="#DejaVuSans-2e" x="421.101562"/>
     <use xlink:href="#DejaVuSans-30" x="452.888672"/>
     <use xlink:href="#DejaVuSans-35" x="516.511719"/>
     <use xlink:href="#DejaVuSans-2c" x="580.134766"/>
     <use xlink:href="#DejaVuSans-20" x="611.921875"/>
     <use xlink:href="#DejaVuSans-31" x="643.708984"/>
     <use xlink:href="#DejaVuSans-29" x="707.332031"/>
     <use xlink:href="#DejaVuSans-29" x="746.345703"/>
     <use xlink:href="#DejaVuSans-20" x="785.359375"/>
     <use xlink:href="#DejaVuSans-3d" x="817.146484"/>
     <use xlink:href="#DejaVuSans-20" x="900.935547"/>
     <use xlink:href="#DejaVuSans-31" x="932.722656"/>
     <use xlink:href="#DejaVuSans-2e" x="996.345703"/>
     <use xlink:href="#DejaVuSans-30" x="1028.132812"/>
     <use xlink:href="#DejaVuSans-30" x="1091.755859"/>
     <use xlink:href="#DejaVuSans-30" x="1155.378906"/>
    </g>
   </g>
  </g>
 </g>
 <defs>
  <clipPath id="p2338cf3905">
   <rect x="103.104" y="41.472" width="266.112" height="266.112"/>
  </clipPath>
 </defs>
</svg>
