<?xml version="1.0" encoding="utf-8" standalone="no"?>
<!DOCTYPE svg PUBLIC "-//W3C//DTD SVG 1.1//EN"
  "http://www.w3.org/Graphics/SVG/1.1/DTD/svg11.dtd">
<svg xmlns:xlink="http://www.w3.org/1999/xlink" width="460.8pt" height="345.6pt" viewBox="0 0 460.8 345.6" xmlns="http://www.w3.org/2000/svg" version="1.1">
 <metadata>
  <rdf:RDF xmlns:dc="http://purl.org/dc/elements/1.1/" xmlns:cc="http://creativecommons.org/ns#" xmlns:rdf="http://www.w3.org/1999/02/22-rdf-syntax-ns#">
   <cc:Work>
    <dc:type rdf:resource="http://purl.org/dc/dcmitype/StillImage"/>
    <dc:date>2023-04-27T20:36:44.737361</dc:date>
    <dc:format>image/svg+xml</dc:format>
    <dc:creator>
     <cc:Agent>
      <dc:title>Matplotlib v3.6.0, https://matplotlib.org/</dc:title>
     </cc:Agent>
    </dc:creator>
   </cc:Work>
  </rdf:RDF>
 </metadata>
 <defs>
  <style type="text/css">*{stroke-linejoin: round; stroke-linecap: butt}</style>
 </defs>
 <g id="figure_1">
  <g id="patch_1">
   <path d="M 0 345.6 
L 460.8 345.6 
L 460.8 0 
L 0 0 
z
" style="fill: #ffffff"/>
  </g>
  <g id="axes_1">
   <g id="patch_2">
    <path d="M 57.6 307.584 
L 414.72 307.584 
L 414.72 41.472 
L 57.6 41.472 
z
" style="fill: #eaeaf2"/>
   </g>
   <g id="matplotlib.axis_1">
    <g id="xtick_1">
     <g id="line2d_1">
      <path d="M 57.6 307.584 
L 57.6 41.472 
" clip-path="url(#pfc283ec20a)" style="fill: none; stroke: #ffffff; stroke-linecap: round"/>
     </g>
     <g id="line2d_2">
      <defs>
       <path id="m48ced24c5d" d="M 0 0 
L 0 3.5 
" style="stroke: #262626; stroke-width: 1.25"/>
      </defs>
      <g>
       <use xlink:href="#m48ced24c5d" x="57.6" y="307.584" style="fill: #262626; stroke: #262626; stroke-width: 1.25"/>
      </g>
     </g>
     <g id="text_1">
      <!-- 0.0 -->
      <g style="fill: #262626" transform="translate(48.853281 322.942281) scale(0.11 -0.11)">
       <defs>
        <path id="DejaVuSans-30" d="M 2034 4250 
Q 1547 4250 1301 3770 
Q 1056 3291 1056 2328 
Q 1056 1369 1301 889 
Q 1547 409 2034 409 
Q 2525 409 2770 889 
Q 3016 1369 3016 2328 
Q 3016 3291 2770 3770 
Q 2525 4250 2034 4250 
z
M 2034 4750 
Q 2819 4750 3233 4129 
Q 3647 3509 3647 2328 
Q 3647 1150 3233 529 
Q 2819 -91 2034 -91 
Q 1250 -91 836 529 
Q 422 1150 422 2328 
Q 422 3509 836 4129 
Q 1250 4750 2034 4750 
z
" transform="scale(0.015625)"/>
        <path id="DejaVuSans-2e" d="M 684 794 
L 1344 794 
L 1344 0 
L 684 0 
L 684 794 
z
" transform="scale(0.015625)"/>
       </defs>
       <use xlink:href="#DejaVuSans-30"/>
       <use xlink:href="#DejaVuSans-2e" x="63.623047"/>
       <use xlink:href="#DejaVuSans-30" x="95.410156"/>
      </g>
     </g>
    </g>
    <g id="xtick_2">
     <g id="line2d_3">
      <path d="M 129.024 307.584 
L 129.024 41.472 
" clip-path="url(#pfc283ec20a)" style="fill: none; stroke: #ffffff; stroke-linecap: round"/>
     </g>
     <g id="line2d_4">
      <g>
       <use xlink:href="#m48ced24c5d" x="129.024" y="307.584" style="fill: #262626; stroke: #262626; stroke-width: 1.25"/>
      </g>
     </g>
     <g id="text_2">
      <!-- 0.2 -->
      <g style="fill: #262626" transform="translate(120.277281 322.942281) scale(0.11 -0.11)">
       <defs>
        <path id="DejaVuSans-32" d="M 1228 531 
L 3431 531 
L 3431 0 
L 469 0 
L 469 531 
Q 828 903 1448 1529 
Q 2069 2156 2228 2338 
Q 2531 2678 2651 2914 
Q 2772 3150 2772 3378 
Q 2772 3750 2511 3984 
Q 2250 4219 1831 4219 
Q 1534 4219 1204 4116 
Q 875 4013 500 3803 
L 500 4441 
Q 881 4594 1212 4672 
Q 1544 4750 1819 4750 
Q 2544 4750 2975 4387 
Q 3406 4025 3406 3419 
Q 3406 3131 3298 2873 
Q 3191 2616 2906 2266 
Q 2828 2175 2409 1742 
Q 1991 1309 1228 531 
z
" transform="scale(0.015625)"/>
       </defs>
       <use xlink:href="#DejaVuSans-30"/>
       <use xlink:href="#DejaVuSans-2e" x="63.623047"/>
       <use xlink:href="#DejaVuSans-32" x="95.410156"/>
      </g>
     </g>
    </g>
    <g id="xtick_3">
     <g id="line2d_5">
      <path d="M 200.448 307.584 
L 200.448 41.472 
" clip-path="url(#pfc283ec20a)" style="fill: none; stroke: #ffffff; stroke-linecap: round"/>
     </g>
     <g id="line2d_6">
      <g>
       <use xlink:href="#m48ced24c5d" x="200.448" y="307.584" style="fill: #262626; stroke: #262626; stroke-width: 1.25"/>
      </g>
     </g>
     <g id="text_3">
      <!-- 0.4 -->
      <g style="fill: #262626" transform="translate(191.701281 322.942281) scale(0.11 -0.11)">
       <defs>
        <path id="DejaVuSans-34" d="M 2419 4116 
L 825 1625 
L 2419 1625 
L 2419 4116 
z
M 2253 4666 
L 3047 4666 
L 3047 1625 
L 3713 1625 
L 3713 1100 
L 3047 1100 
L 3047 0 
L 2419 0 
L 2419 1100 
L 313 1100 
L 313 1709 
L 2253 4666 
z
" transform="scale(0.015625)"/>
       </defs>
       <use xlink:href="#DejaVuSans-30"/>
       <use xlink:href="#DejaVuSans-2e" x="63.623047"/>
       <use xlink:href="#DejaVuSans-34" x="95.410156"/>
      </g>
     </g>
    </g>
    <g id="xtick_4">
     <g id="line2d_7">
      <path d="M 271.872 307.584 
L 271.872 41.472 
" clip-path="url(#pfc283ec20a)" style="fill: none; stroke: #ffffff; stroke-linecap: round"/>
     </g>
     <g id="line2d_8">
      <g>
       <use xlink:href="#m48ced24c5d" x="271.872" y="307.584" style="fill: #262626; stroke: #262626; stroke-width: 1.25"/>
      </g>
     </g>
     <g id="text_4">
      <!-- 0.6 -->
      <g style="fill: #262626" transform="translate(263.125281 322.942281) scale(0.11 -0.11)">
       <defs>
        <path id="DejaVuSans-36" d="M 2113 2584 
Q 1688 2584 1439 2293 
Q 1191 2003 1191 1497 
Q 1191 994 1439 701 
Q 1688 409 2113 409 
Q 2538 409 2786 701 
Q 3034 994 3034 1497 
Q 3034 2003 2786 2293 
Q 2538 2584 2113 2584 
z
M 3366 4563 
L 3366 3988 
Q 3128 4100 2886 4159 
Q 2644 4219 2406 4219 
Q 1781 4219 1451 3797 
Q 1122 3375 1075 2522 
Q 1259 2794 1537 2939 
Q 1816 3084 2150 3084 
Q 2853 3084 3261 2657 
Q 3669 2231 3669 1497 
Q 3669 778 3244 343 
Q 2819 -91 2113 -91 
Q 1303 -91 875 529 
Q 447 1150 447 2328 
Q 447 3434 972 4092 
Q 1497 4750 2381 4750 
Q 2619 4750 2861 4703 
Q 3103 4656 3366 4563 
z
" transform="scale(0.015625)"/>
       </defs>
       <use xlink:href="#DejaVuSans-30"/>
       <use xlink:href="#DejaVuSans-2e" x="63.623047"/>
       <use xlink:href="#DejaVuSans-36" x="95.410156"/>
      </g>
     </g>
    </g>
    <g id="xtick_5">
     <g id="line2d_9">
      <path d="M 343.296 307.584 
L 343.296 41.472 
" clip-path="url(#pfc283ec20a)" style="fill: none; stroke: #ffffff; stroke-linecap: round"/>
     </g>
     <g id="line2d_10">
      <g>
       <use xlink:href="#m48ced24c5d" x="343.296" y="307.584" style="fill: #262626; stroke: #262626; stroke-width: 1.25"/>
      </g>
     </g>
     <g id="text_5">
      <!-- 0.8 -->
      <g style="fill: #262626" transform="translate(334.549281 322.942281) scale(0.11 -0.11)">
       <defs>
        <path id="DejaVuSans-38" d="M 2034 2216 
Q 1584 2216 1326 1975 
Q 1069 1734 1069 1313 
Q 1069 891 1326 650 
Q 1584 409 2034 409 
Q 2484 409 2743 651 
Q 3003 894 3003 1313 
Q 3003 1734 2745 1975 
Q 2488 2216 2034 2216 
z
M 1403 2484 
Q 997 2584 770 2862 
Q 544 3141 544 3541 
Q 544 4100 942 4425 
Q 1341 4750 2034 4750 
Q 2731 4750 3128 4425 
Q 3525 4100 3525 3541 
Q 3525 3141 3298 2862 
Q 3072 2584 2669 2484 
Q 3125 2378 3379 2068 
Q 3634 1759 3634 1313 
Q 3634 634 3220 271 
Q 2806 -91 2034 -91 
Q 1263 -91 848 271 
Q 434 634 434 1313 
Q 434 1759 690 2068 
Q 947 2378 1403 2484 
z
M 1172 3481 
Q 1172 3119 1398 2916 
Q 1625 2713 2034 2713 
Q 2441 2713 2670 2916 
Q 2900 3119 2900 3481 
Q 2900 3844 2670 4047 
Q 2441 4250 2034 4250 
Q 1625 4250 1398 4047 
Q 1172 3844 1172 3481 
z
" transform="scale(0.015625)"/>
       </defs>
       <use xlink:href="#DejaVuSans-30"/>
       <use xlink:href="#DejaVuSans-2e" x="63.623047"/>
       <use xlink:href="#DejaVuSans-38" x="95.410156"/>
      </g>
     </g>
    </g>
    <g id="xtick_6">
     <g id="line2d_11">
      <path d="M 414.72 307.584 
L 414.72 41.472 
" clip-path="url(#pfc283ec20a)" style="fill: none; stroke: #ffffff; stroke-linecap: round"/>
     </g>
     <g id="line2d_12">
      <g>
       <use xlink:href="#m48ced24c5d" x="414.72" y="307.584" style="fill: #262626; stroke: #262626; stroke-width: 1.25"/>
      </g>
     </g>
     <g id="text_6">
      <!-- 1.0 -->
      <g style="fill: #262626" transform="translate(405.973281 322.942281) scale(0.11 -0.11)">
       <defs>
        <path id="DejaVuSans-31" d="M 794 531 
L 1825 531 
L 1825 4091 
L 703 3866 
L 703 4441 
L 1819 4666 
L 2450 4666 
L 2450 531 
L 3481 531 
L 3481 0 
L 794 0 
L 794 531 
z
" transform="scale(0.015625)"/>
       </defs>
       <use xlink:href="#DejaVuSans-31"/>
       <use xlink:href="#DejaVuSans-2e" x="63.623047"/>
       <use xlink:href="#DejaVuSans-30" x="95.410156"/>
      </g>
     </g>
    </g>
   </g>
   <g id="matplotlib.axis_2">
    <g id="ytick_1">
     <g id="line2d_13">
      <path d="M 57.6 307.584 
L 414.72 307.584 
" clip-path="url(#pfc283ec20a)" style="fill: none; stroke: #ffffff; stroke-linecap: round"/>
     </g>
    </g>
    <g id="ytick_2">
     <g id="line2d_14">
      <path d="M 57.6 263.426843 
L 414.72 263.426843 
" clip-path="url(#pfc283ec20a)" style="fill: none; stroke: #ffffff; stroke-linecap: round"/>
     </g>
    </g>
    <g id="ytick_3">
     <g id="line2d_15">
      <path d="M 57.6 219.269687 
L 414.72 219.269687 
" clip-path="url(#pfc283ec20a)" style="fill: none; stroke: #ffffff; stroke-linecap: round"/>
     </g>
    </g>
    <g id="ytick_4">
     <g id="line2d_16">
      <path d="M 57.6 175.11253 
L 414.72 175.11253 
" clip-path="url(#pfc283ec20a)" style="fill: none; stroke: #ffffff; stroke-linecap: round"/>
     </g>
    </g>
    <g id="ytick_5">
     <g id="line2d_17">
      <path d="M 57.6 130.955374 
L 414.72 130.955374 
" clip-path="url(#pfc283ec20a)" style="fill: none; stroke: #ffffff; stroke-linecap: round"/>
     </g>
    </g>
    <g id="ytick_6">
     <g id="line2d_18">
      <path d="M 57.6 86.798217 
L 414.72 86.798217 
" clip-path="url(#pfc283ec20a)" style="fill: none; stroke: #ffffff; stroke-linecap: round"/>
     </g>
    </g>
    <g id="ytick_7">
     <g id="line2d_19">
      <path d="M 57.6 42.641061 
L 414.72 42.641061 
" clip-path="url(#pfc283ec20a)" style="fill: none; stroke: #ffffff; stroke-linecap: round"/>
     </g>
    </g>
   </g>
   <g id="patch_3">
    <path d="M 59.575041 307.584 
L 64.909219 307.584 
L 64.909219 306.259285 
L 59.575041 306.259285 
z
" clip-path="url(#pfc283ec20a)" style="fill: #34ccff; stroke: #ffffff; stroke-linejoin: miter"/>
   </g>
   <g id="patch_4">
    <path d="M 64.909219 307.584 
L 70.243397 307.584 
L 70.243397 298.001897 
L 64.909219 298.001897 
z
" clip-path="url(#pfc283ec20a)" style="fill: #34ccff; stroke: #ffffff; stroke-linejoin: miter"/>
   </g>
   <g id="patch_5">
    <path d="M 70.243397 307.584 
L 75.577574 307.584 
L 75.577574 280.316956 
L 70.243397 280.316956 
z
" clip-path="url(#pfc283ec20a)" style="fill: #34ccff; stroke: #ffffff; stroke-linejoin: miter"/>
   </g>
   <g id="patch_6">
    <path d="M 75.577574 307.584 
L 80.911752 307.584 
L 80.911752 254.948669 
L 75.577574 254.948669 
z
" clip-path="url(#pfc283ec20a)" style="fill: #34ccff; stroke: #ffffff; stroke-linejoin: miter"/>
   </g>
   <g id="patch_7">
    <path d="M 80.911752 307.584 
L 86.245929 307.584 
L 86.245929 223.177595 
L 80.911752 223.177595 
z
" clip-path="url(#pfc283ec20a)" style="fill: #34ccff; stroke: #ffffff; stroke-linejoin: miter"/>
   </g>
   <g id="patch_8">
    <path d="M 86.245929 307.584 
L 91.580107 307.584 
L 91.580107 187.299906 
L 86.245929 187.299906 
z
" clip-path="url(#pfc283ec20a)" style="fill: #34ccff; stroke: #ffffff; stroke-linejoin: miter"/>
   </g>
   <g id="patch_9">
    <path d="M 91.580107 307.584 
L 96.914284 307.584 
L 96.914284 155.683381 
L 91.580107 155.683381 
z
" clip-path="url(#pfc283ec20a)" style="fill: #34ccff; stroke: #ffffff; stroke-linejoin: miter"/>
   </g>
   <g id="patch_10">
    <path d="M 96.914284 307.584 
L 102.248462 307.584 
L 102.248462 127.59943 
L 96.914284 127.59943 
z
" clip-path="url(#pfc283ec20a)" style="fill: #34ccff; stroke: #ffffff; stroke-linejoin: miter"/>
   </g>
   <g id="patch_11">
    <path d="M 102.248462 307.584 
L 107.582639 307.584 
L 107.582639 104.218216 
L 102.248462 104.218216 
z
" clip-path="url(#pfc283ec20a)" style="fill: #34ccff; stroke: #ffffff; stroke-linejoin: miter"/>
   </g>
   <g id="patch_12">
    <path d="M 107.582639 307.584 
L 112.916817 307.584 
L 112.916817 83.464352 
L 107.582639 83.464352 
z
" clip-path="url(#pfc283ec20a)" style="fill: #34ccff; stroke: #ffffff; stroke-linejoin: miter"/>
   </g>
   <g id="patch_13">
    <path d="M 112.916817 307.584 
L 118.250995 307.584 
L 118.250995 72.447141 
L 112.916817 72.447141 
z
" clip-path="url(#pfc283ec20a)" style="fill: #34ccff; stroke: #ffffff; stroke-linejoin: miter"/>
   </g>
   <g id="patch_14">
    <path d="M 118.250995 307.584 
L 123.585172 307.584 
L 123.585172 58.272694 
L 118.250995 58.272694 
z
" clip-path="url(#pfc283ec20a)" style="fill: #34ccff; stroke: #ffffff; stroke-linejoin: miter"/>
   </g>
   <g id="patch_15">
    <path d="M 123.585172 307.584 
L 128.91935 307.584 
L 128.91935 54.144 
L 123.585172 54.144 
z
" clip-path="url(#pfc283ec20a)" style="fill: #34ccff; stroke: #ffffff; stroke-linejoin: miter"/>
   </g>
   <g id="patch_16">
    <path d="M 128.91935 307.584 
L 134.253527 307.584 
L 134.253527 59.751959 
L 128.91935 59.751959 
z
" clip-path="url(#pfc283ec20a)" style="fill: #34ccff; stroke: #ffffff; stroke-linejoin: miter"/>
   </g>
   <g id="patch_17">
    <path d="M 134.253527 307.584 
L 139.587705 307.584 
L 139.587705 66.463847 
L 134.253527 66.463847 
z
" clip-path="url(#pfc283ec20a)" style="fill: #34ccff; stroke: #ffffff; stroke-linejoin: miter"/>
   </g>
   <g id="patch_18">
    <path d="M 139.587705 307.584 
L 144.921882 307.584 
L 144.921882 73.992642 
L 139.587705 73.992642 
z
" clip-path="url(#pfc283ec20a)" style="fill: #34ccff; stroke: #ffffff; stroke-linejoin: miter"/>
   </g>
   <g id="patch_19">
    <path d="M 144.921882 307.584 
L 150.25606 307.584 
L 150.25606 83.596823 
L 144.921882 83.596823 
z
" clip-path="url(#pfc283ec20a)" style="fill: #34ccff; stroke: #ffffff; stroke-linejoin: miter"/>
   </g>
   <g id="patch_20">
    <path d="M 150.25606 307.584 
L 155.590238 307.584 
L 155.590238 100.177836 
L 150.25606 100.177836 
z
" clip-path="url(#pfc283ec20a)" style="fill: #34ccff; stroke: #ffffff; stroke-linejoin: miter"/>
   </g>
   <g id="patch_21">
    <path d="M 155.590238 307.584 
L 160.924415 307.584 
L 160.924415 119.099177 
L 155.590238 119.099177 
z
" clip-path="url(#pfc283ec20a)" style="fill: #34ccff; stroke: #ffffff; stroke-linejoin: miter"/>
   </g>
   <g id="patch_22">
    <path d="M 160.924415 307.584 
L 166.258593 307.584 
L 166.258593 131.595653 
L 160.924415 131.595653 
z
" clip-path="url(#pfc283ec20a)" style="fill: #34ccff; stroke: #ffffff; stroke-linejoin: miter"/>
   </g>
   <g id="patch_23">
    <path d="M 166.258593 307.584 
L 171.59277 307.584 
L 171.59277 147.77925 
L 166.258593 147.77925 
z
" clip-path="url(#pfc283ec20a)" style="fill: #34ccff; stroke: #ffffff; stroke-linejoin: miter"/>
   </g>
   <g id="patch_24">
    <path d="M 171.59277 307.584 
L 176.926948 307.584 
L 176.926948 162.947234 
L 171.59277 162.947234 
z
" clip-path="url(#pfc283ec20a)" style="fill: #34ccff; stroke: #ffffff; stroke-linejoin: miter"/>
   </g>
   <g id="patch_25">
    <path d="M 176.926948 307.584 
L 182.261125 307.584 
L 182.261125 181.978968 
L 176.926948 181.978968 
z
" clip-path="url(#pfc283ec20a)" style="fill: #34ccff; stroke: #ffffff; stroke-linejoin: miter"/>
   </g>
   <g id="patch_26">
    <path d="M 182.261125 307.584 
L 187.595303 307.584 
L 187.595303 196.70538 
L 182.261125 196.70538 
z
" clip-path="url(#pfc283ec20a)" style="fill: #34ccff; stroke: #ffffff; stroke-linejoin: miter"/>
   </g>
   <g id="patch_27">
    <path d="M 187.595303 307.584 
L 192.92948 307.584 
L 192.92948 209.510955 
L 187.595303 209.510955 
z
" clip-path="url(#pfc283ec20a)" style="fill: #34ccff; stroke: #ffffff; stroke-linejoin: miter"/>
   </g>
   <g id="patch_28">
    <path d="M 192.92948 307.584 
L 198.263658 307.584 
L 198.263658 224.988039 
L 192.92948 224.988039 
z
" clip-path="url(#pfc283ec20a)" style="fill: #34ccff; stroke: #ffffff; stroke-linejoin: miter"/>
   </g>
   <g id="patch_29">
    <path d="M 198.263658 307.584 
L 203.597836 307.584 
L 203.597836 237.85985 
L 198.263658 237.85985 
z
" clip-path="url(#pfc283ec20a)" style="fill: #34ccff; stroke: #ffffff; stroke-linejoin: miter"/>
   </g>
   <g id="patch_30">
    <path d="M 203.597836 307.584 
L 208.932013 307.584 
L 208.932013 246.757517 
L 203.597836 246.757517 
z
" clip-path="url(#pfc283ec20a)" style="fill: #34ccff; stroke: #ffffff; stroke-linejoin: miter"/>
   </g>
   <g id="patch_31">
    <path d="M 208.932013 307.584 
L 214.266191 307.584 
L 214.266191 258.481242 
L 208.932013 258.481242 
z
" clip-path="url(#pfc283ec20a)" style="fill: #34ccff; stroke: #ffffff; stroke-linejoin: miter"/>
   </g>
   <g id="patch_32">
    <path d="M 214.266191 307.584 
L 219.600368 307.584 
L 219.600368 264.464537 
L 214.266191 264.464537 
z
" clip-path="url(#pfc283ec20a)" style="fill: #34ccff; stroke: #ffffff; stroke-linejoin: miter"/>
   </g>
   <g id="patch_33">
    <path d="M 219.600368 307.584 
L 224.934546 307.584 
L 224.934546 272.346589 
L 219.600368 272.346589 
z
" clip-path="url(#pfc283ec20a)" style="fill: #34ccff; stroke: #ffffff; stroke-linejoin: miter"/>
   </g>
   <g id="patch_34">
    <path d="M 224.934546 307.584 
L 230.268723 307.584 
L 230.268723 280.449427 
L 224.934546 280.449427 
z
" clip-path="url(#pfc283ec20a)" style="fill: #34ccff; stroke: #ffffff; stroke-linejoin: miter"/>
   </g>
   <g id="patch_35">
    <path d="M 230.268723 307.584 
L 235.602901 307.584 
L 235.602901 284.931379 
L 230.268723 284.931379 
z
" clip-path="url(#pfc283ec20a)" style="fill: #34ccff; stroke: #ffffff; stroke-linejoin: miter"/>
   </g>
   <g id="patch_36">
    <path d="M 235.602901 307.584 
L 240.937078 307.584 
L 240.937078 288.530187 
L 235.602901 288.530187 
z
" clip-path="url(#pfc283ec20a)" style="fill: #34ccff; stroke: #ffffff; stroke-linejoin: miter"/>
   </g>
   <g id="patch_37">
    <path d="M 240.937078 307.584 
L 246.271256 307.584 
L 246.271256 293.255003 
L 240.937078 293.255003 
z
" clip-path="url(#pfc283ec20a)" style="fill: #34ccff; stroke: #ffffff; stroke-linejoin: miter"/>
   </g>
   <g id="patch_38">
    <path d="M 246.271256 307.584 
L 251.605434 307.584 
L 251.605434 296.169375 
L 246.271256 296.169375 
z
" clip-path="url(#pfc283ec20a)" style="fill: #34ccff; stroke: #ffffff; stroke-linejoin: miter"/>
   </g>
   <g id="patch_39">
    <path d="M 251.605434 307.584 
L 256.939611 307.584 
L 256.939611 299.061669 
L 251.605434 299.061669 
z
" clip-path="url(#pfc283ec20a)" style="fill: #34ccff; stroke: #ffffff; stroke-linejoin: miter"/>
   </g>
   <g id="patch_40">
    <path d="M 256.939611 307.584 
L 262.273789 307.584 
L 262.273789 301.622784 
L 256.939611 301.622784 
z
" clip-path="url(#pfc283ec20a)" style="fill: #34ccff; stroke: #ffffff; stroke-linejoin: miter"/>
   </g>
   <g id="patch_41">
    <path d="M 262.273789 307.584 
L 267.607966 307.584 
L 267.607966 303.124127 
L 262.273789 303.124127 
z
" clip-path="url(#pfc283ec20a)" style="fill: #34ccff; stroke: #ffffff; stroke-linejoin: miter"/>
   </g>
   <g id="patch_42">
    <path d="M 267.607966 307.584 
L 272.942144 307.584 
L 272.942144 303.941035 
L 267.607966 303.941035 
z
" clip-path="url(#pfc283ec20a)" style="fill: #34ccff; stroke: #ffffff; stroke-linejoin: miter"/>
   </g>
   <g id="patch_43">
    <path d="M 272.942144 307.584 
L 278.276321 307.584 
L 278.276321 305.486535 
L 272.942144 305.486535 
z
" clip-path="url(#pfc283ec20a)" style="fill: #34ccff; stroke: #ffffff; stroke-linejoin: miter"/>
   </g>
   <g id="patch_44">
    <path d="M 278.276321 307.584 
L 283.610499 307.584 
L 283.610499 305.619007 
L 278.276321 305.619007 
z
" clip-path="url(#pfc283ec20a)" style="fill: #34ccff; stroke: #ffffff; stroke-linejoin: miter"/>
   </g>
   <g id="patch_45">
    <path d="M 283.610499 307.584 
L 288.944676 307.584 
L 288.944676 306.391757 
L 283.610499 306.391757 
z
" clip-path="url(#pfc283ec20a)" style="fill: #34ccff; stroke: #ffffff; stroke-linejoin: miter"/>
   </g>
   <g id="patch_46">
    <path d="M 288.944676 307.584 
L 294.278854 307.584 
L 294.278854 307.054114 
L 288.944676 307.054114 
z
" clip-path="url(#pfc283ec20a)" style="fill: #34ccff; stroke: #ffffff; stroke-linejoin: miter"/>
   </g>
   <g id="patch_47">
    <path d="M 294.278854 307.584 
L 299.613032 307.584 
L 299.613032 306.81125 
L 294.278854 306.81125 
z
" clip-path="url(#pfc283ec20a)" style="fill: #34ccff; stroke: #ffffff; stroke-linejoin: miter"/>
   </g>
   <g id="patch_48">
    <path d="M 299.613032 307.584 
L 304.947209 307.584 
L 304.947209 307.142428 
L 299.613032 307.142428 
z
" clip-path="url(#pfc283ec20a)" style="fill: #34ccff; stroke: #ffffff; stroke-linejoin: miter"/>
   </g>
   <g id="patch_49">
    <path d="M 304.947209 307.584 
L 310.281387 307.584 
L 310.281387 307.252821 
L 304.947209 307.252821 
z
" clip-path="url(#pfc283ec20a)" style="fill: #34ccff; stroke: #ffffff; stroke-linejoin: miter"/>
   </g>
   <g id="patch_50">
    <path d="M 310.281387 307.584 
L 315.615564 307.584 
L 315.615564 307.319057 
L 310.281387 307.319057 
z
" clip-path="url(#pfc283ec20a)" style="fill: #34ccff; stroke: #ffffff; stroke-linejoin: miter"/>
   </g>
   <g id="patch_51">
    <path d="M 315.615564 307.584 
L 320.949742 307.584 
L 320.949742 307.473607 
L 315.615564 307.473607 
z
" clip-path="url(#pfc283ec20a)" style="fill: #34ccff; stroke: #ffffff; stroke-linejoin: miter"/>
   </g>
   <g id="patch_52">
    <path d="M 320.949742 307.584 
L 326.283919 307.584 
L 326.283919 307.517764 
L 320.949742 307.517764 
z
" clip-path="url(#pfc283ec20a)" style="fill: #34ccff; stroke: #ffffff; stroke-linejoin: miter"/>
   </g>
   <g id="line2d_20">
    <path d="M 236.16 307.584 
L 236.16 41.472 
" clip-path="url(#pfc283ec20a)" style="fill: none; stroke: #ffad2f; stroke-width: 2; stroke-linecap: round"/>
   </g>
   <g id="patch_53">
    <path d="M 57.6 307.584 
L 57.6 41.472 
" style="fill: none; stroke: #ffffff; stroke-width: 1.25; stroke-linejoin: miter; stroke-linecap: square"/>
   </g>
   <g id="patch_54">
    <path d="M 414.72 307.584 
L 414.72 41.472 
" style="fill: none; stroke: #ffffff; stroke-width: 1.25; stroke-linejoin: miter; stroke-linecap: square"/>
   </g>
   <g id="patch_55">
    <path d="M 57.6 307.584 
L 414.72 307.584 
" style="fill: none; stroke: #ffffff; stroke-width: 1.25; stroke-linejoin: miter; stroke-linecap: square"/>
   </g>
   <g id="patch_56">
    <path d="M 57.6 41.472 
L 414.72 41.472 
" style="fill: none; stroke: #ffffff; stroke-width: 1.25; stroke-linejoin: miter; stroke-linecap: square"/>
   </g>
   <g id="text_7">
    <!--  -->
    <g style="fill: #262626" transform="translate(57.6 316.702125) scale(0.12 -0.12)"/>
    <!--  -->
    <g style="fill: #262626" transform="translate(57.6 330.1395) scale(0.12 -0.12)"/>
    <!-- p(('COPKMeans', 'NPUincr')) = 0.983 -->
    <g style="fill: #262626" transform="translate(57.6 343.576875) scale(0.12 -0.12)">
     <defs>
      <path id="DejaVuSans-70" d="M 1159 525 
L 1159 -1331 
L 581 -1331 
L 581 3500 
L 1159 3500 
L 1159 2969 
Q 1341 3281 1617 3432 
Q 1894 3584 2278 3584 
Q 2916 3584 3314 3078 
Q 3713 2572 3713 1747 
Q 3713 922 3314 415 
Q 2916 -91 2278 -91 
Q 1894 -91 1617 61 
Q 1341 213 1159 525 
z
M 3116 1747 
Q 3116 2381 2855 2742 
Q 2594 3103 2138 3103 
Q 1681 3103 1420 2742 
Q 1159 2381 1159 1747 
Q 1159 1113 1420 752 
Q 1681 391 2138 391 
Q 2594 391 2855 752 
Q 3116 1113 3116 1747 
z
" transform="scale(0.015625)"/>
      <path id="DejaVuSans-28" d="M 1984 4856 
Q 1566 4138 1362 3434 
Q 1159 2731 1159 2009 
Q 1159 1288 1364 580 
Q 1569 -128 1984 -844 
L 1484 -844 
Q 1016 -109 783 600 
Q 550 1309 550 2009 
Q 550 2706 781 3412 
Q 1013 4119 1484 4856 
L 1984 4856 
z
" transform="scale(0.015625)"/>
      <path id="DejaVuSans-27" d="M 1147 4666 
L 1147 2931 
L 616 2931 
L 616 4666 
L 1147 4666 
z
" transform="scale(0.015625)"/>
      <path id="DejaVuSans-43" d="M 4122 4306 
L 4122 3641 
Q 3803 3938 3442 4084 
Q 3081 4231 2675 4231 
Q 1875 4231 1450 3742 
Q 1025 3253 1025 2328 
Q 1025 1406 1450 917 
Q 1875 428 2675 428 
Q 3081 428 3442 575 
Q 3803 722 4122 1019 
L 4122 359 
Q 3791 134 3420 21 
Q 3050 -91 2638 -91 
Q 1578 -91 968 557 
Q 359 1206 359 2328 
Q 359 3453 968 4101 
Q 1578 4750 2638 4750 
Q 3056 4750 3426 4639 
Q 3797 4528 4122 4306 
z
" transform="scale(0.015625)"/>
      <path id="DejaVuSans-4f" d="M 2522 4238 
Q 1834 4238 1429 3725 
Q 1025 3213 1025 2328 
Q 1025 1447 1429 934 
Q 1834 422 2522 422 
Q 3209 422 3611 934 
Q 4013 1447 4013 2328 
Q 4013 3213 3611 3725 
Q 3209 4238 2522 4238 
z
M 2522 4750 
Q 3503 4750 4090 4092 
Q 4678 3434 4678 2328 
Q 4678 1225 4090 567 
Q 3503 -91 2522 -91 
Q 1538 -91 948 565 
Q 359 1222 359 2328 
Q 359 3434 948 4092 
Q 1538 4750 2522 4750 
z
" transform="scale(0.015625)"/>
      <path id="DejaVuSans-50" d="M 1259 4147 
L 1259 2394 
L 2053 2394 
Q 2494 2394 2734 2622 
Q 2975 2850 2975 3272 
Q 2975 3691 2734 3919 
Q 2494 4147 2053 4147 
L 1259 4147 
z
M 628 4666 
L 2053 4666 
Q 2838 4666 3239 4311 
Q 3641 3956 3641 3272 
Q 3641 2581 3239 2228 
Q 2838 1875 2053 1875 
L 1259 1875 
L 1259 0 
L 628 0 
L 628 4666 
z
" transform="scale(0.015625)"/>
      <path id="DejaVuSans-4b" d="M 628 4666 
L 1259 4666 
L 1259 2694 
L 3353 4666 
L 4166 4666 
L 1850 2491 
L 4331 0 
L 3500 0 
L 1259 2247 
L 1259 0 
L 628 0 
L 628 4666 
z
" transform="scale(0.015625)"/>
      <path id="DejaVuSans-4d" d="M 628 4666 
L 1569 4666 
L 2759 1491 
L 3956 4666 
L 4897 4666 
L 4897 0 
L 4281 0 
L 4281 4097 
L 3078 897 
L 2444 897 
L 1241 4097 
L 1241 0 
L 628 0 
L 628 4666 
z
" transform="scale(0.015625)"/>
      <path id="DejaVuSans-65" d="M 3597 1894 
L 3597 1613 
L 953 1613 
Q 991 1019 1311 708 
Q 1631 397 2203 397 
Q 2534 397 2845 478 
Q 3156 559 3463 722 
L 3463 178 
Q 3153 47 2828 -22 
Q 2503 -91 2169 -91 
Q 1331 -91 842 396 
Q 353 884 353 1716 
Q 353 2575 817 3079 
Q 1281 3584 2069 3584 
Q 2775 3584 3186 3129 
Q 3597 2675 3597 1894 
z
M 3022 2063 
Q 3016 2534 2758 2815 
Q 2500 3097 2075 3097 
Q 1594 3097 1305 2825 
Q 1016 2553 972 2059 
L 3022 2063 
z
" transform="scale(0.015625)"/>
      <path id="DejaVuSans-61" d="M 2194 1759 
Q 1497 1759 1228 1600 
Q 959 1441 959 1056 
Q 959 750 1161 570 
Q 1363 391 1709 391 
Q 2188 391 2477 730 
Q 2766 1069 2766 1631 
L 2766 1759 
L 2194 1759 
z
M 3341 1997 
L 3341 0 
L 2766 0 
L 2766 531 
Q 2569 213 2275 61 
Q 1981 -91 1556 -91 
Q 1019 -91 701 211 
Q 384 513 384 1019 
Q 384 1609 779 1909 
Q 1175 2209 1959 2209 
L 2766 2209 
L 2766 2266 
Q 2766 2663 2505 2880 
Q 2244 3097 1772 3097 
Q 1472 3097 1187 3025 
Q 903 2953 641 2809 
L 641 3341 
Q 956 3463 1253 3523 
Q 1550 3584 1831 3584 
Q 2591 3584 2966 3190 
Q 3341 2797 3341 1997 
z
" transform="scale(0.015625)"/>
      <path id="DejaVuSans-6e" d="M 3513 2113 
L 3513 0 
L 2938 0 
L 2938 2094 
Q 2938 2591 2744 2837 
Q 2550 3084 2163 3084 
Q 1697 3084 1428 2787 
Q 1159 2491 1159 1978 
L 1159 0 
L 581 0 
L 581 3500 
L 1159 3500 
L 1159 2956 
Q 1366 3272 1645 3428 
Q 1925 3584 2291 3584 
Q 2894 3584 3203 3211 
Q 3513 2838 3513 2113 
z
" transform="scale(0.015625)"/>
      <path id="DejaVuSans-73" d="M 2834 3397 
L 2834 2853 
Q 2591 2978 2328 3040 
Q 2066 3103 1784 3103 
Q 1356 3103 1142 2972 
Q 928 2841 928 2578 
Q 928 2378 1081 2264 
Q 1234 2150 1697 2047 
L 1894 2003 
Q 2506 1872 2764 1633 
Q 3022 1394 3022 966 
Q 3022 478 2636 193 
Q 2250 -91 1575 -91 
Q 1294 -91 989 -36 
Q 684 19 347 128 
L 347 722 
Q 666 556 975 473 
Q 1284 391 1588 391 
Q 1994 391 2212 530 
Q 2431 669 2431 922 
Q 2431 1156 2273 1281 
Q 2116 1406 1581 1522 
L 1381 1569 
Q 847 1681 609 1914 
Q 372 2147 372 2553 
Q 372 3047 722 3315 
Q 1072 3584 1716 3584 
Q 2034 3584 2315 3537 
Q 2597 3491 2834 3397 
z
" transform="scale(0.015625)"/>
      <path id="DejaVuSans-2c" d="M 750 794 
L 1409 794 
L 1409 256 
L 897 -744 
L 494 -744 
L 750 256 
L 750 794 
z
" transform="scale(0.015625)"/>
      <path id="DejaVuSans-20" transform="scale(0.015625)"/>
      <path id="DejaVuSans-4e" d="M 628 4666 
L 1478 4666 
L 3547 763 
L 3547 4666 
L 4159 4666 
L 4159 0 
L 3309 0 
L 1241 3903 
L 1241 0 
L 628 0 
L 628 4666 
z
" transform="scale(0.015625)"/>
      <path id="DejaVuSans-55" d="M 556 4666 
L 1191 4666 
L 1191 1831 
Q 1191 1081 1462 751 
Q 1734 422 2344 422 
Q 2950 422 3222 751 
Q 3494 1081 3494 1831 
L 3494 4666 
L 4128 4666 
L 4128 1753 
Q 4128 841 3676 375 
Q 3225 -91 2344 -91 
Q 1459 -91 1007 375 
Q 556 841 556 1753 
L 556 4666 
z
" transform="scale(0.015625)"/>
      <path id="DejaVuSans-69" d="M 603 3500 
L 1178 3500 
L 1178 0 
L 603 0 
L 603 3500 
z
M 603 4863 
L 1178 4863 
L 1178 4134 
L 603 4134 
L 603 4863 
z
" transform="scale(0.015625)"/>
      <path id="DejaVuSans-63" d="M 3122 3366 
L 3122 2828 
Q 2878 2963 2633 3030 
Q 2388 3097 2138 3097 
Q 1578 3097 1268 2742 
Q 959 2388 959 1747 
Q 959 1106 1268 751 
Q 1578 397 2138 397 
Q 2388 397 2633 464 
Q 2878 531 3122 666 
L 3122 134 
Q 2881 22 2623 -34 
Q 2366 -91 2075 -91 
Q 1284 -91 818 406 
Q 353 903 353 1747 
Q 353 2603 823 3093 
Q 1294 3584 2113 3584 
Q 2378 3584 2631 3529 
Q 2884 3475 3122 3366 
z
" transform="scale(0.015625)"/>
      <path id="DejaVuSans-72" d="M 2631 2963 
Q 2534 3019 2420 3045 
Q 2306 3072 2169 3072 
Q 1681 3072 1420 2755 
Q 1159 2438 1159 1844 
L 1159 0 
L 581 0 
L 581 3500 
L 1159 3500 
L 1159 2956 
Q 1341 3275 1631 3429 
Q 1922 3584 2338 3584 
Q 2397 3584 2469 3576 
Q 2541 3569 2628 3553 
L 2631 2963 
z
" transform="scale(0.015625)"/>
      <path id="DejaVuSans-29" d="M 513 4856 
L 1013 4856 
Q 1481 4119 1714 3412 
Q 1947 2706 1947 2009 
Q 1947 1309 1714 600 
Q 1481 -109 1013 -844 
L 513 -844 
Q 928 -128 1133 580 
Q 1338 1288 1338 2009 
Q 1338 2731 1133 3434 
Q 928 4138 513 4856 
z
" transform="scale(0.015625)"/>
      <path id="DejaVuSans-3d" d="M 678 2906 
L 4684 2906 
L 4684 2381 
L 678 2381 
L 678 2906 
z
M 678 1631 
L 4684 1631 
L 4684 1100 
L 678 1100 
L 678 1631 
z
" transform="scale(0.015625)"/>
      <path id="DejaVuSans-39" d="M 703 97 
L 703 672 
Q 941 559 1184 500 
Q 1428 441 1663 441 
Q 2288 441 2617 861 
Q 2947 1281 2994 2138 
Q 2813 1869 2534 1725 
Q 2256 1581 1919 1581 
Q 1219 1581 811 2004 
Q 403 2428 403 3163 
Q 403 3881 828 4315 
Q 1253 4750 1959 4750 
Q 2769 4750 3195 4129 
Q 3622 3509 3622 2328 
Q 3622 1225 3098 567 
Q 2575 -91 1691 -91 
Q 1453 -91 1209 -44 
Q 966 3 703 97 
z
M 1959 2075 
Q 2384 2075 2632 2365 
Q 2881 2656 2881 3163 
Q 2881 3666 2632 3958 
Q 2384 4250 1959 4250 
Q 1534 4250 1286 3958 
Q 1038 3666 1038 3163 
Q 1038 2656 1286 2365 
Q 1534 2075 1959 2075 
z
" transform="scale(0.015625)"/>
      <path id="DejaVuSans-33" d="M 2597 2516 
Q 3050 2419 3304 2112 
Q 3559 1806 3559 1356 
Q 3559 666 3084 287 
Q 2609 -91 1734 -91 
Q 1441 -91 1130 -33 
Q 819 25 488 141 
L 488 750 
Q 750 597 1062 519 
Q 1375 441 1716 441 
Q 2309 441 2620 675 
Q 2931 909 2931 1356 
Q 2931 1769 2642 2001 
Q 2353 2234 1838 2234 
L 1294 2234 
L 1294 2753 
L 1863 2753 
Q 2328 2753 2575 2939 
Q 2822 3125 2822 3475 
Q 2822 3834 2567 4026 
Q 2313 4219 1838 4219 
Q 1578 4219 1281 4162 
Q 984 4106 628 3988 
L 628 4550 
Q 988 4650 1302 4700 
Q 1616 4750 1894 4750 
Q 2613 4750 3031 4423 
Q 3450 4097 3450 3541 
Q 3450 3153 3228 2886 
Q 3006 2619 2597 2516 
z
" transform="scale(0.015625)"/>
     </defs>
     <use xlink:href="#DejaVuSans-70"/>
     <use xlink:href="#DejaVuSans-28" x="63.476562"/>
     <use xlink:href="#DejaVuSans-28" x="102.490234"/>
     <use xlink:href="#DejaVuSans-27" x="141.503906"/>
     <use xlink:href="#DejaVuSans-43" x="168.994141"/>
     <use xlink:href="#DejaVuSans-4f" x="238.818359"/>
     <use xlink:href="#DejaVuSans-50" x="317.529297"/>
     <use xlink:href="#DejaVuSans-4b" x="377.832031"/>
     <use xlink:href="#DejaVuSans-4d" x="443.408203"/>
     <use xlink:href="#DejaVuSans-65" x="529.6875"/>
     <use xlink:href="#DejaVuSans-61" x="591.210938"/>
     <use xlink:href="#DejaVuSans-6e" x="652.490234"/>
     <use xlink:href="#DejaVuSans-73" x="715.869141"/>
     <use xlink:href="#DejaVuSans-27" x="767.96875"/>
     <use xlink:href="#DejaVuSans-2c" x="795.458984"/>
     <use xlink:href="#DejaVuSans-20" x="827.246094"/>
     <use xlink:href="#DejaVuSans-27" x="859.033203"/>
     <use xlink:href="#DejaVuSans-4e" x="886.523438"/>
     <use xlink:href="#DejaVuSans-50" x="961.328125"/>
     <use xlink:href="#DejaVuSans-55" x="1021.630859"/>
     <use xlink:href="#DejaVuSans-69" x="1094.824219"/>
     <use xlink:href="#DejaVuSans-6e" x="1122.607422"/>
     <use xlink:href="#DejaVuSans-63" x="1185.986328"/>
     <use xlink:href="#DejaVuSans-72" x="1240.966797"/>
     <use xlink:href="#DejaVuSans-27" x="1282.080078"/>
     <use xlink:href="#DejaVuSans-29" x="1309.570312"/>
     <use xlink:href="#DejaVuSans-29" x="1348.583984"/>
     <use xlink:href="#DejaVuSans-20" x="1387.597656"/>
     <use xlink:href="#DejaVuSans-3d" x="1419.384766"/>
     <use xlink:href="#DejaVuSans-20" x="1503.173828"/>
     <use xlink:href="#DejaVuSans-30" x="1534.960938"/>
     <use xlink:href="#DejaVuSans-2e" x="1598.583984"/>
     <use xlink:href="#DejaVuSans-39" x="1630.371094"/>
     <use xlink:href="#DejaVuSans-38" x="1693.994141"/>
     <use xlink:href="#DejaVuSans-33" x="1757.617188"/>
    </g>
   </g>
   <g id="text_8">
    <!--  -->
    <g style="fill: #262626" transform="translate(414.72 316.702125) scale(0.12 -0.12)"/>
    <!--  -->
    <g style="fill: #262626" transform="translate(414.72 330.1395) scale(0.12 -0.12)"/>
    <!-- p(('MPCKMeans', 'Random')) = 0.017 -->
    <g style="fill: #262626" transform="translate(193.055625 343.576875) scale(0.12 -0.12)">
     <defs>
      <path id="DejaVuSans-52" d="M 2841 2188 
Q 3044 2119 3236 1894 
Q 3428 1669 3622 1275 
L 4263 0 
L 3584 0 
L 2988 1197 
Q 2756 1666 2539 1819 
Q 2322 1972 1947 1972 
L 1259 1972 
L 1259 0 
L 628 0 
L 628 4666 
L 2053 4666 
Q 2853 4666 3247 4331 
Q 3641 3997 3641 3322 
Q 3641 2881 3436 2590 
Q 3231 2300 2841 2188 
z
M 1259 4147 
L 1259 2491 
L 2053 2491 
Q 2509 2491 2742 2702 
Q 2975 2913 2975 3322 
Q 2975 3731 2742 3939 
Q 2509 4147 2053 4147 
L 1259 4147 
z
" transform="scale(0.015625)"/>
      <path id="DejaVuSans-64" d="M 2906 2969 
L 2906 4863 
L 3481 4863 
L 3481 0 
L 2906 0 
L 2906 525 
Q 2725 213 2448 61 
Q 2172 -91 1784 -91 
Q 1150 -91 751 415 
Q 353 922 353 1747 
Q 353 2572 751 3078 
Q 1150 3584 1784 3584 
Q 2172 3584 2448 3432 
Q 2725 3281 2906 2969 
z
M 947 1747 
Q 947 1113 1208 752 
Q 1469 391 1925 391 
Q 2381 391 2643 752 
Q 2906 1113 2906 1747 
Q 2906 2381 2643 2742 
Q 2381 3103 1925 3103 
Q 1469 3103 1208 2742 
Q 947 2381 947 1747 
z
" transform="scale(0.015625)"/>
      <path id="DejaVuSans-6f" d="M 1959 3097 
Q 1497 3097 1228 2736 
Q 959 2375 959 1747 
Q 959 1119 1226 758 
Q 1494 397 1959 397 
Q 2419 397 2687 759 
Q 2956 1122 2956 1747 
Q 2956 2369 2687 2733 
Q 2419 3097 1959 3097 
z
M 1959 3584 
Q 2709 3584 3137 3096 
Q 3566 2609 3566 1747 
Q 3566 888 3137 398 
Q 2709 -91 1959 -91 
Q 1206 -91 779 398 
Q 353 888 353 1747 
Q 353 2609 779 3096 
Q 1206 3584 1959 3584 
z
" transform="scale(0.015625)"/>
      <path id="DejaVuSans-6d" d="M 3328 2828 
Q 3544 3216 3844 3400 
Q 4144 3584 4550 3584 
Q 5097 3584 5394 3201 
Q 5691 2819 5691 2113 
L 5691 0 
L 5113 0 
L 5113 2094 
Q 5113 2597 4934 2840 
Q 4756 3084 4391 3084 
Q 3944 3084 3684 2787 
Q 3425 2491 3425 1978 
L 3425 0 
L 2847 0 
L 2847 2094 
Q 2847 2600 2669 2842 
Q 2491 3084 2119 3084 
Q 1678 3084 1418 2786 
Q 1159 2488 1159 1978 
L 1159 0 
L 581 0 
L 581 3500 
L 1159 3500 
L 1159 2956 
Q 1356 3278 1631 3431 
Q 1906 3584 2284 3584 
Q 2666 3584 2933 3390 
Q 3200 3197 3328 2828 
z
" transform="scale(0.015625)"/>
      <path id="DejaVuSans-37" d="M 525 4666 
L 3525 4666 
L 3525 4397 
L 1831 0 
L 1172 0 
L 2766 4134 
L 525 4134 
L 525 4666 
z
" transform="scale(0.015625)"/>
     </defs>
     <use xlink:href="#DejaVuSans-70"/>
     <use xlink:href="#DejaVuSans-28" x="63.476562"/>
     <use xlink:href="#DejaVuSans-28" x="102.490234"/>
     <use xlink:href="#DejaVuSans-27" x="141.503906"/>
     <use xlink:href="#DejaVuSans-4d" x="168.994141"/>
     <use xlink:href="#DejaVuSans-50" x="255.273438"/>
     <use xlink:href="#DejaVuSans-43" x="315.576172"/>
     <use xlink:href="#DejaVuSans-4b" x="385.400391"/>
     <use xlink:href="#DejaVuSans-4d" x="450.976562"/>
     <use xlink:href="#DejaVuSans-65" x="537.255859"/>
     <use xlink:href="#DejaVuSans-61" x="598.779297"/>
     <use xlink:href="#DejaVuSans-6e" x="660.058594"/>
     <use xlink:href="#DejaVuSans-73" x="723.4375"/>
     <use xlink:href="#DejaVuSans-27" x="775.537109"/>
     <use xlink:href="#DejaVuSans-2c" x="803.027344"/>
     <use xlink:href="#DejaVuSans-20" x="834.814453"/>
     <use xlink:href="#DejaVuSans-27" x="866.601562"/>
     <use xlink:href="#DejaVuSans-52" x="894.091797"/>
     <use xlink:href="#DejaVuSans-61" x="961.324219"/>
     <use xlink:href="#DejaVuSans-6e" x="1022.603516"/>
     <use xlink:href="#DejaVuSans-64" x="1085.982422"/>
     <use xlink:href="#DejaVuSans-6f" x="1149.458984"/>
     <use xlink:href="#DejaVuSans-6d" x="1210.640625"/>
     <use xlink:href="#DejaVuSans-27" x="1308.052734"/>
     <use xlink:href="#DejaVuSans-29" x="1335.542969"/>
     <use xlink:href="#DejaVuSans-29" x="1374.556641"/>
     <use xlink:href="#DejaVuSans-20" x="1413.570312"/>
     <use xlink:href="#DejaVuSans-3d" x="1445.357422"/>
     <use xlink:href="#DejaVuSans-20" x="1529.146484"/>
     <use xlink:href="#DejaVuSans-30" x="1560.933594"/>
     <use xlink:href="#DejaVuSans-2e" x="1624.556641"/>
     <use xlink:href="#DejaVuSans-30" x="1656.34375"/>
     <use xlink:href="#DejaVuSans-31" x="1719.966797"/>
     <use xlink:href="#DejaVuSans-37" x="1783.589844"/>
    </g>
   </g>
  </g>
 </g>
 <defs>
  <clipPath id="pfc283ec20a">
   <rect x="57.6" y="41.472" width="357.12" height="266.112"/>
  </clipPath>
 </defs>
</svg>
